G04 #@! TF.GenerationSoftware,KiCad,Pcbnew,(5.0.0)*
G04 #@! TF.CreationDate,2018-09-10T01:32:23-04:00*
G04 #@! TF.ProjectId,EEG_ADS1299,4545475F414453313239392E6B696361,rev?*
G04 #@! TF.SameCoordinates,Original*
G04 #@! TF.FileFunction,Copper,L1,Top,Signal*
G04 #@! TF.FilePolarity,Positive*
%FSLAX46Y46*%
G04 Gerber Fmt 4.6, Leading zero omitted, Abs format (unit mm)*
G04 Created by KiCad (PCBNEW (5.0.0)) date 09/10/18 01:32:23*
%MOMM*%
%LPD*%
G01*
G04 APERTURE LIST*
G04 #@! TA.AperFunction,SMDPad,CuDef*
%ADD10R,0.800000X0.800000*%
G04 #@! TD*
G04 #@! TA.AperFunction,ComponentPad*
%ADD11R,1.524000X1.524000*%
G04 #@! TD*
G04 #@! TA.AperFunction,ComponentPad*
%ADD12C,1.524000*%
G04 #@! TD*
G04 #@! TA.AperFunction,SMDPad,CuDef*
%ADD13R,0.398780X0.599440*%
G04 #@! TD*
G04 #@! TA.AperFunction,SMDPad,CuDef*
%ADD14R,0.599440X0.398780*%
G04 #@! TD*
G04 #@! TA.AperFunction,SMDPad,CuDef*
%ADD15R,0.600000X1.100000*%
G04 #@! TD*
G04 #@! TA.AperFunction,SMDPad,CuDef*
%ADD16R,1.500000X0.300000*%
G04 #@! TD*
G04 #@! TA.AperFunction,SMDPad,CuDef*
%ADD17R,0.300000X1.500000*%
G04 #@! TD*
G04 #@! TA.AperFunction,SMDPad,CuDef*
%ADD18R,1.143000X0.635000*%
G04 #@! TD*
G04 #@! TA.AperFunction,SMDPad,CuDef*
%ADD19R,0.200000X0.500000*%
G04 #@! TD*
G04 #@! TA.AperFunction,SMDPad,CuDef*
%ADD20R,0.200000X0.550000*%
G04 #@! TD*
G04 #@! TA.AperFunction,SMDPad,CuDef*
%ADD21R,0.500000X0.200000*%
G04 #@! TD*
G04 #@! TA.AperFunction,SMDPad,CuDef*
%ADD22R,0.550000X0.200000*%
G04 #@! TD*
G04 #@! TA.AperFunction,SMDPad,CuDef*
%ADD23R,0.700000X0.300000*%
G04 #@! TD*
G04 #@! TA.AperFunction,SMDPad,CuDef*
%ADD24R,0.600000X0.600000*%
G04 #@! TD*
G04 #@! TA.AperFunction,SMDPad,CuDef*
%ADD25R,0.650000X0.400000*%
G04 #@! TD*
G04 #@! TA.AperFunction,SMDPad,CuDef*
%ADD26R,0.635000X1.143000*%
G04 #@! TD*
G04 #@! TA.AperFunction,SMDPad,CuDef*
%ADD27R,0.900000X0.800000*%
G04 #@! TD*
G04 #@! TA.AperFunction,SMDPad,CuDef*
%ADD28R,0.800000X1.600000*%
G04 #@! TD*
G04 #@! TA.AperFunction,SMDPad,CuDef*
%ADD29R,0.200000X0.800000*%
G04 #@! TD*
G04 #@! TA.AperFunction,SMDPad,CuDef*
%ADD30R,0.800000X0.200000*%
G04 #@! TD*
G04 #@! TA.AperFunction,SMDPad,CuDef*
%ADD31R,1.112500X1.112500*%
G04 #@! TD*
G04 #@! TA.AperFunction,SMDPad,CuDef*
%ADD32R,0.650000X0.300000*%
G04 #@! TD*
G04 #@! TA.AperFunction,SMDPad,CuDef*
%ADD33R,0.775000X1.240000*%
G04 #@! TD*
G04 #@! TA.AperFunction,ComponentPad*
%ADD34R,1.700000X1.700000*%
G04 #@! TD*
G04 #@! TA.AperFunction,ComponentPad*
%ADD35O,1.700000X1.700000*%
G04 #@! TD*
G04 #@! TA.AperFunction,SMDPad,CuDef*
%ADD36R,0.400000X0.700000*%
G04 #@! TD*
G04 #@! TA.AperFunction,SMDPad,CuDef*
%ADD37R,0.400000X0.250000*%
G04 #@! TD*
G04 #@! TA.AperFunction,SMDPad,CuDef*
%ADD38R,0.875000X0.725000*%
G04 #@! TD*
G04 #@! TA.AperFunction,SMDPad,CuDef*
%ADD39R,0.750000X0.300000*%
G04 #@! TD*
G04 #@! TA.AperFunction,ViaPad*
%ADD40C,0.508000*%
G04 #@! TD*
G04 #@! TA.AperFunction,Conductor*
%ADD41C,0.152000*%
G04 #@! TD*
G04 #@! TA.AperFunction,Conductor*
%ADD42C,0.457200*%
G04 #@! TD*
G04 #@! TA.AperFunction,Conductor*
%ADD43C,0.229000*%
G04 #@! TD*
G04 #@! TA.AperFunction,Conductor*
%ADD44C,0.460000*%
G04 #@! TD*
G04 #@! TA.AperFunction,Conductor*
%ADD45C,0.152400*%
G04 #@! TD*
G04 #@! TA.AperFunction,Conductor*
%ADD46C,0.254000*%
G04 #@! TD*
G04 APERTURE END LIST*
D10*
G04 #@! TO.P,D4,1*
G04 #@! TO.N,Net-(D4-Pad1)*
X302130000Y-144080000D03*
G04 #@! TO.P,D4,2*
G04 #@! TO.N,DVDD*
X300530000Y-144080000D03*
G04 #@! TD*
D11*
G04 #@! TO.P,P1,1*
G04 #@! TO.N,/BATT_IN*
X309750000Y-144910000D03*
D12*
G04 #@! TO.P,P1,2*
G04 #@! TO.N,AVSS*
X309750000Y-142370000D03*
G04 #@! TD*
D10*
G04 #@! TO.P,D3,1*
G04 #@! TO.N,VCC*
X307640000Y-143690000D03*
G04 #@! TO.P,D3,2*
G04 #@! TO.N,5V_in_charge*
X307640000Y-145290000D03*
G04 #@! TD*
D13*
G04 #@! TO.P,R15,2*
G04 #@! TO.N,AVSS*
X305480840Y-145310000D03*
G04 #@! TO.P,R15,1*
G04 #@! TO.N,5V_in_charge*
X306380000Y-145310000D03*
G04 #@! TD*
D14*
G04 #@! TO.P,R14,1*
G04 #@! TO.N,Net-(R14-Pad1)*
X300970000Y-142729580D03*
G04 #@! TO.P,R14,2*
G04 #@! TO.N,AVSS*
X300970000Y-141830420D03*
G04 #@! TD*
G04 #@! TO.P,C40,2*
G04 #@! TO.N,AVSS*
X306450000Y-141370840D03*
G04 #@! TO.P,C40,1*
G04 #@! TO.N,/BATT_IN*
X306450000Y-142270000D03*
G04 #@! TD*
D13*
G04 #@! TO.P,C37,1*
G04 #@! TO.N,5V_in_charge*
X303620840Y-145320000D03*
G04 #@! TO.P,C37,2*
G04 #@! TO.N,AVSS*
X304520000Y-145320000D03*
G04 #@! TD*
D14*
G04 #@! TO.P,C41,2*
G04 #@! TO.N,AVSS*
X307670000Y-141360840D03*
G04 #@! TO.P,C41,1*
G04 #@! TO.N,VCC*
X307670000Y-142260000D03*
G04 #@! TD*
D11*
G04 #@! TO.P,P3,1*
G04 #@! TO.N,5V_in_charge*
X312550000Y-144910000D03*
D12*
G04 #@! TO.P,P3,2*
G04 #@! TO.N,AVSS*
X312550000Y-142370000D03*
G04 #@! TD*
G04 #@! TO.P,J2,2*
G04 #@! TO.N,/SRB1*
X307990000Y-138900000D03*
D11*
G04 #@! TO.P,J2,1*
G04 #@! TO.N,/BIAS_ELEC*
X310530000Y-138900000D03*
G04 #@! TD*
D13*
G04 #@! TO.P,R13,1*
G04 #@! TO.N,Net-(IC1-Pad13)*
X305150000Y-132130000D03*
G04 #@! TO.P,R13,2*
G04 #@! TO.N,Net-(J1-Pad4)*
X306049160Y-132130000D03*
G04 #@! TD*
D15*
G04 #@! TO.P,X2,1*
G04 #@! TO.N,Net-(C29-Pad1)*
X276850000Y-138850000D03*
G04 #@! TO.P,X2,2*
G04 #@! TO.N,Net-(C28-Pad1)*
X275450000Y-138850000D03*
G04 #@! TD*
D14*
G04 #@! TO.P,R10,1*
G04 #@! TO.N,/AIN_BAT_DIV_VOLTAGE*
X280240000Y-140650420D03*
G04 #@! TO.P,R10,2*
G04 #@! TO.N,/Vout*
X280240000Y-141549580D03*
G04 #@! TD*
D13*
G04 #@! TO.P,R9,1*
G04 #@! TO.N,AVSS*
X278959580Y-139100000D03*
G04 #@! TO.P,R9,2*
G04 #@! TO.N,/AIN_BAT_DIV_VOLTAGE*
X278060420Y-139100000D03*
G04 #@! TD*
D14*
G04 #@! TO.P,C39,1*
G04 #@! TO.N,VCC*
X276530000Y-143539580D03*
G04 #@! TO.P,C39,2*
G04 #@! TO.N,AVSS*
X276530000Y-142640420D03*
G04 #@! TD*
G04 #@! TO.P,C38,1*
G04 #@! TO.N,/Vout*
X283120000Y-142660420D03*
G04 #@! TO.P,C38,2*
G04 #@! TO.N,AVSS*
X283120000Y-143559580D03*
G04 #@! TD*
D13*
G04 #@! TO.P,R8,1*
G04 #@! TO.N,Net-(IC1-Pad12)*
X303200840Y-133390000D03*
G04 #@! TO.P,R8,2*
G04 #@! TO.N,Net-(J1-Pad5)*
X304100000Y-133390000D03*
G04 #@! TD*
G04 #@! TO.P,R7,1*
G04 #@! TO.N,Net-(IC1-Pad11)*
X305110000Y-134670000D03*
G04 #@! TO.P,R7,2*
G04 #@! TO.N,Net-(J1-Pad6)*
X306009160Y-134670000D03*
G04 #@! TD*
D16*
G04 #@! TO.P,IC1,1*
G04 #@! TO.N,AVDD*
X297700000Y-140650000D03*
G04 #@! TO.P,IC1,2*
X297700000Y-140150000D03*
G04 #@! TO.P,IC1,3*
X297700000Y-139650000D03*
G04 #@! TO.P,IC1,4*
X297700000Y-139150000D03*
G04 #@! TO.P,IC1,5*
X297700000Y-138650000D03*
G04 #@! TO.P,IC1,6*
X297700000Y-138150000D03*
G04 #@! TO.P,IC1,7*
X297700000Y-137650000D03*
G04 #@! TO.P,IC1,8*
X297700000Y-137150000D03*
G04 #@! TO.P,IC1,9*
G04 #@! TO.N,Net-(IC1-Pad9)*
X297700000Y-136650000D03*
G04 #@! TO.P,IC1,10*
G04 #@! TO.N,Net-(IC1-Pad10)*
X297700000Y-136150000D03*
G04 #@! TO.P,IC1,11*
G04 #@! TO.N,Net-(IC1-Pad11)*
X297700000Y-135650000D03*
G04 #@! TO.P,IC1,12*
G04 #@! TO.N,Net-(IC1-Pad12)*
X297700000Y-135150000D03*
G04 #@! TO.P,IC1,13*
G04 #@! TO.N,Net-(IC1-Pad13)*
X297700000Y-134650000D03*
G04 #@! TO.P,IC1,14*
G04 #@! TO.N,Net-(IC1-Pad14)*
X297700000Y-134150000D03*
G04 #@! TO.P,IC1,15*
G04 #@! TO.N,Net-(IC1-Pad15)*
X297700000Y-133650000D03*
G04 #@! TO.P,IC1,16*
G04 #@! TO.N,Net-(IC1-Pad16)*
X297700000Y-133150000D03*
D17*
G04 #@! TO.P,IC1,17*
G04 #@! TO.N,/SRB1*
X295750000Y-131200000D03*
G04 #@! TO.P,IC1,18*
G04 #@! TO.N,Net-(IC1-Pad18)*
X295250000Y-131200000D03*
G04 #@! TO.P,IC1,19*
G04 #@! TO.N,AVDD*
X294750000Y-131200000D03*
G04 #@! TO.P,IC1,20*
G04 #@! TO.N,AVSS*
X294250000Y-131200000D03*
G04 #@! TO.P,IC1,21*
G04 #@! TO.N,AVDD*
X293750000Y-131200000D03*
G04 #@! TO.P,IC1,22*
X293250000Y-131200000D03*
G04 #@! TO.P,IC1,23*
G04 #@! TO.N,AVSS*
X292750000Y-131200000D03*
G04 #@! TO.P,IC1,24*
G04 #@! TO.N,/VREFP*
X292250000Y-131200000D03*
G04 #@! TO.P,IC1,25*
G04 #@! TO.N,AVSS*
X291750000Y-131200000D03*
G04 #@! TO.P,IC1,26*
G04 #@! TO.N,/VCAP4*
X291250000Y-131200000D03*
G04 #@! TO.P,IC1,27*
G04 #@! TO.N,Net-(IC1-Pad27)*
X290750000Y-131200000D03*
G04 #@! TO.P,IC1,28*
G04 #@! TO.N,/VCAP1*
X290250000Y-131200000D03*
G04 #@! TO.P,IC1,29*
G04 #@! TO.N,Net-(IC1-Pad29)*
X289750000Y-131200000D03*
G04 #@! TO.P,IC1,30*
G04 #@! TO.N,/VCAP2*
X289250000Y-131200000D03*
G04 #@! TO.P,IC1,31*
G04 #@! TO.N,AVSS*
X288750000Y-131200000D03*
G04 #@! TO.P,IC1,32*
X288250000Y-131200000D03*
D16*
G04 #@! TO.P,IC1,33*
X286300000Y-133150000D03*
G04 #@! TO.P,IC1,34*
G04 #@! TO.N,/DIN*
X286300000Y-133650000D03*
G04 #@! TO.P,IC1,35*
G04 #@! TO.N,/~PWDN/RESET*
X286300000Y-134150000D03*
G04 #@! TO.P,IC1,36*
X286300000Y-134650000D03*
G04 #@! TO.P,IC1,37*
G04 #@! TO.N,Net-(IC1-Pad37)*
X286300000Y-135150000D03*
G04 #@! TO.P,IC1,38*
G04 #@! TO.N,AVSS*
X286300000Y-135650000D03*
G04 #@! TO.P,IC1,39*
G04 #@! TO.N,/SPI_~CS*
X286300000Y-136150000D03*
G04 #@! TO.P,IC1,40*
G04 #@! TO.N,/SPI_SCLK*
X286300000Y-136650000D03*
G04 #@! TO.P,IC1,41*
G04 #@! TO.N,AVSS*
X286300000Y-137150000D03*
G04 #@! TO.P,IC1,42*
X286300000Y-137650000D03*
G04 #@! TO.P,IC1,43*
G04 #@! TO.N,/DOUT*
X286300000Y-138150000D03*
G04 #@! TO.P,IC1,44*
G04 #@! TO.N,AVSS*
X286300000Y-138650000D03*
G04 #@! TO.P,IC1,45*
X286300000Y-139150000D03*
G04 #@! TO.P,IC1,46*
X286300000Y-139650000D03*
G04 #@! TO.P,IC1,47*
G04 #@! TO.N,/~DRDY*
X286300000Y-140150000D03*
G04 #@! TO.P,IC1,48*
G04 #@! TO.N,DVDD*
X286300000Y-140650000D03*
D17*
G04 #@! TO.P,IC1,49*
G04 #@! TO.N,AVSS*
X288250000Y-142600000D03*
G04 #@! TO.P,IC1,50*
G04 #@! TO.N,DVDD*
X288750000Y-142600000D03*
G04 #@! TO.P,IC1,51*
G04 #@! TO.N,AVSS*
X289250000Y-142600000D03*
G04 #@! TO.P,IC1,52*
G04 #@! TO.N,DVDD*
X289750000Y-142600000D03*
G04 #@! TO.P,IC1,53*
G04 #@! TO.N,AVSS*
X290250000Y-142600000D03*
G04 #@! TO.P,IC1,54*
G04 #@! TO.N,AVDD*
X290750000Y-142600000D03*
G04 #@! TO.P,IC1,55*
G04 #@! TO.N,/VCAP3*
X291250000Y-142600000D03*
G04 #@! TO.P,IC1,56*
G04 #@! TO.N,AVDD*
X291750000Y-142600000D03*
G04 #@! TO.P,IC1,57*
G04 #@! TO.N,AVSS*
X292250000Y-142600000D03*
G04 #@! TO.P,IC1,58*
X292750000Y-142600000D03*
G04 #@! TO.P,IC1,59*
G04 #@! TO.N,AVDD*
X293250000Y-142600000D03*
G04 #@! TO.P,IC1,60*
G04 #@! TO.N,Net-(IC1-Pad60)*
X293750000Y-142600000D03*
G04 #@! TO.P,IC1,61*
G04 #@! TO.N,Net-(C4-Pad2)*
X294250000Y-142600000D03*
G04 #@! TO.P,IC1,62*
G04 #@! TO.N,/BIAS_ELEC*
X294750000Y-142600000D03*
G04 #@! TO.P,IC1,63*
X295250000Y-142600000D03*
G04 #@! TO.P,IC1,64*
G04 #@! TO.N,Net-(IC1-Pad64)*
X295750000Y-142600000D03*
G04 #@! TD*
D18*
G04 #@! TO.P,L1,1*
G04 #@! TO.N,Net-(L1-Pad1)*
X276690000Y-145992000D03*
G04 #@! TO.P,L1,2*
G04 #@! TO.N,Net-(L1-Pad2)*
X276690000Y-144468000D03*
G04 #@! TD*
D14*
G04 #@! TO.P,C1,1*
G04 #@! TO.N,AVSS*
X283140000Y-144380420D03*
G04 #@! TO.P,C1,2*
G04 #@! TO.N,VCC*
X283140000Y-145279580D03*
G04 #@! TD*
G04 #@! TO.P,C21,1*
G04 #@! TO.N,AVSS*
X274070000Y-139049580D03*
G04 #@! TO.P,C21,2*
G04 #@! TO.N,DVDD*
X274070000Y-138150420D03*
G04 #@! TD*
D19*
G04 #@! TO.P,U4,1*
G04 #@! TO.N,Net-(U4-Pad1)*
X282140000Y-130350000D03*
D20*
G04 #@! TO.P,U4,2*
G04 #@! TO.N,Net-(U4-Pad2)*
X282540000Y-130350000D03*
G04 #@! TO.P,U4,3*
G04 #@! TO.N,Net-(U4-Pad3)*
X282940000Y-130350000D03*
G04 #@! TO.P,U4,4*
G04 #@! TO.N,Net-(U4-Pad4)*
X283340000Y-130350000D03*
G04 #@! TO.P,U4,5*
G04 #@! TO.N,Net-(U4-Pad5)*
X283740000Y-130350000D03*
D19*
G04 #@! TO.P,U4,6*
G04 #@! TO.N,Net-(U4-Pad6)*
X284140000Y-130350000D03*
D21*
G04 #@! TO.P,U4,7*
G04 #@! TO.N,Net-(U4-Pad7)*
X284640000Y-129850000D03*
D22*
G04 #@! TO.P,U4,8*
G04 #@! TO.N,Net-(U4-Pad8)*
X284640000Y-129450000D03*
G04 #@! TO.P,U4,9*
G04 #@! TO.N,AVSS*
X284640000Y-129050000D03*
G04 #@! TO.P,U4,10*
G04 #@! TO.N,Net-(C35-Pad1)*
X284640000Y-128650000D03*
G04 #@! TO.P,U4,11*
G04 #@! TO.N,Net-(U4-Pad11)*
X284640000Y-128250000D03*
D21*
G04 #@! TO.P,U4,12*
G04 #@! TO.N,AVSS*
X284640000Y-127850000D03*
D19*
G04 #@! TO.P,U4,13*
G04 #@! TO.N,DVDD*
X284140000Y-127350000D03*
D20*
G04 #@! TO.P,U4,14*
G04 #@! TO.N,Net-(U4-Pad14)*
X283740000Y-127350000D03*
G04 #@! TO.P,U4,15*
G04 #@! TO.N,Net-(U4-Pad15)*
X283340000Y-127350000D03*
G04 #@! TO.P,U4,16*
G04 #@! TO.N,Net-(U4-Pad16)*
X282940000Y-127350000D03*
G04 #@! TO.P,U4,17*
G04 #@! TO.N,Net-(U4-Pad17)*
X282540000Y-127350000D03*
D19*
G04 #@! TO.P,U4,18*
G04 #@! TO.N,AVSS*
X282140000Y-127350000D03*
D21*
G04 #@! TO.P,U4,19*
G04 #@! TO.N,Net-(U4-Pad19)*
X281640000Y-127850000D03*
D22*
G04 #@! TO.P,U4,20*
G04 #@! TO.N,Net-(U4-Pad20)*
X281640000Y-128250000D03*
G04 #@! TO.P,U4,21*
G04 #@! TO.N,Net-(U4-Pad21)*
X281640000Y-128650000D03*
G04 #@! TO.P,U4,22*
G04 #@! TO.N,Net-(U4-Pad22)*
X281640000Y-129050000D03*
G04 #@! TO.P,U4,23*
G04 #@! TO.N,/SCL*
X281640000Y-129450000D03*
D21*
G04 #@! TO.P,U4,24*
G04 #@! TO.N,/SDI*
X281640000Y-129850000D03*
G04 #@! TD*
D13*
G04 #@! TO.P,R12,1*
G04 #@! TO.N,DVDD*
X283199580Y-132210000D03*
G04 #@! TO.P,R12,2*
G04 #@! TO.N,/SDI*
X282300420Y-132210000D03*
G04 #@! TD*
G04 #@! TO.P,R11,1*
G04 #@! TO.N,DVDD*
X283719580Y-131270000D03*
G04 #@! TO.P,R11,2*
G04 #@! TO.N,/SCL*
X282820420Y-131270000D03*
G04 #@! TD*
G04 #@! TO.P,C36,1*
G04 #@! TO.N,DVDD*
X285650420Y-127360000D03*
G04 #@! TO.P,C36,2*
G04 #@! TO.N,AVSS*
X286549580Y-127360000D03*
G04 #@! TD*
D14*
G04 #@! TO.P,C35,1*
G04 #@! TO.N,Net-(C35-Pad1)*
X285780000Y-128730420D03*
G04 #@! TO.P,C35,2*
G04 #@! TO.N,AVSS*
X285780000Y-129629580D03*
G04 #@! TD*
D23*
G04 #@! TO.P,F1,1*
G04 #@! TO.N,AVSS*
X278326500Y-128500000D03*
D24*
G04 #@! TO.P,F1,2*
G04 #@! TO.N,Net-(F1-Pad2)*
X278000000Y-129112500D03*
G04 #@! TO.P,F1,4*
G04 #@! TO.N,/RF*
X278000000Y-127887500D03*
D23*
G04 #@! TO.P,F1,3*
G04 #@! TO.N,AVSS*
X277637500Y-128500000D03*
G04 #@! TD*
D13*
G04 #@! TO.P,C34,1*
G04 #@! TO.N,/DEC3*
X275729580Y-128620000D03*
G04 #@! TO.P,C34,2*
G04 #@! TO.N,AVSS*
X274830420Y-128620000D03*
G04 #@! TD*
G04 #@! TO.P,C33,1*
G04 #@! TO.N,AVSS*
X273150420Y-129450000D03*
G04 #@! TO.P,C33,2*
G04 #@! TO.N,DVDD*
X274049580Y-129450000D03*
G04 #@! TD*
D18*
G04 #@! TO.P,C15,1*
G04 #@! TO.N,/VCAP1*
X289100000Y-128512000D03*
G04 #@! TO.P,C15,2*
G04 #@! TO.N,AVSS*
X289100000Y-126988000D03*
G04 #@! TD*
D11*
G04 #@! TO.P,P2,1*
G04 #@! TO.N,/SWDCLK*
X280570000Y-126450000D03*
D12*
G04 #@! TO.P,P2,2*
G04 #@! TO.N,/SWDIO*
X278030000Y-126450000D03*
G04 #@! TD*
D14*
G04 #@! TO.P,C5,1*
G04 #@! TO.N,AVSS*
X297075000Y-128375420D03*
G04 #@! TO.P,C5,2*
G04 #@! TO.N,AVDD*
X297075000Y-129274580D03*
G04 #@! TD*
D13*
G04 #@! TO.P,C14,1*
G04 #@! TO.N,AVSS*
X288100420Y-144950000D03*
G04 #@! TO.P,C14,2*
G04 #@! TO.N,AVDD*
X288999580Y-144950000D03*
G04 #@! TD*
D10*
G04 #@! TO.P,D2,2*
G04 #@! TO.N,DVDD*
X284310000Y-139400000D03*
G04 #@! TO.P,D2,1*
G04 #@! TO.N,/LED3*
X282710000Y-139400000D03*
G04 #@! TD*
D13*
G04 #@! TO.P,C32,1*
G04 #@! TO.N,AVSS*
X288100420Y-146000000D03*
G04 #@! TO.P,C32,2*
G04 #@! TO.N,AVDD*
X288999580Y-146000000D03*
G04 #@! TD*
D25*
G04 #@! TO.P,U2,1*
G04 #@! TO.N,VCC*
X274262500Y-143537500D03*
G04 #@! TO.P,U2,3*
G04 #@! TO.N,AVSS*
X274262500Y-142237500D03*
G04 #@! TO.P,U2,5*
G04 #@! TO.N,Net-(L2-Pad1)*
X272362500Y-142887500D03*
G04 #@! TO.P,U2,2*
G04 #@! TO.N,AVDD*
X274262500Y-142887500D03*
G04 #@! TO.P,U2,4*
X272362500Y-142237500D03*
G04 #@! TO.P,U2,6*
G04 #@! TO.N,VCC*
X272362500Y-143537500D03*
G04 #@! TD*
D14*
G04 #@! TO.P,C12,1*
G04 #@! TO.N,/VCAP4*
X290800000Y-127849580D03*
G04 #@! TO.P,C12,2*
G04 #@! TO.N,AVSS*
X290800000Y-126950420D03*
G04 #@! TD*
G04 #@! TO.P,C31,1*
G04 #@! TO.N,AVSS*
X296025000Y-128375420D03*
G04 #@! TO.P,C31,2*
G04 #@! TO.N,AVDD*
X296025000Y-129274580D03*
G04 #@! TD*
D13*
G04 #@! TO.P,C19,1*
G04 #@! TO.N,DVDD*
X284950420Y-142675000D03*
G04 #@! TO.P,C19,2*
G04 #@! TO.N,AVSS*
X285849580Y-142675000D03*
G04 #@! TD*
G04 #@! TO.P,R5,1*
G04 #@! TO.N,Net-(IC1-Pad14)*
X303230840Y-130920000D03*
G04 #@! TO.P,R5,2*
G04 #@! TO.N,Net-(J1-Pad3)*
X304130000Y-130920000D03*
G04 #@! TD*
G04 #@! TO.P,C20,1*
G04 #@! TO.N,AVSS*
X285849580Y-143750000D03*
G04 #@! TO.P,C20,2*
G04 #@! TO.N,DVDD*
X284950420Y-143750000D03*
G04 #@! TD*
G04 #@! TO.P,C18,1*
G04 #@! TO.N,/VCAP3*
X291500420Y-145850000D03*
G04 #@! TO.P,C18,2*
G04 #@! TO.N,AVSS*
X292399580Y-145850000D03*
G04 #@! TD*
G04 #@! TO.P,C16,1*
G04 #@! TO.N,/VCAP3*
X291500420Y-144725000D03*
G04 #@! TO.P,C16,2*
G04 #@! TO.N,AVSS*
X292399580Y-144725000D03*
G04 #@! TD*
G04 #@! TO.P,C9,1*
G04 #@! TO.N,AVDD*
X294749580Y-145900000D03*
G04 #@! TO.P,C9,2*
G04 #@! TO.N,AVSS*
X293850420Y-145900000D03*
G04 #@! TD*
D14*
G04 #@! TO.P,C17,1*
G04 #@! TO.N,/VCAP2*
X286975000Y-129775420D03*
G04 #@! TO.P,C17,2*
G04 #@! TO.N,AVSS*
X286975000Y-130674580D03*
G04 #@! TD*
D13*
G04 #@! TO.P,C8,1*
G04 #@! TO.N,AVDD*
X294749580Y-144725000D03*
G04 #@! TO.P,C8,2*
G04 #@! TO.N,AVSS*
X293850420Y-144725000D03*
G04 #@! TD*
D14*
G04 #@! TO.P,C11,1*
G04 #@! TO.N,AVSS*
X293775000Y-126950420D03*
G04 #@! TO.P,C11,2*
G04 #@! TO.N,/VREFP*
X293775000Y-127849580D03*
G04 #@! TD*
G04 #@! TO.P,C7,1*
G04 #@! TO.N,AVSS*
X299700000Y-129530420D03*
G04 #@! TO.P,C7,2*
G04 #@! TO.N,AVDD*
X299700000Y-130429580D03*
G04 #@! TD*
G04 #@! TO.P,C6,1*
G04 #@! TO.N,AVSS*
X298475000Y-129530420D03*
G04 #@! TO.P,C6,2*
G04 #@! TO.N,AVDD*
X298475000Y-130429580D03*
G04 #@! TD*
D18*
G04 #@! TO.P,C10,1*
G04 #@! TO.N,AVSS*
X292275000Y-126963000D03*
G04 #@! TO.P,C10,2*
G04 #@! TO.N,/VREFP*
X292275000Y-128487000D03*
G04 #@! TD*
G04 #@! TO.P,L2,1*
G04 #@! TO.N,Net-(L2-Pad1)*
X270712500Y-141925500D03*
G04 #@! TO.P,L2,2*
G04 #@! TO.N,VCC*
X270712500Y-143449500D03*
G04 #@! TD*
D13*
G04 #@! TO.P,C13,1*
G04 #@! TO.N,AVDD*
X272762920Y-141287500D03*
G04 #@! TO.P,C13,2*
G04 #@! TO.N,AVSS*
X273662080Y-141287500D03*
G04 #@! TD*
D14*
G04 #@! TO.P,C3,1*
G04 #@! TO.N,VCC*
X275362500Y-143537080D03*
G04 #@! TO.P,C3,2*
G04 #@! TO.N,AVSS*
X275362500Y-142637920D03*
G04 #@! TD*
D13*
G04 #@! TO.P,C2,1*
G04 #@! TO.N,DVDD*
X278610420Y-142930000D03*
G04 #@! TO.P,C2,2*
G04 #@! TO.N,AVSS*
X279509580Y-142930000D03*
G04 #@! TD*
D14*
G04 #@! TO.P,C4,1*
G04 #@! TO.N,/BIAS_ELEC*
X303810000Y-138860000D03*
G04 #@! TO.P,C4,2*
G04 #@! TO.N,Net-(C4-Pad2)*
X303810000Y-139759160D03*
G04 #@! TD*
G04 #@! TO.P,R6,1*
G04 #@! TO.N,/BIAS_ELEC*
X302600000Y-138880000D03*
G04 #@! TO.P,R6,2*
G04 #@! TO.N,Net-(C4-Pad2)*
X302600000Y-139779160D03*
G04 #@! TD*
D13*
G04 #@! TO.P,R4,1*
G04 #@! TO.N,Net-(IC1-Pad15)*
X304890000Y-129590000D03*
G04 #@! TO.P,R4,2*
G04 #@! TO.N,Net-(J1-Pad2)*
X305789160Y-129590000D03*
G04 #@! TD*
G04 #@! TO.P,R3,1*
G04 #@! TO.N,Net-(IC1-Pad16)*
X303260000Y-128470000D03*
G04 #@! TO.P,R3,2*
G04 #@! TO.N,Net-(J1-Pad1)*
X304159160Y-128470000D03*
G04 #@! TD*
G04 #@! TO.P,R2,1*
G04 #@! TO.N,Net-(IC1-Pad10)*
X303170420Y-135830000D03*
G04 #@! TO.P,R2,2*
G04 #@! TO.N,Net-(J1-Pad7)*
X304069580Y-135830000D03*
G04 #@! TD*
G04 #@! TO.P,R1,1*
G04 #@! TO.N,Net-(IC1-Pad9)*
X305110420Y-137250000D03*
G04 #@! TO.P,R1,2*
G04 #@! TO.N,Net-(J1-Pad8)*
X306009580Y-137250000D03*
G04 #@! TD*
D10*
G04 #@! TO.P,D1,2*
G04 #@! TO.N,DVDD*
X284310000Y-140650000D03*
G04 #@! TO.P,D1,1*
G04 #@! TO.N,/LED2*
X282710000Y-140650000D03*
G04 #@! TD*
D26*
G04 #@! TO.P,L4,1*
G04 #@! TO.N,Net-(L4-Pad1)*
X272932000Y-138620000D03*
G04 #@! TO.P,L4,2*
G04 #@! TO.N,Net-(L3-Pad1)*
X271408000Y-138620000D03*
G04 #@! TD*
D27*
G04 #@! TO.P,X1,4*
G04 #@! TO.N,AVSS*
X270800000Y-133500000D03*
G04 #@! TO.P,X1,3*
G04 #@! TO.N,Net-(C25-Pad2)*
X272200000Y-133500000D03*
G04 #@! TO.P,X1,1*
G04 #@! TO.N,Net-(C24-Pad2)*
X270800000Y-134600000D03*
G04 #@! TO.P,X1,2*
G04 #@! TO.N,AVSS*
X272200000Y-134600000D03*
G04 #@! TD*
D14*
G04 #@! TO.P,C28,1*
G04 #@! TO.N,Net-(C28-Pad1)*
X274890000Y-140390420D03*
G04 #@! TO.P,C28,2*
G04 #@! TO.N,AVSS*
X274890000Y-141289580D03*
G04 #@! TD*
D13*
G04 #@! TO.P,C26,1*
G04 #@! TO.N,/DEC1*
X273649580Y-140200000D03*
G04 #@! TO.P,C26,2*
G04 #@! TO.N,AVSS*
X272750420Y-140200000D03*
G04 #@! TD*
D14*
G04 #@! TO.P,C24,1*
G04 #@! TO.N,AVSS*
X269800000Y-133750420D03*
G04 #@! TO.P,C24,2*
G04 #@! TO.N,Net-(C24-Pad2)*
X269800000Y-134649580D03*
G04 #@! TD*
G04 #@! TO.P,C25,1*
G04 #@! TO.N,AVSS*
X273200000Y-134549580D03*
G04 #@! TO.P,C25,2*
G04 #@! TO.N,Net-(C25-Pad2)*
X273200000Y-133650420D03*
G04 #@! TD*
D13*
G04 #@! TO.P,C27,1*
G04 #@! TO.N,/DEC2*
X276899580Y-129450000D03*
G04 #@! TO.P,C27,2*
G04 #@! TO.N,AVSS*
X276000420Y-129450000D03*
G04 #@! TD*
D14*
G04 #@! TO.P,C29,1*
G04 #@! TO.N,Net-(C29-Pad1)*
X275910000Y-140390420D03*
G04 #@! TO.P,C29,2*
G04 #@! TO.N,AVSS*
X275910000Y-141289580D03*
G04 #@! TD*
D28*
G04 #@! TO.P,A1,1*
G04 #@! TO.N,Net-(A1-Pad1)*
X270745000Y-127673000D03*
G04 #@! TO.P,A1,2*
G04 #@! TO.N,Net-(A1-Pad2)*
X267345000Y-127673000D03*
G04 #@! TD*
D13*
G04 #@! TO.P,L6,1*
G04 #@! TO.N,Net-(C30-Pad2)*
X272849580Y-127700000D03*
G04 #@! TO.P,L6,2*
G04 #@! TO.N,Net-(A1-Pad1)*
X271950420Y-127700000D03*
G04 #@! TD*
D14*
G04 #@! TO.P,L5,1*
G04 #@! TO.N,Net-(C30-Pad2)*
X274000000Y-127650420D03*
G04 #@! TO.P,L5,2*
G04 #@! TO.N,AVSS*
X274000000Y-128549580D03*
G04 #@! TD*
D13*
G04 #@! TO.P,C30,1*
G04 #@! TO.N,/RF*
X276049580Y-127700000D03*
G04 #@! TO.P,C30,2*
G04 #@! TO.N,Net-(C30-Pad2)*
X275150420Y-127700000D03*
G04 #@! TD*
G04 #@! TO.P,L3,1*
G04 #@! TO.N,Net-(L3-Pad1)*
X271730420Y-137270000D03*
G04 #@! TO.P,L3,2*
G04 #@! TO.N,Net-(C23-Pad1)*
X272629580Y-137270000D03*
G04 #@! TD*
D26*
G04 #@! TO.P,C23,1*
G04 #@! TO.N,Net-(C23-Pad1)*
X273262000Y-136000000D03*
G04 #@! TO.P,C23,2*
G04 #@! TO.N,AVSS*
X271738000Y-136000000D03*
G04 #@! TD*
G04 #@! TO.P,C22,1*
G04 #@! TO.N,DVDD*
X281028000Y-138030000D03*
G04 #@! TO.P,C22,2*
G04 #@! TO.N,AVSS*
X282552000Y-138030000D03*
G04 #@! TD*
D29*
G04 #@! TO.P,U3,1*
G04 #@! TO.N,/DEC1*
X275600000Y-137000000D03*
G04 #@! TO.P,U3,2*
G04 #@! TO.N,Net-(C28-Pad1)*
X276000000Y-137000000D03*
G04 #@! TO.P,U3,3*
G04 #@! TO.N,Net-(C29-Pad1)*
X276400000Y-137000000D03*
G04 #@! TO.P,U3,4*
G04 #@! TO.N,Net-(U3-Pad4)*
X276800000Y-137000000D03*
G04 #@! TO.P,U3,5*
G04 #@! TO.N,Net-(U3-Pad5)*
X277200000Y-137000000D03*
G04 #@! TO.P,U3,6*
G04 #@! TO.N,/LOAD_SW_CTRL*
X277600000Y-137000000D03*
G04 #@! TO.P,U3,7*
G04 #@! TO.N,/AIN_BAT_DIV_VOLTAGE*
X278000000Y-137000000D03*
G04 #@! TO.P,U3,8*
G04 #@! TO.N,/LED2*
X278400000Y-137000000D03*
G04 #@! TO.P,U3,9*
G04 #@! TO.N,/LED3*
X278800000Y-137000000D03*
G04 #@! TO.P,U3,10*
G04 #@! TO.N,Net-(U3-Pad10)*
X279200000Y-137000000D03*
G04 #@! TO.P,U3,11*
G04 #@! TO.N,Net-(U3-Pad11)*
X279600000Y-137000000D03*
G04 #@! TO.P,U3,12*
G04 #@! TO.N,Net-(U3-Pad12)*
X280000000Y-137000000D03*
D30*
G04 #@! TO.P,U3,13*
G04 #@! TO.N,DVDD*
X280800000Y-136200000D03*
G04 #@! TO.P,U3,14*
G04 #@! TO.N,/~DRDY*
X280800000Y-135800000D03*
G04 #@! TO.P,U3,15*
G04 #@! TO.N,/DOUT*
X280800000Y-135400000D03*
G04 #@! TO.P,U3,16*
G04 #@! TO.N,/SPI_SCLK*
X280800000Y-135000000D03*
G04 #@! TO.P,U3,17*
G04 #@! TO.N,/SPI_~CS*
X280800000Y-134600000D03*
G04 #@! TO.P,U3,18*
G04 #@! TO.N,/~PWDN/RESET*
X280800000Y-134200000D03*
G04 #@! TO.P,U3,19*
G04 #@! TO.N,/DIN*
X280800000Y-133800000D03*
G04 #@! TO.P,U3,20*
G04 #@! TO.N,Net-(U3-Pad20)*
X280800000Y-133400000D03*
G04 #@! TO.P,U3,21*
G04 #@! TO.N,Net-(U3-Pad21)*
X280800000Y-133000000D03*
G04 #@! TO.P,U3,22*
G04 #@! TO.N,Net-(U3-Pad22)*
X280800000Y-132600000D03*
G04 #@! TO.P,U3,23*
G04 #@! TO.N,/SDI*
X280800000Y-132200000D03*
G04 #@! TO.P,U3,24*
G04 #@! TO.N,/SCL*
X280800000Y-131800000D03*
D29*
G04 #@! TO.P,U3,25*
G04 #@! TO.N,/SWDCLK*
X280000000Y-131000000D03*
G04 #@! TO.P,U3,26*
G04 #@! TO.N,/SWDIO*
X279600000Y-131000000D03*
G04 #@! TO.P,U3,27*
G04 #@! TO.N,Net-(U3-Pad27)*
X279200000Y-131000000D03*
G04 #@! TO.P,U3,28*
G04 #@! TO.N,Net-(U3-Pad28)*
X278800000Y-131000000D03*
G04 #@! TO.P,U3,29*
G04 #@! TO.N,Net-(U3-Pad29)*
X278400000Y-131000000D03*
G04 #@! TO.P,U3,30*
G04 #@! TO.N,Net-(F1-Pad2)*
X278000000Y-131000000D03*
G04 #@! TO.P,U3,31*
G04 #@! TO.N,AVSS*
X277600000Y-131000000D03*
G04 #@! TO.P,U3,32*
G04 #@! TO.N,/DEC2*
X277200000Y-131000000D03*
G04 #@! TO.P,U3,33*
G04 #@! TO.N,/DEC3*
X276800000Y-131000000D03*
G04 #@! TO.P,U3,34*
G04 #@! TO.N,Net-(C24-Pad2)*
X276400000Y-131000000D03*
G04 #@! TO.P,U3,35*
G04 #@! TO.N,Net-(C25-Pad2)*
X276000000Y-131000000D03*
G04 #@! TO.P,U3,36*
G04 #@! TO.N,DVDD*
X275600000Y-131000000D03*
D30*
G04 #@! TO.P,U3,37*
G04 #@! TO.N,Net-(U3-Pad37)*
X274800000Y-131800000D03*
G04 #@! TO.P,U3,38*
G04 #@! TO.N,Net-(U3-Pad38)*
X274800000Y-132200000D03*
G04 #@! TO.P,U3,39*
G04 #@! TO.N,Net-(U3-Pad39)*
X274800000Y-132600000D03*
G04 #@! TO.P,U3,40*
G04 #@! TO.N,Net-(U3-Pad40)*
X274800000Y-133000000D03*
G04 #@! TO.P,U3,41*
G04 #@! TO.N,Net-(U3-Pad41)*
X274800000Y-133400000D03*
G04 #@! TO.P,U3,42*
G04 #@! TO.N,Net-(U3-Pad42)*
X274800000Y-133800000D03*
G04 #@! TO.P,U3,43*
G04 #@! TO.N,Net-(U3-Pad43)*
X274800000Y-134200000D03*
G04 #@! TO.P,U3,44*
G04 #@! TO.N,Net-(U3-Pad44)*
X274800000Y-134600000D03*
G04 #@! TO.P,U3,45*
G04 #@! TO.N,AVSS*
X274800000Y-135000000D03*
G04 #@! TO.P,U3,46*
G04 #@! TO.N,Net-(C23-Pad1)*
X274800000Y-135400000D03*
G04 #@! TO.P,U3,47*
G04 #@! TO.N,Net-(L4-Pad1)*
X274800000Y-135800000D03*
G04 #@! TO.P,U3,48*
G04 #@! TO.N,DVDD*
X274800000Y-136200000D03*
D31*
G04 #@! TO.P,U3,49*
G04 #@! TO.N,AVSS*
X279468750Y-132331250D03*
X278356250Y-132331250D03*
X277243750Y-132331250D03*
X276131250Y-132331250D03*
X279468750Y-133443750D03*
X278356250Y-133443750D03*
X277243750Y-133443750D03*
X276131250Y-133443750D03*
X279468750Y-134556250D03*
X278356250Y-134556250D03*
X277243750Y-134556250D03*
X276131250Y-134556250D03*
X279468750Y-135668750D03*
X278356250Y-135668750D03*
X277243750Y-135668750D03*
X276131250Y-135668750D03*
G04 #@! TD*
D32*
G04 #@! TO.P,U7,1*
G04 #@! TO.N,DVDD*
X278410000Y-144120000D03*
G04 #@! TO.P,U7,2*
G04 #@! TO.N,Net-(L1-Pad2)*
X278410000Y-144620000D03*
G04 #@! TO.P,U7,3*
G04 #@! TO.N,AVSS*
X278410000Y-145120000D03*
G04 #@! TO.P,U7,4*
G04 #@! TO.N,Net-(L1-Pad1)*
X278410000Y-145620000D03*
G04 #@! TO.P,U7,5*
G04 #@! TO.N,VCC*
X278410000Y-146120000D03*
G04 #@! TO.P,U7,6*
X281510000Y-146120000D03*
G04 #@! TO.P,U7,7*
X281510000Y-145620000D03*
G04 #@! TO.P,U7,8*
X281510000Y-145120000D03*
G04 #@! TO.P,U7,9*
G04 #@! TO.N,AVSS*
X281510000Y-144620000D03*
G04 #@! TO.P,U7,10*
G04 #@! TO.N,DVDD*
X281510000Y-144120000D03*
D33*
G04 #@! TO.P,U7,11*
G04 #@! TO.N,AVSS*
X280347500Y-145740000D03*
X280347500Y-144500000D03*
X279572500Y-145740000D03*
X279572500Y-144500000D03*
G04 #@! TD*
D25*
G04 #@! TO.P,U1,1*
G04 #@! TO.N,/Vout*
X279010000Y-141550000D03*
G04 #@! TO.P,U1,3*
G04 #@! TO.N,Net-(U1-Pad3)*
X279010000Y-140250000D03*
G04 #@! TO.P,U1,2*
G04 #@! TO.N,AVSS*
X279010000Y-140900000D03*
G04 #@! TO.P,U1,4*
G04 #@! TO.N,/LOAD_SW_CTRL*
X277110000Y-140250000D03*
G04 #@! TO.P,U1,5*
G04 #@! TO.N,VCC*
X277110000Y-141550000D03*
G04 #@! TD*
D34*
G04 #@! TO.P,J1,1*
G04 #@! TO.N,Net-(J1-Pad1)*
X308040000Y-128540000D03*
D35*
G04 #@! TO.P,J1,2*
G04 #@! TO.N,Net-(J1-Pad2)*
X310580000Y-128540000D03*
G04 #@! TO.P,J1,3*
G04 #@! TO.N,Net-(J1-Pad3)*
X308040000Y-131080000D03*
G04 #@! TO.P,J1,4*
G04 #@! TO.N,Net-(J1-Pad4)*
X310580000Y-131080000D03*
G04 #@! TO.P,J1,5*
G04 #@! TO.N,Net-(J1-Pad5)*
X308040000Y-133620000D03*
G04 #@! TO.P,J1,6*
G04 #@! TO.N,Net-(J1-Pad6)*
X310580000Y-133620000D03*
G04 #@! TO.P,J1,7*
G04 #@! TO.N,Net-(J1-Pad7)*
X308040000Y-136160000D03*
G04 #@! TO.P,J1,8*
G04 #@! TO.N,Net-(J1-Pad8)*
X310580000Y-136160000D03*
G04 #@! TD*
D36*
G04 #@! TO.P,Q1,2*
G04 #@! TO.N,/BATT_IN*
X305730000Y-143830000D03*
D37*
G04 #@! TO.P,Q1,1*
G04 #@! TO.N,5V_in_charge*
X306430000Y-144055000D03*
G04 #@! TO.P,Q1,3*
G04 #@! TO.N,VCC*
X306430000Y-143605000D03*
G04 #@! TD*
D38*
G04 #@! TO.P,U5,9*
G04 #@! TO.N,AVSS*
X304037500Y-142362500D03*
X304037500Y-141637500D03*
X303162500Y-142362500D03*
X303162500Y-141637500D03*
D39*
G04 #@! TO.P,U5,8*
G04 #@! TO.N,Net-(R14-Pad1)*
X302150000Y-142750000D03*
G04 #@! TO.P,U5,7*
G04 #@! TO.N,Net-(U5-Pad7)*
X302150000Y-142250000D03*
G04 #@! TO.P,U5,6*
G04 #@! TO.N,AVSS*
X302150000Y-141750000D03*
G04 #@! TO.P,U5,5*
G04 #@! TO.N,Net-(D4-Pad1)*
X302150000Y-141250000D03*
G04 #@! TO.P,U5,4*
G04 #@! TO.N,/BATT_IN*
X305050000Y-141250000D03*
G04 #@! TO.P,U5,3*
X305050000Y-141750000D03*
G04 #@! TO.P,U5,2*
G04 #@! TO.N,5V_in_charge*
X305050000Y-142250000D03*
G04 #@! TO.P,U5,1*
X305050000Y-142750000D03*
G04 #@! TD*
D40*
G04 #@! TO.N,AVSS*
X278100000Y-140950000D03*
X275700000Y-141850000D03*
X287120000Y-142570000D03*
X282120000Y-136980000D03*
X279110000Y-128530000D03*
X282570000Y-128270000D03*
X287750000Y-138800000D03*
X293100000Y-144650000D03*
X292700000Y-134100000D03*
X285950000Y-141650000D03*
X273150000Y-130150000D03*
X276820000Y-128420000D03*
X296010000Y-144370000D03*
G04 #@! TO.N,DVDD*
X284250000Y-143670000D03*
X280250000Y-138130000D03*
X284730000Y-127260000D03*
X283220000Y-133060000D03*
X275120000Y-130980000D03*
X274640000Y-137010000D03*
X274580000Y-129450000D03*
X299690000Y-144070000D03*
G04 #@! TO.N,AVDD*
X273412500Y-142487500D03*
X289900000Y-145050000D03*
G04 #@! TO.N,VCC*
X284200000Y-145760000D03*
X307020000Y-144510000D03*
G04 #@! TO.N,/SCL*
X280850000Y-129600000D03*
X282230000Y-131270000D03*
G04 #@! TO.N,/AIN_BAT_DIV_VOLTAGE*
X281090000Y-140600000D03*
X278050000Y-139830000D03*
G04 #@! TO.N,/BATT_IN*
X306210000Y-142861390D03*
G04 #@! TO.N,Net-(D4-Pad1)*
X302320000Y-140680000D03*
X302900000Y-144100000D03*
G04 #@! TO.N,/SRB1*
X296750000Y-130770000D03*
G04 #@! TD*
D41*
G04 #@! TO.N,/DEC1*
X274100000Y-140200000D02*
X273649580Y-140200000D01*
X274730000Y-139570000D02*
X274100000Y-140200000D01*
X274730000Y-138010000D02*
X274730000Y-139570000D01*
X275600000Y-137140000D02*
X274730000Y-138010000D01*
X275600000Y-137000000D02*
X275600000Y-137140000D01*
X275600000Y-137000000D02*
X275550000Y-137000000D01*
G04 #@! TO.N,/DEC2*
X276899580Y-129450000D02*
X276899580Y-129699580D01*
X276899580Y-129699580D02*
X277200000Y-130000000D01*
X277200000Y-130000000D02*
X277200000Y-131000000D01*
D42*
G04 #@! TO.N,/RF*
X276049580Y-127700000D02*
X277800000Y-127700000D01*
X277800000Y-127700000D02*
X278000000Y-127900000D01*
D43*
G04 #@! TO.N,/SPI_SCLK*
X280800000Y-135000000D02*
X283060000Y-135000000D01*
X284710000Y-136650000D02*
X286300000Y-136650000D01*
X283060000Y-135000000D02*
X284710000Y-136650000D01*
G04 #@! TO.N,/SPI_~CS*
X280800000Y-134600000D02*
X283550000Y-134600000D01*
X285100000Y-136150000D02*
X286300000Y-136150000D01*
X283550000Y-134600000D02*
X285100000Y-136150000D01*
D41*
X286200000Y-136250000D02*
X286300000Y-136150000D01*
G04 #@! TO.N,/SWDCLK*
X280000000Y-131000000D02*
X280000000Y-130730000D01*
X280570000Y-126510000D02*
X280570000Y-126450000D01*
X279896811Y-127183189D02*
X280570000Y-126510000D01*
X279896811Y-130186811D02*
X279896811Y-127183189D01*
X280000000Y-130290000D02*
X279896811Y-130186811D01*
X280000000Y-131000000D02*
X280000000Y-130290000D01*
G04 #@! TO.N,/SWDIO*
X278791999Y-127211999D02*
X278030000Y-126450000D01*
X279592401Y-128012401D02*
X278791999Y-127211999D01*
X279592401Y-130622401D02*
X279592401Y-128012401D01*
X279600000Y-130630000D02*
X279592401Y-130622401D01*
X279600000Y-131000000D02*
X279600000Y-130630000D01*
D43*
G04 #@! TO.N,/~DRDY*
X280800000Y-135800000D02*
X282190000Y-135800000D01*
X285130000Y-140150000D02*
X286300000Y-140150000D01*
X285110000Y-140130000D02*
X285130000Y-140150000D01*
X285110000Y-138720000D02*
X285110000Y-140130000D01*
X282190000Y-135800000D02*
X285110000Y-138720000D01*
D44*
G04 #@! TO.N,Net-(A1-Pad1)*
X271950420Y-127700000D02*
X270772000Y-127700000D01*
X270772000Y-127700000D02*
X270745000Y-127673000D01*
D41*
G04 #@! TO.N,Net-(L3-Pad1)*
X271408000Y-138620000D02*
X271408000Y-137592420D01*
X271408000Y-137592420D02*
X271730420Y-137270000D01*
G04 #@! TO.N,AVSS*
X279010000Y-140900000D02*
X278150000Y-140900000D01*
X278150000Y-140900000D02*
X278100000Y-140950000D01*
X283140000Y-144380420D02*
X285219160Y-144380420D01*
X285219160Y-144380420D02*
X285849580Y-143750000D01*
X283120000Y-143559580D02*
X283120000Y-144360420D01*
X283120000Y-144360420D02*
X283140000Y-144380420D01*
X279010000Y-140900000D02*
X279260000Y-140900000D01*
X279260000Y-140900000D02*
X279680000Y-140480000D01*
X279680000Y-140480000D02*
X279680000Y-139820420D01*
X279680000Y-139820420D02*
X278959580Y-139100000D01*
X275910000Y-141289580D02*
X275910000Y-141640000D01*
X275910000Y-141640000D02*
X275700000Y-141850000D01*
X287110000Y-142580000D02*
X287110000Y-142600000D01*
X287120000Y-142570000D02*
X287110000Y-142580000D01*
X273662080Y-141287500D02*
X274887920Y-141287500D01*
X274887920Y-141287500D02*
X274890000Y-141289580D01*
X274890000Y-141289580D02*
X275910000Y-141289580D01*
X276530000Y-142640420D02*
X275365000Y-142640420D01*
X275365000Y-142640420D02*
X275362500Y-142637920D01*
X280347500Y-145740000D02*
X279572500Y-145740000D01*
X278410000Y-145120000D02*
X278952500Y-145120000D01*
X278952500Y-145120000D02*
X279572500Y-144500000D01*
X279572500Y-144500000D02*
X279572500Y-145740000D01*
X280347500Y-144500000D02*
X279572500Y-144500000D01*
X281510000Y-144620000D02*
X280467500Y-144620000D01*
X280467500Y-144620000D02*
X280347500Y-144500000D01*
X281510000Y-144620000D02*
X282900420Y-144620000D01*
X282900420Y-144620000D02*
X283140000Y-144380420D01*
X279509580Y-142930000D02*
X279509580Y-144437080D01*
X279509580Y-144437080D02*
X279572500Y-144500000D01*
X282552000Y-138030000D02*
X282552000Y-137412000D01*
X282552000Y-137412000D02*
X282120000Y-136980000D01*
D43*
X279080000Y-128500000D02*
X279110000Y-128530000D01*
X278326500Y-128500000D02*
X279080000Y-128500000D01*
D41*
X282570000Y-128270000D02*
X282585000Y-128255000D01*
X282585000Y-128255000D02*
X282570000Y-128270000D01*
X282570000Y-128270000D02*
X282570000Y-128240000D01*
D43*
X298475000Y-129530420D02*
X298475000Y-129325000D01*
X297525420Y-128375420D02*
X297075000Y-128375420D01*
X298475000Y-129325000D02*
X297525420Y-128375420D01*
D41*
X298475000Y-129530420D02*
X298475000Y-129435000D01*
X286975000Y-130674580D02*
X287724580Y-130674580D01*
X287724580Y-130674580D02*
X288250000Y-131200000D01*
X293100000Y-144650000D02*
X293100000Y-144725000D01*
D42*
X293775000Y-126950420D02*
X294375420Y-126950420D01*
X294375420Y-126950420D02*
X295800420Y-128375420D01*
D41*
X292399580Y-144725000D02*
X293100000Y-144725000D01*
X293100000Y-144725000D02*
X293850420Y-144725000D01*
X292399580Y-144725000D02*
X292399580Y-142749580D01*
X292399580Y-142749580D02*
X292250000Y-142600000D01*
X288250000Y-143725000D02*
X288250000Y-144800420D01*
X288250000Y-144800420D02*
X288100420Y-144950000D01*
X292449580Y-145900000D02*
X292399580Y-145850000D01*
X292750000Y-131200000D02*
X292750000Y-130375000D01*
X294749580Y-128375420D02*
X296025000Y-128375420D01*
X292750000Y-130375000D02*
X294749580Y-128375420D01*
D42*
X298475000Y-129530420D02*
X299700000Y-129530420D01*
X297075000Y-128375420D02*
X296025000Y-128375420D01*
X295800420Y-128375420D02*
X296025000Y-128375420D01*
X293775000Y-126950420D02*
X292287580Y-126950420D01*
X292287580Y-126950420D02*
X292275000Y-126963000D01*
X290800000Y-126950420D02*
X292262420Y-126950420D01*
X292262420Y-126950420D02*
X292275000Y-126963000D01*
D41*
X294250000Y-132425000D02*
X294250000Y-131200000D01*
X290250000Y-142600000D02*
X290250000Y-143550000D01*
X290250000Y-143550000D02*
X289900000Y-143900000D01*
X288100420Y-146000000D02*
X288100420Y-144950000D01*
X292399580Y-145850000D02*
X292399580Y-144725000D01*
X293850420Y-144725000D02*
X293850420Y-145900000D01*
X288750000Y-131200000D02*
X288250000Y-131200000D01*
X274262500Y-142237500D02*
X274962080Y-142237500D01*
X274962080Y-142237500D02*
X275362500Y-142637920D01*
D42*
X289100000Y-126988000D02*
X290762420Y-126988000D01*
D41*
X290762420Y-126988000D02*
X290800000Y-126950420D01*
X289112420Y-127000420D02*
X289100000Y-126988000D01*
X273662080Y-141287500D02*
X273662080Y-141637080D01*
X273662080Y-141637080D02*
X274262500Y-142237500D01*
X292750000Y-132400000D02*
X292750000Y-131200000D01*
X291750000Y-132700000D02*
X291750000Y-131200000D01*
X288250000Y-131200000D02*
X288250000Y-131800000D01*
X288250000Y-131200000D02*
X288250000Y-130900000D01*
X288250000Y-131200000D02*
X288250000Y-131000000D01*
X292750000Y-142600000D02*
X292250000Y-142600000D01*
X275417500Y-142582920D02*
X275362500Y-142637920D01*
X275362500Y-142637920D02*
X275392080Y-142637920D01*
X275362500Y-142637920D02*
X275362500Y-142637500D01*
D42*
X292400000Y-132750000D02*
X292400000Y-133800000D01*
X292400000Y-133800000D02*
X292700000Y-134100000D01*
D41*
X287500000Y-138550000D02*
X287750000Y-138800000D01*
X288425000Y-143900000D02*
X288250000Y-143725000D01*
X289225000Y-132750000D02*
X291700000Y-132750000D01*
X292400000Y-132750000D02*
X293925000Y-132750000D01*
X293925000Y-132750000D02*
X294250000Y-132425000D01*
X289900000Y-143900000D02*
X289275000Y-143900000D01*
X291700000Y-132750000D02*
X292400000Y-132750000D01*
X292400000Y-132750000D02*
X292750000Y-132400000D01*
X291700000Y-132750000D02*
X291750000Y-132700000D01*
X285950000Y-141650000D02*
X285849580Y-141750420D01*
X288712500Y-132237500D02*
X289225000Y-132750000D01*
X287700000Y-133250000D02*
X288712500Y-132237500D01*
X288712500Y-132237500D02*
X288750000Y-132200000D01*
X287400000Y-133250000D02*
X287700000Y-133250000D01*
X287400000Y-133250000D02*
X287500000Y-133350000D01*
X287300000Y-133150000D02*
X287400000Y-133250000D01*
X287500000Y-133350000D02*
X287500000Y-135450000D01*
X287500000Y-137100000D02*
X287500000Y-135450000D01*
X287500000Y-135450000D02*
X287500000Y-135550000D01*
X287500000Y-135550000D02*
X287400000Y-135650000D01*
X287500000Y-138325000D02*
X287500000Y-138550000D01*
X287500000Y-137125000D02*
X287500000Y-138325000D01*
X287500000Y-138325000D02*
X287500000Y-138375000D01*
X287500000Y-138375000D02*
X287225000Y-138650000D01*
X287500000Y-137150000D02*
X287500000Y-137125000D01*
X287500000Y-137125000D02*
X287500000Y-137100000D01*
X289275000Y-143900000D02*
X288425000Y-143900000D01*
X289275000Y-143900000D02*
X289250000Y-143900000D01*
X282140000Y-127350000D02*
X282140000Y-127810000D01*
X283850000Y-129050000D02*
X284640000Y-129050000D01*
X283110000Y-128310000D02*
X283850000Y-129050000D01*
X282640000Y-128310000D02*
X283110000Y-128310000D01*
X282140000Y-127810000D02*
X282570000Y-128240000D01*
X282570000Y-128240000D02*
X282640000Y-128310000D01*
X273150420Y-130149580D02*
X273150000Y-130150000D01*
X273150420Y-129450000D02*
X273150420Y-130149580D01*
X285930000Y-129629580D02*
X286975000Y-130674580D01*
X272750420Y-140200000D02*
X272750420Y-139709580D01*
X273609580Y-139510000D02*
X274070000Y-139049580D01*
X272950000Y-139510000D02*
X273609580Y-139510000D01*
X272750420Y-139709580D02*
X272950000Y-139510000D01*
X285780000Y-129629580D02*
X286150420Y-129629580D01*
X286549580Y-129230420D02*
X286549580Y-127930420D01*
X286150420Y-129629580D02*
X286549580Y-129230420D01*
X285780000Y-129629580D02*
X285930000Y-129629580D01*
X284640000Y-129050000D02*
X285200420Y-129050000D01*
X285200420Y-129050000D02*
X285780000Y-129629580D01*
X284640000Y-127850000D02*
X285050000Y-127850000D01*
X286290000Y-128190000D02*
X286549580Y-127930420D01*
X285390000Y-128190000D02*
X286290000Y-128190000D01*
X285050000Y-127850000D02*
X285390000Y-128190000D01*
X286549580Y-127930420D02*
X286549580Y-127360000D01*
X276000420Y-129450000D02*
X275660420Y-129450000D01*
X275660420Y-129450000D02*
X274830420Y-128620000D01*
D42*
X274000000Y-128549580D02*
X274760000Y-128549580D01*
X274760000Y-128549580D02*
X274830420Y-128620000D01*
D41*
X276900000Y-128500000D02*
X276820000Y-128420000D01*
X277637500Y-128500000D02*
X276900000Y-128500000D01*
X277637500Y-128500000D02*
X278326500Y-128500000D01*
X272750420Y-140200000D02*
X272750420Y-140375840D01*
X272750420Y-140375840D02*
X273662080Y-141287500D01*
D42*
X273150420Y-129450000D02*
X273150420Y-128799580D01*
X273150420Y-128799580D02*
X273400420Y-128549580D01*
X273400420Y-128549580D02*
X274000000Y-128549580D01*
X270230000Y-139280000D02*
X270230000Y-137508000D01*
X270230000Y-137508000D02*
X271738000Y-136000000D01*
X271150000Y-140200000D02*
X271470000Y-140200000D01*
X271470000Y-140200000D02*
X272750420Y-140200000D01*
X270230000Y-139280000D02*
X271150000Y-140200000D01*
D41*
X273200000Y-134549580D02*
X273449580Y-134549580D01*
X273449580Y-134549580D02*
X273900000Y-135000000D01*
X273900000Y-135000000D02*
X274800000Y-135000000D01*
X277600000Y-131000000D02*
X277600000Y-129700000D01*
X277350000Y-129450000D02*
X277350000Y-128500000D01*
X277600000Y-129700000D02*
X277350000Y-129450000D01*
X278356250Y-132331250D02*
X278356250Y-133443750D01*
X277243750Y-135668750D02*
X276131250Y-135668750D01*
X278356250Y-135668750D02*
X277243750Y-135668750D01*
X279468750Y-135668750D02*
X278356250Y-135668750D01*
X279468750Y-134556250D02*
X279468750Y-135668750D01*
X278356250Y-134556250D02*
X279468750Y-134556250D01*
X277243750Y-134556250D02*
X278356250Y-134556250D01*
X276131250Y-134556250D02*
X277243750Y-134556250D01*
X276131250Y-133443750D02*
X276131250Y-134556250D01*
X277243750Y-133443750D02*
X276131250Y-133443750D01*
X278356250Y-133443750D02*
X277243750Y-133443750D01*
X279468750Y-132331250D02*
X279468750Y-133443750D01*
X278356250Y-132331250D02*
X279468750Y-132331250D01*
X277243750Y-132331250D02*
X278356250Y-132331250D01*
X276131250Y-132331250D02*
X277243750Y-132331250D01*
X274800000Y-135000000D02*
X275687500Y-135000000D01*
X275687500Y-135000000D02*
X276131250Y-134556250D01*
X277600000Y-131000000D02*
X277600000Y-131975000D01*
X277600000Y-131975000D02*
X277243750Y-132331250D01*
X270800000Y-133500000D02*
X270050420Y-133500000D01*
X270050420Y-133500000D02*
X269800000Y-133750420D01*
X273200000Y-134549580D02*
X272250420Y-134549580D01*
X272250420Y-134549580D02*
X272200000Y-134600000D01*
X288250000Y-142600000D02*
X287110000Y-142600000D01*
X287110000Y-142600000D02*
X285924580Y-142600000D01*
X285924580Y-142600000D02*
X285849580Y-142675000D01*
X285849580Y-141750420D02*
X285849580Y-142675000D01*
X285849580Y-143750000D02*
X285849580Y-142675000D01*
X288250000Y-142600000D02*
X288250000Y-143725000D01*
X289250000Y-143900000D02*
X289250000Y-142600000D01*
X287225000Y-138650000D02*
X286300000Y-138650000D01*
X286300000Y-137650000D02*
X286300000Y-137150000D01*
X286300000Y-138650000D02*
X286300000Y-139150000D01*
X286300000Y-139150000D02*
X286300000Y-139650000D01*
X286300000Y-133150000D02*
X287300000Y-133150000D01*
X286300000Y-137150000D02*
X287500000Y-137150000D01*
X288750000Y-132200000D02*
X288750000Y-131200000D01*
X287400000Y-135650000D02*
X286300000Y-135650000D01*
X269800000Y-133750420D02*
X269093580Y-133750420D01*
X269093580Y-133750420D02*
X268986000Y-133858000D01*
X268986000Y-133858000D02*
X268986000Y-135610000D01*
X268986000Y-135610000D02*
X268986000Y-135636000D01*
X268986000Y-135636000D02*
X272034000Y-135636000D01*
X272034000Y-135636000D02*
X272200000Y-135470000D01*
X272200000Y-135470000D02*
X272200000Y-134650000D01*
D45*
X272300420Y-134549580D02*
X272200000Y-134650000D01*
D41*
X307660000Y-141370840D02*
X307670000Y-141360840D01*
X306450000Y-141370840D02*
X307660000Y-141370840D01*
X304037500Y-141123000D02*
X304570000Y-140590500D01*
X304037500Y-141637500D02*
X304037500Y-141123000D01*
X306349670Y-141370840D02*
X306450000Y-141370840D01*
X305569330Y-140590500D02*
X306349670Y-141370840D01*
X304570000Y-140590500D02*
X305569330Y-140590500D01*
X304530000Y-145310000D02*
X304520000Y-145320000D01*
X305480840Y-145310000D02*
X304530000Y-145310000D01*
X303162500Y-141637500D02*
X303162500Y-142362500D01*
X303162500Y-141637500D02*
X304037500Y-141637500D01*
X300970000Y-141830420D02*
X301529580Y-141830420D01*
X301610000Y-141750000D02*
X302150000Y-141750000D01*
X301529580Y-141830420D02*
X301610000Y-141750000D01*
X303050000Y-141750000D02*
X303162500Y-141637500D01*
X302150000Y-141750000D02*
X303050000Y-141750000D01*
X304037500Y-141637500D02*
X304037500Y-142362500D01*
X304037500Y-142362500D02*
X304037500Y-143792500D01*
X304037500Y-143792500D02*
X302740000Y-145090000D01*
X302740000Y-145090000D02*
X302740000Y-145890000D01*
X302740000Y-145890000D02*
X302870000Y-146020000D01*
X304520000Y-145420330D02*
X304520000Y-145320000D01*
X303920330Y-146020000D02*
X304520000Y-145420330D01*
X302870000Y-146020000D02*
X303920330Y-146020000D01*
X296010000Y-144370000D02*
X296780000Y-144370000D01*
X296780000Y-144370000D02*
X298580000Y-142570000D01*
X300869670Y-141830420D02*
X300970000Y-141830420D01*
X300130090Y-142570000D02*
X300869670Y-141830420D01*
X298580000Y-142570000D02*
X300130090Y-142570000D01*
X308740840Y-141360840D02*
X309750000Y-142370000D01*
X307670000Y-141360840D02*
X308740840Y-141360840D01*
X310827630Y-142370000D02*
X312550000Y-142370000D01*
X309750000Y-142370000D02*
X310827630Y-142370000D01*
D43*
G04 #@! TO.N,DVDD*
X284310000Y-140650000D02*
X284380000Y-140650000D01*
X284380000Y-140650000D02*
X284950420Y-141220420D01*
X284310000Y-139400000D02*
X284310000Y-140650000D01*
D41*
X281510000Y-144120000D02*
X281510000Y-143080000D01*
X281510000Y-143080000D02*
X281510000Y-143070000D01*
X278610420Y-142539580D02*
X278610420Y-142930000D01*
X279010000Y-142140000D02*
X278610420Y-142539580D01*
X280580000Y-142140000D02*
X279010000Y-142140000D01*
X281510000Y-143070000D02*
X280580000Y-142140000D01*
X281510000Y-144120000D02*
X281610000Y-144120000D01*
X281610000Y-144120000D02*
X282610000Y-143120000D01*
X283700000Y-143120000D02*
X284250000Y-143670000D01*
X282610000Y-143120000D02*
X283700000Y-143120000D01*
X278410000Y-144120000D02*
X278410000Y-143130420D01*
X278410000Y-143130420D02*
X278610420Y-142930000D01*
D42*
X284330000Y-143750000D02*
X284250000Y-143670000D01*
X284950420Y-143750000D02*
X284330000Y-143750000D01*
D41*
X281028000Y-138030000D02*
X280350000Y-138030000D01*
X280350000Y-138030000D02*
X280250000Y-138130000D01*
X281028000Y-138030000D02*
X281028000Y-136428000D01*
X281028000Y-136428000D02*
X280800000Y-136200000D01*
X285650420Y-127360000D02*
X284830000Y-127360000D01*
X284830000Y-127360000D02*
X284730000Y-127260000D01*
X284140000Y-127350000D02*
X284640000Y-127350000D01*
X284640000Y-127350000D02*
X284730000Y-127260000D01*
X283199580Y-132210000D02*
X283199580Y-131790000D01*
X283199580Y-131790000D02*
X283719580Y-131270000D01*
X285640420Y-127350000D02*
X285650420Y-127360000D01*
D42*
X283199580Y-133039580D02*
X283199580Y-132210000D01*
X283220000Y-133060000D02*
X283199580Y-133039580D01*
D41*
X284950420Y-143750000D02*
X284950420Y-142675000D01*
X284950420Y-142675000D02*
X284950420Y-141220420D01*
X284950420Y-141220420D02*
X284950420Y-141099580D01*
X285400000Y-140650000D02*
X286300000Y-140650000D01*
X284950420Y-141099580D02*
X285400000Y-140650000D01*
X288000000Y-140650000D02*
X288850000Y-140650000D01*
X289750000Y-141550000D02*
X289750000Y-142600000D01*
X288850000Y-140650000D02*
X289750000Y-141550000D01*
X286300000Y-140650000D02*
X288000000Y-140650000D01*
X288750000Y-141400000D02*
X288750000Y-142600000D01*
X288000000Y-140650000D02*
X288750000Y-141400000D01*
X275120000Y-130980000D02*
X275140000Y-131000000D01*
X274070000Y-137580000D02*
X274640000Y-137010000D01*
X274640000Y-137010000D02*
X274660000Y-136990000D01*
X274070000Y-138150420D02*
X274070000Y-137580000D01*
X274660000Y-136990000D02*
X274800000Y-136200000D01*
X274049580Y-129450000D02*
X274580000Y-129450000D01*
X275140000Y-131000000D02*
X275600000Y-131000000D01*
X300530000Y-144080000D02*
X299700000Y-144080000D01*
X299700000Y-144080000D02*
X299690000Y-144070000D01*
G04 #@! TO.N,AVDD*
X298475000Y-130429580D02*
X297950420Y-130429580D01*
X295490000Y-132890000D02*
X295490000Y-135815000D01*
X297950420Y-130429580D02*
X295490000Y-132890000D01*
X297725000Y-140625000D02*
X297700000Y-140650000D01*
D43*
X297075000Y-129274580D02*
X297075000Y-129325000D01*
X297075000Y-129325000D02*
X298179580Y-130429580D01*
X298179580Y-130429580D02*
X298475000Y-130429580D01*
D41*
X298475000Y-130429580D02*
X298230000Y-130429580D01*
D42*
X288999580Y-144950000D02*
X289800000Y-144950000D01*
X289900000Y-145050000D02*
X289800000Y-144950000D01*
D41*
X296025000Y-129274580D02*
X295650420Y-129274580D01*
X294750000Y-130175000D02*
X294750000Y-131200000D01*
X295650420Y-129274580D02*
X294750000Y-130175000D01*
X293250000Y-142600000D02*
X293250000Y-143700000D01*
X294749580Y-144349580D02*
X294749580Y-144725000D01*
X294350000Y-143950000D02*
X294749580Y-144349580D01*
X293500000Y-143950000D02*
X294350000Y-143950000D01*
X293250000Y-143700000D02*
X293500000Y-143950000D01*
X290750000Y-142600000D02*
X290750000Y-143550000D01*
X289350000Y-144950000D02*
X288999580Y-144950000D01*
X290750000Y-143550000D02*
X289350000Y-144950000D01*
X293750000Y-131200000D02*
X293750000Y-130400000D01*
X294875420Y-129274580D02*
X296025000Y-129274580D01*
X293750000Y-130400000D02*
X294875420Y-129274580D01*
D42*
X297075000Y-129274580D02*
X296025000Y-129274580D01*
X299700000Y-130429580D02*
X298475000Y-130429580D01*
D41*
X288999580Y-144950000D02*
X288999580Y-146000000D01*
X292300000Y-141050000D02*
X291050000Y-141050000D01*
X290750000Y-141350000D02*
X290750000Y-142600000D01*
X291050000Y-141050000D02*
X290750000Y-141350000D01*
X291750000Y-142600000D02*
X291750000Y-141475000D01*
X292175000Y-141050000D02*
X292300000Y-141050000D01*
X292300000Y-141050000D02*
X293675000Y-141050000D01*
X291750000Y-141475000D02*
X292175000Y-141050000D01*
X293250000Y-142600000D02*
X293250000Y-141475000D01*
X294075000Y-140650000D02*
X297700000Y-140650000D01*
X293250000Y-141475000D02*
X293675000Y-141050000D01*
X293675000Y-141050000D02*
X294075000Y-140650000D01*
X294749580Y-145900000D02*
X294749580Y-144725000D01*
X294750000Y-131200000D02*
X294750000Y-132450000D01*
X294750000Y-132450000D02*
X294750000Y-135075000D01*
X294750000Y-135075000D02*
X295490000Y-135815000D01*
X295490000Y-135815000D02*
X296825000Y-137150000D01*
X296825000Y-137150000D02*
X297700000Y-137150000D01*
X297700000Y-139150000D02*
X297700000Y-139650000D01*
X297700000Y-140150000D02*
X297700000Y-140650000D01*
X297700000Y-137150000D02*
X297700000Y-137650000D01*
X272762920Y-141287500D02*
X272762920Y-141837080D01*
X272762920Y-141837080D02*
X272362500Y-142237500D01*
X274262500Y-142887500D02*
X273812500Y-142887500D01*
X273812500Y-142887500D02*
X273412500Y-142487500D01*
X273162500Y-142237500D02*
X272362500Y-142237500D01*
X273412500Y-142487500D02*
X273162500Y-142237500D01*
X293299580Y-142649580D02*
X293250000Y-142600000D01*
X297700000Y-138650000D02*
X297700000Y-139150000D01*
X297700000Y-139650000D02*
X297700000Y-140150000D01*
X297700000Y-138150000D02*
X297700000Y-138650000D01*
X297700000Y-137650000D02*
X297700000Y-138150000D01*
X290749580Y-142600420D02*
X290750000Y-142600000D01*
X290749580Y-142600420D02*
X290750000Y-142600000D01*
X293250000Y-131200000D02*
X293750000Y-131200000D01*
G04 #@! TO.N,Net-(IC1-Pad12)*
X303200840Y-133490330D02*
X303200840Y-133390000D01*
X301541170Y-135150000D02*
X303200840Y-133490330D01*
X297700000Y-135150000D02*
X301541170Y-135150000D01*
G04 #@! TO.N,Net-(IC1-Pad14)*
X303230840Y-131020330D02*
X303230840Y-130920000D01*
X300101170Y-134150000D02*
X303230840Y-131020330D01*
X297700000Y-134150000D02*
X300101170Y-134150000D01*
G04 #@! TO.N,Net-(IC1-Pad16)*
X302980000Y-128470000D02*
X303260000Y-128470000D01*
X298300000Y-133150000D02*
X302980000Y-128470000D01*
X297700000Y-133150000D02*
X298300000Y-133150000D01*
D43*
G04 #@! TO.N,/DIN*
X286300000Y-133650000D02*
X281710000Y-133650000D01*
X281560000Y-133800000D02*
X280800000Y-133800000D01*
X281710000Y-133650000D02*
X281560000Y-133800000D01*
D41*
X286250000Y-133600000D02*
X286300000Y-133650000D01*
D43*
G04 #@! TO.N,/DOUT*
X280800000Y-135400000D02*
X282460000Y-135400000D01*
X285210000Y-138150000D02*
X286300000Y-138150000D01*
X282460000Y-135400000D02*
X285210000Y-138150000D01*
D41*
G04 #@! TO.N,VCC*
X276530000Y-143539580D02*
X276990420Y-143539580D01*
X277220000Y-143310000D02*
X277220000Y-141660000D01*
X276990420Y-143539580D02*
X277220000Y-143310000D01*
X277220000Y-141660000D02*
X277110000Y-141550000D01*
X276530000Y-143539580D02*
X276720420Y-143539580D01*
X275362500Y-143537080D02*
X276527500Y-143537080D01*
X276527500Y-143537080D02*
X276530000Y-143539580D01*
X278990000Y-146770000D02*
X276080000Y-146770000D01*
X275362500Y-146052500D02*
X275362500Y-143537080D01*
X276080000Y-146770000D02*
X275362500Y-146052500D01*
X283140000Y-145279580D02*
X282510420Y-145279580D01*
X282170000Y-145620000D02*
X281510000Y-145620000D01*
X282510420Y-145279580D02*
X282170000Y-145620000D01*
X278410000Y-146120000D02*
X278410000Y-146190000D01*
X278410000Y-146190000D02*
X278990000Y-146770000D01*
X278990000Y-146770000D02*
X278920000Y-146700000D01*
X278920000Y-146700000D02*
X280930000Y-146700000D01*
X280930000Y-146700000D02*
X281510000Y-146120000D01*
X281510000Y-145620000D02*
X281510000Y-146120000D01*
X281510000Y-145120000D02*
X281510000Y-145620000D01*
D42*
X272362500Y-143537500D02*
X270800500Y-143537500D01*
X270800500Y-143537500D02*
X270712500Y-143449500D01*
X270712500Y-143449500D02*
X270712500Y-143512500D01*
D41*
X274262920Y-143537080D02*
X274262500Y-143537500D01*
D42*
X275362500Y-143537080D02*
X274262920Y-143537080D01*
D41*
X272274500Y-143449500D02*
X272362500Y-143537500D01*
D42*
X274262500Y-143537500D02*
X272362500Y-143537500D01*
D41*
X274362920Y-143437080D02*
X274262500Y-143537500D01*
X307670000Y-143660000D02*
X307640000Y-143690000D01*
X307670000Y-142260000D02*
X307670000Y-143660000D01*
X307555000Y-143605000D02*
X307640000Y-143690000D01*
X306430000Y-143605000D02*
X307555000Y-143605000D01*
X283140000Y-145279580D02*
X283719580Y-145279580D01*
X283719580Y-145279580D02*
X284200000Y-145760000D01*
X307640000Y-143690000D02*
X307640000Y-143890000D01*
X307640000Y-143890000D02*
X307020000Y-144510000D01*
D44*
G04 #@! TO.N,Net-(C30-Pad2)*
X274000000Y-127699580D02*
X272850000Y-127699580D01*
X272850000Y-127699580D02*
X272849580Y-127700000D01*
X275150420Y-127700000D02*
X274000420Y-127700000D01*
X274000420Y-127700000D02*
X274000000Y-127699580D01*
D41*
G04 #@! TO.N,Net-(L2-Pad1)*
X272362500Y-142887500D02*
X271674500Y-142887500D01*
X271674500Y-142887500D02*
X270712500Y-141925500D01*
G04 #@! TO.N,Net-(IC1-Pad10)*
X302850420Y-136150000D02*
X303170420Y-135830000D01*
X297700000Y-136150000D02*
X302850420Y-136150000D01*
G04 #@! TO.N,/VREFP*
X292250000Y-131200000D02*
X292250000Y-128512000D01*
X293775000Y-127849580D02*
X292912420Y-127849580D01*
X292912420Y-127849580D02*
X292275000Y-128487000D01*
X292250000Y-128512000D02*
X292275000Y-128487000D01*
G04 #@! TO.N,/VCAP4*
X291250000Y-131200000D02*
X291250000Y-128299580D01*
X291250000Y-128299580D02*
X290800000Y-127849580D01*
G04 #@! TO.N,/VCAP1*
X290250000Y-131200000D02*
X290250000Y-129662000D01*
D42*
X290250000Y-129662000D02*
X289100000Y-128512000D01*
D41*
X290200000Y-131150000D02*
X290250000Y-131200000D01*
G04 #@! TO.N,/VCAP3*
X291500420Y-144725000D02*
X291500420Y-143950420D01*
X291250000Y-143700000D02*
X291250000Y-142600000D01*
X291500420Y-143950420D02*
X291250000Y-143700000D01*
X291625000Y-144600420D02*
X291500420Y-144725000D01*
X291500420Y-145850000D02*
X291500420Y-144725000D01*
G04 #@! TO.N,/VCAP2*
X286975000Y-129775420D02*
X289000420Y-129775420D01*
X289000420Y-129775420D02*
X289250000Y-130025000D01*
X289250000Y-130025000D02*
X289250000Y-131200000D01*
G04 #@! TO.N,/LED2*
X282710000Y-140650000D02*
X282530000Y-140650000D01*
X282530000Y-140650000D02*
X281630000Y-139750000D01*
X281630000Y-139750000D02*
X280560000Y-139750000D01*
X280560000Y-139750000D02*
X278400000Y-137590000D01*
X278400000Y-137590000D02*
X278400000Y-137000000D01*
G04 #@! TO.N,/LED3*
X282710000Y-139400000D02*
X280710000Y-139400000D01*
X278800000Y-137490000D02*
X278800000Y-137000000D01*
X280710000Y-139400000D02*
X278800000Y-137490000D01*
D43*
G04 #@! TO.N,/~PWDN/RESET*
X280800000Y-134200000D02*
X286250000Y-134200000D01*
X286250000Y-134200000D02*
X286300000Y-134150000D01*
D41*
X286250000Y-134200000D02*
X286300000Y-134150000D01*
X286300000Y-134150000D02*
X286300000Y-134650000D01*
G04 #@! TO.N,Net-(C23-Pad1)*
X272629580Y-137270000D02*
X272629580Y-136632420D01*
X272629580Y-136632420D02*
X273262000Y-136000000D01*
X273262000Y-136000000D02*
X273350000Y-136000000D01*
X273350000Y-136000000D02*
X273950000Y-135400000D01*
X273950000Y-135400000D02*
X274800000Y-135400000D01*
G04 #@! TO.N,Net-(C24-Pad2)*
X275000000Y-130040000D02*
X274720163Y-130049375D01*
X274720163Y-130049375D02*
X272760000Y-132040000D01*
X272760000Y-132040000D02*
X272770000Y-132030000D01*
X272770000Y-132030000D02*
X272455505Y-132345429D01*
X272455505Y-132345429D02*
X271600000Y-132830000D01*
X271600000Y-132830000D02*
X271490000Y-132940000D01*
X271490000Y-132940000D02*
X271490000Y-134310000D01*
X271490000Y-134310000D02*
X271200000Y-134600000D01*
X276400000Y-131000000D02*
X276400000Y-130330490D01*
X275395598Y-130045598D02*
X275000000Y-130040000D01*
X276115108Y-130045598D02*
X275395598Y-130045598D01*
X276400000Y-130330490D02*
X276115108Y-130045598D01*
X271200000Y-134600000D02*
X270800000Y-134600000D01*
X269800000Y-134649580D02*
X270750420Y-134649580D01*
X270800000Y-134600000D02*
X270950000Y-134600000D01*
X270750420Y-134649580D02*
X270800000Y-134600000D01*
D45*
X271050000Y-134650000D02*
X270800000Y-134650000D01*
X270799580Y-134649580D02*
X270800000Y-134650000D01*
D41*
G04 #@! TO.N,Net-(C25-Pad2)*
X276000000Y-131000000D02*
X276000000Y-130450000D01*
X276000000Y-130450000D02*
X275900000Y-130350000D01*
X275900000Y-130350000D02*
X274900000Y-130350000D01*
X274900000Y-130350000D02*
X273200000Y-132050000D01*
X273200000Y-132050000D02*
X273200000Y-133650420D01*
X272200000Y-133500000D02*
X273049580Y-133500000D01*
X273049580Y-133500000D02*
X273200000Y-133650420D01*
G04 #@! TO.N,Net-(C28-Pad1)*
X274890000Y-140390420D02*
X274890000Y-140210000D01*
X274890000Y-140210000D02*
X275450000Y-139650000D01*
X275450000Y-139650000D02*
X275450000Y-138850000D01*
X275450000Y-138850000D02*
X276000000Y-138300000D01*
X276000000Y-138300000D02*
X276000000Y-137000000D01*
G04 #@! TO.N,Net-(C29-Pad1)*
X275910000Y-140390420D02*
X275910000Y-139900000D01*
X275910000Y-139900000D02*
X276850000Y-138960000D01*
X276850000Y-138960000D02*
X276850000Y-138850000D01*
X276400000Y-137000000D02*
X276400000Y-138400000D01*
X276400000Y-138400000D02*
X276850000Y-138850000D01*
G04 #@! TO.N,Net-(L4-Pad1)*
X274800000Y-135800000D02*
X274240000Y-135800000D01*
X273200000Y-137640000D02*
X273200000Y-138352000D01*
X273840000Y-137000000D02*
X273200000Y-137640000D01*
X273840000Y-136200000D02*
X273840000Y-137000000D01*
X274240000Y-135800000D02*
X273840000Y-136200000D01*
X273200000Y-138352000D02*
X272932000Y-138620000D01*
D43*
G04 #@! TO.N,Net-(F1-Pad2)*
X278000000Y-129100000D02*
X278000000Y-131000000D01*
D41*
G04 #@! TO.N,/DEC3*
X275909580Y-128800000D02*
X276450000Y-128800000D01*
X276800000Y-130050000D02*
X276750000Y-130000000D01*
X276750000Y-130000000D02*
X276500000Y-130000000D01*
X276500000Y-130000000D02*
X276450000Y-129950000D01*
X276450000Y-129950000D02*
X276450000Y-128800000D01*
X276800000Y-130050000D02*
X276800000Y-131000000D01*
X275909580Y-128800000D02*
X275729580Y-128620000D01*
G04 #@! TO.N,Net-(C35-Pad1)*
X284640000Y-128650000D02*
X285699580Y-128650000D01*
X285699580Y-128650000D02*
X285780000Y-128730420D01*
G04 #@! TO.N,/SDI*
X281540000Y-132200000D02*
X282290420Y-132200000D01*
X282290420Y-132200000D02*
X282300420Y-132210000D01*
X281640000Y-129850000D02*
X281640000Y-132170000D01*
X281610000Y-132200000D02*
X281540000Y-132200000D01*
X281540000Y-132200000D02*
X280800000Y-132200000D01*
X281640000Y-132170000D02*
X281610000Y-132200000D01*
G04 #@! TO.N,/SCL*
X282820420Y-131270000D02*
X282230000Y-131270000D01*
X280900000Y-129550000D02*
X281640000Y-129450000D01*
X280850000Y-129600000D02*
X280900000Y-129550000D01*
X281640000Y-129450000D02*
X281340000Y-129450000D01*
X281340000Y-129450000D02*
X281210000Y-129450000D01*
X280800000Y-129860000D02*
X280800000Y-131800000D01*
X281210000Y-129450000D02*
X280800000Y-129860000D01*
X280900000Y-131800000D02*
X280950000Y-131800000D01*
D45*
X280900000Y-131800000D02*
X281100000Y-131800000D01*
D41*
G04 #@! TO.N,Net-(L1-Pad1)*
X278410000Y-145620000D02*
X277062000Y-145620000D01*
X277062000Y-145620000D02*
X276690000Y-145992000D01*
G04 #@! TO.N,Net-(L1-Pad2)*
X276690000Y-144468000D02*
X277638000Y-144468000D01*
X277790000Y-144620000D02*
X278410000Y-144620000D01*
X277638000Y-144468000D02*
X277790000Y-144620000D01*
G04 #@! TO.N,/AIN_BAT_DIV_VOLTAGE*
X278060420Y-139100000D02*
X278060420Y-139819580D01*
X281039580Y-140650420D02*
X280240000Y-140650420D01*
X281090000Y-140600000D02*
X281039580Y-140650420D01*
X278060420Y-139819580D02*
X278050000Y-139830000D01*
X278060420Y-138440420D02*
X278060420Y-139100000D01*
X278000000Y-138380000D02*
X278060420Y-138440420D01*
X278000000Y-137000000D02*
X278000000Y-138380000D01*
G04 #@! TO.N,/LOAD_SW_CTRL*
X277600000Y-137000000D02*
X277600000Y-138520000D01*
X277510000Y-139850000D02*
X277110000Y-140250000D01*
X277510000Y-138610000D02*
X277510000Y-139850000D01*
X277600000Y-138520000D02*
X277510000Y-138610000D01*
G04 #@! TO.N,/Vout*
X280240000Y-141549580D02*
X282009160Y-141549580D01*
X282009160Y-141549580D02*
X283120000Y-142660420D01*
X279010000Y-141550000D02*
X280239580Y-141550000D01*
X280239580Y-141550000D02*
X280240000Y-141549580D01*
G04 #@! TO.N,/BIAS_ELEC*
X294750420Y-142600420D02*
X294750000Y-142600000D01*
X294750000Y-142600000D02*
X295250000Y-142600000D01*
X302020000Y-138880000D02*
X302600000Y-138880000D01*
X299360000Y-141540000D02*
X302020000Y-138880000D01*
X295408000Y-141540000D02*
X299360000Y-141540000D01*
X295250000Y-142600000D02*
X295250000Y-141698000D01*
X295250000Y-141698000D02*
X295408000Y-141540000D01*
X303790000Y-138880000D02*
X303810000Y-138860000D01*
X302600000Y-138880000D02*
X303790000Y-138880000D01*
X303810000Y-138860000D02*
X305990000Y-138860000D01*
X305990000Y-138860000D02*
X307330000Y-140200000D01*
X309616000Y-138900000D02*
X310530000Y-138900000D01*
X308316000Y-140200000D02*
X309616000Y-138900000D01*
X307330000Y-140200000D02*
X308316000Y-140200000D01*
G04 #@! TO.N,Net-(C4-Pad2)*
X294250000Y-143411122D02*
X294658878Y-143820000D01*
X294250000Y-142600000D02*
X294250000Y-143411122D01*
X294658878Y-143820000D02*
X296290000Y-143820000D01*
X296290000Y-143820000D02*
X298130000Y-141980000D01*
X298130000Y-141980000D02*
X299710000Y-141980000D01*
X302148280Y-139779160D02*
X302600000Y-139779160D01*
X301910840Y-139779160D02*
X302148280Y-139779160D01*
X299710000Y-141980000D02*
X301910840Y-139779160D01*
X303790000Y-139779160D02*
X303810000Y-139759160D01*
X302600000Y-139779160D02*
X303790000Y-139779160D01*
G04 #@! TO.N,Net-(IC1-Pad9)*
X297700000Y-136650000D02*
X300940000Y-136650000D01*
X301540000Y-137250000D02*
X305110420Y-137250000D01*
X300940000Y-136650000D02*
X301540000Y-137250000D01*
G04 #@! TO.N,Net-(IC1-Pad11)*
X297650000Y-135600000D02*
X297700000Y-135650000D01*
X297700000Y-135650000D02*
X301880000Y-135650000D01*
X302860000Y-134670000D02*
X305110000Y-134670000D01*
X301880000Y-135650000D02*
X302860000Y-134670000D01*
G04 #@! TO.N,Net-(IC1-Pad13)*
X303270000Y-132130000D02*
X305150000Y-132130000D01*
X297700000Y-134650000D02*
X300750000Y-134650000D01*
X300750000Y-134650000D02*
X303270000Y-132130000D01*
G04 #@! TO.N,Net-(IC1-Pad15)*
X304538610Y-129590000D02*
X304890000Y-129590000D01*
X302662000Y-129590000D02*
X304538610Y-129590000D01*
X298602000Y-133650000D02*
X302662000Y-129590000D01*
X297700000Y-133650000D02*
X298602000Y-133650000D01*
G04 #@! TO.N,5V_in_charge*
X306430000Y-145260000D02*
X306380000Y-145310000D01*
X305050000Y-142250000D02*
X305050000Y-142750000D01*
X305050000Y-143052000D02*
X305000000Y-143102000D01*
X305050000Y-142750000D02*
X305050000Y-143052000D01*
X305508878Y-144570000D02*
X306430000Y-144570000D01*
X305000000Y-144061122D02*
X305508878Y-144570000D01*
X305000000Y-143102000D02*
X305000000Y-144061122D01*
X306430000Y-144055000D02*
X306430000Y-144570000D01*
X306430000Y-144570000D02*
X306430000Y-145260000D01*
X307620000Y-145310000D02*
X307640000Y-145290000D01*
X306380000Y-145310000D02*
X307620000Y-145310000D01*
X304427998Y-144061122D02*
X305000000Y-144061122D01*
X303620840Y-144868280D02*
X304427998Y-144061122D01*
X303620840Y-145320000D02*
X303620840Y-144868280D01*
X312550000Y-145824000D02*
X312550000Y-144910000D01*
X312074000Y-146300000D02*
X312550000Y-145824000D01*
X308098000Y-146300000D02*
X312074000Y-146300000D01*
X307640000Y-145842000D02*
X308098000Y-146300000D01*
X307640000Y-145290000D02*
X307640000Y-145842000D01*
G04 #@! TO.N,/BATT_IN*
X305050000Y-141250000D02*
X305050000Y-141750000D01*
X305577000Y-141250000D02*
X305790000Y-141463000D01*
X305050000Y-141250000D02*
X305577000Y-141250000D01*
X306349670Y-142270000D02*
X306450000Y-142270000D01*
X305790000Y-141710330D02*
X306349670Y-142270000D01*
X305790000Y-141463000D02*
X305790000Y-141710330D01*
X306450000Y-142270000D02*
X306450000Y-142621390D01*
X305730000Y-143328000D02*
X305730000Y-143830000D01*
X306126610Y-142931390D02*
X305730000Y-143328000D01*
X306140000Y-142931390D02*
X306126610Y-142931390D01*
X306210000Y-142861390D02*
X306140000Y-142931390D01*
X306450000Y-142621390D02*
X306210000Y-142861390D01*
G04 #@! TO.N,Net-(D4-Pad1)*
X302150000Y-141250000D02*
X302150000Y-140850000D01*
X302150000Y-140850000D02*
X302320000Y-140680000D01*
X302150000Y-144100000D02*
X302130000Y-144080000D01*
X302900000Y-144100000D02*
X302150000Y-144100000D01*
G04 #@! TO.N,/SRB1*
X295750000Y-131200000D02*
X296320000Y-131200000D01*
X296320000Y-131200000D02*
X296750000Y-130770000D01*
G04 #@! TO.N,Net-(J1-Pad1)*
X307970000Y-128470000D02*
X308040000Y-128540000D01*
X304159160Y-128470000D02*
X307970000Y-128470000D01*
G04 #@! TO.N,Net-(J1-Pad2)*
X306140550Y-129590000D02*
X306520550Y-129970000D01*
X305789160Y-129590000D02*
X306140550Y-129590000D01*
X309150000Y-129970000D02*
X310580000Y-128540000D01*
X306520550Y-129970000D02*
X309150000Y-129970000D01*
G04 #@! TO.N,Net-(J1-Pad3)*
X307880000Y-130920000D02*
X308040000Y-131080000D01*
X304130000Y-130920000D02*
X307880000Y-130920000D01*
G04 #@! TO.N,Net-(J1-Pad4)*
X306400550Y-132130000D02*
X306670550Y-132400000D01*
X306049160Y-132130000D02*
X306400550Y-132130000D01*
X309260000Y-132400000D02*
X310580000Y-131080000D01*
X306670550Y-132400000D02*
X309260000Y-132400000D01*
G04 #@! TO.N,Net-(J1-Pad5)*
X307810000Y-133390000D02*
X308040000Y-133620000D01*
X304100000Y-133390000D02*
X307810000Y-133390000D01*
G04 #@! TO.N,Net-(J1-Pad6)*
X306360550Y-134670000D02*
X306680550Y-134990000D01*
X306009160Y-134670000D02*
X306360550Y-134670000D01*
X309210000Y-134990000D02*
X310580000Y-133620000D01*
X306680550Y-134990000D02*
X309210000Y-134990000D01*
G04 #@! TO.N,Net-(J1-Pad7)*
X307710000Y-135830000D02*
X308040000Y-136160000D01*
X304069580Y-135830000D02*
X307710000Y-135830000D01*
G04 #@! TO.N,Net-(J1-Pad8)*
X306360970Y-137250000D02*
X306670970Y-137560000D01*
X306009580Y-137250000D02*
X306360970Y-137250000D01*
X309180000Y-137560000D02*
X310580000Y-136160000D01*
X306670970Y-137560000D02*
X309180000Y-137560000D01*
G04 #@! TO.N,Net-(R14-Pad1)*
X300990420Y-142750000D02*
X300970000Y-142729580D01*
X302150000Y-142750000D02*
X300990420Y-142750000D01*
G04 #@! TD*
D46*
G04 #@! TO.N,AVSS*
G36*
X287561673Y-141490302D02*
X287465000Y-141723691D01*
X287465000Y-142314250D01*
X287623750Y-142473000D01*
X287952560Y-142473000D01*
X287952560Y-142727000D01*
X287623750Y-142727000D01*
X287465000Y-142885750D01*
X287465000Y-143476309D01*
X287561673Y-143709698D01*
X287740301Y-143888327D01*
X287973690Y-143985000D01*
X288016250Y-143985000D01*
X288172913Y-143828337D01*
X288352235Y-143948157D01*
X288470414Y-143971664D01*
X288483750Y-143985000D01*
X288526310Y-143985000D01*
X288529927Y-143983502D01*
X288600000Y-143997440D01*
X288900000Y-143997440D01*
X288970073Y-143983502D01*
X288973690Y-143985000D01*
X289016250Y-143985000D01*
X289029586Y-143971664D01*
X289147765Y-143948157D01*
X289250000Y-143879845D01*
X289348700Y-143945795D01*
X289276277Y-144018217D01*
X289198970Y-144002840D01*
X288800190Y-144002840D01*
X288552425Y-144052123D01*
X288538128Y-144061676D01*
X288426119Y-144015280D01*
X288358865Y-144015280D01*
X288200115Y-144174030D01*
X288200115Y-144412158D01*
X288152750Y-144650280D01*
X288152750Y-144780638D01*
X288119062Y-144950000D01*
X288152750Y-145119362D01*
X288152750Y-145249720D01*
X288197561Y-145475000D01*
X288152750Y-145700280D01*
X288152750Y-146147000D01*
X288000725Y-146147000D01*
X288000725Y-146127000D01*
X287424780Y-146127000D01*
X287266030Y-146285750D01*
X287266030Y-146426030D01*
X287302883Y-146515000D01*
X284700338Y-146515000D01*
X284703578Y-146513658D01*
X284953658Y-146263578D01*
X285089000Y-145936833D01*
X285089000Y-145583167D01*
X284953658Y-145256422D01*
X284932986Y-145235750D01*
X287266030Y-145235750D01*
X287266030Y-145376030D01*
X287307025Y-145475000D01*
X287266030Y-145573970D01*
X287266030Y-145714250D01*
X287424780Y-145873000D01*
X287746426Y-145873000D01*
X287774721Y-145884720D01*
X287841975Y-145884720D01*
X287853695Y-145873000D01*
X288000725Y-145873000D01*
X288000725Y-145077000D01*
X287853695Y-145077000D01*
X287841975Y-145065280D01*
X287774721Y-145065280D01*
X287746426Y-145077000D01*
X287424780Y-145077000D01*
X287266030Y-145235750D01*
X284932986Y-145235750D01*
X284703578Y-145006342D01*
X284376833Y-144871000D01*
X284316505Y-144871000D01*
X284271849Y-144826344D01*
X284232182Y-144766978D01*
X284074720Y-144661765D01*
X284074720Y-144638865D01*
X284000914Y-144565059D01*
X284244947Y-144613600D01*
X284244950Y-144613600D01*
X284329999Y-144630517D01*
X284415048Y-144613600D01*
X284451966Y-144613600D01*
X284503265Y-144647877D01*
X284751030Y-144697160D01*
X285149810Y-144697160D01*
X285397575Y-144647877D01*
X285411872Y-144638324D01*
X285523881Y-144684720D01*
X285591135Y-144684720D01*
X285749885Y-144525970D01*
X285749885Y-144287842D01*
X285797250Y-144049720D01*
X285797250Y-143919362D01*
X285805676Y-143877000D01*
X285949275Y-143877000D01*
X285949275Y-144525970D01*
X286108025Y-144684720D01*
X286175279Y-144684720D01*
X286408668Y-144588047D01*
X286472745Y-144523970D01*
X287266030Y-144523970D01*
X287266030Y-144664250D01*
X287424780Y-144823000D01*
X288000725Y-144823000D01*
X288000725Y-144174030D01*
X287841975Y-144015280D01*
X287774721Y-144015280D01*
X287541332Y-144111953D01*
X287362703Y-144290581D01*
X287266030Y-144523970D01*
X286472745Y-144523970D01*
X286587297Y-144409419D01*
X286683970Y-144176030D01*
X286683970Y-144035750D01*
X286525220Y-143877000D01*
X285949275Y-143877000D01*
X285805676Y-143877000D01*
X285830938Y-143750000D01*
X285797250Y-143580638D01*
X285797250Y-143450280D01*
X285749953Y-143212500D01*
X285797250Y-142974720D01*
X285797250Y-142802000D01*
X285949275Y-142802000D01*
X285949275Y-143623000D01*
X286525220Y-143623000D01*
X286683970Y-143464250D01*
X286683970Y-143323970D01*
X286637798Y-143212500D01*
X286683970Y-143101030D01*
X286683970Y-142960750D01*
X286525220Y-142802000D01*
X285949275Y-142802000D01*
X285797250Y-142802000D01*
X285797250Y-142375280D01*
X285749885Y-142137158D01*
X285749885Y-141899030D01*
X285949275Y-141899030D01*
X285949275Y-142548000D01*
X286525220Y-142548000D01*
X286683970Y-142389250D01*
X286683970Y-142248970D01*
X286587297Y-142015581D01*
X286408668Y-141836953D01*
X286175279Y-141740280D01*
X286108025Y-141740280D01*
X285949275Y-141899030D01*
X285749885Y-141899030D01*
X285661420Y-141810565D01*
X285661420Y-141487789D01*
X285669446Y-141447440D01*
X287050000Y-141447440D01*
X287297765Y-141398157D01*
X287353374Y-141361000D01*
X287690974Y-141361000D01*
X287561673Y-141490302D01*
X287561673Y-141490302D01*
G37*
X287561673Y-141490302D02*
X287465000Y-141723691D01*
X287465000Y-142314250D01*
X287623750Y-142473000D01*
X287952560Y-142473000D01*
X287952560Y-142727000D01*
X287623750Y-142727000D01*
X287465000Y-142885750D01*
X287465000Y-143476309D01*
X287561673Y-143709698D01*
X287740301Y-143888327D01*
X287973690Y-143985000D01*
X288016250Y-143985000D01*
X288172913Y-143828337D01*
X288352235Y-143948157D01*
X288470414Y-143971664D01*
X288483750Y-143985000D01*
X288526310Y-143985000D01*
X288529927Y-143983502D01*
X288600000Y-143997440D01*
X288900000Y-143997440D01*
X288970073Y-143983502D01*
X288973690Y-143985000D01*
X289016250Y-143985000D01*
X289029586Y-143971664D01*
X289147765Y-143948157D01*
X289250000Y-143879845D01*
X289348700Y-143945795D01*
X289276277Y-144018217D01*
X289198970Y-144002840D01*
X288800190Y-144002840D01*
X288552425Y-144052123D01*
X288538128Y-144061676D01*
X288426119Y-144015280D01*
X288358865Y-144015280D01*
X288200115Y-144174030D01*
X288200115Y-144412158D01*
X288152750Y-144650280D01*
X288152750Y-144780638D01*
X288119062Y-144950000D01*
X288152750Y-145119362D01*
X288152750Y-145249720D01*
X288197561Y-145475000D01*
X288152750Y-145700280D01*
X288152750Y-146147000D01*
X288000725Y-146147000D01*
X288000725Y-146127000D01*
X287424780Y-146127000D01*
X287266030Y-146285750D01*
X287266030Y-146426030D01*
X287302883Y-146515000D01*
X284700338Y-146515000D01*
X284703578Y-146513658D01*
X284953658Y-146263578D01*
X285089000Y-145936833D01*
X285089000Y-145583167D01*
X284953658Y-145256422D01*
X284932986Y-145235750D01*
X287266030Y-145235750D01*
X287266030Y-145376030D01*
X287307025Y-145475000D01*
X287266030Y-145573970D01*
X287266030Y-145714250D01*
X287424780Y-145873000D01*
X287746426Y-145873000D01*
X287774721Y-145884720D01*
X287841975Y-145884720D01*
X287853695Y-145873000D01*
X288000725Y-145873000D01*
X288000725Y-145077000D01*
X287853695Y-145077000D01*
X287841975Y-145065280D01*
X287774721Y-145065280D01*
X287746426Y-145077000D01*
X287424780Y-145077000D01*
X287266030Y-145235750D01*
X284932986Y-145235750D01*
X284703578Y-145006342D01*
X284376833Y-144871000D01*
X284316505Y-144871000D01*
X284271849Y-144826344D01*
X284232182Y-144766978D01*
X284074720Y-144661765D01*
X284074720Y-144638865D01*
X284000914Y-144565059D01*
X284244947Y-144613600D01*
X284244950Y-144613600D01*
X284329999Y-144630517D01*
X284415048Y-144613600D01*
X284451966Y-144613600D01*
X284503265Y-144647877D01*
X284751030Y-144697160D01*
X285149810Y-144697160D01*
X285397575Y-144647877D01*
X285411872Y-144638324D01*
X285523881Y-144684720D01*
X285591135Y-144684720D01*
X285749885Y-144525970D01*
X285749885Y-144287842D01*
X285797250Y-144049720D01*
X285797250Y-143919362D01*
X285805676Y-143877000D01*
X285949275Y-143877000D01*
X285949275Y-144525970D01*
X286108025Y-144684720D01*
X286175279Y-144684720D01*
X286408668Y-144588047D01*
X286472745Y-144523970D01*
X287266030Y-144523970D01*
X287266030Y-144664250D01*
X287424780Y-144823000D01*
X288000725Y-144823000D01*
X288000725Y-144174030D01*
X287841975Y-144015280D01*
X287774721Y-144015280D01*
X287541332Y-144111953D01*
X287362703Y-144290581D01*
X287266030Y-144523970D01*
X286472745Y-144523970D01*
X286587297Y-144409419D01*
X286683970Y-144176030D01*
X286683970Y-144035750D01*
X286525220Y-143877000D01*
X285949275Y-143877000D01*
X285805676Y-143877000D01*
X285830938Y-143750000D01*
X285797250Y-143580638D01*
X285797250Y-143450280D01*
X285749953Y-143212500D01*
X285797250Y-142974720D01*
X285797250Y-142802000D01*
X285949275Y-142802000D01*
X285949275Y-143623000D01*
X286525220Y-143623000D01*
X286683970Y-143464250D01*
X286683970Y-143323970D01*
X286637798Y-143212500D01*
X286683970Y-143101030D01*
X286683970Y-142960750D01*
X286525220Y-142802000D01*
X285949275Y-142802000D01*
X285797250Y-142802000D01*
X285797250Y-142375280D01*
X285749885Y-142137158D01*
X285749885Y-141899030D01*
X285949275Y-141899030D01*
X285949275Y-142548000D01*
X286525220Y-142548000D01*
X286683970Y-142389250D01*
X286683970Y-142248970D01*
X286587297Y-142015581D01*
X286408668Y-141836953D01*
X286175279Y-141740280D01*
X286108025Y-141740280D01*
X285949275Y-141899030D01*
X285749885Y-141899030D01*
X285661420Y-141810565D01*
X285661420Y-141487789D01*
X285669446Y-141447440D01*
X287050000Y-141447440D01*
X287297765Y-141398157D01*
X287353374Y-141361000D01*
X287690974Y-141361000D01*
X287561673Y-141490302D01*
G36*
X271349108Y-132154978D02*
X271322582Y-132160254D01*
X271226786Y-132224263D01*
X271188656Y-132245860D01*
X271168689Y-132263082D01*
X271146763Y-132277732D01*
X271115776Y-132308719D01*
X271028532Y-132383967D01*
X271021503Y-132397929D01*
X270977398Y-132427399D01*
X270937733Y-132486762D01*
X270937732Y-132486763D01*
X270910311Y-132527802D01*
X270820253Y-132662583D01*
X270779000Y-132869975D01*
X270779000Y-132869979D01*
X270765072Y-132940000D01*
X270779000Y-133010021D01*
X270779000Y-133552560D01*
X270674135Y-133552560D01*
X270734720Y-133491975D01*
X270734720Y-133424721D01*
X270673000Y-133275716D01*
X270673000Y-132623750D01*
X270514250Y-132465000D01*
X270223691Y-132465000D01*
X269990302Y-132561673D01*
X269811673Y-132740301D01*
X269738884Y-132916030D01*
X269672998Y-132916030D01*
X269672998Y-133074778D01*
X269514250Y-132916030D01*
X269373970Y-132916030D01*
X269140581Y-133012703D01*
X268961953Y-133191332D01*
X268865280Y-133424721D01*
X268865280Y-133491975D01*
X269024030Y-133650725D01*
X269673000Y-133650725D01*
X269673000Y-133603420D01*
X269927000Y-133603420D01*
X269927000Y-133627000D01*
X269873750Y-133627000D01*
X269715000Y-133785750D01*
X269715000Y-133802750D01*
X269500280Y-133802750D01*
X269262158Y-133850115D01*
X269024030Y-133850115D01*
X268865280Y-134008865D01*
X268865280Y-134076119D01*
X268911676Y-134188128D01*
X268902123Y-134202425D01*
X268852840Y-134450190D01*
X268852840Y-134848970D01*
X268902123Y-135096735D01*
X269042471Y-135306779D01*
X269252515Y-135447127D01*
X269500280Y-135496410D01*
X269949961Y-135496410D01*
X270102235Y-135598157D01*
X270350000Y-135647440D01*
X270785500Y-135647440D01*
X270785500Y-135714250D01*
X270944250Y-135873000D01*
X271611000Y-135873000D01*
X271611000Y-135853000D01*
X271865000Y-135853000D01*
X271865000Y-135873000D01*
X271885000Y-135873000D01*
X271885000Y-136127000D01*
X271865000Y-136127000D01*
X271865000Y-136147000D01*
X271611000Y-136147000D01*
X271611000Y-136127000D01*
X270944250Y-136127000D01*
X270785500Y-136285750D01*
X270785500Y-136697810D01*
X270882173Y-136931199D01*
X270889839Y-136938865D01*
X270883590Y-136970280D01*
X270883590Y-137097491D01*
X270855734Y-137139181D01*
X270855732Y-137139183D01*
X270768323Y-137270000D01*
X270738254Y-137315002D01*
X270701456Y-137500000D01*
X270691191Y-137551602D01*
X270632691Y-137590691D01*
X270492343Y-137800735D01*
X270443060Y-138048500D01*
X270443060Y-139191500D01*
X270492343Y-139439265D01*
X270632691Y-139649309D01*
X270842735Y-139789657D01*
X271090500Y-139838940D01*
X271725500Y-139838940D01*
X271916030Y-139801042D01*
X271916030Y-139914250D01*
X272074780Y-140073000D01*
X272650725Y-140073000D01*
X272650725Y-140053000D01*
X272802750Y-140053000D01*
X272802750Y-140340340D01*
X272650725Y-140340340D01*
X272650725Y-140327000D01*
X272074780Y-140327000D01*
X271916030Y-140485750D01*
X271916030Y-140626030D01*
X271964682Y-140743487D01*
X271916090Y-140987780D01*
X271916090Y-141414210D01*
X271893776Y-141418648D01*
X271882157Y-141360235D01*
X271741809Y-141150191D01*
X271531765Y-141009843D01*
X271284000Y-140960560D01*
X270141000Y-140960560D01*
X269893235Y-141009843D01*
X269683191Y-141150191D01*
X269542843Y-141360235D01*
X269493560Y-141608000D01*
X269493560Y-142243000D01*
X269542843Y-142490765D01*
X269674298Y-142687500D01*
X269542843Y-142884235D01*
X269493560Y-143132000D01*
X269493560Y-143767000D01*
X269542843Y-144014765D01*
X269683191Y-144224809D01*
X269893235Y-144365157D01*
X270141000Y-144414440D01*
X270782517Y-144414440D01*
X270800500Y-144418017D01*
X270818483Y-144414440D01*
X271284000Y-144414440D01*
X271351065Y-144401100D01*
X274347553Y-144401100D01*
X274349665Y-144400680D01*
X274651501Y-144400680D01*
X274651500Y-145982479D01*
X274637572Y-146052500D01*
X274651500Y-146122521D01*
X274651500Y-146122525D01*
X274692753Y-146329917D01*
X274737901Y-146397485D01*
X274801442Y-146492581D01*
X274816422Y-146515000D01*
X266585000Y-146515000D01*
X266585000Y-132127000D01*
X271398503Y-132127000D01*
X271349108Y-132154978D01*
X271349108Y-132154978D01*
G37*
X271349108Y-132154978D02*
X271322582Y-132160254D01*
X271226786Y-132224263D01*
X271188656Y-132245860D01*
X271168689Y-132263082D01*
X271146763Y-132277732D01*
X271115776Y-132308719D01*
X271028532Y-132383967D01*
X271021503Y-132397929D01*
X270977398Y-132427399D01*
X270937733Y-132486762D01*
X270937732Y-132486763D01*
X270910311Y-132527802D01*
X270820253Y-132662583D01*
X270779000Y-132869975D01*
X270779000Y-132869979D01*
X270765072Y-132940000D01*
X270779000Y-133010021D01*
X270779000Y-133552560D01*
X270674135Y-133552560D01*
X270734720Y-133491975D01*
X270734720Y-133424721D01*
X270673000Y-133275716D01*
X270673000Y-132623750D01*
X270514250Y-132465000D01*
X270223691Y-132465000D01*
X269990302Y-132561673D01*
X269811673Y-132740301D01*
X269738884Y-132916030D01*
X269672998Y-132916030D01*
X269672998Y-133074778D01*
X269514250Y-132916030D01*
X269373970Y-132916030D01*
X269140581Y-133012703D01*
X268961953Y-133191332D01*
X268865280Y-133424721D01*
X268865280Y-133491975D01*
X269024030Y-133650725D01*
X269673000Y-133650725D01*
X269673000Y-133603420D01*
X269927000Y-133603420D01*
X269927000Y-133627000D01*
X269873750Y-133627000D01*
X269715000Y-133785750D01*
X269715000Y-133802750D01*
X269500280Y-133802750D01*
X269262158Y-133850115D01*
X269024030Y-133850115D01*
X268865280Y-134008865D01*
X268865280Y-134076119D01*
X268911676Y-134188128D01*
X268902123Y-134202425D01*
X268852840Y-134450190D01*
X268852840Y-134848970D01*
X268902123Y-135096735D01*
X269042471Y-135306779D01*
X269252515Y-135447127D01*
X269500280Y-135496410D01*
X269949961Y-135496410D01*
X270102235Y-135598157D01*
X270350000Y-135647440D01*
X270785500Y-135647440D01*
X270785500Y-135714250D01*
X270944250Y-135873000D01*
X271611000Y-135873000D01*
X271611000Y-135853000D01*
X271865000Y-135853000D01*
X271865000Y-135873000D01*
X271885000Y-135873000D01*
X271885000Y-136127000D01*
X271865000Y-136127000D01*
X271865000Y-136147000D01*
X271611000Y-136147000D01*
X271611000Y-136127000D01*
X270944250Y-136127000D01*
X270785500Y-136285750D01*
X270785500Y-136697810D01*
X270882173Y-136931199D01*
X270889839Y-136938865D01*
X270883590Y-136970280D01*
X270883590Y-137097491D01*
X270855734Y-137139181D01*
X270855732Y-137139183D01*
X270768323Y-137270000D01*
X270738254Y-137315002D01*
X270701456Y-137500000D01*
X270691191Y-137551602D01*
X270632691Y-137590691D01*
X270492343Y-137800735D01*
X270443060Y-138048500D01*
X270443060Y-139191500D01*
X270492343Y-139439265D01*
X270632691Y-139649309D01*
X270842735Y-139789657D01*
X271090500Y-139838940D01*
X271725500Y-139838940D01*
X271916030Y-139801042D01*
X271916030Y-139914250D01*
X272074780Y-140073000D01*
X272650725Y-140073000D01*
X272650725Y-140053000D01*
X272802750Y-140053000D01*
X272802750Y-140340340D01*
X272650725Y-140340340D01*
X272650725Y-140327000D01*
X272074780Y-140327000D01*
X271916030Y-140485750D01*
X271916030Y-140626030D01*
X271964682Y-140743487D01*
X271916090Y-140987780D01*
X271916090Y-141414210D01*
X271893776Y-141418648D01*
X271882157Y-141360235D01*
X271741809Y-141150191D01*
X271531765Y-141009843D01*
X271284000Y-140960560D01*
X270141000Y-140960560D01*
X269893235Y-141009843D01*
X269683191Y-141150191D01*
X269542843Y-141360235D01*
X269493560Y-141608000D01*
X269493560Y-142243000D01*
X269542843Y-142490765D01*
X269674298Y-142687500D01*
X269542843Y-142884235D01*
X269493560Y-143132000D01*
X269493560Y-143767000D01*
X269542843Y-144014765D01*
X269683191Y-144224809D01*
X269893235Y-144365157D01*
X270141000Y-144414440D01*
X270782517Y-144414440D01*
X270800500Y-144418017D01*
X270818483Y-144414440D01*
X271284000Y-144414440D01*
X271351065Y-144401100D01*
X274347553Y-144401100D01*
X274349665Y-144400680D01*
X274651501Y-144400680D01*
X274651500Y-145982479D01*
X274637572Y-146052500D01*
X274651500Y-146122521D01*
X274651500Y-146122525D01*
X274692753Y-146329917D01*
X274737901Y-146397485D01*
X274801442Y-146492581D01*
X274816422Y-146515000D01*
X266585000Y-146515000D01*
X266585000Y-132127000D01*
X271398503Y-132127000D01*
X271349108Y-132154978D01*
G36*
X300022840Y-142928970D02*
X300046739Y-143049121D01*
X299882235Y-143081843D01*
X299733837Y-143181000D01*
X299513167Y-143181000D01*
X299186422Y-143316342D01*
X298936342Y-143566422D01*
X298801000Y-143893167D01*
X298801000Y-144246833D01*
X298936342Y-144573578D01*
X299186422Y-144823658D01*
X299513167Y-144959000D01*
X299703905Y-144959000D01*
X299882235Y-145078157D01*
X300130000Y-145127440D01*
X300930000Y-145127440D01*
X301177765Y-145078157D01*
X301330000Y-144976436D01*
X301482235Y-145078157D01*
X301730000Y-145127440D01*
X302530000Y-145127440D01*
X302774010Y-145078904D01*
X302774010Y-145619720D01*
X302823293Y-145867485D01*
X302963641Y-146077529D01*
X303173685Y-146217877D01*
X303421450Y-146267160D01*
X303820230Y-146267160D01*
X304067995Y-146217877D01*
X304082292Y-146208324D01*
X304194301Y-146254720D01*
X304261555Y-146254720D01*
X304420305Y-146095970D01*
X304420305Y-145857842D01*
X304467670Y-145619720D01*
X304467670Y-145447000D01*
X304619695Y-145447000D01*
X304619695Y-146095970D01*
X304778445Y-146254720D01*
X304845699Y-146254720D01*
X305012491Y-146185632D01*
X305155141Y-146244720D01*
X305222395Y-146244720D01*
X305381145Y-146085970D01*
X305381145Y-145437000D01*
X304805200Y-145437000D01*
X304795200Y-145447000D01*
X304619695Y-145447000D01*
X304467670Y-145447000D01*
X304467670Y-145173000D01*
X304619695Y-145173000D01*
X304619695Y-145193000D01*
X305161498Y-145193000D01*
X305231460Y-145239747D01*
X305438852Y-145281000D01*
X305438856Y-145281000D01*
X305508877Y-145294928D01*
X305533170Y-145290096D01*
X305533170Y-145609720D01*
X305580535Y-145847842D01*
X305580535Y-146085970D01*
X305739285Y-146244720D01*
X305806539Y-146244720D01*
X305918548Y-146198324D01*
X305932845Y-146207877D01*
X306180610Y-146257160D01*
X306579390Y-146257160D01*
X306827155Y-146207877D01*
X306849622Y-146192865D01*
X306992235Y-146288157D01*
X307096914Y-146308979D01*
X307127399Y-146354602D01*
X307186762Y-146394267D01*
X307307495Y-146515000D01*
X295502015Y-146515000D01*
X295547127Y-146447485D01*
X295596410Y-146199720D01*
X295596410Y-145600280D01*
X295547127Y-145352515D01*
X295520390Y-145312500D01*
X295547127Y-145272485D01*
X295596410Y-145024720D01*
X295596410Y-144531000D01*
X296219979Y-144531000D01*
X296290000Y-144544928D01*
X296360021Y-144531000D01*
X296360026Y-144531000D01*
X296567418Y-144489747D01*
X296802602Y-144332602D01*
X296842269Y-144273236D01*
X298424506Y-142691000D01*
X299639979Y-142691000D01*
X299710000Y-142704928D01*
X299780021Y-142691000D01*
X299780026Y-142691000D01*
X299987418Y-142649747D01*
X300022840Y-142626079D01*
X300022840Y-142928970D01*
X300022840Y-142928970D01*
G37*
X300022840Y-142928970D02*
X300046739Y-143049121D01*
X299882235Y-143081843D01*
X299733837Y-143181000D01*
X299513167Y-143181000D01*
X299186422Y-143316342D01*
X298936342Y-143566422D01*
X298801000Y-143893167D01*
X298801000Y-144246833D01*
X298936342Y-144573578D01*
X299186422Y-144823658D01*
X299513167Y-144959000D01*
X299703905Y-144959000D01*
X299882235Y-145078157D01*
X300130000Y-145127440D01*
X300930000Y-145127440D01*
X301177765Y-145078157D01*
X301330000Y-144976436D01*
X301482235Y-145078157D01*
X301730000Y-145127440D01*
X302530000Y-145127440D01*
X302774010Y-145078904D01*
X302774010Y-145619720D01*
X302823293Y-145867485D01*
X302963641Y-146077529D01*
X303173685Y-146217877D01*
X303421450Y-146267160D01*
X303820230Y-146267160D01*
X304067995Y-146217877D01*
X304082292Y-146208324D01*
X304194301Y-146254720D01*
X304261555Y-146254720D01*
X304420305Y-146095970D01*
X304420305Y-145857842D01*
X304467670Y-145619720D01*
X304467670Y-145447000D01*
X304619695Y-145447000D01*
X304619695Y-146095970D01*
X304778445Y-146254720D01*
X304845699Y-146254720D01*
X305012491Y-146185632D01*
X305155141Y-146244720D01*
X305222395Y-146244720D01*
X305381145Y-146085970D01*
X305381145Y-145437000D01*
X304805200Y-145437000D01*
X304795200Y-145447000D01*
X304619695Y-145447000D01*
X304467670Y-145447000D01*
X304467670Y-145173000D01*
X304619695Y-145173000D01*
X304619695Y-145193000D01*
X305161498Y-145193000D01*
X305231460Y-145239747D01*
X305438852Y-145281000D01*
X305438856Y-145281000D01*
X305508877Y-145294928D01*
X305533170Y-145290096D01*
X305533170Y-145609720D01*
X305580535Y-145847842D01*
X305580535Y-146085970D01*
X305739285Y-146244720D01*
X305806539Y-146244720D01*
X305918548Y-146198324D01*
X305932845Y-146207877D01*
X306180610Y-146257160D01*
X306579390Y-146257160D01*
X306827155Y-146207877D01*
X306849622Y-146192865D01*
X306992235Y-146288157D01*
X307096914Y-146308979D01*
X307127399Y-146354602D01*
X307186762Y-146394267D01*
X307307495Y-146515000D01*
X295502015Y-146515000D01*
X295547127Y-146447485D01*
X295596410Y-146199720D01*
X295596410Y-145600280D01*
X295547127Y-145352515D01*
X295520390Y-145312500D01*
X295547127Y-145272485D01*
X295596410Y-145024720D01*
X295596410Y-144531000D01*
X296219979Y-144531000D01*
X296290000Y-144544928D01*
X296360021Y-144531000D01*
X296360026Y-144531000D01*
X296567418Y-144489747D01*
X296802602Y-144332602D01*
X296842269Y-144273236D01*
X298424506Y-142691000D01*
X299639979Y-142691000D01*
X299710000Y-142704928D01*
X299780021Y-142691000D01*
X299780026Y-142691000D01*
X299987418Y-142649747D01*
X300022840Y-142626079D01*
X300022840Y-142928970D01*
G36*
X293144061Y-144567281D02*
X293174780Y-144598000D01*
X293190035Y-144598000D01*
X293222582Y-144619747D01*
X293429974Y-144661000D01*
X293429979Y-144661000D01*
X293499999Y-144674928D01*
X293570020Y-144661000D01*
X293902750Y-144661000D01*
X293902750Y-145024720D01*
X293950115Y-145262842D01*
X293950115Y-145362158D01*
X293902750Y-145600280D01*
X293902750Y-146047000D01*
X293750725Y-146047000D01*
X293750725Y-146027000D01*
X293174780Y-146027000D01*
X293150000Y-146051780D01*
X293075220Y-145977000D01*
X292499275Y-145977000D01*
X292499275Y-145997000D01*
X292347250Y-145997000D01*
X292347250Y-145550280D01*
X292299885Y-145312158D01*
X292299885Y-145262842D01*
X292347250Y-145024720D01*
X292347250Y-144852000D01*
X292499275Y-144852000D01*
X292499275Y-145723000D01*
X293075220Y-145723000D01*
X293100000Y-145698220D01*
X293174780Y-145773000D01*
X293750725Y-145773000D01*
X293750725Y-144852000D01*
X293174780Y-144852000D01*
X293125000Y-144901780D01*
X293075220Y-144852000D01*
X292499275Y-144852000D01*
X292347250Y-144852000D01*
X292347250Y-144613883D01*
X292349928Y-144600420D01*
X292347250Y-144586957D01*
X292347250Y-144578000D01*
X292499275Y-144578000D01*
X292499275Y-144598000D01*
X293075220Y-144598000D01*
X293121209Y-144552011D01*
X293144061Y-144567281D01*
X293144061Y-144567281D01*
G37*
X293144061Y-144567281D02*
X293174780Y-144598000D01*
X293190035Y-144598000D01*
X293222582Y-144619747D01*
X293429974Y-144661000D01*
X293429979Y-144661000D01*
X293499999Y-144674928D01*
X293570020Y-144661000D01*
X293902750Y-144661000D01*
X293902750Y-145024720D01*
X293950115Y-145262842D01*
X293950115Y-145362158D01*
X293902750Y-145600280D01*
X293902750Y-146047000D01*
X293750725Y-146047000D01*
X293750725Y-146027000D01*
X293174780Y-146027000D01*
X293150000Y-146051780D01*
X293075220Y-145977000D01*
X292499275Y-145977000D01*
X292499275Y-145997000D01*
X292347250Y-145997000D01*
X292347250Y-145550280D01*
X292299885Y-145312158D01*
X292299885Y-145262842D01*
X292347250Y-145024720D01*
X292347250Y-144852000D01*
X292499275Y-144852000D01*
X292499275Y-145723000D01*
X293075220Y-145723000D01*
X293100000Y-145698220D01*
X293174780Y-145773000D01*
X293750725Y-145773000D01*
X293750725Y-144852000D01*
X293174780Y-144852000D01*
X293125000Y-144901780D01*
X293075220Y-144852000D01*
X292499275Y-144852000D01*
X292347250Y-144852000D01*
X292347250Y-144613883D01*
X292349928Y-144600420D01*
X292347250Y-144586957D01*
X292347250Y-144578000D01*
X292499275Y-144578000D01*
X292499275Y-144598000D01*
X293075220Y-144598000D01*
X293121209Y-144552011D01*
X293144061Y-144567281D01*
G36*
X279463750Y-145887000D02*
X279445500Y-145887000D01*
X279445500Y-145867002D01*
X279483748Y-145867002D01*
X279463750Y-145887000D01*
X279463750Y-145887000D01*
G37*
X279463750Y-145887000D02*
X279445500Y-145887000D01*
X279445500Y-145867002D01*
X279483748Y-145867002D01*
X279463750Y-145887000D01*
G36*
X280474500Y-145887000D02*
X280456250Y-145887000D01*
X280436252Y-145867002D01*
X280474500Y-145867002D01*
X280474500Y-145887000D01*
X280474500Y-145887000D01*
G37*
X280474500Y-145887000D02*
X280456250Y-145887000D01*
X280436252Y-145867002D01*
X280474500Y-145867002D01*
X280474500Y-145887000D01*
G36*
X280474500Y-145612998D02*
X280436252Y-145612998D01*
X280474500Y-145574750D01*
X280474500Y-145612998D01*
X280474500Y-145612998D01*
G37*
X280474500Y-145612998D02*
X280436252Y-145612998D01*
X280474500Y-145574750D01*
X280474500Y-145612998D01*
G36*
X279483748Y-145612998D02*
X279445500Y-145612998D01*
X279445500Y-145574750D01*
X279483748Y-145612998D01*
X279483748Y-145612998D01*
G37*
X279483748Y-145612998D02*
X279445500Y-145612998D01*
X279445500Y-145574750D01*
X279483748Y-145612998D01*
G36*
X280474500Y-144665250D02*
X280436252Y-144627002D01*
X280474500Y-144627002D01*
X280474500Y-144665250D01*
X280474500Y-144665250D01*
G37*
X280474500Y-144665250D02*
X280436252Y-144627002D01*
X280474500Y-144627002D01*
X280474500Y-144665250D01*
G36*
X279445500Y-144665250D02*
X279445500Y-144627002D01*
X279483748Y-144627002D01*
X279445500Y-144665250D01*
X279445500Y-144665250D01*
G37*
X279445500Y-144665250D02*
X279445500Y-144627002D01*
X279483748Y-144627002D01*
X279445500Y-144665250D01*
G36*
X283247000Y-144235220D02*
X283267000Y-144255220D01*
X283267000Y-144280725D01*
X283287000Y-144280725D01*
X283287000Y-144432750D01*
X282993000Y-144432750D01*
X282993000Y-144280725D01*
X283013000Y-144280725D01*
X283013000Y-144233420D01*
X283247000Y-144233420D01*
X283247000Y-144235220D01*
X283247000Y-144235220D01*
G37*
X283247000Y-144235220D02*
X283267000Y-144255220D01*
X283267000Y-144280725D01*
X283287000Y-144280725D01*
X283287000Y-144432750D01*
X282993000Y-144432750D01*
X282993000Y-144280725D01*
X283013000Y-144280725D01*
X283013000Y-144233420D01*
X283247000Y-144233420D01*
X283247000Y-144235220D01*
G36*
X279483748Y-144372998D02*
X279445500Y-144372998D01*
X279445500Y-144334750D01*
X279483748Y-144372998D01*
X279483748Y-144372998D01*
G37*
X279483748Y-144372998D02*
X279445500Y-144372998D01*
X279445500Y-144334750D01*
X279483748Y-144372998D01*
G36*
X280474500Y-144372998D02*
X280436252Y-144372998D01*
X280474500Y-144334750D01*
X280474500Y-144372998D01*
X280474500Y-144372998D01*
G37*
X280474500Y-144372998D02*
X280436252Y-144372998D01*
X280474500Y-144334750D01*
X280474500Y-144372998D01*
G36*
X287990173Y-126310802D02*
X287893500Y-126544191D01*
X287893500Y-126702250D01*
X288052250Y-126861000D01*
X288973000Y-126861000D01*
X288973000Y-126841000D01*
X289227000Y-126841000D01*
X289227000Y-126861000D01*
X290147750Y-126861000D01*
X290158025Y-126850725D01*
X290673000Y-126850725D01*
X290673000Y-126803420D01*
X290927000Y-126803420D01*
X290927000Y-126850725D01*
X291575970Y-126850725D01*
X291590695Y-126836000D01*
X292148000Y-126836000D01*
X292148000Y-126816000D01*
X292402000Y-126816000D01*
X292402000Y-126836000D01*
X292984305Y-126836000D01*
X292999030Y-126850725D01*
X293648000Y-126850725D01*
X293648000Y-126803420D01*
X293902000Y-126803420D01*
X293902000Y-126850725D01*
X294550970Y-126850725D01*
X294709720Y-126691975D01*
X294709720Y-126624721D01*
X294613047Y-126391332D01*
X294434419Y-126212703D01*
X294367538Y-126185000D01*
X313725000Y-126185000D01*
X313725001Y-141625262D01*
X313530213Y-141569392D01*
X312729605Y-142370000D01*
X313530213Y-143170608D01*
X313725001Y-143114738D01*
X313725001Y-143660251D01*
X313559765Y-143549843D01*
X313312000Y-143500560D01*
X313307484Y-143500560D01*
X313350608Y-143350213D01*
X312550000Y-142549605D01*
X311749392Y-143350213D01*
X311792516Y-143500560D01*
X311788000Y-143500560D01*
X311540235Y-143549843D01*
X311330191Y-143690191D01*
X311189843Y-143900235D01*
X311150000Y-144100541D01*
X311110157Y-143900235D01*
X310969809Y-143690191D01*
X310759765Y-143549843D01*
X310512000Y-143500560D01*
X310507484Y-143500560D01*
X310550608Y-143350213D01*
X309750000Y-142549605D01*
X308949392Y-143350213D01*
X308992516Y-143500560D01*
X308988000Y-143500560D01*
X308740235Y-143549843D01*
X308687440Y-143585120D01*
X308687440Y-143290000D01*
X308657272Y-143138336D01*
X308769787Y-143170608D01*
X309570395Y-142370000D01*
X309929605Y-142370000D01*
X310730213Y-143170608D01*
X310972397Y-143101143D01*
X311159144Y-142577698D01*
X311138353Y-142162302D01*
X311140856Y-142162302D01*
X311168638Y-142717368D01*
X311327603Y-143101143D01*
X311569787Y-143170608D01*
X312370395Y-142370000D01*
X311569787Y-141569392D01*
X311327603Y-141638857D01*
X311140856Y-142162302D01*
X311138353Y-142162302D01*
X311131362Y-142022632D01*
X310972397Y-141638857D01*
X310730213Y-141569392D01*
X309929605Y-142370000D01*
X309570395Y-142370000D01*
X308769787Y-141569392D01*
X308602741Y-141617306D01*
X308445970Y-141460535D01*
X308207842Y-141460535D01*
X307969720Y-141413170D01*
X307370280Y-141413170D01*
X307132158Y-141460535D01*
X306937569Y-141460535D01*
X306749720Y-141423170D01*
X306508345Y-141423170D01*
X306506673Y-141421498D01*
X306501000Y-141392979D01*
X306501000Y-141392974D01*
X306500367Y-141389787D01*
X308949392Y-141389787D01*
X309750000Y-142190395D01*
X310550608Y-141389787D01*
X311749392Y-141389787D01*
X312550000Y-142190395D01*
X313350608Y-141389787D01*
X313281143Y-141147603D01*
X312757698Y-140960856D01*
X312202632Y-140988638D01*
X311818857Y-141147603D01*
X311749392Y-141389787D01*
X310550608Y-141389787D01*
X310481143Y-141147603D01*
X309957698Y-140960856D01*
X309402632Y-140988638D01*
X309018857Y-141147603D01*
X308949392Y-141389787D01*
X306500367Y-141389787D01*
X306459747Y-141185582D01*
X306356548Y-141031135D01*
X306342268Y-141009763D01*
X306342267Y-141009762D01*
X306323000Y-140980927D01*
X306323000Y-140695200D01*
X306164250Y-140536450D01*
X306023970Y-140536450D01*
X305878834Y-140596567D01*
X305854418Y-140580253D01*
X305762855Y-140562040D01*
X305672765Y-140501843D01*
X305425000Y-140452560D01*
X304675000Y-140452560D01*
X304444833Y-140498343D01*
X304567529Y-140416359D01*
X304707877Y-140206315D01*
X304757160Y-139958550D01*
X304757160Y-139571000D01*
X305695495Y-139571000D01*
X306698347Y-140573853D01*
X306577000Y-140695200D01*
X306577000Y-141271145D01*
X307225970Y-141271145D01*
X307235970Y-141261145D01*
X307543000Y-141261145D01*
X307543000Y-141213840D01*
X307797000Y-141213840D01*
X307797000Y-141261145D01*
X308445970Y-141261145D01*
X308604720Y-141102395D01*
X308604720Y-141035141D01*
X308540566Y-140880260D01*
X308593418Y-140869747D01*
X308828602Y-140712602D01*
X308868269Y-140653236D01*
X309365044Y-140156461D01*
X309520235Y-140260157D01*
X309768000Y-140309440D01*
X311292000Y-140309440D01*
X311539765Y-140260157D01*
X311749809Y-140119809D01*
X311890157Y-139909765D01*
X311939440Y-139662000D01*
X311939440Y-138138000D01*
X311890157Y-137890235D01*
X311749809Y-137680191D01*
X311539765Y-137539843D01*
X311292000Y-137490560D01*
X311261605Y-137490560D01*
X311650625Y-137230625D01*
X311978839Y-136739418D01*
X312094092Y-136160000D01*
X311978839Y-135580582D01*
X311650625Y-135089375D01*
X311352239Y-134890000D01*
X311650625Y-134690625D01*
X311978839Y-134199418D01*
X312094092Y-133620000D01*
X311978839Y-133040582D01*
X311650625Y-132549375D01*
X311352239Y-132350000D01*
X311650625Y-132150625D01*
X311978839Y-131659418D01*
X312094092Y-131080000D01*
X311978839Y-130500582D01*
X311650625Y-130009375D01*
X311352239Y-129810000D01*
X311650625Y-129610625D01*
X311978839Y-129119418D01*
X312094092Y-128540000D01*
X311978839Y-127960582D01*
X311650625Y-127469375D01*
X311159418Y-127141161D01*
X310726256Y-127055000D01*
X310433744Y-127055000D01*
X310000582Y-127141161D01*
X309509375Y-127469375D01*
X309497184Y-127487619D01*
X309488157Y-127442235D01*
X309347809Y-127232191D01*
X309137765Y-127091843D01*
X308890000Y-127042560D01*
X307190000Y-127042560D01*
X306942235Y-127091843D01*
X306732191Y-127232191D01*
X306591843Y-127442235D01*
X306542560Y-127690000D01*
X306542560Y-127759000D01*
X304847449Y-127759000D01*
X304816359Y-127712471D01*
X304606315Y-127572123D01*
X304358550Y-127522840D01*
X303959770Y-127522840D01*
X303712005Y-127572123D01*
X303709580Y-127573743D01*
X303707155Y-127572123D01*
X303459390Y-127522840D01*
X303060610Y-127522840D01*
X302812845Y-127572123D01*
X302602801Y-127712471D01*
X302462453Y-127922515D01*
X302450477Y-127982722D01*
X302427733Y-128016761D01*
X300634720Y-129809774D01*
X300634720Y-129788865D01*
X300475970Y-129630115D01*
X300237842Y-129630115D01*
X299999720Y-129582750D01*
X299869362Y-129582750D01*
X299785053Y-129565980D01*
X298389947Y-129565980D01*
X298378258Y-129568305D01*
X298328000Y-129518047D01*
X298328000Y-129430725D01*
X298348000Y-129430725D01*
X298348000Y-128854780D01*
X298602000Y-128854780D01*
X298602000Y-129430725D01*
X299573000Y-129430725D01*
X299573000Y-128854780D01*
X299827000Y-128854780D01*
X299827000Y-129430725D01*
X300475970Y-129430725D01*
X300634720Y-129271975D01*
X300634720Y-129204721D01*
X300538047Y-128971332D01*
X300359419Y-128792703D01*
X300126030Y-128696030D01*
X299985750Y-128696030D01*
X299827000Y-128854780D01*
X299573000Y-128854780D01*
X299414250Y-128696030D01*
X299273970Y-128696030D01*
X299087500Y-128773268D01*
X298901030Y-128696030D01*
X298760750Y-128696030D01*
X298602000Y-128854780D01*
X298348000Y-128854780D01*
X298189250Y-128696030D01*
X298048970Y-128696030D01*
X298004136Y-128714601D01*
X298009720Y-128701119D01*
X298009720Y-128633865D01*
X297850970Y-128475115D01*
X297612842Y-128475115D01*
X297374720Y-128427750D01*
X297244362Y-128427750D01*
X297160053Y-128410980D01*
X295939947Y-128410980D01*
X295855638Y-128427750D01*
X295725280Y-128427750D01*
X295487158Y-128475115D01*
X295249030Y-128475115D01*
X295160565Y-128563580D01*
X294945440Y-128563580D01*
X294875419Y-128549652D01*
X294805398Y-128563580D01*
X294805394Y-128563580D01*
X294598002Y-128604833D01*
X294494441Y-128674030D01*
X294424498Y-128720765D01*
X294362818Y-128761978D01*
X294323153Y-128821342D01*
X293341935Y-129802560D01*
X293100000Y-129802560D01*
X293029927Y-129816498D01*
X293026310Y-129815000D01*
X292983750Y-129815000D01*
X292970414Y-129828336D01*
X292961000Y-129830209D01*
X292961000Y-129429165D01*
X293094265Y-129402657D01*
X293304309Y-129262309D01*
X293444657Y-129052265D01*
X293493940Y-128804500D01*
X293493940Y-128696410D01*
X294074720Y-128696410D01*
X294322485Y-128647127D01*
X294532529Y-128506779D01*
X294672877Y-128296735D01*
X294722010Y-128049721D01*
X295090280Y-128049721D01*
X295090280Y-128116975D01*
X295249030Y-128275725D01*
X295898000Y-128275725D01*
X295898000Y-128049721D01*
X296140280Y-128049721D01*
X296140280Y-128116975D01*
X296152000Y-128128695D01*
X296152000Y-128275725D01*
X296948000Y-128275725D01*
X296948000Y-128128695D01*
X296959720Y-128116975D01*
X296959720Y-128049721D01*
X296948000Y-128021426D01*
X296948000Y-127699780D01*
X297202000Y-127699780D01*
X297202000Y-128275725D01*
X297850970Y-128275725D01*
X298009720Y-128116975D01*
X298009720Y-128049721D01*
X297913047Y-127816332D01*
X297734419Y-127637703D01*
X297501030Y-127541030D01*
X297360750Y-127541030D01*
X297202000Y-127699780D01*
X296948000Y-127699780D01*
X296789250Y-127541030D01*
X296648970Y-127541030D01*
X296550000Y-127582025D01*
X296451030Y-127541030D01*
X296310750Y-127541030D01*
X296152000Y-127699780D01*
X296152000Y-128021426D01*
X296140280Y-128049721D01*
X295898000Y-128049721D01*
X295898000Y-127699780D01*
X295739250Y-127541030D01*
X295598970Y-127541030D01*
X295365581Y-127637703D01*
X295186953Y-127816332D01*
X295090280Y-128049721D01*
X294722010Y-128049721D01*
X294722160Y-128048970D01*
X294722160Y-127650190D01*
X294672877Y-127402425D01*
X294663324Y-127388128D01*
X294709720Y-127276119D01*
X294709720Y-127208865D01*
X294550970Y-127050115D01*
X294312842Y-127050115D01*
X294074720Y-127002750D01*
X293475280Y-127002750D01*
X293237158Y-127050115D01*
X292999030Y-127050115D01*
X292959145Y-127090000D01*
X292402000Y-127090000D01*
X292402000Y-127110000D01*
X292148000Y-127110000D01*
X292148000Y-127090000D01*
X291615855Y-127090000D01*
X291575970Y-127050115D01*
X291337842Y-127050115D01*
X291099720Y-127002750D01*
X290500280Y-127002750D01*
X290262158Y-127050115D01*
X290024030Y-127050115D01*
X289959145Y-127115000D01*
X289227000Y-127115000D01*
X289227000Y-127135000D01*
X288973000Y-127135000D01*
X288973000Y-127115000D01*
X288052250Y-127115000D01*
X287893500Y-127273750D01*
X287893500Y-127431809D01*
X287990173Y-127665198D01*
X288067076Y-127742101D01*
X287930343Y-127946735D01*
X287881060Y-128194500D01*
X287881060Y-128829500D01*
X287927788Y-129064420D01*
X287652011Y-129064420D01*
X287522485Y-128977873D01*
X287274720Y-128928590D01*
X286727160Y-128928590D01*
X286727160Y-128531030D01*
X286677877Y-128283265D01*
X286676582Y-128281327D01*
X286676582Y-128163277D01*
X286808025Y-128294720D01*
X286875279Y-128294720D01*
X287108668Y-128198047D01*
X287287297Y-128019419D01*
X287383970Y-127786030D01*
X287383970Y-127645750D01*
X287225220Y-127487000D01*
X286649275Y-127487000D01*
X286649275Y-127507000D01*
X286497250Y-127507000D01*
X286497250Y-127060280D01*
X286449885Y-126822158D01*
X286449885Y-126584030D01*
X286649275Y-126584030D01*
X286649275Y-127233000D01*
X287225220Y-127233000D01*
X287383970Y-127074250D01*
X287383970Y-126933970D01*
X287287297Y-126700581D01*
X287108668Y-126521953D01*
X286875279Y-126425280D01*
X286808025Y-126425280D01*
X286649275Y-126584030D01*
X286449885Y-126584030D01*
X286291135Y-126425280D01*
X286223881Y-126425280D01*
X286111872Y-126471676D01*
X286097575Y-126462123D01*
X285849810Y-126412840D01*
X285451030Y-126412840D01*
X285203265Y-126462123D01*
X285174012Y-126481669D01*
X284906833Y-126371000D01*
X284553167Y-126371000D01*
X284318545Y-126468183D01*
X284240000Y-126452560D01*
X284040000Y-126452560D01*
X284002842Y-126459951D01*
X283840000Y-126427560D01*
X283640000Y-126427560D01*
X283540000Y-126447451D01*
X283440000Y-126427560D01*
X283240000Y-126427560D01*
X283140000Y-126447451D01*
X283040000Y-126427560D01*
X282840000Y-126427560D01*
X282740000Y-126447451D01*
X282640000Y-126427560D01*
X282440000Y-126427560D01*
X282192235Y-126476843D01*
X282042886Y-126576636D01*
X281979440Y-126513190D01*
X281979440Y-126185000D01*
X288115974Y-126185000D01*
X287990173Y-126310802D01*
X287990173Y-126310802D01*
G37*
X287990173Y-126310802D02*
X287893500Y-126544191D01*
X287893500Y-126702250D01*
X288052250Y-126861000D01*
X288973000Y-126861000D01*
X288973000Y-126841000D01*
X289227000Y-126841000D01*
X289227000Y-126861000D01*
X290147750Y-126861000D01*
X290158025Y-126850725D01*
X290673000Y-126850725D01*
X290673000Y-126803420D01*
X290927000Y-126803420D01*
X290927000Y-126850725D01*
X291575970Y-126850725D01*
X291590695Y-126836000D01*
X292148000Y-126836000D01*
X292148000Y-126816000D01*
X292402000Y-126816000D01*
X292402000Y-126836000D01*
X292984305Y-126836000D01*
X292999030Y-126850725D01*
X293648000Y-126850725D01*
X293648000Y-126803420D01*
X293902000Y-126803420D01*
X293902000Y-126850725D01*
X294550970Y-126850725D01*
X294709720Y-126691975D01*
X294709720Y-126624721D01*
X294613047Y-126391332D01*
X294434419Y-126212703D01*
X294367538Y-126185000D01*
X313725000Y-126185000D01*
X313725001Y-141625262D01*
X313530213Y-141569392D01*
X312729605Y-142370000D01*
X313530213Y-143170608D01*
X313725001Y-143114738D01*
X313725001Y-143660251D01*
X313559765Y-143549843D01*
X313312000Y-143500560D01*
X313307484Y-143500560D01*
X313350608Y-143350213D01*
X312550000Y-142549605D01*
X311749392Y-143350213D01*
X311792516Y-143500560D01*
X311788000Y-143500560D01*
X311540235Y-143549843D01*
X311330191Y-143690191D01*
X311189843Y-143900235D01*
X311150000Y-144100541D01*
X311110157Y-143900235D01*
X310969809Y-143690191D01*
X310759765Y-143549843D01*
X310512000Y-143500560D01*
X310507484Y-143500560D01*
X310550608Y-143350213D01*
X309750000Y-142549605D01*
X308949392Y-143350213D01*
X308992516Y-143500560D01*
X308988000Y-143500560D01*
X308740235Y-143549843D01*
X308687440Y-143585120D01*
X308687440Y-143290000D01*
X308657272Y-143138336D01*
X308769787Y-143170608D01*
X309570395Y-142370000D01*
X309929605Y-142370000D01*
X310730213Y-143170608D01*
X310972397Y-143101143D01*
X311159144Y-142577698D01*
X311138353Y-142162302D01*
X311140856Y-142162302D01*
X311168638Y-142717368D01*
X311327603Y-143101143D01*
X311569787Y-143170608D01*
X312370395Y-142370000D01*
X311569787Y-141569392D01*
X311327603Y-141638857D01*
X311140856Y-142162302D01*
X311138353Y-142162302D01*
X311131362Y-142022632D01*
X310972397Y-141638857D01*
X310730213Y-141569392D01*
X309929605Y-142370000D01*
X309570395Y-142370000D01*
X308769787Y-141569392D01*
X308602741Y-141617306D01*
X308445970Y-141460535D01*
X308207842Y-141460535D01*
X307969720Y-141413170D01*
X307370280Y-141413170D01*
X307132158Y-141460535D01*
X306937569Y-141460535D01*
X306749720Y-141423170D01*
X306508345Y-141423170D01*
X306506673Y-141421498D01*
X306501000Y-141392979D01*
X306501000Y-141392974D01*
X306500367Y-141389787D01*
X308949392Y-141389787D01*
X309750000Y-142190395D01*
X310550608Y-141389787D01*
X311749392Y-141389787D01*
X312550000Y-142190395D01*
X313350608Y-141389787D01*
X313281143Y-141147603D01*
X312757698Y-140960856D01*
X312202632Y-140988638D01*
X311818857Y-141147603D01*
X311749392Y-141389787D01*
X310550608Y-141389787D01*
X310481143Y-141147603D01*
X309957698Y-140960856D01*
X309402632Y-140988638D01*
X309018857Y-141147603D01*
X308949392Y-141389787D01*
X306500367Y-141389787D01*
X306459747Y-141185582D01*
X306356548Y-141031135D01*
X306342268Y-141009763D01*
X306342267Y-141009762D01*
X306323000Y-140980927D01*
X306323000Y-140695200D01*
X306164250Y-140536450D01*
X306023970Y-140536450D01*
X305878834Y-140596567D01*
X305854418Y-140580253D01*
X305762855Y-140562040D01*
X305672765Y-140501843D01*
X305425000Y-140452560D01*
X304675000Y-140452560D01*
X304444833Y-140498343D01*
X304567529Y-140416359D01*
X304707877Y-140206315D01*
X304757160Y-139958550D01*
X304757160Y-139571000D01*
X305695495Y-139571000D01*
X306698347Y-140573853D01*
X306577000Y-140695200D01*
X306577000Y-141271145D01*
X307225970Y-141271145D01*
X307235970Y-141261145D01*
X307543000Y-141261145D01*
X307543000Y-141213840D01*
X307797000Y-141213840D01*
X307797000Y-141261145D01*
X308445970Y-141261145D01*
X308604720Y-141102395D01*
X308604720Y-141035141D01*
X308540566Y-140880260D01*
X308593418Y-140869747D01*
X308828602Y-140712602D01*
X308868269Y-140653236D01*
X309365044Y-140156461D01*
X309520235Y-140260157D01*
X309768000Y-140309440D01*
X311292000Y-140309440D01*
X311539765Y-140260157D01*
X311749809Y-140119809D01*
X311890157Y-139909765D01*
X311939440Y-139662000D01*
X311939440Y-138138000D01*
X311890157Y-137890235D01*
X311749809Y-137680191D01*
X311539765Y-137539843D01*
X311292000Y-137490560D01*
X311261605Y-137490560D01*
X311650625Y-137230625D01*
X311978839Y-136739418D01*
X312094092Y-136160000D01*
X311978839Y-135580582D01*
X311650625Y-135089375D01*
X311352239Y-134890000D01*
X311650625Y-134690625D01*
X311978839Y-134199418D01*
X312094092Y-133620000D01*
X311978839Y-133040582D01*
X311650625Y-132549375D01*
X311352239Y-132350000D01*
X311650625Y-132150625D01*
X311978839Y-131659418D01*
X312094092Y-131080000D01*
X311978839Y-130500582D01*
X311650625Y-130009375D01*
X311352239Y-129810000D01*
X311650625Y-129610625D01*
X311978839Y-129119418D01*
X312094092Y-128540000D01*
X311978839Y-127960582D01*
X311650625Y-127469375D01*
X311159418Y-127141161D01*
X310726256Y-127055000D01*
X310433744Y-127055000D01*
X310000582Y-127141161D01*
X309509375Y-127469375D01*
X309497184Y-127487619D01*
X309488157Y-127442235D01*
X309347809Y-127232191D01*
X309137765Y-127091843D01*
X308890000Y-127042560D01*
X307190000Y-127042560D01*
X306942235Y-127091843D01*
X306732191Y-127232191D01*
X306591843Y-127442235D01*
X306542560Y-127690000D01*
X306542560Y-127759000D01*
X304847449Y-127759000D01*
X304816359Y-127712471D01*
X304606315Y-127572123D01*
X304358550Y-127522840D01*
X303959770Y-127522840D01*
X303712005Y-127572123D01*
X303709580Y-127573743D01*
X303707155Y-127572123D01*
X303459390Y-127522840D01*
X303060610Y-127522840D01*
X302812845Y-127572123D01*
X302602801Y-127712471D01*
X302462453Y-127922515D01*
X302450477Y-127982722D01*
X302427733Y-128016761D01*
X300634720Y-129809774D01*
X300634720Y-129788865D01*
X300475970Y-129630115D01*
X300237842Y-129630115D01*
X299999720Y-129582750D01*
X299869362Y-129582750D01*
X299785053Y-129565980D01*
X298389947Y-129565980D01*
X298378258Y-129568305D01*
X298328000Y-129518047D01*
X298328000Y-129430725D01*
X298348000Y-129430725D01*
X298348000Y-128854780D01*
X298602000Y-128854780D01*
X298602000Y-129430725D01*
X299573000Y-129430725D01*
X299573000Y-128854780D01*
X299827000Y-128854780D01*
X299827000Y-129430725D01*
X300475970Y-129430725D01*
X300634720Y-129271975D01*
X300634720Y-129204721D01*
X300538047Y-128971332D01*
X300359419Y-128792703D01*
X300126030Y-128696030D01*
X299985750Y-128696030D01*
X299827000Y-128854780D01*
X299573000Y-128854780D01*
X299414250Y-128696030D01*
X299273970Y-128696030D01*
X299087500Y-128773268D01*
X298901030Y-128696030D01*
X298760750Y-128696030D01*
X298602000Y-128854780D01*
X298348000Y-128854780D01*
X298189250Y-128696030D01*
X298048970Y-128696030D01*
X298004136Y-128714601D01*
X298009720Y-128701119D01*
X298009720Y-128633865D01*
X297850970Y-128475115D01*
X297612842Y-128475115D01*
X297374720Y-128427750D01*
X297244362Y-128427750D01*
X297160053Y-128410980D01*
X295939947Y-128410980D01*
X295855638Y-128427750D01*
X295725280Y-128427750D01*
X295487158Y-128475115D01*
X295249030Y-128475115D01*
X295160565Y-128563580D01*
X294945440Y-128563580D01*
X294875419Y-128549652D01*
X294805398Y-128563580D01*
X294805394Y-128563580D01*
X294598002Y-128604833D01*
X294494441Y-128674030D01*
X294424498Y-128720765D01*
X294362818Y-128761978D01*
X294323153Y-128821342D01*
X293341935Y-129802560D01*
X293100000Y-129802560D01*
X293029927Y-129816498D01*
X293026310Y-129815000D01*
X292983750Y-129815000D01*
X292970414Y-129828336D01*
X292961000Y-129830209D01*
X292961000Y-129429165D01*
X293094265Y-129402657D01*
X293304309Y-129262309D01*
X293444657Y-129052265D01*
X293493940Y-128804500D01*
X293493940Y-128696410D01*
X294074720Y-128696410D01*
X294322485Y-128647127D01*
X294532529Y-128506779D01*
X294672877Y-128296735D01*
X294722010Y-128049721D01*
X295090280Y-128049721D01*
X295090280Y-128116975D01*
X295249030Y-128275725D01*
X295898000Y-128275725D01*
X295898000Y-128049721D01*
X296140280Y-128049721D01*
X296140280Y-128116975D01*
X296152000Y-128128695D01*
X296152000Y-128275725D01*
X296948000Y-128275725D01*
X296948000Y-128128695D01*
X296959720Y-128116975D01*
X296959720Y-128049721D01*
X296948000Y-128021426D01*
X296948000Y-127699780D01*
X297202000Y-127699780D01*
X297202000Y-128275725D01*
X297850970Y-128275725D01*
X298009720Y-128116975D01*
X298009720Y-128049721D01*
X297913047Y-127816332D01*
X297734419Y-127637703D01*
X297501030Y-127541030D01*
X297360750Y-127541030D01*
X297202000Y-127699780D01*
X296948000Y-127699780D01*
X296789250Y-127541030D01*
X296648970Y-127541030D01*
X296550000Y-127582025D01*
X296451030Y-127541030D01*
X296310750Y-127541030D01*
X296152000Y-127699780D01*
X296152000Y-128021426D01*
X296140280Y-128049721D01*
X295898000Y-128049721D01*
X295898000Y-127699780D01*
X295739250Y-127541030D01*
X295598970Y-127541030D01*
X295365581Y-127637703D01*
X295186953Y-127816332D01*
X295090280Y-128049721D01*
X294722010Y-128049721D01*
X294722160Y-128048970D01*
X294722160Y-127650190D01*
X294672877Y-127402425D01*
X294663324Y-127388128D01*
X294709720Y-127276119D01*
X294709720Y-127208865D01*
X294550970Y-127050115D01*
X294312842Y-127050115D01*
X294074720Y-127002750D01*
X293475280Y-127002750D01*
X293237158Y-127050115D01*
X292999030Y-127050115D01*
X292959145Y-127090000D01*
X292402000Y-127090000D01*
X292402000Y-127110000D01*
X292148000Y-127110000D01*
X292148000Y-127090000D01*
X291615855Y-127090000D01*
X291575970Y-127050115D01*
X291337842Y-127050115D01*
X291099720Y-127002750D01*
X290500280Y-127002750D01*
X290262158Y-127050115D01*
X290024030Y-127050115D01*
X289959145Y-127115000D01*
X289227000Y-127115000D01*
X289227000Y-127135000D01*
X288973000Y-127135000D01*
X288973000Y-127115000D01*
X288052250Y-127115000D01*
X287893500Y-127273750D01*
X287893500Y-127431809D01*
X287990173Y-127665198D01*
X288067076Y-127742101D01*
X287930343Y-127946735D01*
X287881060Y-128194500D01*
X287881060Y-128829500D01*
X287927788Y-129064420D01*
X287652011Y-129064420D01*
X287522485Y-128977873D01*
X287274720Y-128928590D01*
X286727160Y-128928590D01*
X286727160Y-128531030D01*
X286677877Y-128283265D01*
X286676582Y-128281327D01*
X286676582Y-128163277D01*
X286808025Y-128294720D01*
X286875279Y-128294720D01*
X287108668Y-128198047D01*
X287287297Y-128019419D01*
X287383970Y-127786030D01*
X287383970Y-127645750D01*
X287225220Y-127487000D01*
X286649275Y-127487000D01*
X286649275Y-127507000D01*
X286497250Y-127507000D01*
X286497250Y-127060280D01*
X286449885Y-126822158D01*
X286449885Y-126584030D01*
X286649275Y-126584030D01*
X286649275Y-127233000D01*
X287225220Y-127233000D01*
X287383970Y-127074250D01*
X287383970Y-126933970D01*
X287287297Y-126700581D01*
X287108668Y-126521953D01*
X286875279Y-126425280D01*
X286808025Y-126425280D01*
X286649275Y-126584030D01*
X286449885Y-126584030D01*
X286291135Y-126425280D01*
X286223881Y-126425280D01*
X286111872Y-126471676D01*
X286097575Y-126462123D01*
X285849810Y-126412840D01*
X285451030Y-126412840D01*
X285203265Y-126462123D01*
X285174012Y-126481669D01*
X284906833Y-126371000D01*
X284553167Y-126371000D01*
X284318545Y-126468183D01*
X284240000Y-126452560D01*
X284040000Y-126452560D01*
X284002842Y-126459951D01*
X283840000Y-126427560D01*
X283640000Y-126427560D01*
X283540000Y-126447451D01*
X283440000Y-126427560D01*
X283240000Y-126427560D01*
X283140000Y-126447451D01*
X283040000Y-126427560D01*
X282840000Y-126427560D01*
X282740000Y-126447451D01*
X282640000Y-126427560D01*
X282440000Y-126427560D01*
X282192235Y-126476843D01*
X282042886Y-126576636D01*
X281979440Y-126513190D01*
X281979440Y-126185000D01*
X288115974Y-126185000D01*
X287990173Y-126310802D01*
G36*
X304076843Y-143147765D02*
X304217191Y-143357809D01*
X304240621Y-143373465D01*
X304150580Y-143391375D01*
X303915396Y-143548520D01*
X303875729Y-143607886D01*
X303722059Y-143761556D01*
X303653658Y-143596422D01*
X303403578Y-143346342D01*
X303289502Y-143299090D01*
X303289502Y-143283706D01*
X303430260Y-143342010D01*
X303448250Y-143360000D01*
X303751750Y-143360000D01*
X303769740Y-143342010D01*
X303959698Y-143263327D01*
X304076580Y-143146445D01*
X304076843Y-143147765D01*
X304076843Y-143147765D01*
G37*
X304076843Y-143147765D02*
X304217191Y-143357809D01*
X304240621Y-143373465D01*
X304150580Y-143391375D01*
X303915396Y-143548520D01*
X303875729Y-143607886D01*
X303722059Y-143761556D01*
X303653658Y-143596422D01*
X303403578Y-143346342D01*
X303289502Y-143299090D01*
X303289502Y-143283706D01*
X303430260Y-143342010D01*
X303448250Y-143360000D01*
X303751750Y-143360000D01*
X303769740Y-143342010D01*
X303959698Y-143263327D01*
X304076580Y-143146445D01*
X304076843Y-143147765D01*
G36*
X280679494Y-143245000D02*
X280633250Y-143245000D01*
X280474500Y-143403750D01*
X280474500Y-143496474D01*
X280341066Y-143363041D01*
X280343970Y-143356030D01*
X280343970Y-143215750D01*
X280185220Y-143057000D01*
X279609275Y-143057000D01*
X279609275Y-143077000D01*
X279457250Y-143077000D01*
X279457250Y-142851000D01*
X280285495Y-142851000D01*
X280679494Y-143245000D01*
X280679494Y-143245000D01*
G37*
X280679494Y-143245000D02*
X280633250Y-143245000D01*
X280474500Y-143403750D01*
X280474500Y-143496474D01*
X280341066Y-143363041D01*
X280343970Y-143356030D01*
X280343970Y-143215750D01*
X280185220Y-143057000D01*
X279609275Y-143057000D01*
X279609275Y-143077000D01*
X279457250Y-143077000D01*
X279457250Y-142851000D01*
X280285495Y-142851000D01*
X280679494Y-143245000D01*
G36*
X275489500Y-142538225D02*
X275751530Y-142538225D01*
X275754030Y-142540725D01*
X276403000Y-142540725D01*
X276403000Y-142493420D01*
X276509001Y-142493420D01*
X276509000Y-142692750D01*
X276230280Y-142692750D01*
X276004726Y-142737615D01*
X275900342Y-142737615D01*
X275662220Y-142690250D01*
X275531862Y-142690250D01*
X275447553Y-142673480D01*
X275232151Y-142673480D01*
X275215500Y-142589767D01*
X275215500Y-142580710D01*
X275222500Y-142563810D01*
X275222500Y-142538225D01*
X275235500Y-142538225D01*
X275235500Y-142490920D01*
X275489500Y-142490920D01*
X275489500Y-142538225D01*
X275489500Y-142538225D01*
G37*
X275489500Y-142538225D02*
X275751530Y-142538225D01*
X275754030Y-142540725D01*
X276403000Y-142540725D01*
X276403000Y-142493420D01*
X276509001Y-142493420D01*
X276509000Y-142692750D01*
X276230280Y-142692750D01*
X276004726Y-142737615D01*
X275900342Y-142737615D01*
X275662220Y-142690250D01*
X275531862Y-142690250D01*
X275447553Y-142673480D01*
X275232151Y-142673480D01*
X275215500Y-142589767D01*
X275215500Y-142580710D01*
X275222500Y-142563810D01*
X275222500Y-142538225D01*
X275235500Y-142538225D01*
X275235500Y-142490920D01*
X275489500Y-142490920D01*
X275489500Y-142538225D01*
G36*
X301097000Y-141730725D02*
X301117000Y-141730725D01*
X301117000Y-141882750D01*
X300823000Y-141882750D01*
X300823000Y-141872505D01*
X301012085Y-141683420D01*
X301097000Y-141683420D01*
X301097000Y-141730725D01*
X301097000Y-141730725D01*
G37*
X301097000Y-141730725D02*
X301117000Y-141730725D01*
X301117000Y-141882750D01*
X300823000Y-141882750D01*
X300823000Y-141872505D01*
X301012085Y-141683420D01*
X301097000Y-141683420D01*
X301097000Y-141730725D01*
G36*
X273761775Y-141160500D02*
X274084645Y-141160500D01*
X274114030Y-141189885D01*
X274352158Y-141189885D01*
X274590280Y-141237250D01*
X275189720Y-141237250D01*
X275400000Y-141195423D01*
X275610280Y-141237250D01*
X276057000Y-141237250D01*
X276057000Y-141389275D01*
X276037000Y-141389275D01*
X276037000Y-141436580D01*
X275783000Y-141436580D01*
X275783000Y-141389275D01*
X275017000Y-141389275D01*
X275017000Y-141436580D01*
X274796085Y-141436580D01*
X274763000Y-141422876D01*
X274763000Y-141389275D01*
X274114030Y-141389275D01*
X274088805Y-141414500D01*
X273988750Y-141414500D01*
X273976750Y-141402500D01*
X273811191Y-141402500D01*
X273782220Y-141414500D01*
X273761775Y-141414500D01*
X273761775Y-141422969D01*
X273733937Y-141434500D01*
X273609750Y-141434500D01*
X273609750Y-141147160D01*
X273761775Y-141147160D01*
X273761775Y-141160500D01*
X273761775Y-141160500D01*
G37*
X273761775Y-141160500D02*
X274084645Y-141160500D01*
X274114030Y-141189885D01*
X274352158Y-141189885D01*
X274590280Y-141237250D01*
X275189720Y-141237250D01*
X275400000Y-141195423D01*
X275610280Y-141237250D01*
X276057000Y-141237250D01*
X276057000Y-141389275D01*
X276037000Y-141389275D01*
X276037000Y-141436580D01*
X275783000Y-141436580D01*
X275783000Y-141389275D01*
X275017000Y-141389275D01*
X275017000Y-141436580D01*
X274796085Y-141436580D01*
X274763000Y-141422876D01*
X274763000Y-141389275D01*
X274114030Y-141389275D01*
X274088805Y-141414500D01*
X273988750Y-141414500D01*
X273976750Y-141402500D01*
X273811191Y-141402500D01*
X273782220Y-141414500D01*
X273761775Y-141414500D01*
X273761775Y-141422969D01*
X273733937Y-141434500D01*
X273609750Y-141434500D01*
X273609750Y-141147160D01*
X273761775Y-141147160D01*
X273761775Y-141160500D01*
G36*
X278221973Y-140900000D02*
X278086843Y-141102235D01*
X278081958Y-141126792D01*
X278050000Y-141158750D01*
X278050000Y-141186911D01*
X278033157Y-141102235D01*
X277898027Y-140900000D01*
X278018968Y-140719000D01*
X278101032Y-140719000D01*
X278221973Y-140900000D01*
X278221973Y-140900000D01*
G37*
X278221973Y-140900000D02*
X278086843Y-141102235D01*
X278081958Y-141126792D01*
X278050000Y-141158750D01*
X278050000Y-141186911D01*
X278033157Y-141102235D01*
X277898027Y-140900000D01*
X278018968Y-140719000D01*
X278101032Y-140719000D01*
X278221973Y-140900000D01*
G36*
X285927000Y-129729275D02*
X285907000Y-129729275D01*
X285907000Y-130305220D01*
X286065750Y-130463970D01*
X286088115Y-130463970D01*
X286199030Y-130574885D01*
X286437158Y-130574885D01*
X286675280Y-130622250D01*
X287122000Y-130622250D01*
X287122000Y-130774275D01*
X287102000Y-130774275D01*
X287102000Y-131350220D01*
X287260750Y-131508970D01*
X287401030Y-131508970D01*
X287470595Y-131480155D01*
X287465000Y-131485750D01*
X287465000Y-132076309D01*
X287561673Y-132309698D01*
X287740301Y-132488327D01*
X287973690Y-132585000D01*
X288016250Y-132585000D01*
X288175000Y-132426250D01*
X288175000Y-132423026D01*
X288240301Y-132488327D01*
X288473690Y-132585000D01*
X288526310Y-132585000D01*
X288759699Y-132488327D01*
X288760899Y-132487127D01*
X288852235Y-132548157D01*
X288970414Y-132571664D01*
X288983750Y-132585000D01*
X289026310Y-132585000D01*
X289029927Y-132583502D01*
X289100000Y-132597440D01*
X289400000Y-132597440D01*
X289500000Y-132577549D01*
X289600000Y-132597440D01*
X289900000Y-132597440D01*
X290000000Y-132577549D01*
X290100000Y-132597440D01*
X290400000Y-132597440D01*
X290500000Y-132577549D01*
X290600000Y-132597440D01*
X290900000Y-132597440D01*
X291000000Y-132577549D01*
X291100000Y-132597440D01*
X291400000Y-132597440D01*
X291470073Y-132583502D01*
X291473690Y-132585000D01*
X291516250Y-132585000D01*
X291529586Y-132571664D01*
X291647765Y-132548157D01*
X291750000Y-132479845D01*
X291852235Y-132548157D01*
X291970414Y-132571664D01*
X291983750Y-132585000D01*
X292026310Y-132585000D01*
X292029927Y-132583502D01*
X292100000Y-132597440D01*
X292400000Y-132597440D01*
X292470073Y-132583502D01*
X292473690Y-132585000D01*
X292516250Y-132585000D01*
X292529586Y-132571664D01*
X292647765Y-132548157D01*
X292750000Y-132479845D01*
X292852235Y-132548157D01*
X292970414Y-132571664D01*
X292983750Y-132585000D01*
X293026310Y-132585000D01*
X293029927Y-132583502D01*
X293100000Y-132597440D01*
X293400000Y-132597440D01*
X293500000Y-132577549D01*
X293600000Y-132597440D01*
X293900000Y-132597440D01*
X293970073Y-132583502D01*
X293973690Y-132585000D01*
X294016250Y-132585000D01*
X294029586Y-132571664D01*
X294039000Y-132569791D01*
X294039001Y-135004975D01*
X294025072Y-135075000D01*
X294039001Y-135145026D01*
X294057656Y-135238809D01*
X294080254Y-135352418D01*
X294197732Y-135528237D01*
X294197734Y-135528239D01*
X294237399Y-135587602D01*
X294296762Y-135627267D01*
X294937735Y-136268241D01*
X294977399Y-136327602D01*
X295036759Y-136367265D01*
X295036762Y-136367268D01*
X295036765Y-136367270D01*
X296272733Y-137603238D01*
X296302560Y-137647878D01*
X296302560Y-137800000D01*
X296322451Y-137900000D01*
X296302560Y-138000000D01*
X296302560Y-138300000D01*
X296322451Y-138400000D01*
X296302560Y-138500000D01*
X296302560Y-138800000D01*
X296322451Y-138900000D01*
X296302560Y-139000000D01*
X296302560Y-139300000D01*
X296322451Y-139400000D01*
X296302560Y-139500000D01*
X296302560Y-139800000D01*
X296322451Y-139900000D01*
X296314694Y-139939000D01*
X294145020Y-139939000D01*
X294074999Y-139925072D01*
X294004978Y-139939000D01*
X294004974Y-139939000D01*
X293797582Y-139980253D01*
X293562398Y-140137398D01*
X293522732Y-140196763D01*
X293380495Y-140339000D01*
X292245021Y-140339000D01*
X292175000Y-140325072D01*
X292104979Y-140339000D01*
X291120020Y-140339000D01*
X291049999Y-140325072D01*
X290979978Y-140339000D01*
X290979974Y-140339000D01*
X290772582Y-140380253D01*
X290537398Y-140537398D01*
X290497732Y-140596763D01*
X290296762Y-140797733D01*
X290237398Y-140837399D01*
X290197733Y-140896762D01*
X290197732Y-140896763D01*
X290176874Y-140927979D01*
X290159495Y-140953989D01*
X289402268Y-140196763D01*
X289362602Y-140137398D01*
X289127418Y-139980253D01*
X288920026Y-139939000D01*
X288920021Y-139939000D01*
X288850000Y-139925072D01*
X288779979Y-139939000D01*
X288070021Y-139939000D01*
X288000000Y-139925072D01*
X287929979Y-139939000D01*
X287685306Y-139939000D01*
X287683502Y-139929927D01*
X287685000Y-139926310D01*
X287685000Y-139883750D01*
X287671664Y-139870414D01*
X287648157Y-139752235D01*
X287587127Y-139660899D01*
X287588327Y-139659699D01*
X287685000Y-139426310D01*
X287685000Y-139373690D01*
X287592344Y-139150000D01*
X287685000Y-138926310D01*
X287685000Y-138873690D01*
X287588327Y-138640301D01*
X287587127Y-138639101D01*
X287648157Y-138547765D01*
X287671664Y-138429586D01*
X287685000Y-138416250D01*
X287685000Y-138373690D01*
X287683502Y-138370073D01*
X287697440Y-138300000D01*
X287697440Y-138000000D01*
X287683502Y-137929927D01*
X287685000Y-137926310D01*
X287685000Y-137883750D01*
X287671664Y-137870414D01*
X287648157Y-137752235D01*
X287587127Y-137660899D01*
X287588327Y-137659699D01*
X287685000Y-137426310D01*
X287685000Y-137373690D01*
X287588327Y-137140301D01*
X287587127Y-137139101D01*
X287648157Y-137047765D01*
X287671664Y-136929586D01*
X287685000Y-136916250D01*
X287685000Y-136873690D01*
X287683502Y-136870073D01*
X287697440Y-136800000D01*
X287697440Y-136500000D01*
X287677549Y-136400000D01*
X287697440Y-136300000D01*
X287697440Y-136000000D01*
X287683502Y-135929927D01*
X287685000Y-135926310D01*
X287685000Y-135883750D01*
X287671664Y-135870414D01*
X287648157Y-135752235D01*
X287579845Y-135650000D01*
X287648157Y-135547765D01*
X287671664Y-135429586D01*
X287685000Y-135416250D01*
X287685000Y-135373690D01*
X287683502Y-135370073D01*
X287697440Y-135300000D01*
X287697440Y-135000000D01*
X287677549Y-134900000D01*
X287697440Y-134800000D01*
X287697440Y-134500000D01*
X287677549Y-134400000D01*
X287697440Y-134300000D01*
X287697440Y-134000000D01*
X287677549Y-133900000D01*
X287697440Y-133800000D01*
X287697440Y-133500000D01*
X287683502Y-133429927D01*
X287685000Y-133426310D01*
X287685000Y-133383750D01*
X287671664Y-133370414D01*
X287648157Y-133252235D01*
X287528337Y-133072913D01*
X287685000Y-132916250D01*
X287685000Y-132873690D01*
X287588327Y-132640301D01*
X287409698Y-132461673D01*
X287176309Y-132365000D01*
X286585750Y-132365000D01*
X286427000Y-132523750D01*
X286427000Y-132852560D01*
X286173000Y-132852560D01*
X286173000Y-132523750D01*
X286014250Y-132365000D01*
X285423691Y-132365000D01*
X285190302Y-132461673D01*
X285011673Y-132640301D01*
X284915000Y-132873690D01*
X284915000Y-132900500D01*
X284109000Y-132900500D01*
X284109000Y-132883167D01*
X284063180Y-132772548D01*
X284063180Y-132188475D01*
X284166735Y-132167877D01*
X284376779Y-132027529D01*
X284517127Y-131817485D01*
X284566410Y-131569720D01*
X284566410Y-131145608D01*
X284697809Y-131057809D01*
X284781187Y-130933025D01*
X286040280Y-130933025D01*
X286040280Y-131000279D01*
X286136953Y-131233668D01*
X286315581Y-131412297D01*
X286548970Y-131508970D01*
X286689250Y-131508970D01*
X286848000Y-131350220D01*
X286848000Y-130774275D01*
X286199030Y-130774275D01*
X286040280Y-130933025D01*
X284781187Y-130933025D01*
X284838157Y-130847765D01*
X284887440Y-130600000D01*
X284887440Y-130597440D01*
X284890000Y-130597440D01*
X285137765Y-130548157D01*
X285298281Y-130440903D01*
X285353970Y-130463970D01*
X285494250Y-130463970D01*
X285653000Y-130305220D01*
X285653000Y-129729275D01*
X285633000Y-129729275D01*
X285633000Y-129577250D01*
X285927000Y-129577250D01*
X285927000Y-129729275D01*
X285927000Y-129729275D01*
G37*
X285927000Y-129729275D02*
X285907000Y-129729275D01*
X285907000Y-130305220D01*
X286065750Y-130463970D01*
X286088115Y-130463970D01*
X286199030Y-130574885D01*
X286437158Y-130574885D01*
X286675280Y-130622250D01*
X287122000Y-130622250D01*
X287122000Y-130774275D01*
X287102000Y-130774275D01*
X287102000Y-131350220D01*
X287260750Y-131508970D01*
X287401030Y-131508970D01*
X287470595Y-131480155D01*
X287465000Y-131485750D01*
X287465000Y-132076309D01*
X287561673Y-132309698D01*
X287740301Y-132488327D01*
X287973690Y-132585000D01*
X288016250Y-132585000D01*
X288175000Y-132426250D01*
X288175000Y-132423026D01*
X288240301Y-132488327D01*
X288473690Y-132585000D01*
X288526310Y-132585000D01*
X288759699Y-132488327D01*
X288760899Y-132487127D01*
X288852235Y-132548157D01*
X288970414Y-132571664D01*
X288983750Y-132585000D01*
X289026310Y-132585000D01*
X289029927Y-132583502D01*
X289100000Y-132597440D01*
X289400000Y-132597440D01*
X289500000Y-132577549D01*
X289600000Y-132597440D01*
X289900000Y-132597440D01*
X290000000Y-132577549D01*
X290100000Y-132597440D01*
X290400000Y-132597440D01*
X290500000Y-132577549D01*
X290600000Y-132597440D01*
X290900000Y-132597440D01*
X291000000Y-132577549D01*
X291100000Y-132597440D01*
X291400000Y-132597440D01*
X291470073Y-132583502D01*
X291473690Y-132585000D01*
X291516250Y-132585000D01*
X291529586Y-132571664D01*
X291647765Y-132548157D01*
X291750000Y-132479845D01*
X291852235Y-132548157D01*
X291970414Y-132571664D01*
X291983750Y-132585000D01*
X292026310Y-132585000D01*
X292029927Y-132583502D01*
X292100000Y-132597440D01*
X292400000Y-132597440D01*
X292470073Y-132583502D01*
X292473690Y-132585000D01*
X292516250Y-132585000D01*
X292529586Y-132571664D01*
X292647765Y-132548157D01*
X292750000Y-132479845D01*
X292852235Y-132548157D01*
X292970414Y-132571664D01*
X292983750Y-132585000D01*
X293026310Y-132585000D01*
X293029927Y-132583502D01*
X293100000Y-132597440D01*
X293400000Y-132597440D01*
X293500000Y-132577549D01*
X293600000Y-132597440D01*
X293900000Y-132597440D01*
X293970073Y-132583502D01*
X293973690Y-132585000D01*
X294016250Y-132585000D01*
X294029586Y-132571664D01*
X294039000Y-132569791D01*
X294039001Y-135004975D01*
X294025072Y-135075000D01*
X294039001Y-135145026D01*
X294057656Y-135238809D01*
X294080254Y-135352418D01*
X294197732Y-135528237D01*
X294197734Y-135528239D01*
X294237399Y-135587602D01*
X294296762Y-135627267D01*
X294937735Y-136268241D01*
X294977399Y-136327602D01*
X295036759Y-136367265D01*
X295036762Y-136367268D01*
X295036765Y-136367270D01*
X296272733Y-137603238D01*
X296302560Y-137647878D01*
X296302560Y-137800000D01*
X296322451Y-137900000D01*
X296302560Y-138000000D01*
X296302560Y-138300000D01*
X296322451Y-138400000D01*
X296302560Y-138500000D01*
X296302560Y-138800000D01*
X296322451Y-138900000D01*
X296302560Y-139000000D01*
X296302560Y-139300000D01*
X296322451Y-139400000D01*
X296302560Y-139500000D01*
X296302560Y-139800000D01*
X296322451Y-139900000D01*
X296314694Y-139939000D01*
X294145020Y-139939000D01*
X294074999Y-139925072D01*
X294004978Y-139939000D01*
X294004974Y-139939000D01*
X293797582Y-139980253D01*
X293562398Y-140137398D01*
X293522732Y-140196763D01*
X293380495Y-140339000D01*
X292245021Y-140339000D01*
X292175000Y-140325072D01*
X292104979Y-140339000D01*
X291120020Y-140339000D01*
X291049999Y-140325072D01*
X290979978Y-140339000D01*
X290979974Y-140339000D01*
X290772582Y-140380253D01*
X290537398Y-140537398D01*
X290497732Y-140596763D01*
X290296762Y-140797733D01*
X290237398Y-140837399D01*
X290197733Y-140896762D01*
X290197732Y-140896763D01*
X290176874Y-140927979D01*
X290159495Y-140953989D01*
X289402268Y-140196763D01*
X289362602Y-140137398D01*
X289127418Y-139980253D01*
X288920026Y-139939000D01*
X288920021Y-139939000D01*
X288850000Y-139925072D01*
X288779979Y-139939000D01*
X288070021Y-139939000D01*
X288000000Y-139925072D01*
X287929979Y-139939000D01*
X287685306Y-139939000D01*
X287683502Y-139929927D01*
X287685000Y-139926310D01*
X287685000Y-139883750D01*
X287671664Y-139870414D01*
X287648157Y-139752235D01*
X287587127Y-139660899D01*
X287588327Y-139659699D01*
X287685000Y-139426310D01*
X287685000Y-139373690D01*
X287592344Y-139150000D01*
X287685000Y-138926310D01*
X287685000Y-138873690D01*
X287588327Y-138640301D01*
X287587127Y-138639101D01*
X287648157Y-138547765D01*
X287671664Y-138429586D01*
X287685000Y-138416250D01*
X287685000Y-138373690D01*
X287683502Y-138370073D01*
X287697440Y-138300000D01*
X287697440Y-138000000D01*
X287683502Y-137929927D01*
X287685000Y-137926310D01*
X287685000Y-137883750D01*
X287671664Y-137870414D01*
X287648157Y-137752235D01*
X287587127Y-137660899D01*
X287588327Y-137659699D01*
X287685000Y-137426310D01*
X287685000Y-137373690D01*
X287588327Y-137140301D01*
X287587127Y-137139101D01*
X287648157Y-137047765D01*
X287671664Y-136929586D01*
X287685000Y-136916250D01*
X287685000Y-136873690D01*
X287683502Y-136870073D01*
X287697440Y-136800000D01*
X287697440Y-136500000D01*
X287677549Y-136400000D01*
X287697440Y-136300000D01*
X287697440Y-136000000D01*
X287683502Y-135929927D01*
X287685000Y-135926310D01*
X287685000Y-135883750D01*
X287671664Y-135870414D01*
X287648157Y-135752235D01*
X287579845Y-135650000D01*
X287648157Y-135547765D01*
X287671664Y-135429586D01*
X287685000Y-135416250D01*
X287685000Y-135373690D01*
X287683502Y-135370073D01*
X287697440Y-135300000D01*
X287697440Y-135000000D01*
X287677549Y-134900000D01*
X287697440Y-134800000D01*
X287697440Y-134500000D01*
X287677549Y-134400000D01*
X287697440Y-134300000D01*
X287697440Y-134000000D01*
X287677549Y-133900000D01*
X287697440Y-133800000D01*
X287697440Y-133500000D01*
X287683502Y-133429927D01*
X287685000Y-133426310D01*
X287685000Y-133383750D01*
X287671664Y-133370414D01*
X287648157Y-133252235D01*
X287528337Y-133072913D01*
X287685000Y-132916250D01*
X287685000Y-132873690D01*
X287588327Y-132640301D01*
X287409698Y-132461673D01*
X287176309Y-132365000D01*
X286585750Y-132365000D01*
X286427000Y-132523750D01*
X286427000Y-132852560D01*
X286173000Y-132852560D01*
X286173000Y-132523750D01*
X286014250Y-132365000D01*
X285423691Y-132365000D01*
X285190302Y-132461673D01*
X285011673Y-132640301D01*
X284915000Y-132873690D01*
X284915000Y-132900500D01*
X284109000Y-132900500D01*
X284109000Y-132883167D01*
X284063180Y-132772548D01*
X284063180Y-132188475D01*
X284166735Y-132167877D01*
X284376779Y-132027529D01*
X284517127Y-131817485D01*
X284566410Y-131569720D01*
X284566410Y-131145608D01*
X284697809Y-131057809D01*
X284781187Y-130933025D01*
X286040280Y-130933025D01*
X286040280Y-131000279D01*
X286136953Y-131233668D01*
X286315581Y-131412297D01*
X286548970Y-131508970D01*
X286689250Y-131508970D01*
X286848000Y-131350220D01*
X286848000Y-130774275D01*
X286199030Y-130774275D01*
X286040280Y-130933025D01*
X284781187Y-130933025D01*
X284838157Y-130847765D01*
X284887440Y-130600000D01*
X284887440Y-130597440D01*
X284890000Y-130597440D01*
X285137765Y-130548157D01*
X285298281Y-130440903D01*
X285353970Y-130463970D01*
X285494250Y-130463970D01*
X285653000Y-130305220D01*
X285653000Y-129729275D01*
X285633000Y-129729275D01*
X285633000Y-129577250D01*
X285927000Y-129577250D01*
X285927000Y-129729275D01*
G36*
X303262515Y-140556707D02*
X303510280Y-140605990D01*
X304109720Y-140605990D01*
X304339887Y-140560207D01*
X304217191Y-140642191D01*
X304076843Y-140852235D01*
X304076580Y-140853555D01*
X303959698Y-140736673D01*
X303769740Y-140657990D01*
X303751750Y-140640000D01*
X303448250Y-140640000D01*
X303430260Y-140657990D01*
X303289502Y-140716294D01*
X303289502Y-140640000D01*
X303209000Y-140640000D01*
X303209000Y-140535604D01*
X303219966Y-140528276D01*
X303262515Y-140556707D01*
X303262515Y-140556707D01*
G37*
X303262515Y-140556707D02*
X303510280Y-140605990D01*
X304109720Y-140605990D01*
X304339887Y-140560207D01*
X304217191Y-140642191D01*
X304076843Y-140852235D01*
X304076580Y-140853555D01*
X303959698Y-140736673D01*
X303769740Y-140657990D01*
X303751750Y-140640000D01*
X303448250Y-140640000D01*
X303430260Y-140657990D01*
X303289502Y-140716294D01*
X303289502Y-140640000D01*
X303209000Y-140640000D01*
X303209000Y-140535604D01*
X303219966Y-140528276D01*
X303262515Y-140556707D01*
G36*
X279051494Y-139247000D02*
X278907250Y-139247000D01*
X278907250Y-139102755D01*
X279051494Y-139247000D01*
X279051494Y-139247000D01*
G37*
X279051494Y-139247000D02*
X278907250Y-139247000D01*
X278907250Y-139102755D01*
X279051494Y-139247000D01*
G36*
X274019001Y-139196580D02*
X273943000Y-139196580D01*
X273943000Y-139149275D01*
X273923000Y-139149275D01*
X273923000Y-138997250D01*
X274019001Y-138997250D01*
X274019001Y-139196580D01*
X274019001Y-139196580D01*
G37*
X274019001Y-139196580D02*
X273943000Y-139196580D01*
X273943000Y-139149275D01*
X273923000Y-139149275D01*
X273923000Y-138997250D01*
X274019001Y-138997250D01*
X274019001Y-139196580D01*
G36*
X282679000Y-137903000D02*
X282699000Y-137903000D01*
X282699000Y-138157000D01*
X282679000Y-138157000D01*
X282679000Y-138177000D01*
X282425000Y-138177000D01*
X282425000Y-138157000D01*
X282405000Y-138157000D01*
X282405000Y-137903000D01*
X282425000Y-137903000D01*
X282425000Y-137883000D01*
X282679000Y-137883000D01*
X282679000Y-137903000D01*
X282679000Y-137903000D01*
G37*
X282679000Y-137903000D02*
X282699000Y-137903000D01*
X282699000Y-138157000D01*
X282679000Y-138157000D01*
X282679000Y-138177000D01*
X282425000Y-138177000D01*
X282425000Y-138157000D01*
X282405000Y-138157000D01*
X282405000Y-137903000D01*
X282425000Y-137903000D01*
X282425000Y-137883000D01*
X282679000Y-137883000D01*
X282679000Y-137903000D01*
G36*
X282153548Y-136823500D02*
X282108191Y-136823500D01*
X281874802Y-136920173D01*
X281797899Y-136997076D01*
X281739000Y-136957721D01*
X281739000Y-136636299D01*
X281796998Y-136549500D01*
X281879548Y-136549500D01*
X282153548Y-136823500D01*
X282153548Y-136823500D01*
G37*
X282153548Y-136823500D02*
X282108191Y-136823500D01*
X281874802Y-136920173D01*
X281797899Y-136997076D01*
X281739000Y-136957721D01*
X281739000Y-136636299D01*
X281796998Y-136549500D01*
X281879548Y-136549500D01*
X282153548Y-136823500D01*
G36*
X276211250Y-132204250D02*
X277163750Y-132204250D01*
X277183750Y-132184250D01*
X277303750Y-132184250D01*
X277323750Y-132204250D01*
X278276250Y-132204250D01*
X278296250Y-132184250D01*
X278416250Y-132184250D01*
X278436250Y-132204250D01*
X279388750Y-132204250D01*
X279408750Y-132184250D01*
X279595750Y-132184250D01*
X279595750Y-132204250D01*
X279615750Y-132204250D01*
X279615750Y-132391250D01*
X279595750Y-132411250D01*
X279595750Y-133363750D01*
X279615750Y-133383750D01*
X279615750Y-133503750D01*
X279595750Y-133523750D01*
X279595750Y-134476250D01*
X279615750Y-134496250D01*
X279615750Y-134616250D01*
X279595750Y-134636250D01*
X279595750Y-135588750D01*
X279615750Y-135608750D01*
X279615750Y-135795750D01*
X279595750Y-135795750D01*
X279595750Y-135815750D01*
X279408750Y-135815750D01*
X279388750Y-135795750D01*
X278436250Y-135795750D01*
X278416250Y-135815750D01*
X278296250Y-135815750D01*
X278276250Y-135795750D01*
X277323750Y-135795750D01*
X277303750Y-135815750D01*
X277183750Y-135815750D01*
X277163750Y-135795750D01*
X276211250Y-135795750D01*
X276191250Y-135815750D01*
X276004250Y-135815750D01*
X276004250Y-135795750D01*
X275984250Y-135795750D01*
X275984250Y-135608750D01*
X276004250Y-135588750D01*
X276004250Y-134636250D01*
X275984250Y-134616250D01*
X275984250Y-134496250D01*
X276004250Y-134476250D01*
X276004250Y-133523750D01*
X275984250Y-133503750D01*
X275984250Y-133383750D01*
X276004250Y-133363750D01*
X276004250Y-132617000D01*
X276052500Y-132617000D01*
X276052500Y-133158000D01*
X276211250Y-133316750D01*
X276218725Y-133316750D01*
X276258250Y-133356276D01*
X276258250Y-133363750D01*
X276338250Y-133443750D01*
X276258250Y-133523750D01*
X276258250Y-133531224D01*
X276218725Y-133570750D01*
X276211250Y-133570750D01*
X276052500Y-133729500D01*
X276052500Y-134270500D01*
X276211250Y-134429250D01*
X276218725Y-134429250D01*
X276258250Y-134468776D01*
X276258250Y-134476250D01*
X276338250Y-134556250D01*
X276258250Y-134636250D01*
X276258250Y-134643724D01*
X276218725Y-134683250D01*
X276211250Y-134683250D01*
X276052500Y-134842000D01*
X276052500Y-135383000D01*
X276211250Y-135541750D01*
X276218725Y-135541750D01*
X276258250Y-135581276D01*
X276258250Y-135588750D01*
X276417000Y-135747500D01*
X276958000Y-135747500D01*
X277116750Y-135588750D01*
X277116750Y-135581276D01*
X277156275Y-135541750D01*
X277163750Y-135541750D01*
X277243750Y-135461750D01*
X277323750Y-135541750D01*
X277331225Y-135541750D01*
X277370750Y-135581276D01*
X277370750Y-135588750D01*
X277529500Y-135747500D01*
X278070500Y-135747500D01*
X278229250Y-135588750D01*
X278229250Y-135581276D01*
X278268775Y-135541750D01*
X278276250Y-135541750D01*
X278356250Y-135461750D01*
X278436250Y-135541750D01*
X278443725Y-135541750D01*
X278483250Y-135581276D01*
X278483250Y-135588750D01*
X278642000Y-135747500D01*
X279183000Y-135747500D01*
X279341750Y-135588750D01*
X279341750Y-135581276D01*
X279381275Y-135541750D01*
X279388750Y-135541750D01*
X279547500Y-135383000D01*
X279547500Y-134842000D01*
X279388750Y-134683250D01*
X279381275Y-134683250D01*
X279341750Y-134643724D01*
X279341750Y-134636250D01*
X279261750Y-134556250D01*
X279341750Y-134476250D01*
X279341750Y-134468776D01*
X279381275Y-134429250D01*
X279388750Y-134429250D01*
X279547500Y-134270500D01*
X279547500Y-133729500D01*
X279388750Y-133570750D01*
X279381275Y-133570750D01*
X279341750Y-133531224D01*
X279341750Y-133523750D01*
X279261750Y-133443750D01*
X279341750Y-133363750D01*
X279341750Y-133356276D01*
X279381275Y-133316750D01*
X279388750Y-133316750D01*
X279547500Y-133158000D01*
X279547500Y-132617000D01*
X279388750Y-132458250D01*
X279381275Y-132458250D01*
X279341750Y-132418724D01*
X279341750Y-132411250D01*
X279183000Y-132252500D01*
X278642000Y-132252500D01*
X278483250Y-132411250D01*
X278483250Y-132418724D01*
X278443725Y-132458250D01*
X278436250Y-132458250D01*
X278356250Y-132538250D01*
X278276250Y-132458250D01*
X278268775Y-132458250D01*
X278229250Y-132418724D01*
X278229250Y-132411250D01*
X278070500Y-132252500D01*
X277529500Y-132252500D01*
X277370750Y-132411250D01*
X277370750Y-132418724D01*
X277331225Y-132458250D01*
X277323750Y-132458250D01*
X277243750Y-132538250D01*
X277163750Y-132458250D01*
X277156275Y-132458250D01*
X277116750Y-132418724D01*
X277116750Y-132411250D01*
X276958000Y-132252500D01*
X276417000Y-132252500D01*
X276258250Y-132411250D01*
X276258250Y-132418724D01*
X276218725Y-132458250D01*
X276211250Y-132458250D01*
X276052500Y-132617000D01*
X276004250Y-132617000D01*
X276004250Y-132411250D01*
X275984250Y-132391250D01*
X275984250Y-132204250D01*
X276004250Y-132204250D01*
X276004250Y-132184250D01*
X276191250Y-132184250D01*
X276211250Y-132204250D01*
X276211250Y-132204250D01*
G37*
X276211250Y-132204250D02*
X277163750Y-132204250D01*
X277183750Y-132184250D01*
X277303750Y-132184250D01*
X277323750Y-132204250D01*
X278276250Y-132204250D01*
X278296250Y-132184250D01*
X278416250Y-132184250D01*
X278436250Y-132204250D01*
X279388750Y-132204250D01*
X279408750Y-132184250D01*
X279595750Y-132184250D01*
X279595750Y-132204250D01*
X279615750Y-132204250D01*
X279615750Y-132391250D01*
X279595750Y-132411250D01*
X279595750Y-133363750D01*
X279615750Y-133383750D01*
X279615750Y-133503750D01*
X279595750Y-133523750D01*
X279595750Y-134476250D01*
X279615750Y-134496250D01*
X279615750Y-134616250D01*
X279595750Y-134636250D01*
X279595750Y-135588750D01*
X279615750Y-135608750D01*
X279615750Y-135795750D01*
X279595750Y-135795750D01*
X279595750Y-135815750D01*
X279408750Y-135815750D01*
X279388750Y-135795750D01*
X278436250Y-135795750D01*
X278416250Y-135815750D01*
X278296250Y-135815750D01*
X278276250Y-135795750D01*
X277323750Y-135795750D01*
X277303750Y-135815750D01*
X277183750Y-135815750D01*
X277163750Y-135795750D01*
X276211250Y-135795750D01*
X276191250Y-135815750D01*
X276004250Y-135815750D01*
X276004250Y-135795750D01*
X275984250Y-135795750D01*
X275984250Y-135608750D01*
X276004250Y-135588750D01*
X276004250Y-134636250D01*
X275984250Y-134616250D01*
X275984250Y-134496250D01*
X276004250Y-134476250D01*
X276004250Y-133523750D01*
X275984250Y-133503750D01*
X275984250Y-133383750D01*
X276004250Y-133363750D01*
X276004250Y-132617000D01*
X276052500Y-132617000D01*
X276052500Y-133158000D01*
X276211250Y-133316750D01*
X276218725Y-133316750D01*
X276258250Y-133356276D01*
X276258250Y-133363750D01*
X276338250Y-133443750D01*
X276258250Y-133523750D01*
X276258250Y-133531224D01*
X276218725Y-133570750D01*
X276211250Y-133570750D01*
X276052500Y-133729500D01*
X276052500Y-134270500D01*
X276211250Y-134429250D01*
X276218725Y-134429250D01*
X276258250Y-134468776D01*
X276258250Y-134476250D01*
X276338250Y-134556250D01*
X276258250Y-134636250D01*
X276258250Y-134643724D01*
X276218725Y-134683250D01*
X276211250Y-134683250D01*
X276052500Y-134842000D01*
X276052500Y-135383000D01*
X276211250Y-135541750D01*
X276218725Y-135541750D01*
X276258250Y-135581276D01*
X276258250Y-135588750D01*
X276417000Y-135747500D01*
X276958000Y-135747500D01*
X277116750Y-135588750D01*
X277116750Y-135581276D01*
X277156275Y-135541750D01*
X277163750Y-135541750D01*
X277243750Y-135461750D01*
X277323750Y-135541750D01*
X277331225Y-135541750D01*
X277370750Y-135581276D01*
X277370750Y-135588750D01*
X277529500Y-135747500D01*
X278070500Y-135747500D01*
X278229250Y-135588750D01*
X278229250Y-135581276D01*
X278268775Y-135541750D01*
X278276250Y-135541750D01*
X278356250Y-135461750D01*
X278436250Y-135541750D01*
X278443725Y-135541750D01*
X278483250Y-135581276D01*
X278483250Y-135588750D01*
X278642000Y-135747500D01*
X279183000Y-135747500D01*
X279341750Y-135588750D01*
X279341750Y-135581276D01*
X279381275Y-135541750D01*
X279388750Y-135541750D01*
X279547500Y-135383000D01*
X279547500Y-134842000D01*
X279388750Y-134683250D01*
X279381275Y-134683250D01*
X279341750Y-134643724D01*
X279341750Y-134636250D01*
X279261750Y-134556250D01*
X279341750Y-134476250D01*
X279341750Y-134468776D01*
X279381275Y-134429250D01*
X279388750Y-134429250D01*
X279547500Y-134270500D01*
X279547500Y-133729500D01*
X279388750Y-133570750D01*
X279381275Y-133570750D01*
X279341750Y-133531224D01*
X279341750Y-133523750D01*
X279261750Y-133443750D01*
X279341750Y-133363750D01*
X279341750Y-133356276D01*
X279381275Y-133316750D01*
X279388750Y-133316750D01*
X279547500Y-133158000D01*
X279547500Y-132617000D01*
X279388750Y-132458250D01*
X279381275Y-132458250D01*
X279341750Y-132418724D01*
X279341750Y-132411250D01*
X279183000Y-132252500D01*
X278642000Y-132252500D01*
X278483250Y-132411250D01*
X278483250Y-132418724D01*
X278443725Y-132458250D01*
X278436250Y-132458250D01*
X278356250Y-132538250D01*
X278276250Y-132458250D01*
X278268775Y-132458250D01*
X278229250Y-132418724D01*
X278229250Y-132411250D01*
X278070500Y-132252500D01*
X277529500Y-132252500D01*
X277370750Y-132411250D01*
X277370750Y-132418724D01*
X277331225Y-132458250D01*
X277323750Y-132458250D01*
X277243750Y-132538250D01*
X277163750Y-132458250D01*
X277156275Y-132458250D01*
X277116750Y-132418724D01*
X277116750Y-132411250D01*
X276958000Y-132252500D01*
X276417000Y-132252500D01*
X276258250Y-132411250D01*
X276258250Y-132418724D01*
X276218725Y-132458250D01*
X276211250Y-132458250D01*
X276052500Y-132617000D01*
X276004250Y-132617000D01*
X276004250Y-132411250D01*
X275984250Y-132391250D01*
X275984250Y-132204250D01*
X276004250Y-132204250D01*
X276004250Y-132184250D01*
X276191250Y-132184250D01*
X276211250Y-132204250D01*
G36*
X278436250Y-134429250D02*
X278443725Y-134429250D01*
X278483250Y-134468776D01*
X278483250Y-134476250D01*
X278563250Y-134556250D01*
X278483250Y-134636250D01*
X278483250Y-134643724D01*
X278443725Y-134683250D01*
X278436250Y-134683250D01*
X278356250Y-134763250D01*
X278276250Y-134683250D01*
X278268775Y-134683250D01*
X278229250Y-134643724D01*
X278229250Y-134636250D01*
X278149250Y-134556250D01*
X278229250Y-134476250D01*
X278229250Y-134468776D01*
X278268775Y-134429250D01*
X278276250Y-134429250D01*
X278356250Y-134349250D01*
X278436250Y-134429250D01*
X278436250Y-134429250D01*
G37*
X278436250Y-134429250D02*
X278443725Y-134429250D01*
X278483250Y-134468776D01*
X278483250Y-134476250D01*
X278563250Y-134556250D01*
X278483250Y-134636250D01*
X278483250Y-134643724D01*
X278443725Y-134683250D01*
X278436250Y-134683250D01*
X278356250Y-134763250D01*
X278276250Y-134683250D01*
X278268775Y-134683250D01*
X278229250Y-134643724D01*
X278229250Y-134636250D01*
X278149250Y-134556250D01*
X278229250Y-134476250D01*
X278229250Y-134468776D01*
X278268775Y-134429250D01*
X278276250Y-134429250D01*
X278356250Y-134349250D01*
X278436250Y-134429250D01*
G36*
X277323750Y-134429250D02*
X277331225Y-134429250D01*
X277370750Y-134468776D01*
X277370750Y-134476250D01*
X277450750Y-134556250D01*
X277370750Y-134636250D01*
X277370750Y-134643724D01*
X277331225Y-134683250D01*
X277323750Y-134683250D01*
X277243750Y-134763250D01*
X277163750Y-134683250D01*
X277156275Y-134683250D01*
X277116750Y-134643724D01*
X277116750Y-134636250D01*
X277036750Y-134556250D01*
X277116750Y-134476250D01*
X277116750Y-134468776D01*
X277156275Y-134429250D01*
X277163750Y-134429250D01*
X277243750Y-134349250D01*
X277323750Y-134429250D01*
X277323750Y-134429250D01*
G37*
X277323750Y-134429250D02*
X277331225Y-134429250D01*
X277370750Y-134468776D01*
X277370750Y-134476250D01*
X277450750Y-134556250D01*
X277370750Y-134636250D01*
X277370750Y-134643724D01*
X277331225Y-134683250D01*
X277323750Y-134683250D01*
X277243750Y-134763250D01*
X277163750Y-134683250D01*
X277156275Y-134683250D01*
X277116750Y-134643724D01*
X277116750Y-134636250D01*
X277036750Y-134556250D01*
X277116750Y-134476250D01*
X277116750Y-134468776D01*
X277156275Y-134429250D01*
X277163750Y-134429250D01*
X277243750Y-134349250D01*
X277323750Y-134429250D01*
G36*
X278436250Y-133316750D02*
X278443725Y-133316750D01*
X278483250Y-133356276D01*
X278483250Y-133363750D01*
X278563250Y-133443750D01*
X278483250Y-133523750D01*
X278483250Y-133531224D01*
X278443725Y-133570750D01*
X278436250Y-133570750D01*
X278356250Y-133650750D01*
X278276250Y-133570750D01*
X278268775Y-133570750D01*
X278229250Y-133531224D01*
X278229250Y-133523750D01*
X278149250Y-133443750D01*
X278229250Y-133363750D01*
X278229250Y-133356276D01*
X278268775Y-133316750D01*
X278276250Y-133316750D01*
X278356250Y-133236750D01*
X278436250Y-133316750D01*
X278436250Y-133316750D01*
G37*
X278436250Y-133316750D02*
X278443725Y-133316750D01*
X278483250Y-133356276D01*
X278483250Y-133363750D01*
X278563250Y-133443750D01*
X278483250Y-133523750D01*
X278483250Y-133531224D01*
X278443725Y-133570750D01*
X278436250Y-133570750D01*
X278356250Y-133650750D01*
X278276250Y-133570750D01*
X278268775Y-133570750D01*
X278229250Y-133531224D01*
X278229250Y-133523750D01*
X278149250Y-133443750D01*
X278229250Y-133363750D01*
X278229250Y-133356276D01*
X278268775Y-133316750D01*
X278276250Y-133316750D01*
X278356250Y-133236750D01*
X278436250Y-133316750D01*
G36*
X277323750Y-133316750D02*
X277331225Y-133316750D01*
X277370750Y-133356276D01*
X277370750Y-133363750D01*
X277450750Y-133443750D01*
X277370750Y-133523750D01*
X277370750Y-133531224D01*
X277331225Y-133570750D01*
X277323750Y-133570750D01*
X277243750Y-133650750D01*
X277163750Y-133570750D01*
X277156275Y-133570750D01*
X277116750Y-133531224D01*
X277116750Y-133523750D01*
X277036750Y-133443750D01*
X277116750Y-133363750D01*
X277116750Y-133356276D01*
X277156275Y-133316750D01*
X277163750Y-133316750D01*
X277243750Y-133236750D01*
X277323750Y-133316750D01*
X277323750Y-133316750D01*
G37*
X277323750Y-133316750D02*
X277331225Y-133316750D01*
X277370750Y-133356276D01*
X277370750Y-133363750D01*
X277450750Y-133443750D01*
X277370750Y-133523750D01*
X277370750Y-133531224D01*
X277331225Y-133570750D01*
X277323750Y-133570750D01*
X277243750Y-133650750D01*
X277163750Y-133570750D01*
X277156275Y-133570750D01*
X277116750Y-133531224D01*
X277116750Y-133523750D01*
X277036750Y-133443750D01*
X277116750Y-133363750D01*
X277116750Y-133356276D01*
X277156275Y-133316750D01*
X277163750Y-133316750D01*
X277243750Y-133236750D01*
X277323750Y-133316750D01*
G36*
X272900280Y-134497250D02*
X273347000Y-134497250D01*
X273347000Y-134649275D01*
X273327000Y-134649275D01*
X273327000Y-134696580D01*
X273073000Y-134696580D01*
X273073000Y-134649275D01*
X272424030Y-134649275D01*
X272346305Y-134727000D01*
X272327000Y-134727000D01*
X272327000Y-134746305D01*
X272326305Y-134747000D01*
X272073000Y-134747000D01*
X272073000Y-134727000D01*
X272066481Y-134727000D01*
X272159747Y-134587418D01*
X272167699Y-134547440D01*
X272650000Y-134547440D01*
X272897765Y-134498157D01*
X272899388Y-134497073D01*
X272900280Y-134497250D01*
X272900280Y-134497250D01*
G37*
X272900280Y-134497250D02*
X273347000Y-134497250D01*
X273347000Y-134649275D01*
X273327000Y-134649275D01*
X273327000Y-134696580D01*
X273073000Y-134696580D01*
X273073000Y-134649275D01*
X272424030Y-134649275D01*
X272346305Y-134727000D01*
X272327000Y-134727000D01*
X272327000Y-134746305D01*
X272326305Y-134747000D01*
X272073000Y-134747000D01*
X272073000Y-134727000D01*
X272066481Y-134727000D01*
X272159747Y-134587418D01*
X272167699Y-134547440D01*
X272650000Y-134547440D01*
X272897765Y-134498157D01*
X272899388Y-134497073D01*
X272900280Y-134497250D01*
G36*
X288397000Y-131327000D02*
X288103000Y-131327000D01*
X288103000Y-131073000D01*
X288397000Y-131073000D01*
X288397000Y-131327000D01*
X288397000Y-131327000D01*
G37*
X288397000Y-131327000D02*
X288103000Y-131327000D01*
X288103000Y-131073000D01*
X288397000Y-131073000D01*
X288397000Y-131327000D01*
G36*
X273202750Y-129749720D02*
X273250115Y-129987842D01*
X273250115Y-130225970D01*
X273400422Y-130376277D01*
X272677000Y-131110942D01*
X272677000Y-130323532D01*
X272824721Y-130384720D01*
X272891975Y-130384720D01*
X273050725Y-130225970D01*
X273050725Y-129577000D01*
X273003420Y-129577000D01*
X273003420Y-129323000D01*
X273050725Y-129323000D01*
X273050725Y-129303000D01*
X273202750Y-129303000D01*
X273202750Y-129749720D01*
X273202750Y-129749720D01*
G37*
X273202750Y-129749720D02*
X273250115Y-129987842D01*
X273250115Y-130225970D01*
X273400422Y-130376277D01*
X272677000Y-131110942D01*
X272677000Y-130323532D01*
X272824721Y-130384720D01*
X272891975Y-130384720D01*
X273050725Y-130225970D01*
X273050725Y-129577000D01*
X273003420Y-129577000D01*
X273003420Y-129323000D01*
X273050725Y-129323000D01*
X273050725Y-129303000D01*
X273202750Y-129303000D01*
X273202750Y-129749720D01*
G36*
X283640000Y-128272440D02*
X283717560Y-128272440D01*
X283717560Y-128350000D01*
X283737451Y-128450000D01*
X283717560Y-128550000D01*
X283717560Y-128750000D01*
X283731498Y-128820073D01*
X283730000Y-128823690D01*
X283730000Y-128841250D01*
X283737128Y-128848378D01*
X283766843Y-128997765D01*
X283801746Y-129050000D01*
X283766843Y-129102235D01*
X283737128Y-129251622D01*
X283730000Y-129258750D01*
X283730000Y-129276310D01*
X283731498Y-129279927D01*
X283717560Y-129350000D01*
X283717560Y-129427560D01*
X283640000Y-129427560D01*
X283540000Y-129447451D01*
X283440000Y-129427560D01*
X283240000Y-129427560D01*
X283140000Y-129447451D01*
X283040000Y-129427560D01*
X282840000Y-129427560D01*
X282740000Y-129447451D01*
X282640000Y-129427560D01*
X282562440Y-129427560D01*
X282562440Y-129350000D01*
X282542549Y-129250000D01*
X282562440Y-129150000D01*
X282562440Y-128950000D01*
X282542549Y-128850000D01*
X282562440Y-128750000D01*
X282562440Y-128550000D01*
X282542549Y-128450000D01*
X282562440Y-128350000D01*
X282562440Y-128272440D01*
X282640000Y-128272440D01*
X282740000Y-128252549D01*
X282840000Y-128272440D01*
X283040000Y-128272440D01*
X283140000Y-128252549D01*
X283240000Y-128272440D01*
X283440000Y-128272440D01*
X283540000Y-128252549D01*
X283640000Y-128272440D01*
X283640000Y-128272440D01*
G37*
X283640000Y-128272440D02*
X283717560Y-128272440D01*
X283717560Y-128350000D01*
X283737451Y-128450000D01*
X283717560Y-128550000D01*
X283717560Y-128750000D01*
X283731498Y-128820073D01*
X283730000Y-128823690D01*
X283730000Y-128841250D01*
X283737128Y-128848378D01*
X283766843Y-128997765D01*
X283801746Y-129050000D01*
X283766843Y-129102235D01*
X283737128Y-129251622D01*
X283730000Y-129258750D01*
X283730000Y-129276310D01*
X283731498Y-129279927D01*
X283717560Y-129350000D01*
X283717560Y-129427560D01*
X283640000Y-129427560D01*
X283540000Y-129447451D01*
X283440000Y-129427560D01*
X283240000Y-129427560D01*
X283140000Y-129447451D01*
X283040000Y-129427560D01*
X282840000Y-129427560D01*
X282740000Y-129447451D01*
X282640000Y-129427560D01*
X282562440Y-129427560D01*
X282562440Y-129350000D01*
X282542549Y-129250000D01*
X282562440Y-129150000D01*
X282562440Y-128950000D01*
X282542549Y-128850000D01*
X282562440Y-128750000D01*
X282562440Y-128550000D01*
X282542549Y-128450000D01*
X282562440Y-128350000D01*
X282562440Y-128272440D01*
X282640000Y-128272440D01*
X282740000Y-128252549D01*
X282840000Y-128272440D01*
X283040000Y-128272440D01*
X283140000Y-128252549D01*
X283240000Y-128272440D01*
X283440000Y-128272440D01*
X283540000Y-128252549D01*
X283640000Y-128272440D01*
G04 #@! TD*
M02*
