M48
;DRILL file {KiCad (5.0.0)} date 09/10/18 01:32:24
;FORMAT={-:-/ absolute / inch / decimal}
FMAT,2
INCH,TZ
T1C0.0130
T2C0.0394
T3C0.0400
%
G90
G05
M72
T1
X10.7539Y-5.124
X10.7643Y-5.6097
X10.8102Y-5.0965
X10.8126Y-5.3941
X10.8315Y-5.1567
X10.8543Y-5.5846
X10.8984Y-5.0559
X10.9469Y-5.5051
X10.9488Y-5.5492
X10.9886Y-5.0602
X11.0335Y-5.4382
X11.0571Y-5.1024
X11.0665Y-5.5354
X11.1071Y-5.3929
X11.1114Y-5.1681
X11.1248Y-5.05
X11.1504Y-5.2386
X11.189Y-5.7386
X11.1909Y-5.6563
X11.2098Y-5.0102
X11.2579Y-5.5768
X11.3039Y-5.613
X11.3287Y-5.4646
X11.4134Y-5.7106
X11.5236Y-5.2795
X11.5394Y-5.6949
X11.6539Y-5.6839
X11.6831Y-5.1484
X11.7988Y-5.672
X11.9024Y-5.5386
X11.9252Y-5.6732
X12.0555Y-5.6245
X12.0874Y-5.6894
T2
X12.1276Y-5.0606
X12.1276Y-5.1606
X12.1276Y-5.2606
X12.1276Y-5.3606
X12.2276Y-5.0606
X12.2276Y-5.1606
X12.2276Y-5.2606
X12.2276Y-5.3606
T3
X12.1256Y-5.4685
X12.2256Y-5.4685
X12.1949Y-5.6051
X12.1949Y-5.7051
X12.3051Y-5.6051
X12.3051Y-5.7051
X10.9461Y-4.9783
X11.0461Y-4.9783
T0
M30
