G04 #@! TF.GenerationSoftware,KiCad,Pcbnew,(5.0.0)*
G04 #@! TF.CreationDate,2018-09-10T01:39:48-04:00*
G04 #@! TF.ProjectId,EEG_ADS1299,4545475F414453313239392E6B696361,rev?*
G04 #@! TF.SameCoordinates,Original*
G04 #@! TF.FileFunction,Legend,Bot*
G04 #@! TF.FilePolarity,Positive*
%FSLAX46Y46*%
G04 Gerber Fmt 4.6, Leading zero omitted, Abs format (unit mm)*
G04 Created by KiCad (PCBNEW (5.0.0)) date 09/10/18 01:39:48*
%MOMM*%
%LPD*%
G01*
G04 APERTURE LIST*
%ADD10C,0.127000*%
G04 APERTURE END LIST*
D10*
X297099285Y-132146714D02*
X297099285Y-132654714D01*
X297099285Y-132219285D02*
X297063000Y-132183000D01*
X296990428Y-132146714D01*
X296881571Y-132146714D01*
X296809000Y-132183000D01*
X296772714Y-132255571D01*
X296772714Y-132654714D01*
X295974428Y-132654714D02*
X296228428Y-132291857D01*
X296409857Y-132654714D02*
X296409857Y-131892714D01*
X296119571Y-131892714D01*
X296047000Y-131929000D01*
X296010714Y-131965285D01*
X295974428Y-132037857D01*
X295974428Y-132146714D01*
X296010714Y-132219285D01*
X296047000Y-132255571D01*
X296119571Y-132291857D01*
X296409857Y-132291857D01*
X295393857Y-132255571D02*
X295647857Y-132255571D01*
X295647857Y-132654714D02*
X295647857Y-131892714D01*
X295285000Y-131892714D01*
X294631857Y-131892714D02*
X294994714Y-131892714D01*
X295031000Y-132255571D01*
X294994714Y-132219285D01*
X294922142Y-132183000D01*
X294740714Y-132183000D01*
X294668142Y-132219285D01*
X294631857Y-132255571D01*
X294595571Y-132328142D01*
X294595571Y-132509571D01*
X294631857Y-132582142D01*
X294668142Y-132618428D01*
X294740714Y-132654714D01*
X294922142Y-132654714D01*
X294994714Y-132618428D01*
X295031000Y-132582142D01*
X294305285Y-131965285D02*
X294269000Y-131929000D01*
X294196428Y-131892714D01*
X294015000Y-131892714D01*
X293942428Y-131929000D01*
X293906142Y-131965285D01*
X293869857Y-132037857D01*
X293869857Y-132110428D01*
X293906142Y-132219285D01*
X294341571Y-132654714D01*
X293869857Y-132654714D01*
X293543285Y-132364428D02*
X292962714Y-132364428D01*
X292636142Y-132437000D02*
X292273285Y-132437000D01*
X292708714Y-132654714D02*
X292454714Y-131892714D01*
X292200714Y-132654714D01*
X291946714Y-132654714D02*
X291946714Y-131892714D01*
X291765285Y-131892714D01*
X291656428Y-131929000D01*
X291583857Y-132001571D01*
X291547571Y-132074142D01*
X291511285Y-132219285D01*
X291511285Y-132328142D01*
X291547571Y-132473285D01*
X291583857Y-132545857D01*
X291656428Y-132618428D01*
X291765285Y-132654714D01*
X291946714Y-132654714D01*
X291221000Y-132618428D02*
X291112142Y-132654714D01*
X290930714Y-132654714D01*
X290858142Y-132618428D01*
X290821857Y-132582142D01*
X290785571Y-132509571D01*
X290785571Y-132437000D01*
X290821857Y-132364428D01*
X290858142Y-132328142D01*
X290930714Y-132291857D01*
X291075857Y-132255571D01*
X291148428Y-132219285D01*
X291184714Y-132183000D01*
X291221000Y-132110428D01*
X291221000Y-132037857D01*
X291184714Y-131965285D01*
X291148428Y-131929000D01*
X291075857Y-131892714D01*
X290894428Y-131892714D01*
X290785571Y-131929000D01*
X290059857Y-132654714D02*
X290495285Y-132654714D01*
X290277571Y-132654714D02*
X290277571Y-131892714D01*
X290350142Y-132001571D01*
X290422714Y-132074142D01*
X290495285Y-132110428D01*
X289769571Y-131965285D02*
X289733285Y-131929000D01*
X289660714Y-131892714D01*
X289479285Y-131892714D01*
X289406714Y-131929000D01*
X289370428Y-131965285D01*
X289334142Y-132037857D01*
X289334142Y-132110428D01*
X289370428Y-132219285D01*
X289805857Y-132654714D01*
X289334142Y-132654714D01*
X288971285Y-132654714D02*
X288826142Y-132654714D01*
X288753571Y-132618428D01*
X288717285Y-132582142D01*
X288644714Y-132473285D01*
X288608428Y-132328142D01*
X288608428Y-132037857D01*
X288644714Y-131965285D01*
X288681000Y-131929000D01*
X288753571Y-131892714D01*
X288898714Y-131892714D01*
X288971285Y-131929000D01*
X289007571Y-131965285D01*
X289043857Y-132037857D01*
X289043857Y-132219285D01*
X289007571Y-132291857D01*
X288971285Y-132328142D01*
X288898714Y-132364428D01*
X288753571Y-132364428D01*
X288681000Y-132328142D01*
X288644714Y-132291857D01*
X288608428Y-132219285D01*
X288245571Y-132654714D02*
X288100428Y-132654714D01*
X288027857Y-132618428D01*
X287991571Y-132582142D01*
X287919000Y-132473285D01*
X287882714Y-132328142D01*
X287882714Y-132037857D01*
X287919000Y-131965285D01*
X287955285Y-131929000D01*
X288027857Y-131892714D01*
X288173000Y-131892714D01*
X288245571Y-131929000D01*
X288281857Y-131965285D01*
X288318142Y-132037857D01*
X288318142Y-132219285D01*
X288281857Y-132291857D01*
X288245571Y-132328142D01*
X288173000Y-132364428D01*
X288027857Y-132364428D01*
X287955285Y-132328142D01*
X287919000Y-132291857D01*
X287882714Y-132219285D01*
X287048142Y-132146714D02*
X286903000Y-132654714D01*
X286757857Y-132291857D01*
X286612714Y-132654714D01*
X286467571Y-132146714D01*
X286177285Y-132654714D02*
X286177285Y-132146714D01*
X286177285Y-131892714D02*
X286213571Y-131929000D01*
X286177285Y-131965285D01*
X286141000Y-131929000D01*
X286177285Y-131892714D01*
X286177285Y-131965285D01*
X285923285Y-132146714D02*
X285633000Y-132146714D01*
X285814428Y-131892714D02*
X285814428Y-132545857D01*
X285778142Y-132618428D01*
X285705571Y-132654714D01*
X285633000Y-132654714D01*
X285379000Y-132654714D02*
X285379000Y-131892714D01*
X285052428Y-132654714D02*
X285052428Y-132255571D01*
X285088714Y-132183000D01*
X285161285Y-132146714D01*
X285270142Y-132146714D01*
X285342714Y-132183000D01*
X285379000Y-132219285D01*
X284109000Y-132654714D02*
X284109000Y-131892714D01*
X283855000Y-132437000D01*
X283601000Y-131892714D01*
X283601000Y-132654714D01*
X283238142Y-132654714D02*
X283238142Y-131892714D01*
X282947857Y-131892714D01*
X282875285Y-131929000D01*
X282839000Y-131965285D01*
X282802714Y-132037857D01*
X282802714Y-132146714D01*
X282839000Y-132219285D01*
X282875285Y-132255571D01*
X282947857Y-132291857D01*
X283238142Y-132291857D01*
X282476142Y-131892714D02*
X282476142Y-132509571D01*
X282439857Y-132582142D01*
X282403571Y-132618428D01*
X282331000Y-132654714D01*
X282185857Y-132654714D01*
X282113285Y-132618428D01*
X282077000Y-132582142D01*
X282040714Y-132509571D01*
X282040714Y-131892714D01*
X294904000Y-133525571D02*
X294650000Y-133525571D01*
X294541142Y-133924714D02*
X294904000Y-133924714D01*
X294904000Y-133162714D01*
X294541142Y-133162714D01*
X294287142Y-133924714D02*
X293888000Y-133416714D01*
X294287142Y-133416714D02*
X293888000Y-133924714D01*
X293198571Y-133199000D02*
X293271142Y-133162714D01*
X293380000Y-133162714D01*
X293488857Y-133199000D01*
X293561428Y-133271571D01*
X293597714Y-133344142D01*
X293634000Y-133489285D01*
X293634000Y-133598142D01*
X293597714Y-133743285D01*
X293561428Y-133815857D01*
X293488857Y-133888428D01*
X293380000Y-133924714D01*
X293307428Y-133924714D01*
X293198571Y-133888428D01*
X293162285Y-133852142D01*
X293162285Y-133598142D01*
X293307428Y-133598142D01*
X292255142Y-133924714D02*
X292255142Y-133162714D01*
X291964857Y-133162714D01*
X291892285Y-133199000D01*
X291856000Y-133235285D01*
X291819714Y-133307857D01*
X291819714Y-133416714D01*
X291856000Y-133489285D01*
X291892285Y-133525571D01*
X291964857Y-133561857D01*
X292255142Y-133561857D01*
X291493142Y-133924714D02*
X291493142Y-133416714D01*
X291493142Y-133561857D02*
X291456857Y-133489285D01*
X291420571Y-133453000D01*
X291348000Y-133416714D01*
X291275428Y-133416714D01*
X290912571Y-133924714D02*
X290985142Y-133888428D01*
X291021428Y-133852142D01*
X291057714Y-133779571D01*
X291057714Y-133561857D01*
X291021428Y-133489285D01*
X290985142Y-133453000D01*
X290912571Y-133416714D01*
X290803714Y-133416714D01*
X290731142Y-133453000D01*
X290694857Y-133489285D01*
X290658571Y-133561857D01*
X290658571Y-133779571D01*
X290694857Y-133852142D01*
X290731142Y-133888428D01*
X290803714Y-133924714D01*
X290912571Y-133924714D01*
X290440857Y-133416714D02*
X290150571Y-133416714D01*
X290332000Y-133162714D02*
X290332000Y-133815857D01*
X290295714Y-133888428D01*
X290223142Y-133924714D01*
X290150571Y-133924714D01*
X289787714Y-133924714D02*
X289860285Y-133888428D01*
X289896571Y-133852142D01*
X289932857Y-133779571D01*
X289932857Y-133561857D01*
X289896571Y-133489285D01*
X289860285Y-133453000D01*
X289787714Y-133416714D01*
X289678857Y-133416714D01*
X289606285Y-133453000D01*
X289570000Y-133489285D01*
X289533714Y-133561857D01*
X289533714Y-133779571D01*
X289570000Y-133852142D01*
X289606285Y-133888428D01*
X289678857Y-133924714D01*
X289787714Y-133924714D01*
X289316000Y-133416714D02*
X289025714Y-133416714D01*
X289207142Y-133162714D02*
X289207142Y-133815857D01*
X289170857Y-133888428D01*
X289098285Y-133924714D01*
X289025714Y-133924714D01*
X288844285Y-133416714D02*
X288662857Y-133924714D01*
X288481428Y-133416714D02*
X288662857Y-133924714D01*
X288735428Y-134106142D01*
X288771714Y-134142428D01*
X288844285Y-134178714D01*
X288191142Y-133416714D02*
X288191142Y-134178714D01*
X288191142Y-133453000D02*
X288118571Y-133416714D01*
X287973428Y-133416714D01*
X287900857Y-133453000D01*
X287864571Y-133489285D01*
X287828285Y-133561857D01*
X287828285Y-133779571D01*
X287864571Y-133852142D01*
X287900857Y-133888428D01*
X287973428Y-133924714D01*
X288118571Y-133924714D01*
X288191142Y-133888428D01*
X287211428Y-133888428D02*
X287284000Y-133924714D01*
X287429142Y-133924714D01*
X287501714Y-133888428D01*
X287538000Y-133815857D01*
X287538000Y-133525571D01*
X287501714Y-133453000D01*
X287429142Y-133416714D01*
X287284000Y-133416714D01*
X287211428Y-133453000D01*
X287175142Y-133525571D01*
X287175142Y-133598142D01*
X287538000Y-133670714D01*
X286340571Y-133416714D02*
X286159142Y-133924714D01*
X285977714Y-133416714D01*
X285360857Y-133416714D02*
X285360857Y-133924714D01*
X285542285Y-133126428D02*
X285723714Y-133670714D01*
X285252000Y-133670714D01*
X284961714Y-133852142D02*
X284925428Y-133888428D01*
X284961714Y-133924714D01*
X284998000Y-133888428D01*
X284961714Y-133852142D01*
X284961714Y-133924714D01*
X284453714Y-133162714D02*
X284381142Y-133162714D01*
X284308571Y-133199000D01*
X284272285Y-133235285D01*
X284236000Y-133307857D01*
X284199714Y-133453000D01*
X284199714Y-133634428D01*
X284236000Y-133779571D01*
X284272285Y-133852142D01*
X284308571Y-133888428D01*
X284381142Y-133924714D01*
X284453714Y-133924714D01*
X284526285Y-133888428D01*
X284562571Y-133852142D01*
X284598857Y-133779571D01*
X284635142Y-133634428D01*
X284635142Y-133453000D01*
X284598857Y-133307857D01*
X284562571Y-133235285D01*
X284526285Y-133199000D01*
X284453714Y-133162714D01*
X296010714Y-134831857D02*
X296010714Y-135194714D01*
X296264714Y-134432714D02*
X296010714Y-134831857D01*
X295756714Y-134432714D01*
X295212428Y-135158428D02*
X295285000Y-135194714D01*
X295430142Y-135194714D01*
X295502714Y-135158428D01*
X295539000Y-135085857D01*
X295539000Y-134795571D01*
X295502714Y-134723000D01*
X295430142Y-134686714D01*
X295285000Y-134686714D01*
X295212428Y-134723000D01*
X295176142Y-134795571D01*
X295176142Y-134868142D01*
X295539000Y-134940714D01*
X294740714Y-135194714D02*
X294813285Y-135158428D01*
X294849571Y-135122142D01*
X294885857Y-135049571D01*
X294885857Y-134831857D01*
X294849571Y-134759285D01*
X294813285Y-134723000D01*
X294740714Y-134686714D01*
X294631857Y-134686714D01*
X294559285Y-134723000D01*
X294523000Y-134759285D01*
X294486714Y-134831857D01*
X294486714Y-135049571D01*
X294523000Y-135122142D01*
X294559285Y-135158428D01*
X294631857Y-135194714D01*
X294740714Y-135194714D01*
X293325571Y-134795571D02*
X293216714Y-134831857D01*
X293180428Y-134868142D01*
X293144142Y-134940714D01*
X293144142Y-135049571D01*
X293180428Y-135122142D01*
X293216714Y-135158428D01*
X293289285Y-135194714D01*
X293579571Y-135194714D01*
X293579571Y-134432714D01*
X293325571Y-134432714D01*
X293253000Y-134469000D01*
X293216714Y-134505285D01*
X293180428Y-134577857D01*
X293180428Y-134650428D01*
X293216714Y-134723000D01*
X293253000Y-134759285D01*
X293325571Y-134795571D01*
X293579571Y-134795571D01*
X292817571Y-135194714D02*
X292817571Y-134432714D01*
X292382142Y-135194714D01*
X292382142Y-134432714D01*
X292019285Y-134795571D02*
X291765285Y-134795571D01*
X291656428Y-135194714D02*
X292019285Y-135194714D01*
X292019285Y-134432714D01*
X291656428Y-134432714D01*
X290386428Y-135194714D02*
X290749285Y-135194714D01*
X290749285Y-134432714D01*
X289805857Y-135194714D02*
X289805857Y-134795571D01*
X289842142Y-134723000D01*
X289914714Y-134686714D01*
X290059857Y-134686714D01*
X290132428Y-134723000D01*
X289805857Y-135158428D02*
X289878428Y-135194714D01*
X290059857Y-135194714D01*
X290132428Y-135158428D01*
X290168714Y-135085857D01*
X290168714Y-135013285D01*
X290132428Y-134940714D01*
X290059857Y-134904428D01*
X289878428Y-134904428D01*
X289805857Y-134868142D01*
X289443000Y-135194714D02*
X289443000Y-134432714D01*
X289443000Y-134723000D02*
X289370428Y-134686714D01*
X289225285Y-134686714D01*
X289152714Y-134723000D01*
X289116428Y-134759285D01*
X289080142Y-134831857D01*
X289080142Y-135049571D01*
X289116428Y-135122142D01*
X289152714Y-135158428D01*
X289225285Y-135194714D01*
X289370428Y-135194714D01*
X289443000Y-135158428D01*
X288173000Y-134904428D02*
X287592428Y-134904428D01*
X286249857Y-134469000D02*
X286322428Y-134432714D01*
X286431285Y-134432714D01*
X286540142Y-134469000D01*
X286612714Y-134541571D01*
X286649000Y-134614142D01*
X286685285Y-134759285D01*
X286685285Y-134868142D01*
X286649000Y-135013285D01*
X286612714Y-135085857D01*
X286540142Y-135158428D01*
X286431285Y-135194714D01*
X286358714Y-135194714D01*
X286249857Y-135158428D01*
X286213571Y-135122142D01*
X286213571Y-134868142D01*
X286358714Y-134868142D01*
X285560428Y-135194714D02*
X285560428Y-134795571D01*
X285596714Y-134723000D01*
X285669285Y-134686714D01*
X285814428Y-134686714D01*
X285887000Y-134723000D01*
X285560428Y-135158428D02*
X285633000Y-135194714D01*
X285814428Y-135194714D01*
X285887000Y-135158428D01*
X285923285Y-135085857D01*
X285923285Y-135013285D01*
X285887000Y-134940714D01*
X285814428Y-134904428D01*
X285633000Y-134904428D01*
X285560428Y-134868142D01*
X285306428Y-134432714D02*
X284871000Y-134432714D01*
X285088714Y-135194714D02*
X285088714Y-134432714D01*
X284326714Y-135158428D02*
X284399285Y-135194714D01*
X284544428Y-135194714D01*
X284617000Y-135158428D01*
X284653285Y-135085857D01*
X284653285Y-134795571D01*
X284617000Y-134723000D01*
X284544428Y-134686714D01*
X284399285Y-134686714D01*
X284326714Y-134723000D01*
X284290428Y-134795571D01*
X284290428Y-134868142D01*
X284653285Y-134940714D01*
X283637285Y-135158428D02*
X283709857Y-135194714D01*
X283855000Y-135194714D01*
X283927571Y-135158428D01*
X283963857Y-135122142D01*
X284000142Y-135049571D01*
X284000142Y-134831857D01*
X283963857Y-134759285D01*
X283927571Y-134723000D01*
X283855000Y-134686714D01*
X283709857Y-134686714D01*
X283637285Y-134723000D01*
X283310714Y-135194714D02*
X283310714Y-134432714D01*
X282984142Y-135194714D02*
X282984142Y-134795571D01*
X283020428Y-134723000D01*
X283093000Y-134686714D01*
X283201857Y-134686714D01*
X283274428Y-134723000D01*
X283310714Y-134759285D01*
M02*
