G04 #@! TF.GenerationSoftware,KiCad,Pcbnew,(5.0.0)*
G04 #@! TF.CreationDate,2018-09-10T01:39:48-04:00*
G04 #@! TF.ProjectId,EEG_ADS1299,4545475F414453313239392E6B696361,rev?*
G04 #@! TF.SameCoordinates,Original*
G04 #@! TF.FileFunction,Legend,Top*
G04 #@! TF.FilePolarity,Positive*
%FSLAX46Y46*%
G04 Gerber Fmt 4.6, Leading zero omitted, Abs format (unit mm)*
G04 Created by KiCad (PCBNEW (5.0.0)) date 09/10/18 01:39:48*
%MOMM*%
%LPD*%
G01*
G04 APERTURE LIST*
%ADD10C,0.100000*%
%ADD11C,0.200000*%
%ADD12C,0.125000*%
%ADD13C,0.500000*%
%ADD14C,0.120000*%
%ADD15C,0.152400*%
%ADD16C,0.071120*%
%ADD17C,0.150000*%
%ADD18C,0.127000*%
%ADD19C,0.250000*%
%ADD20C,0.114300*%
%ADD21C,0.090000*%
%ADD22C,0.060000*%
%ADD23C,0.092000*%
%ADD24C,0.095000*%
%ADD25C,0.080000*%
G04 APERTURE END LIST*
D10*
X297596666Y-127293333D02*
X296896666Y-127293333D01*
X296863333Y-126460000D02*
X297763333Y-127060000D01*
X296896666Y-126093333D02*
X296896666Y-125960000D01*
X296930000Y-125893333D01*
X296996666Y-125826666D01*
X297130000Y-125793333D01*
X297363333Y-125793333D01*
X297496666Y-125826666D01*
X297563333Y-125893333D01*
X297596666Y-125960000D01*
X297596666Y-126093333D01*
X297563333Y-126160000D01*
X297496666Y-126226666D01*
X297363333Y-126260000D01*
X297130000Y-126260000D01*
X296996666Y-126226666D01*
X296930000Y-126160000D01*
X296896666Y-126093333D01*
X308865714Y-146676428D02*
X308972857Y-146712142D01*
X309008571Y-146747857D01*
X309044285Y-146819285D01*
X309044285Y-146926428D01*
X309008571Y-146997857D01*
X308972857Y-147033571D01*
X308901428Y-147069285D01*
X308615714Y-147069285D01*
X308615714Y-146319285D01*
X308865714Y-146319285D01*
X308937142Y-146355000D01*
X308972857Y-146390714D01*
X309008571Y-146462142D01*
X309008571Y-146533571D01*
X308972857Y-146605000D01*
X308937142Y-146640714D01*
X308865714Y-146676428D01*
X308615714Y-146676428D01*
X309687142Y-147069285D02*
X309687142Y-146676428D01*
X309651428Y-146605000D01*
X309580000Y-146569285D01*
X309437142Y-146569285D01*
X309365714Y-146605000D01*
X309687142Y-147033571D02*
X309615714Y-147069285D01*
X309437142Y-147069285D01*
X309365714Y-147033571D01*
X309330000Y-146962142D01*
X309330000Y-146890714D01*
X309365714Y-146819285D01*
X309437142Y-146783571D01*
X309615714Y-146783571D01*
X309687142Y-146747857D01*
X309937142Y-146569285D02*
X310222857Y-146569285D01*
X310044285Y-146319285D02*
X310044285Y-146962142D01*
X310080000Y-147033571D01*
X310151428Y-147069285D01*
X310222857Y-147069285D01*
X310472857Y-146783571D02*
X311044285Y-146783571D01*
X310758571Y-147069285D02*
X310758571Y-146497857D01*
X313152857Y-135971428D02*
X313152857Y-136464761D01*
X312974285Y-135689523D02*
X312795714Y-136218095D01*
X313260000Y-136218095D01*
X312760000Y-133184761D02*
X313224285Y-133184761D01*
X312974285Y-133466666D01*
X313081428Y-133466666D01*
X313152857Y-133501904D01*
X313188571Y-133537142D01*
X313224285Y-133607619D01*
X313224285Y-133783809D01*
X313188571Y-133854285D01*
X313152857Y-133889523D01*
X313081428Y-133924761D01*
X312867142Y-133924761D01*
X312795714Y-133889523D01*
X312760000Y-133854285D01*
X312795714Y-130705238D02*
X312831428Y-130670000D01*
X312902857Y-130634761D01*
X313081428Y-130634761D01*
X313152857Y-130670000D01*
X313188571Y-130705238D01*
X313224285Y-130775714D01*
X313224285Y-130846190D01*
X313188571Y-130951904D01*
X312760000Y-131374761D01*
X313224285Y-131374761D01*
X313184285Y-128794761D02*
X312755714Y-128794761D01*
X312970000Y-128794761D02*
X312970000Y-128054761D01*
X312898571Y-128160476D01*
X312827142Y-128230952D01*
X312755714Y-128266190D01*
X308335714Y-126467142D02*
X307764285Y-126467142D01*
X308050000Y-126185238D02*
X308050000Y-126749047D01*
X310935714Y-126447142D02*
X310364285Y-126447142D01*
X306389523Y-140271428D02*
X306424761Y-140164285D01*
X306424761Y-139985714D01*
X306389523Y-139914285D01*
X306354285Y-139878571D01*
X306283809Y-139842857D01*
X306213333Y-139842857D01*
X306142857Y-139878571D01*
X306107619Y-139914285D01*
X306072380Y-139985714D01*
X306037142Y-140128571D01*
X306001904Y-140200000D01*
X305966666Y-140235714D01*
X305896190Y-140271428D01*
X305825714Y-140271428D01*
X305755238Y-140235714D01*
X305720000Y-140200000D01*
X305684761Y-140128571D01*
X305684761Y-139950000D01*
X305720000Y-139842857D01*
X306424761Y-139092857D02*
X306072380Y-139342857D01*
X306424761Y-139521428D02*
X305684761Y-139521428D01*
X305684761Y-139235714D01*
X305720000Y-139164285D01*
X305755238Y-139128571D01*
X305825714Y-139092857D01*
X305931428Y-139092857D01*
X306001904Y-139128571D01*
X306037142Y-139164285D01*
X306072380Y-139235714D01*
X306072380Y-139521428D01*
X306037142Y-138521428D02*
X306072380Y-138414285D01*
X306107619Y-138378571D01*
X306178095Y-138342857D01*
X306283809Y-138342857D01*
X306354285Y-138378571D01*
X306389523Y-138414285D01*
X306424761Y-138485714D01*
X306424761Y-138771428D01*
X305684761Y-138771428D01*
X305684761Y-138521428D01*
X305720000Y-138450000D01*
X305755238Y-138414285D01*
X305825714Y-138378571D01*
X305896190Y-138378571D01*
X305966666Y-138414285D01*
X306001904Y-138450000D01*
X306037142Y-138521428D01*
X306037142Y-138771428D01*
X306424761Y-137628571D02*
X306424761Y-138057142D01*
X306424761Y-137842857D02*
X305684761Y-137842857D01*
X305790476Y-137914285D01*
X305860952Y-137985714D01*
X305896190Y-138057142D01*
X312122857Y-146309285D02*
X311765714Y-146309285D01*
X311730000Y-146666428D01*
X311765714Y-146630714D01*
X311837142Y-146595000D01*
X312015714Y-146595000D01*
X312087142Y-146630714D01*
X312122857Y-146666428D01*
X312158571Y-146737857D01*
X312158571Y-146916428D01*
X312122857Y-146987857D01*
X312087142Y-147023571D01*
X312015714Y-147059285D01*
X311837142Y-147059285D01*
X311765714Y-147023571D01*
X311730000Y-146987857D01*
X312372857Y-146309285D02*
X312622857Y-147059285D01*
X312872857Y-146309285D01*
X313122857Y-146773571D02*
X313694285Y-146773571D01*
X313408571Y-147059285D02*
X313408571Y-146487857D01*
X312407142Y-139803571D02*
X312442380Y-139696428D01*
X312477619Y-139660714D01*
X312548095Y-139625000D01*
X312653809Y-139625000D01*
X312724285Y-139660714D01*
X312759523Y-139696428D01*
X312794761Y-139767857D01*
X312794761Y-140053571D01*
X312054761Y-140053571D01*
X312054761Y-139803571D01*
X312090000Y-139732142D01*
X312125238Y-139696428D01*
X312195714Y-139660714D01*
X312266190Y-139660714D01*
X312336666Y-139696428D01*
X312371904Y-139732142D01*
X312407142Y-139803571D01*
X312407142Y-140053571D01*
X312794761Y-139303571D02*
X312054761Y-139303571D01*
X312583333Y-138982142D02*
X312583333Y-138625000D01*
X312794761Y-139053571D02*
X312054761Y-138803571D01*
X312794761Y-138553571D01*
X312759523Y-138339285D02*
X312794761Y-138232142D01*
X312794761Y-138053571D01*
X312759523Y-137982142D01*
X312724285Y-137946428D01*
X312653809Y-137910714D01*
X312583333Y-137910714D01*
X312512857Y-137946428D01*
X312477619Y-137982142D01*
X312442380Y-138053571D01*
X312407142Y-138196428D01*
X312371904Y-138267857D01*
X312336666Y-138303571D01*
X312266190Y-138339285D01*
X312195714Y-138339285D01*
X312125238Y-138303571D01*
X312090000Y-138267857D01*
X312054761Y-138196428D01*
X312054761Y-138017857D01*
X312090000Y-137910714D01*
X310638571Y-140325000D02*
X310567142Y-140289285D01*
X310460000Y-140289285D01*
X310352857Y-140325000D01*
X310281428Y-140396428D01*
X310245714Y-140467857D01*
X310210000Y-140610714D01*
X310210000Y-140717857D01*
X310245714Y-140860714D01*
X310281428Y-140932142D01*
X310352857Y-141003571D01*
X310460000Y-141039285D01*
X310531428Y-141039285D01*
X310638571Y-141003571D01*
X310674285Y-140967857D01*
X310674285Y-140717857D01*
X310531428Y-140717857D01*
X310995714Y-141039285D02*
X310995714Y-140289285D01*
X311424285Y-141039285D01*
X311424285Y-140289285D01*
X311781428Y-141039285D02*
X311781428Y-140289285D01*
X311960000Y-140289285D01*
X312067142Y-140325000D01*
X312138571Y-140396428D01*
X312174285Y-140467857D01*
X312210000Y-140610714D01*
X312210000Y-140717857D01*
X312174285Y-140860714D01*
X312138571Y-140932142D01*
X312067142Y-141003571D01*
X311960000Y-141039285D01*
X311781428Y-141039285D01*
D11*
X277550000Y-129140000D02*
X278460000Y-129140000D01*
X277980000Y-128770000D02*
X277980000Y-128700000D01*
X278000000Y-130530000D02*
X278000000Y-129530000D01*
X265900000Y-132000000D02*
X265900000Y-125500000D01*
X272400000Y-132000000D02*
X265900000Y-132000000D01*
X272400000Y-125500000D02*
X272400000Y-132000000D01*
X265900000Y-125500000D02*
X272400000Y-125500000D01*
D12*
X296367857Y-139283333D02*
X295891666Y-139283333D01*
X296463095Y-138997619D02*
X296129761Y-139997619D01*
X295796428Y-138997619D01*
X295463095Y-138997619D02*
X295463095Y-139997619D01*
X295225000Y-139997619D01*
X295082142Y-139950000D01*
X294986904Y-139854761D01*
X294939285Y-139759523D01*
X294891666Y-139569047D01*
X294891666Y-139426190D01*
X294939285Y-139235714D01*
X294986904Y-139140476D01*
X295082142Y-139045238D01*
X295225000Y-138997619D01*
X295463095Y-138997619D01*
X294510714Y-139045238D02*
X294367857Y-138997619D01*
X294129761Y-138997619D01*
X294034523Y-139045238D01*
X293986904Y-139092857D01*
X293939285Y-139188095D01*
X293939285Y-139283333D01*
X293986904Y-139378571D01*
X294034523Y-139426190D01*
X294129761Y-139473809D01*
X294320238Y-139521428D01*
X294415476Y-139569047D01*
X294463095Y-139616666D01*
X294510714Y-139711904D01*
X294510714Y-139807142D01*
X294463095Y-139902380D01*
X294415476Y-139950000D01*
X294320238Y-139997619D01*
X294082142Y-139997619D01*
X293939285Y-139950000D01*
X292986904Y-138997619D02*
X293558333Y-138997619D01*
X293272619Y-138997619D02*
X293272619Y-139997619D01*
X293367857Y-139854761D01*
X293463095Y-139759523D01*
X293558333Y-139711904D01*
X292605952Y-139902380D02*
X292558333Y-139950000D01*
X292463095Y-139997619D01*
X292225000Y-139997619D01*
X292129761Y-139950000D01*
X292082142Y-139902380D01*
X292034523Y-139807142D01*
X292034523Y-139711904D01*
X292082142Y-139569047D01*
X292653571Y-138997619D01*
X292034523Y-138997619D01*
X291558333Y-138997619D02*
X291367857Y-138997619D01*
X291272619Y-139045238D01*
X291225000Y-139092857D01*
X291129761Y-139235714D01*
X291082142Y-139426190D01*
X291082142Y-139807142D01*
X291129761Y-139902380D01*
X291177380Y-139950000D01*
X291272619Y-139997619D01*
X291463095Y-139997619D01*
X291558333Y-139950000D01*
X291605952Y-139902380D01*
X291653571Y-139807142D01*
X291653571Y-139569047D01*
X291605952Y-139473809D01*
X291558333Y-139426190D01*
X291463095Y-139378571D01*
X291272619Y-139378571D01*
X291177380Y-139426190D01*
X291129761Y-139473809D01*
X291082142Y-139569047D01*
X290605952Y-138997619D02*
X290415476Y-138997619D01*
X290320238Y-139045238D01*
X290272619Y-139092857D01*
X290177380Y-139235714D01*
X290129761Y-139426190D01*
X290129761Y-139807142D01*
X290177380Y-139902380D01*
X290225000Y-139950000D01*
X290320238Y-139997619D01*
X290510714Y-139997619D01*
X290605952Y-139950000D01*
X290653571Y-139902380D01*
X290701190Y-139807142D01*
X290701190Y-139569047D01*
X290653571Y-139473809D01*
X290605952Y-139426190D01*
X290510714Y-139378571D01*
X290320238Y-139378571D01*
X290225000Y-139426190D01*
X290177380Y-139473809D01*
X290129761Y-139569047D01*
X289701190Y-139378571D02*
X288939285Y-139378571D01*
X288558333Y-138997619D02*
X288034523Y-139664285D01*
X288558333Y-139664285D02*
X288034523Y-138997619D01*
X282314285Y-132804761D02*
X281647619Y-132804761D01*
X282219047Y-132804761D02*
X282266666Y-132852380D01*
X282314285Y-132947619D01*
X282314285Y-133090476D01*
X282266666Y-133185714D01*
X282171428Y-133233333D01*
X281647619Y-133233333D01*
X281647619Y-134280952D02*
X282123809Y-133947619D01*
X281647619Y-133709523D02*
X282647619Y-133709523D01*
X282647619Y-134090476D01*
X282600000Y-134185714D01*
X282552380Y-134233333D01*
X282457142Y-134280952D01*
X282314285Y-134280952D01*
X282219047Y-134233333D01*
X282171428Y-134185714D01*
X282123809Y-134090476D01*
X282123809Y-133709523D01*
X282171428Y-135042857D02*
X282171428Y-134709523D01*
X281647619Y-134709523D02*
X282647619Y-134709523D01*
X282647619Y-135185714D01*
X282647619Y-136042857D02*
X282647619Y-135566666D01*
X282171428Y-135519047D01*
X282219047Y-135566666D01*
X282266666Y-135661904D01*
X282266666Y-135900000D01*
X282219047Y-135995238D01*
X282171428Y-136042857D01*
X282076190Y-136090476D01*
X281838095Y-136090476D01*
X281742857Y-136042857D01*
X281695238Y-135995238D01*
X281647619Y-135900000D01*
X281647619Y-135661904D01*
X281695238Y-135566666D01*
X281742857Y-135519047D01*
X282552380Y-136471428D02*
X282600000Y-136519047D01*
X282647619Y-136614285D01*
X282647619Y-136852380D01*
X282600000Y-136947619D01*
X282552380Y-136995238D01*
X282457142Y-137042857D01*
X282361904Y-137042857D01*
X282219047Y-136995238D01*
X281647619Y-136423809D01*
X281647619Y-137042857D01*
D11*
X274411107Y-144237500D02*
G75*
G03X274411107Y-144237500I-223607J0D01*
G01*
X296570088Y-140900000D02*
G75*
G03X296570088Y-140900000I-570088J0D01*
G01*
X275033113Y-137010000D02*
G75*
G03X275033113Y-137010000I-403113J0D01*
G01*
D10*
X303840000Y-127386666D02*
X303873333Y-127420000D01*
X303906666Y-127520000D01*
X303906666Y-127586666D01*
X303873333Y-127686666D01*
X303806666Y-127753333D01*
X303740000Y-127786666D01*
X303606666Y-127820000D01*
X303506666Y-127820000D01*
X303373333Y-127786666D01*
X303306666Y-127753333D01*
X303240000Y-127686666D01*
X303206666Y-127586666D01*
X303206666Y-127520000D01*
X303240000Y-127420000D01*
X303273333Y-127386666D01*
X303906666Y-126753333D02*
X303906666Y-127086666D01*
X303206666Y-127086666D01*
X303906666Y-126520000D02*
X303206666Y-126520000D01*
X303906666Y-126120000D02*
X303506666Y-126420000D01*
X303206666Y-126120000D02*
X303606666Y-126520000D01*
D13*
X269900000Y-127673000D02*
X269320000Y-127673000D01*
D14*
G04 #@! TO.C,D4*
X302630000Y-144580000D02*
X300530000Y-144580000D01*
X302630000Y-143580000D02*
X300530000Y-143580000D01*
X302630000Y-144580000D02*
X302630000Y-143580000D01*
D15*
G04 #@! TO.C,P1*
X311020000Y-146180000D02*
X308480000Y-146180000D01*
X308480000Y-146180000D02*
X308480000Y-141100000D01*
X308480000Y-141100000D02*
X311020000Y-141100000D01*
X311020000Y-141100000D02*
X311020000Y-146180000D01*
D14*
G04 #@! TO.C,D3*
X308140000Y-143190000D02*
X308140000Y-145290000D01*
X307140000Y-143190000D02*
X307140000Y-145290000D01*
X308140000Y-143190000D02*
X307140000Y-143190000D01*
D16*
G04 #@! TO.C,R15*
X305168420Y-144929000D02*
X305676420Y-144929000D01*
X305168420Y-145691000D02*
X305168420Y-144929000D01*
X305676420Y-145691000D02*
X305168420Y-145691000D01*
X306692420Y-144929000D02*
X306184420Y-144929000D01*
X306692420Y-145691000D02*
X306692420Y-144929000D01*
X306184420Y-145691000D02*
X306692420Y-145691000D01*
G04 #@! TO.C,R14*
X300589000Y-142534000D02*
X300589000Y-143042000D01*
X300589000Y-143042000D02*
X301351000Y-143042000D01*
X301351000Y-143042000D02*
X301351000Y-142534000D01*
X300589000Y-142026000D02*
X300589000Y-141518000D01*
X300589000Y-141518000D02*
X301351000Y-141518000D01*
X301351000Y-141518000D02*
X301351000Y-142026000D01*
G04 #@! TO.C,C40*
X306831000Y-141058420D02*
X306831000Y-141566420D01*
X306069000Y-141058420D02*
X306831000Y-141058420D01*
X306069000Y-141566420D02*
X306069000Y-141058420D01*
X306831000Y-142582420D02*
X306831000Y-142074420D01*
X306069000Y-142582420D02*
X306831000Y-142582420D01*
X306069000Y-142074420D02*
X306069000Y-142582420D01*
G04 #@! TO.C,C37*
X303816420Y-144939000D02*
X303308420Y-144939000D01*
X303308420Y-144939000D02*
X303308420Y-145701000D01*
X303308420Y-145701000D02*
X303816420Y-145701000D01*
X304324420Y-144939000D02*
X304832420Y-144939000D01*
X304832420Y-144939000D02*
X304832420Y-145701000D01*
X304832420Y-145701000D02*
X304324420Y-145701000D01*
G04 #@! TO.C,C41*
X308051000Y-141048420D02*
X308051000Y-141556420D01*
X307289000Y-141048420D02*
X308051000Y-141048420D01*
X307289000Y-141556420D02*
X307289000Y-141048420D01*
X308051000Y-142572420D02*
X308051000Y-142064420D01*
X307289000Y-142572420D02*
X308051000Y-142572420D01*
X307289000Y-142064420D02*
X307289000Y-142572420D01*
D15*
G04 #@! TO.C,P3*
X313820000Y-146180000D02*
X311280000Y-146180000D01*
X311280000Y-146180000D02*
X311280000Y-141100000D01*
X311280000Y-141100000D02*
X313820000Y-141100000D01*
X313820000Y-141100000D02*
X313820000Y-146180000D01*
G04 #@! TO.C,J2*
X306720000Y-137630000D02*
X311800000Y-137630000D01*
X306720000Y-140170000D02*
X306720000Y-137630000D01*
X311800000Y-140170000D02*
X306720000Y-140170000D01*
X311800000Y-137630000D02*
X311800000Y-140170000D01*
D16*
G04 #@! TO.C,R13*
X305345580Y-131749000D02*
X304837580Y-131749000D01*
X304837580Y-131749000D02*
X304837580Y-132511000D01*
X304837580Y-132511000D02*
X305345580Y-132511000D01*
X305853580Y-131749000D02*
X306361580Y-131749000D01*
X306361580Y-131749000D02*
X306361580Y-132511000D01*
X306361580Y-132511000D02*
X305853580Y-132511000D01*
D14*
G04 #@! TO.C,X2*
X274950000Y-139650000D02*
X277350000Y-139650000D01*
X277350000Y-139650000D02*
X277350000Y-138050000D01*
X277350000Y-138050000D02*
X274950000Y-138050000D01*
D16*
G04 #@! TO.C,R10*
X280621000Y-140846000D02*
X280621000Y-140338000D01*
X280621000Y-140338000D02*
X279859000Y-140338000D01*
X279859000Y-140338000D02*
X279859000Y-140846000D01*
X280621000Y-141354000D02*
X280621000Y-141862000D01*
X280621000Y-141862000D02*
X279859000Y-141862000D01*
X279859000Y-141862000D02*
X279859000Y-141354000D01*
G04 #@! TO.C,R9*
X278764000Y-139481000D02*
X279272000Y-139481000D01*
X279272000Y-139481000D02*
X279272000Y-138719000D01*
X279272000Y-138719000D02*
X278764000Y-138719000D01*
X278256000Y-139481000D02*
X277748000Y-139481000D01*
X277748000Y-139481000D02*
X277748000Y-138719000D01*
X277748000Y-138719000D02*
X278256000Y-138719000D01*
G04 #@! TO.C,C39*
X276149000Y-143344000D02*
X276149000Y-143852000D01*
X276149000Y-143852000D02*
X276911000Y-143852000D01*
X276911000Y-143852000D02*
X276911000Y-143344000D01*
X276149000Y-142836000D02*
X276149000Y-142328000D01*
X276149000Y-142328000D02*
X276911000Y-142328000D01*
X276911000Y-142328000D02*
X276911000Y-142836000D01*
G04 #@! TO.C,C38*
X283501000Y-142856000D02*
X283501000Y-142348000D01*
X283501000Y-142348000D02*
X282739000Y-142348000D01*
X282739000Y-142348000D02*
X282739000Y-142856000D01*
X283501000Y-143364000D02*
X283501000Y-143872000D01*
X283501000Y-143872000D02*
X282739000Y-143872000D01*
X282739000Y-143872000D02*
X282739000Y-143364000D01*
G04 #@! TO.C,R8*
X303396420Y-133009000D02*
X302888420Y-133009000D01*
X302888420Y-133009000D02*
X302888420Y-133771000D01*
X302888420Y-133771000D02*
X303396420Y-133771000D01*
X303904420Y-133009000D02*
X304412420Y-133009000D01*
X304412420Y-133009000D02*
X304412420Y-133771000D01*
X304412420Y-133771000D02*
X303904420Y-133771000D01*
G04 #@! TO.C,R7*
X305305580Y-134289000D02*
X304797580Y-134289000D01*
X304797580Y-134289000D02*
X304797580Y-135051000D01*
X304797580Y-135051000D02*
X305305580Y-135051000D01*
X305813580Y-134289000D02*
X306321580Y-134289000D01*
X306321580Y-134289000D02*
X306321580Y-135051000D01*
X306321580Y-135051000D02*
X305813580Y-135051000D01*
D17*
G04 #@! TO.C,IC1*
X297175000Y-142075000D02*
X297175000Y-141125000D01*
X286825000Y-142075000D02*
X286825000Y-141025000D01*
X286825000Y-131725000D02*
X286825000Y-132775000D01*
X297175000Y-131725000D02*
X297175000Y-132775000D01*
X297175000Y-142075000D02*
X296125000Y-142075000D01*
X297175000Y-131725000D02*
X296125000Y-131725000D01*
X286825000Y-131725000D02*
X287875000Y-131725000D01*
X286825000Y-142075000D02*
X287875000Y-142075000D01*
X297175000Y-141125000D02*
X298450000Y-141125000D01*
D18*
G04 #@! TO.C,L1*
X276055000Y-146373000D02*
X276055000Y-144087000D01*
X276055000Y-144087000D02*
X277325000Y-144087000D01*
X277325000Y-144087000D02*
X277325000Y-146373000D01*
X277325000Y-146373000D02*
X276055000Y-146373000D01*
D16*
G04 #@! TO.C,C1*
X283521000Y-144576000D02*
X283521000Y-144068000D01*
X283521000Y-144068000D02*
X282759000Y-144068000D01*
X282759000Y-144068000D02*
X282759000Y-144576000D01*
X283521000Y-145084000D02*
X283521000Y-145592000D01*
X283521000Y-145592000D02*
X282759000Y-145592000D01*
X282759000Y-145592000D02*
X282759000Y-145084000D01*
G04 #@! TO.C,C21*
X273689000Y-138854000D02*
X273689000Y-139362000D01*
X273689000Y-139362000D02*
X274451000Y-139362000D01*
X274451000Y-139362000D02*
X274451000Y-138854000D01*
X273689000Y-138346000D02*
X273689000Y-137838000D01*
X273689000Y-137838000D02*
X274451000Y-137838000D01*
X274451000Y-137838000D02*
X274451000Y-138346000D01*
D17*
G04 #@! TO.C,U4*
X284740000Y-130450000D02*
X284340000Y-130450000D01*
X284740000Y-130450000D02*
X284740000Y-130050000D01*
X284740000Y-127250000D02*
X284340000Y-127250000D01*
X284740000Y-127250000D02*
X284740000Y-127650000D01*
X281540000Y-127250000D02*
X281940000Y-127250000D01*
X281540000Y-127250000D02*
X281540000Y-127650000D01*
X281540000Y-130450000D02*
X281540000Y-130050000D01*
D16*
G04 #@! TO.C,R12*
X283004000Y-132591000D02*
X283512000Y-132591000D01*
X283512000Y-132591000D02*
X283512000Y-131829000D01*
X283512000Y-131829000D02*
X283004000Y-131829000D01*
X282496000Y-132591000D02*
X281988000Y-132591000D01*
X281988000Y-132591000D02*
X281988000Y-131829000D01*
X281988000Y-131829000D02*
X282496000Y-131829000D01*
G04 #@! TO.C,R11*
X283524000Y-131651000D02*
X284032000Y-131651000D01*
X284032000Y-131651000D02*
X284032000Y-130889000D01*
X284032000Y-130889000D02*
X283524000Y-130889000D01*
X283016000Y-131651000D02*
X282508000Y-131651000D01*
X282508000Y-131651000D02*
X282508000Y-130889000D01*
X282508000Y-130889000D02*
X283016000Y-130889000D01*
G04 #@! TO.C,C36*
X285846000Y-126979000D02*
X285338000Y-126979000D01*
X285338000Y-126979000D02*
X285338000Y-127741000D01*
X285338000Y-127741000D02*
X285846000Y-127741000D01*
X286354000Y-126979000D02*
X286862000Y-126979000D01*
X286862000Y-126979000D02*
X286862000Y-127741000D01*
X286862000Y-127741000D02*
X286354000Y-127741000D01*
G04 #@! TO.C,C35*
X286161000Y-128926000D02*
X286161000Y-128418000D01*
X286161000Y-128418000D02*
X285399000Y-128418000D01*
X285399000Y-128418000D02*
X285399000Y-128926000D01*
X286161000Y-129434000D02*
X286161000Y-129942000D01*
X286161000Y-129942000D02*
X285399000Y-129942000D01*
X285399000Y-129942000D02*
X285399000Y-129434000D01*
D14*
G04 #@! TO.C,F1*
X277470000Y-128250000D02*
X277470000Y-128750000D01*
X278530000Y-128750000D02*
X278530000Y-128250000D01*
D16*
G04 #@! TO.C,C34*
X275534000Y-129001000D02*
X276042000Y-129001000D01*
X276042000Y-129001000D02*
X276042000Y-128239000D01*
X276042000Y-128239000D02*
X275534000Y-128239000D01*
X275026000Y-129001000D02*
X274518000Y-129001000D01*
X274518000Y-129001000D02*
X274518000Y-128239000D01*
X274518000Y-128239000D02*
X275026000Y-128239000D01*
G04 #@! TO.C,C33*
X273346000Y-129069000D02*
X272838000Y-129069000D01*
X272838000Y-129069000D02*
X272838000Y-129831000D01*
X272838000Y-129831000D02*
X273346000Y-129831000D01*
X273854000Y-129069000D02*
X274362000Y-129069000D01*
X274362000Y-129069000D02*
X274362000Y-129831000D01*
X274362000Y-129831000D02*
X273854000Y-129831000D01*
D17*
G04 #@! TO.C,C15*
X289800000Y-129000000D02*
X288450000Y-129000000D01*
X289800000Y-128100000D02*
X289800000Y-128950000D01*
X288400000Y-128150000D02*
X288400000Y-129000000D01*
X288500000Y-128100000D02*
X289650000Y-128100000D01*
X288600000Y-129100000D02*
X289550000Y-129100000D01*
X288550000Y-129000000D02*
X289650000Y-129000000D01*
X288500000Y-128150000D02*
X289700000Y-128150000D01*
D19*
X289100000Y-128800000D02*
X289100000Y-128300000D01*
D18*
X288465000Y-128893000D02*
X288465000Y-126607000D01*
X288465000Y-126607000D02*
X289735000Y-126607000D01*
X289735000Y-126607000D02*
X289735000Y-128893000D01*
X289735000Y-128893000D02*
X288465000Y-128893000D01*
D15*
G04 #@! TO.C,P2*
X303050000Y-125660000D02*
X303050000Y-128200000D01*
X303050000Y-128200000D02*
X297970000Y-128200000D01*
X297970000Y-128200000D02*
X297970000Y-125660000D01*
X297970000Y-125660000D02*
X303050000Y-125660000D01*
D16*
G04 #@! TO.C,C5*
X297456000Y-128571000D02*
X297456000Y-128063000D01*
X297456000Y-128063000D02*
X296694000Y-128063000D01*
X296694000Y-128063000D02*
X296694000Y-128571000D01*
X297456000Y-129079000D02*
X297456000Y-129587000D01*
X297456000Y-129587000D02*
X296694000Y-129587000D01*
X296694000Y-129587000D02*
X296694000Y-129079000D01*
G04 #@! TO.C,C14*
X288296000Y-144569000D02*
X287788000Y-144569000D01*
X287788000Y-144569000D02*
X287788000Y-145331000D01*
X287788000Y-145331000D02*
X288296000Y-145331000D01*
X288804000Y-144569000D02*
X289312000Y-144569000D01*
X289312000Y-144569000D02*
X289312000Y-145331000D01*
X289312000Y-145331000D02*
X288804000Y-145331000D01*
D14*
G04 #@! TO.C,D2*
X282210000Y-138900000D02*
X282210000Y-139900000D01*
X282210000Y-139900000D02*
X284310000Y-139900000D01*
X282210000Y-138900000D02*
X284310000Y-138900000D01*
D16*
G04 #@! TO.C,C32*
X288296000Y-145619000D02*
X287788000Y-145619000D01*
X287788000Y-145619000D02*
X287788000Y-146381000D01*
X287788000Y-146381000D02*
X288296000Y-146381000D01*
X288804000Y-145619000D02*
X289312000Y-145619000D01*
X289312000Y-145619000D02*
X289312000Y-146381000D01*
X289312000Y-146381000D02*
X288804000Y-146381000D01*
D14*
G04 #@! TO.C,U2*
X272612500Y-144047500D02*
X274512500Y-144047500D01*
X274012500Y-141727500D02*
X272612500Y-141727500D01*
D16*
G04 #@! TO.C,C12*
X290419000Y-127654000D02*
X290419000Y-128162000D01*
X290419000Y-128162000D02*
X291181000Y-128162000D01*
X291181000Y-128162000D02*
X291181000Y-127654000D01*
X290419000Y-127146000D02*
X290419000Y-126638000D01*
X290419000Y-126638000D02*
X291181000Y-126638000D01*
X291181000Y-126638000D02*
X291181000Y-127146000D01*
G04 #@! TO.C,C31*
X296406000Y-128571000D02*
X296406000Y-128063000D01*
X296406000Y-128063000D02*
X295644000Y-128063000D01*
X295644000Y-128063000D02*
X295644000Y-128571000D01*
X296406000Y-129079000D02*
X296406000Y-129587000D01*
X296406000Y-129587000D02*
X295644000Y-129587000D01*
X295644000Y-129587000D02*
X295644000Y-129079000D01*
G04 #@! TO.C,C19*
X285146000Y-142294000D02*
X284638000Y-142294000D01*
X284638000Y-142294000D02*
X284638000Y-143056000D01*
X284638000Y-143056000D02*
X285146000Y-143056000D01*
X285654000Y-142294000D02*
X286162000Y-142294000D01*
X286162000Y-142294000D02*
X286162000Y-143056000D01*
X286162000Y-143056000D02*
X285654000Y-143056000D01*
G04 #@! TO.C,R5*
X303426420Y-130539000D02*
X302918420Y-130539000D01*
X302918420Y-130539000D02*
X302918420Y-131301000D01*
X302918420Y-131301000D02*
X303426420Y-131301000D01*
X303934420Y-130539000D02*
X304442420Y-130539000D01*
X304442420Y-130539000D02*
X304442420Y-131301000D01*
X304442420Y-131301000D02*
X303934420Y-131301000D01*
G04 #@! TO.C,C20*
X285654000Y-144131000D02*
X286162000Y-144131000D01*
X286162000Y-144131000D02*
X286162000Y-143369000D01*
X286162000Y-143369000D02*
X285654000Y-143369000D01*
X285146000Y-144131000D02*
X284638000Y-144131000D01*
X284638000Y-144131000D02*
X284638000Y-143369000D01*
X284638000Y-143369000D02*
X285146000Y-143369000D01*
G04 #@! TO.C,C18*
X291696000Y-145469000D02*
X291188000Y-145469000D01*
X291188000Y-145469000D02*
X291188000Y-146231000D01*
X291188000Y-146231000D02*
X291696000Y-146231000D01*
X292204000Y-145469000D02*
X292712000Y-145469000D01*
X292712000Y-145469000D02*
X292712000Y-146231000D01*
X292712000Y-146231000D02*
X292204000Y-146231000D01*
G04 #@! TO.C,C16*
X291696000Y-144344000D02*
X291188000Y-144344000D01*
X291188000Y-144344000D02*
X291188000Y-145106000D01*
X291188000Y-145106000D02*
X291696000Y-145106000D01*
X292204000Y-144344000D02*
X292712000Y-144344000D01*
X292712000Y-144344000D02*
X292712000Y-145106000D01*
X292712000Y-145106000D02*
X292204000Y-145106000D01*
G04 #@! TO.C,C9*
X294554000Y-146281000D02*
X295062000Y-146281000D01*
X295062000Y-146281000D02*
X295062000Y-145519000D01*
X295062000Y-145519000D02*
X294554000Y-145519000D01*
X294046000Y-146281000D02*
X293538000Y-146281000D01*
X293538000Y-146281000D02*
X293538000Y-145519000D01*
X293538000Y-145519000D02*
X294046000Y-145519000D01*
G04 #@! TO.C,C17*
X287356000Y-129971000D02*
X287356000Y-129463000D01*
X287356000Y-129463000D02*
X286594000Y-129463000D01*
X286594000Y-129463000D02*
X286594000Y-129971000D01*
X287356000Y-130479000D02*
X287356000Y-130987000D01*
X287356000Y-130987000D02*
X286594000Y-130987000D01*
X286594000Y-130987000D02*
X286594000Y-130479000D01*
G04 #@! TO.C,C8*
X294554000Y-145106000D02*
X295062000Y-145106000D01*
X295062000Y-145106000D02*
X295062000Y-144344000D01*
X295062000Y-144344000D02*
X294554000Y-144344000D01*
X294046000Y-145106000D02*
X293538000Y-145106000D01*
X293538000Y-145106000D02*
X293538000Y-144344000D01*
X293538000Y-144344000D02*
X294046000Y-144344000D01*
G04 #@! TO.C,C11*
X294156000Y-127146000D02*
X294156000Y-126638000D01*
X294156000Y-126638000D02*
X293394000Y-126638000D01*
X293394000Y-126638000D02*
X293394000Y-127146000D01*
X294156000Y-127654000D02*
X294156000Y-128162000D01*
X294156000Y-128162000D02*
X293394000Y-128162000D01*
X293394000Y-128162000D02*
X293394000Y-127654000D01*
G04 #@! TO.C,C7*
X300081000Y-129726000D02*
X300081000Y-129218000D01*
X300081000Y-129218000D02*
X299319000Y-129218000D01*
X299319000Y-129218000D02*
X299319000Y-129726000D01*
X300081000Y-130234000D02*
X300081000Y-130742000D01*
X300081000Y-130742000D02*
X299319000Y-130742000D01*
X299319000Y-130742000D02*
X299319000Y-130234000D01*
G04 #@! TO.C,C6*
X298856000Y-129726000D02*
X298856000Y-129218000D01*
X298856000Y-129218000D02*
X298094000Y-129218000D01*
X298094000Y-129218000D02*
X298094000Y-129726000D01*
X298856000Y-130234000D02*
X298856000Y-130742000D01*
X298856000Y-130742000D02*
X298094000Y-130742000D01*
X298094000Y-130742000D02*
X298094000Y-130234000D01*
D18*
G04 #@! TO.C,C10*
X292910000Y-126582000D02*
X292910000Y-128868000D01*
X292910000Y-128868000D02*
X291640000Y-128868000D01*
X291640000Y-128868000D02*
X291640000Y-126582000D01*
X291640000Y-126582000D02*
X292910000Y-126582000D01*
G04 #@! TO.C,L2*
X271347500Y-141544500D02*
X271347500Y-143830500D01*
X271347500Y-143830500D02*
X270077500Y-143830500D01*
X270077500Y-143830500D02*
X270077500Y-141544500D01*
X270077500Y-141544500D02*
X271347500Y-141544500D01*
D16*
G04 #@! TO.C,C13*
X272958500Y-140906500D02*
X272450500Y-140906500D01*
X272450500Y-140906500D02*
X272450500Y-141668500D01*
X272450500Y-141668500D02*
X272958500Y-141668500D01*
X273466500Y-140906500D02*
X273974500Y-140906500D01*
X273974500Y-140906500D02*
X273974500Y-141668500D01*
X273974500Y-141668500D02*
X273466500Y-141668500D01*
G04 #@! TO.C,C3*
X274981500Y-143341500D02*
X274981500Y-143849500D01*
X274981500Y-143849500D02*
X275743500Y-143849500D01*
X275743500Y-143849500D02*
X275743500Y-143341500D01*
X274981500Y-142833500D02*
X274981500Y-142325500D01*
X274981500Y-142325500D02*
X275743500Y-142325500D01*
X275743500Y-142325500D02*
X275743500Y-142833500D01*
G04 #@! TO.C,C2*
X278806000Y-142549000D02*
X278298000Y-142549000D01*
X278298000Y-142549000D02*
X278298000Y-143311000D01*
X278298000Y-143311000D02*
X278806000Y-143311000D01*
X279314000Y-142549000D02*
X279822000Y-142549000D01*
X279822000Y-142549000D02*
X279822000Y-143311000D01*
X279822000Y-143311000D02*
X279314000Y-143311000D01*
G04 #@! TO.C,C4*
X304191000Y-139055580D02*
X304191000Y-138547580D01*
X304191000Y-138547580D02*
X303429000Y-138547580D01*
X303429000Y-138547580D02*
X303429000Y-139055580D01*
X304191000Y-139563580D02*
X304191000Y-140071580D01*
X304191000Y-140071580D02*
X303429000Y-140071580D01*
X303429000Y-140071580D02*
X303429000Y-139563580D01*
G04 #@! TO.C,R6*
X302981000Y-139075580D02*
X302981000Y-138567580D01*
X302981000Y-138567580D02*
X302219000Y-138567580D01*
X302219000Y-138567580D02*
X302219000Y-139075580D01*
X302981000Y-139583580D02*
X302981000Y-140091580D01*
X302981000Y-140091580D02*
X302219000Y-140091580D01*
X302219000Y-140091580D02*
X302219000Y-139583580D01*
G04 #@! TO.C,R4*
X305085580Y-129209000D02*
X304577580Y-129209000D01*
X304577580Y-129209000D02*
X304577580Y-129971000D01*
X304577580Y-129971000D02*
X305085580Y-129971000D01*
X305593580Y-129209000D02*
X306101580Y-129209000D01*
X306101580Y-129209000D02*
X306101580Y-129971000D01*
X306101580Y-129971000D02*
X305593580Y-129971000D01*
G04 #@! TO.C,R3*
X303285580Y-128449000D02*
X302777580Y-128449000D01*
X302777580Y-128449000D02*
X302777580Y-129211000D01*
X302777580Y-129211000D02*
X303285580Y-129211000D01*
X303793580Y-128449000D02*
X304301580Y-128449000D01*
X304301580Y-128449000D02*
X304301580Y-129211000D01*
X304301580Y-129211000D02*
X303793580Y-129211000D01*
G04 #@! TO.C,R2*
X303366000Y-135449000D02*
X302858000Y-135449000D01*
X302858000Y-135449000D02*
X302858000Y-136211000D01*
X302858000Y-136211000D02*
X303366000Y-136211000D01*
X303874000Y-135449000D02*
X304382000Y-135449000D01*
X304382000Y-135449000D02*
X304382000Y-136211000D01*
X304382000Y-136211000D02*
X303874000Y-136211000D01*
G04 #@! TO.C,R1*
X305306000Y-136869000D02*
X304798000Y-136869000D01*
X304798000Y-136869000D02*
X304798000Y-137631000D01*
X304798000Y-137631000D02*
X305306000Y-137631000D01*
X305814000Y-136869000D02*
X306322000Y-136869000D01*
X306322000Y-136869000D02*
X306322000Y-137631000D01*
X306322000Y-137631000D02*
X305814000Y-137631000D01*
D14*
G04 #@! TO.C,D1*
X282210000Y-140150000D02*
X282210000Y-141150000D01*
X282210000Y-141150000D02*
X284310000Y-141150000D01*
X282210000Y-140150000D02*
X284310000Y-140150000D01*
D18*
G04 #@! TO.C,L4*
X273313000Y-139255000D02*
X271027000Y-139255000D01*
X271027000Y-139255000D02*
X271027000Y-137985000D01*
X271027000Y-137985000D02*
X273313000Y-137985000D01*
X273313000Y-137985000D02*
X273313000Y-139255000D01*
D17*
G04 #@! TO.C,X1*
X272500000Y-134050000D02*
X272500000Y-134100000D01*
X272500000Y-134050000D02*
X272500000Y-134000000D01*
X270500000Y-134050000D02*
X270500000Y-134100000D01*
X270500000Y-134050000D02*
X270500000Y-134000000D01*
X271500000Y-134850000D02*
X271650000Y-134850000D01*
X271500000Y-134850000D02*
X271350000Y-134850000D01*
X271500000Y-133250000D02*
X271650000Y-133250000D01*
X271500000Y-133250000D02*
X271350000Y-133250000D01*
D16*
G04 #@! TO.C,C28*
X275271000Y-140586000D02*
X275271000Y-140078000D01*
X275271000Y-140078000D02*
X274509000Y-140078000D01*
X274509000Y-140078000D02*
X274509000Y-140586000D01*
X275271000Y-141094000D02*
X275271000Y-141602000D01*
X275271000Y-141602000D02*
X274509000Y-141602000D01*
X274509000Y-141602000D02*
X274509000Y-141094000D01*
G04 #@! TO.C,C26*
X273454000Y-140581000D02*
X273962000Y-140581000D01*
X273962000Y-140581000D02*
X273962000Y-139819000D01*
X273962000Y-139819000D02*
X273454000Y-139819000D01*
X272946000Y-140581000D02*
X272438000Y-140581000D01*
X272438000Y-140581000D02*
X272438000Y-139819000D01*
X272438000Y-139819000D02*
X272946000Y-139819000D01*
G04 #@! TO.C,C24*
X270181000Y-133946000D02*
X270181000Y-133438000D01*
X270181000Y-133438000D02*
X269419000Y-133438000D01*
X269419000Y-133438000D02*
X269419000Y-133946000D01*
X270181000Y-134454000D02*
X270181000Y-134962000D01*
X270181000Y-134962000D02*
X269419000Y-134962000D01*
X269419000Y-134962000D02*
X269419000Y-134454000D01*
G04 #@! TO.C,C25*
X272819000Y-134354000D02*
X272819000Y-134862000D01*
X272819000Y-134862000D02*
X273581000Y-134862000D01*
X273581000Y-134862000D02*
X273581000Y-134354000D01*
X272819000Y-133846000D02*
X272819000Y-133338000D01*
X272819000Y-133338000D02*
X273581000Y-133338000D01*
X273581000Y-133338000D02*
X273581000Y-133846000D01*
G04 #@! TO.C,C27*
X276704000Y-129831000D02*
X277212000Y-129831000D01*
X277212000Y-129831000D02*
X277212000Y-129069000D01*
X277212000Y-129069000D02*
X276704000Y-129069000D01*
X276196000Y-129831000D02*
X275688000Y-129831000D01*
X275688000Y-129831000D02*
X275688000Y-129069000D01*
X275688000Y-129069000D02*
X276196000Y-129069000D01*
G04 #@! TO.C,C29*
X276291000Y-140586000D02*
X276291000Y-140078000D01*
X276291000Y-140078000D02*
X275529000Y-140078000D01*
X275529000Y-140078000D02*
X275529000Y-140586000D01*
X276291000Y-141094000D02*
X276291000Y-141602000D01*
X276291000Y-141602000D02*
X275529000Y-141602000D01*
X275529000Y-141602000D02*
X275529000Y-141094000D01*
D17*
G04 #@! TO.C,A1*
X266645000Y-126673000D02*
X271445000Y-126673000D01*
X271445000Y-126673000D02*
X271445000Y-128673000D01*
X271345000Y-128673000D02*
X266645000Y-128673000D01*
X266645000Y-128673000D02*
X266645000Y-126673000D01*
X271445000Y-128673000D02*
X271345000Y-128673000D01*
D16*
G04 #@! TO.C,L6*
X272654000Y-128081000D02*
X273162000Y-128081000D01*
X273162000Y-128081000D02*
X273162000Y-127319000D01*
X273162000Y-127319000D02*
X272654000Y-127319000D01*
X272146000Y-128081000D02*
X271638000Y-128081000D01*
X271638000Y-128081000D02*
X271638000Y-127319000D01*
X271638000Y-127319000D02*
X272146000Y-127319000D01*
G04 #@! TO.C,L5*
X274381000Y-127846000D02*
X274381000Y-127338000D01*
X274381000Y-127338000D02*
X273619000Y-127338000D01*
X273619000Y-127338000D02*
X273619000Y-127846000D01*
X274381000Y-128354000D02*
X274381000Y-128862000D01*
X274381000Y-128862000D02*
X273619000Y-128862000D01*
X273619000Y-128862000D02*
X273619000Y-128354000D01*
G04 #@! TO.C,C30*
X275854000Y-128081000D02*
X276362000Y-128081000D01*
X276362000Y-128081000D02*
X276362000Y-127319000D01*
X276362000Y-127319000D02*
X275854000Y-127319000D01*
X275346000Y-128081000D02*
X274838000Y-128081000D01*
X274838000Y-128081000D02*
X274838000Y-127319000D01*
X274838000Y-127319000D02*
X275346000Y-127319000D01*
G04 #@! TO.C,L3*
X271926000Y-136889000D02*
X271418000Y-136889000D01*
X271418000Y-136889000D02*
X271418000Y-137651000D01*
X271418000Y-137651000D02*
X271926000Y-137651000D01*
X272434000Y-136889000D02*
X272942000Y-136889000D01*
X272942000Y-136889000D02*
X272942000Y-137651000D01*
X272942000Y-137651000D02*
X272434000Y-137651000D01*
D18*
G04 #@! TO.C,C23*
X273643000Y-136635000D02*
X271357000Y-136635000D01*
X271357000Y-136635000D02*
X271357000Y-135365000D01*
X271357000Y-135365000D02*
X273643000Y-135365000D01*
X273643000Y-135365000D02*
X273643000Y-136635000D01*
G04 #@! TO.C,C22*
X280647000Y-137395000D02*
X282933000Y-137395000D01*
X282933000Y-137395000D02*
X282933000Y-138665000D01*
X282933000Y-138665000D02*
X280647000Y-138665000D01*
X280647000Y-138665000D02*
X280647000Y-137395000D01*
D17*
G04 #@! TO.C,U3*
X274675000Y-130875000D02*
X275275000Y-130875000D01*
X280925000Y-137125000D02*
X280325000Y-137125000D01*
X280925000Y-130875000D02*
X280325000Y-130875000D01*
X274675000Y-137125000D02*
X274675000Y-136525000D01*
X280925000Y-137125000D02*
X280925000Y-136525000D01*
X280925000Y-130875000D02*
X280925000Y-131475000D01*
X274675000Y-130875000D02*
X274675000Y-131475000D01*
G04 #@! TO.C,U7*
X278735000Y-146770000D02*
X281185000Y-146770000D01*
X278010000Y-143470000D02*
X281185000Y-143470000D01*
D14*
G04 #@! TO.C,U1*
X277360000Y-142060000D02*
X279260000Y-142060000D01*
X278760000Y-139740000D02*
X277360000Y-139740000D01*
G04 #@! TO.C,J1*
X306710000Y-137490000D02*
X311910000Y-137490000D01*
X306710000Y-129810000D02*
X306710000Y-137490000D01*
X311910000Y-127210000D02*
X311910000Y-137490000D01*
X306710000Y-129810000D02*
X309310000Y-129810000D01*
X309310000Y-129810000D02*
X309310000Y-127210000D01*
X309310000Y-127210000D02*
X311910000Y-127210000D01*
X306710000Y-128540000D02*
X306710000Y-127210000D01*
X306710000Y-127210000D02*
X308040000Y-127210000D01*
D10*
G04 #@! TO.C,Q1*
X306710000Y-144180000D02*
X306710000Y-143480000D01*
X306580000Y-144255000D02*
X305580000Y-144255000D01*
D17*
G04 #@! TO.C,U5*
X305500000Y-143125000D02*
X302525000Y-143125000D01*
X304675000Y-140875000D02*
X302525000Y-140875000D01*
G04 #@! TO.C,D4*
D10*
X301506190Y-144449047D02*
X301006190Y-144449047D01*
X301006190Y-144330000D01*
X301030000Y-144258571D01*
X301077619Y-144210952D01*
X301125238Y-144187142D01*
X301220476Y-144163333D01*
X301291904Y-144163333D01*
X301387142Y-144187142D01*
X301434761Y-144210952D01*
X301482380Y-144258571D01*
X301506190Y-144330000D01*
X301506190Y-144449047D01*
X301172857Y-143734761D02*
X301506190Y-143734761D01*
X300982380Y-143853809D02*
X301339523Y-143972857D01*
X301339523Y-143663333D01*
G04 #@! TO.C,D3*
X307270952Y-144766190D02*
X307270952Y-144266190D01*
X307390000Y-144266190D01*
X307461428Y-144290000D01*
X307509047Y-144337619D01*
X307532857Y-144385238D01*
X307556666Y-144480476D01*
X307556666Y-144551904D01*
X307532857Y-144647142D01*
X307509047Y-144694761D01*
X307461428Y-144742380D01*
X307390000Y-144766190D01*
X307270952Y-144766190D01*
X307723333Y-144266190D02*
X308032857Y-144266190D01*
X307866190Y-144456666D01*
X307937619Y-144456666D01*
X307985238Y-144480476D01*
X308009047Y-144504285D01*
X308032857Y-144551904D01*
X308032857Y-144670952D01*
X308009047Y-144718571D01*
X307985238Y-144742380D01*
X307937619Y-144766190D01*
X307794761Y-144766190D01*
X307747142Y-144742380D01*
X307723333Y-144718571D01*
G04 #@! TO.C,R15*
D16*
X305784057Y-146188568D02*
X305682457Y-146021654D01*
X305609885Y-146188568D02*
X305609885Y-145838048D01*
X305726000Y-145838048D01*
X305755028Y-145854740D01*
X305769542Y-145871431D01*
X305784057Y-145904814D01*
X305784057Y-145954888D01*
X305769542Y-145988271D01*
X305755028Y-146004962D01*
X305726000Y-146021654D01*
X305609885Y-146021654D01*
X306074342Y-146188568D02*
X305900171Y-146188568D01*
X305987257Y-146188568D02*
X305987257Y-145838048D01*
X305958228Y-145888122D01*
X305929200Y-145921505D01*
X305900171Y-145938197D01*
X306350114Y-145838048D02*
X306204971Y-145838048D01*
X306190457Y-146004962D01*
X306204971Y-145988271D01*
X306234000Y-145971580D01*
X306306571Y-145971580D01*
X306335600Y-145988271D01*
X306350114Y-146004962D01*
X306364628Y-146038345D01*
X306364628Y-146121802D01*
X306350114Y-146155185D01*
X306335600Y-146171877D01*
X306306571Y-146188568D01*
X306234000Y-146188568D01*
X306204971Y-146171877D01*
X306190457Y-146155185D01*
G04 #@! TO.C,R14*
X300764057Y-141418568D02*
X300662457Y-141251654D01*
X300589885Y-141418568D02*
X300589885Y-141068048D01*
X300706000Y-141068048D01*
X300735028Y-141084740D01*
X300749542Y-141101431D01*
X300764057Y-141134814D01*
X300764057Y-141184888D01*
X300749542Y-141218271D01*
X300735028Y-141234962D01*
X300706000Y-141251654D01*
X300589885Y-141251654D01*
X301054342Y-141418568D02*
X300880171Y-141418568D01*
X300967257Y-141418568D02*
X300967257Y-141068048D01*
X300938228Y-141118122D01*
X300909200Y-141151505D01*
X300880171Y-141168197D01*
X301315600Y-141184888D02*
X301315600Y-141418568D01*
X301243028Y-141051357D02*
X301170457Y-141301728D01*
X301359142Y-141301728D01*
G04 #@! TO.C,C40*
X306264057Y-141955185D02*
X306249542Y-141971877D01*
X306206000Y-141988568D01*
X306176971Y-141988568D01*
X306133428Y-141971877D01*
X306104400Y-141938494D01*
X306089885Y-141905111D01*
X306075371Y-141838345D01*
X306075371Y-141788271D01*
X306089885Y-141721505D01*
X306104400Y-141688122D01*
X306133428Y-141654740D01*
X306176971Y-141638048D01*
X306206000Y-141638048D01*
X306249542Y-141654740D01*
X306264057Y-141671431D01*
X306525314Y-141754888D02*
X306525314Y-141988568D01*
X306452742Y-141621357D02*
X306380171Y-141871728D01*
X306568857Y-141871728D01*
X306743028Y-141638048D02*
X306772057Y-141638048D01*
X306801085Y-141654740D01*
X306815600Y-141671431D01*
X306830114Y-141704814D01*
X306844628Y-141771580D01*
X306844628Y-141855037D01*
X306830114Y-141921802D01*
X306815600Y-141955185D01*
X306801085Y-141971877D01*
X306772057Y-141988568D01*
X306743028Y-141988568D01*
X306714000Y-141971877D01*
X306699485Y-141955185D01*
X306684971Y-141921802D01*
X306670457Y-141855037D01*
X306670457Y-141771580D01*
X306684971Y-141704814D01*
X306699485Y-141671431D01*
X306714000Y-141654740D01*
X306743028Y-141638048D01*
G04 #@! TO.C,C37*
X303145605Y-145485942D02*
X303162297Y-145500457D01*
X303178988Y-145544000D01*
X303178988Y-145573028D01*
X303162297Y-145616571D01*
X303128914Y-145645600D01*
X303095531Y-145660114D01*
X303028765Y-145674628D01*
X302978691Y-145674628D01*
X302911925Y-145660114D01*
X302878542Y-145645600D01*
X302845160Y-145616571D01*
X302828468Y-145573028D01*
X302828468Y-145544000D01*
X302845160Y-145500457D01*
X302861851Y-145485942D01*
X302828468Y-145384342D02*
X302828468Y-145195657D01*
X302962000Y-145297257D01*
X302962000Y-145253714D01*
X302978691Y-145224685D01*
X302995382Y-145210171D01*
X303028765Y-145195657D01*
X303112222Y-145195657D01*
X303145605Y-145210171D01*
X303162297Y-145224685D01*
X303178988Y-145253714D01*
X303178988Y-145340800D01*
X303162297Y-145369828D01*
X303145605Y-145384342D01*
X302828468Y-145094057D02*
X302828468Y-144890857D01*
X303178988Y-145021485D01*
G04 #@! TO.C,C41*
X307454057Y-141945185D02*
X307439542Y-141961877D01*
X307396000Y-141978568D01*
X307366971Y-141978568D01*
X307323428Y-141961877D01*
X307294400Y-141928494D01*
X307279885Y-141895111D01*
X307265371Y-141828345D01*
X307265371Y-141778271D01*
X307279885Y-141711505D01*
X307294400Y-141678122D01*
X307323428Y-141644740D01*
X307366971Y-141628048D01*
X307396000Y-141628048D01*
X307439542Y-141644740D01*
X307454057Y-141661431D01*
X307715314Y-141744888D02*
X307715314Y-141978568D01*
X307642742Y-141611357D02*
X307570171Y-141861728D01*
X307758857Y-141861728D01*
X308034628Y-141978568D02*
X307860457Y-141978568D01*
X307947542Y-141978568D02*
X307947542Y-141628048D01*
X307918514Y-141678122D01*
X307889485Y-141711505D01*
X307860457Y-141728197D01*
G04 #@! TO.C,R13*
X304708148Y-132295942D02*
X304541234Y-132397542D01*
X304708148Y-132470114D02*
X304357628Y-132470114D01*
X304357628Y-132354000D01*
X304374320Y-132324971D01*
X304391011Y-132310457D01*
X304424394Y-132295942D01*
X304474468Y-132295942D01*
X304507851Y-132310457D01*
X304524542Y-132324971D01*
X304541234Y-132354000D01*
X304541234Y-132470114D01*
X304708148Y-132005657D02*
X304708148Y-132179828D01*
X304708148Y-132092742D02*
X304357628Y-132092742D01*
X304407702Y-132121771D01*
X304441085Y-132150800D01*
X304457777Y-132179828D01*
X304357628Y-131904057D02*
X304357628Y-131715371D01*
X304491160Y-131816971D01*
X304491160Y-131773428D01*
X304507851Y-131744400D01*
X304524542Y-131729885D01*
X304557925Y-131715371D01*
X304641382Y-131715371D01*
X304674765Y-131729885D01*
X304691457Y-131744400D01*
X304708148Y-131773428D01*
X304708148Y-131860514D01*
X304691457Y-131889542D01*
X304674765Y-131904057D01*
G04 #@! TO.C,X2*
D10*
X275930952Y-139223809D02*
X276330952Y-138957142D01*
X275930952Y-138957142D02*
X276330952Y-139223809D01*
X275969047Y-138823809D02*
X275950000Y-138804761D01*
X275930952Y-138766666D01*
X275930952Y-138671428D01*
X275950000Y-138633333D01*
X275969047Y-138614285D01*
X276007142Y-138595238D01*
X276045238Y-138595238D01*
X276102380Y-138614285D01*
X276330952Y-138842857D01*
X276330952Y-138595238D01*
G04 #@! TO.C,R10*
D16*
X280074057Y-140208568D02*
X279972457Y-140041654D01*
X279899885Y-140208568D02*
X279899885Y-139858048D01*
X280016000Y-139858048D01*
X280045028Y-139874740D01*
X280059542Y-139891431D01*
X280074057Y-139924814D01*
X280074057Y-139974888D01*
X280059542Y-140008271D01*
X280045028Y-140024962D01*
X280016000Y-140041654D01*
X279899885Y-140041654D01*
X280364342Y-140208568D02*
X280190171Y-140208568D01*
X280277257Y-140208568D02*
X280277257Y-139858048D01*
X280248228Y-139908122D01*
X280219200Y-139941505D01*
X280190171Y-139958197D01*
X280553028Y-139858048D02*
X280582057Y-139858048D01*
X280611085Y-139874740D01*
X280625600Y-139891431D01*
X280640114Y-139924814D01*
X280654628Y-139991580D01*
X280654628Y-140075037D01*
X280640114Y-140141802D01*
X280625600Y-140175185D01*
X280611085Y-140191877D01*
X280582057Y-140208568D01*
X280553028Y-140208568D01*
X280524000Y-140191877D01*
X280509485Y-140175185D01*
X280494971Y-140141802D01*
X280480457Y-140075037D01*
X280480457Y-139991580D01*
X280494971Y-139924814D01*
X280509485Y-139891431D01*
X280524000Y-139874740D01*
X280553028Y-139858048D01*
G04 #@! TO.C,R9*
X279718568Y-139180800D02*
X279551654Y-139282400D01*
X279718568Y-139354971D02*
X279368048Y-139354971D01*
X279368048Y-139238857D01*
X279384740Y-139209828D01*
X279401431Y-139195314D01*
X279434814Y-139180800D01*
X279484888Y-139180800D01*
X279518271Y-139195314D01*
X279534962Y-139209828D01*
X279551654Y-139238857D01*
X279551654Y-139354971D01*
X279718568Y-139035657D02*
X279718568Y-138977600D01*
X279701877Y-138948571D01*
X279685185Y-138934057D01*
X279635111Y-138905028D01*
X279568345Y-138890514D01*
X279434814Y-138890514D01*
X279401431Y-138905028D01*
X279384740Y-138919542D01*
X279368048Y-138948571D01*
X279368048Y-139006628D01*
X279384740Y-139035657D01*
X279401431Y-139050171D01*
X279434814Y-139064685D01*
X279518271Y-139064685D01*
X279551654Y-139050171D01*
X279568345Y-139035657D01*
X279585037Y-139006628D01*
X279585037Y-138948571D01*
X279568345Y-138919542D01*
X279551654Y-138905028D01*
X279518271Y-138890514D01*
G04 #@! TO.C,C39*
X276354057Y-143245185D02*
X276339542Y-143261877D01*
X276296000Y-143278568D01*
X276266971Y-143278568D01*
X276223428Y-143261877D01*
X276194400Y-143228494D01*
X276179885Y-143195111D01*
X276165371Y-143128345D01*
X276165371Y-143078271D01*
X276179885Y-143011505D01*
X276194400Y-142978122D01*
X276223428Y-142944740D01*
X276266971Y-142928048D01*
X276296000Y-142928048D01*
X276339542Y-142944740D01*
X276354057Y-142961431D01*
X276455657Y-142928048D02*
X276644342Y-142928048D01*
X276542742Y-143061580D01*
X276586285Y-143061580D01*
X276615314Y-143078271D01*
X276629828Y-143094962D01*
X276644342Y-143128345D01*
X276644342Y-143211802D01*
X276629828Y-143245185D01*
X276615314Y-143261877D01*
X276586285Y-143278568D01*
X276499200Y-143278568D01*
X276470171Y-143261877D01*
X276455657Y-143245185D01*
X276789485Y-143278568D02*
X276847542Y-143278568D01*
X276876571Y-143261877D01*
X276891085Y-143245185D01*
X276920114Y-143195111D01*
X276934628Y-143128345D01*
X276934628Y-142994814D01*
X276920114Y-142961431D01*
X276905600Y-142944740D01*
X276876571Y-142928048D01*
X276818514Y-142928048D01*
X276789485Y-142944740D01*
X276774971Y-142961431D01*
X276760457Y-142994814D01*
X276760457Y-143078271D01*
X276774971Y-143111654D01*
X276789485Y-143128345D01*
X276818514Y-143145037D01*
X276876571Y-143145037D01*
X276905600Y-143128345D01*
X276920114Y-143111654D01*
X276934628Y-143078271D01*
G04 #@! TO.C,C38*
X282884057Y-142185185D02*
X282869542Y-142201877D01*
X282826000Y-142218568D01*
X282796971Y-142218568D01*
X282753428Y-142201877D01*
X282724400Y-142168494D01*
X282709885Y-142135111D01*
X282695371Y-142068345D01*
X282695371Y-142018271D01*
X282709885Y-141951505D01*
X282724400Y-141918122D01*
X282753428Y-141884740D01*
X282796971Y-141868048D01*
X282826000Y-141868048D01*
X282869542Y-141884740D01*
X282884057Y-141901431D01*
X282985657Y-141868048D02*
X283174342Y-141868048D01*
X283072742Y-142001580D01*
X283116285Y-142001580D01*
X283145314Y-142018271D01*
X283159828Y-142034962D01*
X283174342Y-142068345D01*
X283174342Y-142151802D01*
X283159828Y-142185185D01*
X283145314Y-142201877D01*
X283116285Y-142218568D01*
X283029200Y-142218568D01*
X283000171Y-142201877D01*
X282985657Y-142185185D01*
X283348514Y-142018271D02*
X283319485Y-142001580D01*
X283304971Y-141984888D01*
X283290457Y-141951505D01*
X283290457Y-141934814D01*
X283304971Y-141901431D01*
X283319485Y-141884740D01*
X283348514Y-141868048D01*
X283406571Y-141868048D01*
X283435600Y-141884740D01*
X283450114Y-141901431D01*
X283464628Y-141934814D01*
X283464628Y-141951505D01*
X283450114Y-141984888D01*
X283435600Y-142001580D01*
X283406571Y-142018271D01*
X283348514Y-142018271D01*
X283319485Y-142034962D01*
X283304971Y-142051654D01*
X283290457Y-142085037D01*
X283290457Y-142151802D01*
X283304971Y-142185185D01*
X283319485Y-142201877D01*
X283348514Y-142218568D01*
X283406571Y-142218568D01*
X283435600Y-142201877D01*
X283450114Y-142185185D01*
X283464628Y-142151802D01*
X283464628Y-142085037D01*
X283450114Y-142051654D01*
X283435600Y-142034962D01*
X283406571Y-142018271D01*
G04 #@! TO.C,R8*
X302758988Y-133410800D02*
X302592074Y-133512400D01*
X302758988Y-133584971D02*
X302408468Y-133584971D01*
X302408468Y-133468857D01*
X302425160Y-133439828D01*
X302441851Y-133425314D01*
X302475234Y-133410800D01*
X302525308Y-133410800D01*
X302558691Y-133425314D01*
X302575382Y-133439828D01*
X302592074Y-133468857D01*
X302592074Y-133584971D01*
X302558691Y-133236628D02*
X302542000Y-133265657D01*
X302525308Y-133280171D01*
X302491925Y-133294685D01*
X302475234Y-133294685D01*
X302441851Y-133280171D01*
X302425160Y-133265657D01*
X302408468Y-133236628D01*
X302408468Y-133178571D01*
X302425160Y-133149542D01*
X302441851Y-133135028D01*
X302475234Y-133120514D01*
X302491925Y-133120514D01*
X302525308Y-133135028D01*
X302542000Y-133149542D01*
X302558691Y-133178571D01*
X302558691Y-133236628D01*
X302575382Y-133265657D01*
X302592074Y-133280171D01*
X302625457Y-133294685D01*
X302692222Y-133294685D01*
X302725605Y-133280171D01*
X302742297Y-133265657D01*
X302758988Y-133236628D01*
X302758988Y-133178571D01*
X302742297Y-133149542D01*
X302725605Y-133135028D01*
X302692222Y-133120514D01*
X302625457Y-133120514D01*
X302592074Y-133135028D01*
X302575382Y-133149542D01*
X302558691Y-133178571D01*
G04 #@! TO.C,R7*
X304668148Y-134690800D02*
X304501234Y-134792400D01*
X304668148Y-134864971D02*
X304317628Y-134864971D01*
X304317628Y-134748857D01*
X304334320Y-134719828D01*
X304351011Y-134705314D01*
X304384394Y-134690800D01*
X304434468Y-134690800D01*
X304467851Y-134705314D01*
X304484542Y-134719828D01*
X304501234Y-134748857D01*
X304501234Y-134864971D01*
X304317628Y-134589200D02*
X304317628Y-134386000D01*
X304668148Y-134516628D01*
G04 #@! TO.C,IC1*
D17*
X297623809Y-142502380D02*
X297623809Y-141502380D01*
X298671428Y-142407142D02*
X298623809Y-142454761D01*
X298480952Y-142502380D01*
X298385714Y-142502380D01*
X298242857Y-142454761D01*
X298147619Y-142359523D01*
X298100000Y-142264285D01*
X298052380Y-142073809D01*
X298052380Y-141930952D01*
X298100000Y-141740476D01*
X298147619Y-141645238D01*
X298242857Y-141550000D01*
X298385714Y-141502380D01*
X298480952Y-141502380D01*
X298623809Y-141550000D01*
X298671428Y-141597619D01*
X299623809Y-142502380D02*
X299052380Y-142502380D01*
X299338095Y-142502380D02*
X299338095Y-141502380D01*
X299242857Y-141645238D01*
X299147619Y-141740476D01*
X299052380Y-141788095D01*
G04 #@! TO.C,L1*
D20*
X276919809Y-145306200D02*
X276919809Y-145523914D01*
X276411809Y-145523914D01*
X276919809Y-144914314D02*
X276919809Y-145175571D01*
X276919809Y-145044942D02*
X276411809Y-145044942D01*
X276484380Y-145088485D01*
X276532761Y-145132028D01*
X276556952Y-145175571D01*
G04 #@! TO.C,C1*
D16*
X283049200Y-143905185D02*
X283034685Y-143921877D01*
X282991142Y-143938568D01*
X282962114Y-143938568D01*
X282918571Y-143921877D01*
X282889542Y-143888494D01*
X282875028Y-143855111D01*
X282860514Y-143788345D01*
X282860514Y-143738271D01*
X282875028Y-143671505D01*
X282889542Y-143638122D01*
X282918571Y-143604740D01*
X282962114Y-143588048D01*
X282991142Y-143588048D01*
X283034685Y-143604740D01*
X283049200Y-143621431D01*
X283339485Y-143938568D02*
X283165314Y-143938568D01*
X283252400Y-143938568D02*
X283252400Y-143588048D01*
X283223371Y-143638122D01*
X283194342Y-143671505D01*
X283165314Y-143688197D01*
G04 #@! TO.C,C21*
X273874057Y-138745185D02*
X273859542Y-138761877D01*
X273816000Y-138778568D01*
X273786971Y-138778568D01*
X273743428Y-138761877D01*
X273714400Y-138728494D01*
X273699885Y-138695111D01*
X273685371Y-138628345D01*
X273685371Y-138578271D01*
X273699885Y-138511505D01*
X273714400Y-138478122D01*
X273743428Y-138444740D01*
X273786971Y-138428048D01*
X273816000Y-138428048D01*
X273859542Y-138444740D01*
X273874057Y-138461431D01*
X273990171Y-138461431D02*
X274004685Y-138444740D01*
X274033714Y-138428048D01*
X274106285Y-138428048D01*
X274135314Y-138444740D01*
X274149828Y-138461431D01*
X274164342Y-138494814D01*
X274164342Y-138528197D01*
X274149828Y-138578271D01*
X273975657Y-138778568D01*
X274164342Y-138778568D01*
X274454628Y-138778568D02*
X274280457Y-138778568D01*
X274367542Y-138778568D02*
X274367542Y-138428048D01*
X274338514Y-138478122D01*
X274309485Y-138511505D01*
X274280457Y-138528197D01*
G04 #@! TO.C,U4*
D21*
X282566190Y-129070952D02*
X282970952Y-129070952D01*
X283018571Y-129047142D01*
X283042380Y-129023333D01*
X283066190Y-128975714D01*
X283066190Y-128880476D01*
X283042380Y-128832857D01*
X283018571Y-128809047D01*
X282970952Y-128785238D01*
X282566190Y-128785238D01*
X282732857Y-128332857D02*
X283066190Y-128332857D01*
X282542380Y-128451904D02*
X282899523Y-128570952D01*
X282899523Y-128261428D01*
G04 #@! TO.C,R12*
D16*
X283958568Y-132435942D02*
X283791654Y-132537542D01*
X283958568Y-132610114D02*
X283608048Y-132610114D01*
X283608048Y-132494000D01*
X283624740Y-132464971D01*
X283641431Y-132450457D01*
X283674814Y-132435942D01*
X283724888Y-132435942D01*
X283758271Y-132450457D01*
X283774962Y-132464971D01*
X283791654Y-132494000D01*
X283791654Y-132610114D01*
X283958568Y-132145657D02*
X283958568Y-132319828D01*
X283958568Y-132232742D02*
X283608048Y-132232742D01*
X283658122Y-132261771D01*
X283691505Y-132290800D01*
X283708197Y-132319828D01*
X283641431Y-132029542D02*
X283624740Y-132015028D01*
X283608048Y-131986000D01*
X283608048Y-131913428D01*
X283624740Y-131884400D01*
X283641431Y-131869885D01*
X283674814Y-131855371D01*
X283708197Y-131855371D01*
X283758271Y-131869885D01*
X283958568Y-132044057D01*
X283958568Y-131855371D01*
G04 #@! TO.C,R11*
X284478568Y-131495942D02*
X284311654Y-131597542D01*
X284478568Y-131670114D02*
X284128048Y-131670114D01*
X284128048Y-131554000D01*
X284144740Y-131524971D01*
X284161431Y-131510457D01*
X284194814Y-131495942D01*
X284244888Y-131495942D01*
X284278271Y-131510457D01*
X284294962Y-131524971D01*
X284311654Y-131554000D01*
X284311654Y-131670114D01*
X284478568Y-131205657D02*
X284478568Y-131379828D01*
X284478568Y-131292742D02*
X284128048Y-131292742D01*
X284178122Y-131321771D01*
X284211505Y-131350800D01*
X284228197Y-131379828D01*
X284478568Y-130915371D02*
X284478568Y-131089542D01*
X284478568Y-131002457D02*
X284128048Y-131002457D01*
X284178122Y-131031485D01*
X284211505Y-131060514D01*
X284228197Y-131089542D01*
G04 #@! TO.C,C36*
X285894057Y-126805185D02*
X285879542Y-126821877D01*
X285836000Y-126838568D01*
X285806971Y-126838568D01*
X285763428Y-126821877D01*
X285734400Y-126788494D01*
X285719885Y-126755111D01*
X285705371Y-126688345D01*
X285705371Y-126638271D01*
X285719885Y-126571505D01*
X285734400Y-126538122D01*
X285763428Y-126504740D01*
X285806971Y-126488048D01*
X285836000Y-126488048D01*
X285879542Y-126504740D01*
X285894057Y-126521431D01*
X285995657Y-126488048D02*
X286184342Y-126488048D01*
X286082742Y-126621580D01*
X286126285Y-126621580D01*
X286155314Y-126638271D01*
X286169828Y-126654962D01*
X286184342Y-126688345D01*
X286184342Y-126771802D01*
X286169828Y-126805185D01*
X286155314Y-126821877D01*
X286126285Y-126838568D01*
X286039200Y-126838568D01*
X286010171Y-126821877D01*
X285995657Y-126805185D01*
X286445600Y-126488048D02*
X286387542Y-126488048D01*
X286358514Y-126504740D01*
X286344000Y-126521431D01*
X286314971Y-126571505D01*
X286300457Y-126638271D01*
X286300457Y-126771802D01*
X286314971Y-126805185D01*
X286329485Y-126821877D01*
X286358514Y-126838568D01*
X286416571Y-126838568D01*
X286445600Y-126821877D01*
X286460114Y-126805185D01*
X286474628Y-126771802D01*
X286474628Y-126688345D01*
X286460114Y-126654962D01*
X286445600Y-126638271D01*
X286416571Y-126621580D01*
X286358514Y-126621580D01*
X286329485Y-126638271D01*
X286314971Y-126654962D01*
X286300457Y-126688345D01*
G04 #@! TO.C,C35*
X285564057Y-130375185D02*
X285549542Y-130391877D01*
X285506000Y-130408568D01*
X285476971Y-130408568D01*
X285433428Y-130391877D01*
X285404400Y-130358494D01*
X285389885Y-130325111D01*
X285375371Y-130258345D01*
X285375371Y-130208271D01*
X285389885Y-130141505D01*
X285404400Y-130108122D01*
X285433428Y-130074740D01*
X285476971Y-130058048D01*
X285506000Y-130058048D01*
X285549542Y-130074740D01*
X285564057Y-130091431D01*
X285665657Y-130058048D02*
X285854342Y-130058048D01*
X285752742Y-130191580D01*
X285796285Y-130191580D01*
X285825314Y-130208271D01*
X285839828Y-130224962D01*
X285854342Y-130258345D01*
X285854342Y-130341802D01*
X285839828Y-130375185D01*
X285825314Y-130391877D01*
X285796285Y-130408568D01*
X285709200Y-130408568D01*
X285680171Y-130391877D01*
X285665657Y-130375185D01*
X286130114Y-130058048D02*
X285984971Y-130058048D01*
X285970457Y-130224962D01*
X285984971Y-130208271D01*
X286014000Y-130191580D01*
X286086571Y-130191580D01*
X286115600Y-130208271D01*
X286130114Y-130224962D01*
X286144628Y-130258345D01*
X286144628Y-130341802D01*
X286130114Y-130375185D01*
X286115600Y-130391877D01*
X286086571Y-130408568D01*
X286014000Y-130408568D01*
X285984971Y-130391877D01*
X285970457Y-130375185D01*
G04 #@! TO.C,F1*
D10*
X278683333Y-127754285D02*
X278516666Y-127754285D01*
X278516666Y-128016190D02*
X278516666Y-127516190D01*
X278754761Y-127516190D01*
X279207142Y-128016190D02*
X278921428Y-128016190D01*
X279064285Y-128016190D02*
X279064285Y-127516190D01*
X279016666Y-127587619D01*
X278969047Y-127635238D01*
X278921428Y-127659047D01*
G04 #@! TO.C,C34*
D16*
X275405185Y-128815942D02*
X275421877Y-128830457D01*
X275438568Y-128874000D01*
X275438568Y-128903028D01*
X275421877Y-128946571D01*
X275388494Y-128975600D01*
X275355111Y-128990114D01*
X275288345Y-129004628D01*
X275238271Y-129004628D01*
X275171505Y-128990114D01*
X275138122Y-128975600D01*
X275104740Y-128946571D01*
X275088048Y-128903028D01*
X275088048Y-128874000D01*
X275104740Y-128830457D01*
X275121431Y-128815942D01*
X275088048Y-128714342D02*
X275088048Y-128525657D01*
X275221580Y-128627257D01*
X275221580Y-128583714D01*
X275238271Y-128554685D01*
X275254962Y-128540171D01*
X275288345Y-128525657D01*
X275371802Y-128525657D01*
X275405185Y-128540171D01*
X275421877Y-128554685D01*
X275438568Y-128583714D01*
X275438568Y-128670800D01*
X275421877Y-128699828D01*
X275405185Y-128714342D01*
X275204888Y-128264400D02*
X275438568Y-128264400D01*
X275071357Y-128336971D02*
X275321728Y-128409542D01*
X275321728Y-128220857D01*
G04 #@! TO.C,C33*
X273714057Y-130275185D02*
X273699542Y-130291877D01*
X273656000Y-130308568D01*
X273626971Y-130308568D01*
X273583428Y-130291877D01*
X273554400Y-130258494D01*
X273539885Y-130225111D01*
X273525371Y-130158345D01*
X273525371Y-130108271D01*
X273539885Y-130041505D01*
X273554400Y-130008122D01*
X273583428Y-129974740D01*
X273626971Y-129958048D01*
X273656000Y-129958048D01*
X273699542Y-129974740D01*
X273714057Y-129991431D01*
X273815657Y-129958048D02*
X274004342Y-129958048D01*
X273902742Y-130091580D01*
X273946285Y-130091580D01*
X273975314Y-130108271D01*
X273989828Y-130124962D01*
X274004342Y-130158345D01*
X274004342Y-130241802D01*
X273989828Y-130275185D01*
X273975314Y-130291877D01*
X273946285Y-130308568D01*
X273859200Y-130308568D01*
X273830171Y-130291877D01*
X273815657Y-130275185D01*
X274105942Y-129958048D02*
X274294628Y-129958048D01*
X274193028Y-130091580D01*
X274236571Y-130091580D01*
X274265600Y-130108271D01*
X274280114Y-130124962D01*
X274294628Y-130158345D01*
X274294628Y-130241802D01*
X274280114Y-130275185D01*
X274265600Y-130291877D01*
X274236571Y-130308568D01*
X274149485Y-130308568D01*
X274120457Y-130291877D01*
X274105942Y-130275185D01*
G04 #@! TO.C,C15*
D22*
X288842857Y-126392857D02*
X288823809Y-126411904D01*
X288766666Y-126430952D01*
X288728571Y-126430952D01*
X288671428Y-126411904D01*
X288633333Y-126373809D01*
X288614285Y-126335714D01*
X288595238Y-126259523D01*
X288595238Y-126202380D01*
X288614285Y-126126190D01*
X288633333Y-126088095D01*
X288671428Y-126050000D01*
X288728571Y-126030952D01*
X288766666Y-126030952D01*
X288823809Y-126050000D01*
X288842857Y-126069047D01*
X289223809Y-126430952D02*
X288995238Y-126430952D01*
X289109523Y-126430952D02*
X289109523Y-126030952D01*
X289071428Y-126088095D01*
X289033333Y-126126190D01*
X288995238Y-126145238D01*
X289585714Y-126030952D02*
X289395238Y-126030952D01*
X289376190Y-126221428D01*
X289395238Y-126202380D01*
X289433333Y-126183333D01*
X289528571Y-126183333D01*
X289566666Y-126202380D01*
X289585714Y-126221428D01*
X289604761Y-126259523D01*
X289604761Y-126354761D01*
X289585714Y-126392857D01*
X289566666Y-126411904D01*
X289528571Y-126430952D01*
X289433333Y-126430952D01*
X289395238Y-126411904D01*
X289376190Y-126392857D01*
G04 #@! TO.C,C5*
D16*
X297024200Y-127850185D02*
X297009685Y-127866877D01*
X296966142Y-127883568D01*
X296937114Y-127883568D01*
X296893571Y-127866877D01*
X296864542Y-127833494D01*
X296850028Y-127800111D01*
X296835514Y-127733345D01*
X296835514Y-127683271D01*
X296850028Y-127616505D01*
X296864542Y-127583122D01*
X296893571Y-127549740D01*
X296937114Y-127533048D01*
X296966142Y-127533048D01*
X297009685Y-127549740D01*
X297024200Y-127566431D01*
X297299971Y-127533048D02*
X297154828Y-127533048D01*
X297140314Y-127699962D01*
X297154828Y-127683271D01*
X297183857Y-127666580D01*
X297256428Y-127666580D01*
X297285457Y-127683271D01*
X297299971Y-127699962D01*
X297314485Y-127733345D01*
X297314485Y-127816802D01*
X297299971Y-127850185D01*
X297285457Y-127866877D01*
X297256428Y-127883568D01*
X297183857Y-127883568D01*
X297154828Y-127866877D01*
X297140314Y-127850185D01*
G04 #@! TO.C,C14*
X288354057Y-144375185D02*
X288339542Y-144391877D01*
X288296000Y-144408568D01*
X288266971Y-144408568D01*
X288223428Y-144391877D01*
X288194400Y-144358494D01*
X288179885Y-144325111D01*
X288165371Y-144258345D01*
X288165371Y-144208271D01*
X288179885Y-144141505D01*
X288194400Y-144108122D01*
X288223428Y-144074740D01*
X288266971Y-144058048D01*
X288296000Y-144058048D01*
X288339542Y-144074740D01*
X288354057Y-144091431D01*
X288644342Y-144408568D02*
X288470171Y-144408568D01*
X288557257Y-144408568D02*
X288557257Y-144058048D01*
X288528228Y-144108122D01*
X288499200Y-144141505D01*
X288470171Y-144158197D01*
X288905600Y-144174888D02*
X288905600Y-144408568D01*
X288833028Y-144041357D02*
X288760457Y-144291728D01*
X288949142Y-144291728D01*
G04 #@! TO.C,D2*
D10*
X283786190Y-139769047D02*
X283286190Y-139769047D01*
X283286190Y-139650000D01*
X283310000Y-139578571D01*
X283357619Y-139530952D01*
X283405238Y-139507142D01*
X283500476Y-139483333D01*
X283571904Y-139483333D01*
X283667142Y-139507142D01*
X283714761Y-139530952D01*
X283762380Y-139578571D01*
X283786190Y-139650000D01*
X283786190Y-139769047D01*
X283333809Y-139292857D02*
X283310000Y-139269047D01*
X283286190Y-139221428D01*
X283286190Y-139102380D01*
X283310000Y-139054761D01*
X283333809Y-139030952D01*
X283381428Y-139007142D01*
X283429047Y-139007142D01*
X283500476Y-139030952D01*
X283786190Y-139316666D01*
X283786190Y-139007142D01*
G04 #@! TO.C,C32*
D16*
X288329057Y-146825185D02*
X288314542Y-146841877D01*
X288271000Y-146858568D01*
X288241971Y-146858568D01*
X288198428Y-146841877D01*
X288169400Y-146808494D01*
X288154885Y-146775111D01*
X288140371Y-146708345D01*
X288140371Y-146658271D01*
X288154885Y-146591505D01*
X288169400Y-146558122D01*
X288198428Y-146524740D01*
X288241971Y-146508048D01*
X288271000Y-146508048D01*
X288314542Y-146524740D01*
X288329057Y-146541431D01*
X288430657Y-146508048D02*
X288619342Y-146508048D01*
X288517742Y-146641580D01*
X288561285Y-146641580D01*
X288590314Y-146658271D01*
X288604828Y-146674962D01*
X288619342Y-146708345D01*
X288619342Y-146791802D01*
X288604828Y-146825185D01*
X288590314Y-146841877D01*
X288561285Y-146858568D01*
X288474200Y-146858568D01*
X288445171Y-146841877D01*
X288430657Y-146825185D01*
X288735457Y-146541431D02*
X288749971Y-146524740D01*
X288779000Y-146508048D01*
X288851571Y-146508048D01*
X288880600Y-146524740D01*
X288895114Y-146541431D01*
X288909628Y-146574814D01*
X288909628Y-146608197D01*
X288895114Y-146658271D01*
X288720942Y-146858568D01*
X288909628Y-146858568D01*
G04 #@! TO.C,U2*
D10*
X272909047Y-142826190D02*
X272909047Y-143230952D01*
X272932857Y-143278571D01*
X272956666Y-143302380D01*
X273004285Y-143326190D01*
X273099523Y-143326190D01*
X273147142Y-143302380D01*
X273170952Y-143278571D01*
X273194761Y-143230952D01*
X273194761Y-142826190D01*
X273409047Y-142873809D02*
X273432857Y-142850000D01*
X273480476Y-142826190D01*
X273599523Y-142826190D01*
X273647142Y-142850000D01*
X273670952Y-142873809D01*
X273694761Y-142921428D01*
X273694761Y-142969047D01*
X273670952Y-143040476D01*
X273385238Y-143326190D01*
X273694761Y-143326190D01*
G04 #@! TO.C,C12*
D16*
X290604057Y-128625185D02*
X290589542Y-128641877D01*
X290546000Y-128658568D01*
X290516971Y-128658568D01*
X290473428Y-128641877D01*
X290444400Y-128608494D01*
X290429885Y-128575111D01*
X290415371Y-128508345D01*
X290415371Y-128458271D01*
X290429885Y-128391505D01*
X290444400Y-128358122D01*
X290473428Y-128324740D01*
X290516971Y-128308048D01*
X290546000Y-128308048D01*
X290589542Y-128324740D01*
X290604057Y-128341431D01*
X290894342Y-128658568D02*
X290720171Y-128658568D01*
X290807257Y-128658568D02*
X290807257Y-128308048D01*
X290778228Y-128358122D01*
X290749200Y-128391505D01*
X290720171Y-128408197D01*
X291010457Y-128341431D02*
X291024971Y-128324740D01*
X291054000Y-128308048D01*
X291126571Y-128308048D01*
X291155600Y-128324740D01*
X291170114Y-128341431D01*
X291184628Y-128374814D01*
X291184628Y-128408197D01*
X291170114Y-128458271D01*
X290995942Y-128658568D01*
X291184628Y-128658568D01*
G04 #@! TO.C,C31*
X295829057Y-127850185D02*
X295814542Y-127866877D01*
X295771000Y-127883568D01*
X295741971Y-127883568D01*
X295698428Y-127866877D01*
X295669400Y-127833494D01*
X295654885Y-127800111D01*
X295640371Y-127733345D01*
X295640371Y-127683271D01*
X295654885Y-127616505D01*
X295669400Y-127583122D01*
X295698428Y-127549740D01*
X295741971Y-127533048D01*
X295771000Y-127533048D01*
X295814542Y-127549740D01*
X295829057Y-127566431D01*
X295930657Y-127533048D02*
X296119342Y-127533048D01*
X296017742Y-127666580D01*
X296061285Y-127666580D01*
X296090314Y-127683271D01*
X296104828Y-127699962D01*
X296119342Y-127733345D01*
X296119342Y-127816802D01*
X296104828Y-127850185D01*
X296090314Y-127866877D01*
X296061285Y-127883568D01*
X295974200Y-127883568D01*
X295945171Y-127866877D01*
X295930657Y-127850185D01*
X296409628Y-127883568D02*
X296235457Y-127883568D01*
X296322542Y-127883568D02*
X296322542Y-127533048D01*
X296293514Y-127583122D01*
X296264485Y-127616505D01*
X296235457Y-127633197D01*
G04 #@! TO.C,C19*
X285204057Y-142100185D02*
X285189542Y-142116877D01*
X285146000Y-142133568D01*
X285116971Y-142133568D01*
X285073428Y-142116877D01*
X285044400Y-142083494D01*
X285029885Y-142050111D01*
X285015371Y-141983345D01*
X285015371Y-141933271D01*
X285029885Y-141866505D01*
X285044400Y-141833122D01*
X285073428Y-141799740D01*
X285116971Y-141783048D01*
X285146000Y-141783048D01*
X285189542Y-141799740D01*
X285204057Y-141816431D01*
X285494342Y-142133568D02*
X285320171Y-142133568D01*
X285407257Y-142133568D02*
X285407257Y-141783048D01*
X285378228Y-141833122D01*
X285349200Y-141866505D01*
X285320171Y-141883197D01*
X285639485Y-142133568D02*
X285697542Y-142133568D01*
X285726571Y-142116877D01*
X285741085Y-142100185D01*
X285770114Y-142050111D01*
X285784628Y-141983345D01*
X285784628Y-141849814D01*
X285770114Y-141816431D01*
X285755600Y-141799740D01*
X285726571Y-141783048D01*
X285668514Y-141783048D01*
X285639485Y-141799740D01*
X285624971Y-141816431D01*
X285610457Y-141849814D01*
X285610457Y-141933271D01*
X285624971Y-141966654D01*
X285639485Y-141983345D01*
X285668514Y-142000037D01*
X285726571Y-142000037D01*
X285755600Y-141983345D01*
X285770114Y-141966654D01*
X285784628Y-141933271D01*
G04 #@! TO.C,R5*
X302813988Y-130945800D02*
X302647074Y-131047400D01*
X302813988Y-131119971D02*
X302463468Y-131119971D01*
X302463468Y-131003857D01*
X302480160Y-130974828D01*
X302496851Y-130960314D01*
X302530234Y-130945800D01*
X302580308Y-130945800D01*
X302613691Y-130960314D01*
X302630382Y-130974828D01*
X302647074Y-131003857D01*
X302647074Y-131119971D01*
X302463468Y-130670028D02*
X302463468Y-130815171D01*
X302630382Y-130829685D01*
X302613691Y-130815171D01*
X302597000Y-130786142D01*
X302597000Y-130713571D01*
X302613691Y-130684542D01*
X302630382Y-130670028D01*
X302663765Y-130655514D01*
X302747222Y-130655514D01*
X302780605Y-130670028D01*
X302797297Y-130684542D01*
X302813988Y-130713571D01*
X302813988Y-130786142D01*
X302797297Y-130815171D01*
X302780605Y-130829685D01*
G04 #@! TO.C,C20*
X285204057Y-144575185D02*
X285189542Y-144591877D01*
X285146000Y-144608568D01*
X285116971Y-144608568D01*
X285073428Y-144591877D01*
X285044400Y-144558494D01*
X285029885Y-144525111D01*
X285015371Y-144458345D01*
X285015371Y-144408271D01*
X285029885Y-144341505D01*
X285044400Y-144308122D01*
X285073428Y-144274740D01*
X285116971Y-144258048D01*
X285146000Y-144258048D01*
X285189542Y-144274740D01*
X285204057Y-144291431D01*
X285320171Y-144291431D02*
X285334685Y-144274740D01*
X285363714Y-144258048D01*
X285436285Y-144258048D01*
X285465314Y-144274740D01*
X285479828Y-144291431D01*
X285494342Y-144324814D01*
X285494342Y-144358197D01*
X285479828Y-144408271D01*
X285305657Y-144608568D01*
X285494342Y-144608568D01*
X285683028Y-144258048D02*
X285712057Y-144258048D01*
X285741085Y-144274740D01*
X285755600Y-144291431D01*
X285770114Y-144324814D01*
X285784628Y-144391580D01*
X285784628Y-144475037D01*
X285770114Y-144541802D01*
X285755600Y-144575185D01*
X285741085Y-144591877D01*
X285712057Y-144608568D01*
X285683028Y-144608568D01*
X285654000Y-144591877D01*
X285639485Y-144575185D01*
X285624971Y-144541802D01*
X285610457Y-144475037D01*
X285610457Y-144391580D01*
X285624971Y-144324814D01*
X285639485Y-144291431D01*
X285654000Y-144274740D01*
X285683028Y-144258048D01*
G04 #@! TO.C,C18*
X290975185Y-146045942D02*
X290991877Y-146060457D01*
X291008568Y-146104000D01*
X291008568Y-146133028D01*
X290991877Y-146176571D01*
X290958494Y-146205600D01*
X290925111Y-146220114D01*
X290858345Y-146234628D01*
X290808271Y-146234628D01*
X290741505Y-146220114D01*
X290708122Y-146205600D01*
X290674740Y-146176571D01*
X290658048Y-146133028D01*
X290658048Y-146104000D01*
X290674740Y-146060457D01*
X290691431Y-146045942D01*
X291008568Y-145755657D02*
X291008568Y-145929828D01*
X291008568Y-145842742D02*
X290658048Y-145842742D01*
X290708122Y-145871771D01*
X290741505Y-145900800D01*
X290758197Y-145929828D01*
X290808271Y-145581485D02*
X290791580Y-145610514D01*
X290774888Y-145625028D01*
X290741505Y-145639542D01*
X290724814Y-145639542D01*
X290691431Y-145625028D01*
X290674740Y-145610514D01*
X290658048Y-145581485D01*
X290658048Y-145523428D01*
X290674740Y-145494400D01*
X290691431Y-145479885D01*
X290724814Y-145465371D01*
X290741505Y-145465371D01*
X290774888Y-145479885D01*
X290791580Y-145494400D01*
X290808271Y-145523428D01*
X290808271Y-145581485D01*
X290824962Y-145610514D01*
X290841654Y-145625028D01*
X290875037Y-145639542D01*
X290941802Y-145639542D01*
X290975185Y-145625028D01*
X290991877Y-145610514D01*
X291008568Y-145581485D01*
X291008568Y-145523428D01*
X290991877Y-145494400D01*
X290975185Y-145479885D01*
X290941802Y-145465371D01*
X290875037Y-145465371D01*
X290841654Y-145479885D01*
X290824962Y-145494400D01*
X290808271Y-145523428D01*
G04 #@! TO.C,C16*
X290975185Y-144870942D02*
X290991877Y-144885457D01*
X291008568Y-144929000D01*
X291008568Y-144958028D01*
X290991877Y-145001571D01*
X290958494Y-145030600D01*
X290925111Y-145045114D01*
X290858345Y-145059628D01*
X290808271Y-145059628D01*
X290741505Y-145045114D01*
X290708122Y-145030600D01*
X290674740Y-145001571D01*
X290658048Y-144958028D01*
X290658048Y-144929000D01*
X290674740Y-144885457D01*
X290691431Y-144870942D01*
X291008568Y-144580657D02*
X291008568Y-144754828D01*
X291008568Y-144667742D02*
X290658048Y-144667742D01*
X290708122Y-144696771D01*
X290741505Y-144725800D01*
X290758197Y-144754828D01*
X290658048Y-144319400D02*
X290658048Y-144377457D01*
X290674740Y-144406485D01*
X290691431Y-144421000D01*
X290741505Y-144450028D01*
X290808271Y-144464542D01*
X290941802Y-144464542D01*
X290975185Y-144450028D01*
X290991877Y-144435514D01*
X291008568Y-144406485D01*
X291008568Y-144348428D01*
X290991877Y-144319400D01*
X290975185Y-144304885D01*
X290941802Y-144290371D01*
X290858345Y-144290371D01*
X290824962Y-144304885D01*
X290808271Y-144319400D01*
X290791580Y-144348428D01*
X290791580Y-144406485D01*
X290808271Y-144435514D01*
X290824962Y-144450028D01*
X290858345Y-144464542D01*
G04 #@! TO.C,C9*
X295525185Y-145900800D02*
X295541877Y-145915314D01*
X295558568Y-145958857D01*
X295558568Y-145987885D01*
X295541877Y-146031428D01*
X295508494Y-146060457D01*
X295475111Y-146074971D01*
X295408345Y-146089485D01*
X295358271Y-146089485D01*
X295291505Y-146074971D01*
X295258122Y-146060457D01*
X295224740Y-146031428D01*
X295208048Y-145987885D01*
X295208048Y-145958857D01*
X295224740Y-145915314D01*
X295241431Y-145900800D01*
X295558568Y-145755657D02*
X295558568Y-145697600D01*
X295541877Y-145668571D01*
X295525185Y-145654057D01*
X295475111Y-145625028D01*
X295408345Y-145610514D01*
X295274814Y-145610514D01*
X295241431Y-145625028D01*
X295224740Y-145639542D01*
X295208048Y-145668571D01*
X295208048Y-145726628D01*
X295224740Y-145755657D01*
X295241431Y-145770171D01*
X295274814Y-145784685D01*
X295358271Y-145784685D01*
X295391654Y-145770171D01*
X295408345Y-145755657D01*
X295425037Y-145726628D01*
X295425037Y-145668571D01*
X295408345Y-145639542D01*
X295391654Y-145625028D01*
X295358271Y-145610514D01*
G04 #@! TO.C,C17*
X286784057Y-129325185D02*
X286769542Y-129341877D01*
X286726000Y-129358568D01*
X286696971Y-129358568D01*
X286653428Y-129341877D01*
X286624400Y-129308494D01*
X286609885Y-129275111D01*
X286595371Y-129208345D01*
X286595371Y-129158271D01*
X286609885Y-129091505D01*
X286624400Y-129058122D01*
X286653428Y-129024740D01*
X286696971Y-129008048D01*
X286726000Y-129008048D01*
X286769542Y-129024740D01*
X286784057Y-129041431D01*
X287074342Y-129358568D02*
X286900171Y-129358568D01*
X286987257Y-129358568D02*
X286987257Y-129008048D01*
X286958228Y-129058122D01*
X286929200Y-129091505D01*
X286900171Y-129108197D01*
X287175942Y-129008048D02*
X287379142Y-129008048D01*
X287248514Y-129358568D01*
G04 #@! TO.C,C8*
X295525185Y-144725800D02*
X295541877Y-144740314D01*
X295558568Y-144783857D01*
X295558568Y-144812885D01*
X295541877Y-144856428D01*
X295508494Y-144885457D01*
X295475111Y-144899971D01*
X295408345Y-144914485D01*
X295358271Y-144914485D01*
X295291505Y-144899971D01*
X295258122Y-144885457D01*
X295224740Y-144856428D01*
X295208048Y-144812885D01*
X295208048Y-144783857D01*
X295224740Y-144740314D01*
X295241431Y-144725800D01*
X295358271Y-144551628D02*
X295341580Y-144580657D01*
X295324888Y-144595171D01*
X295291505Y-144609685D01*
X295274814Y-144609685D01*
X295241431Y-144595171D01*
X295224740Y-144580657D01*
X295208048Y-144551628D01*
X295208048Y-144493571D01*
X295224740Y-144464542D01*
X295241431Y-144450028D01*
X295274814Y-144435514D01*
X295291505Y-144435514D01*
X295324888Y-144450028D01*
X295341580Y-144464542D01*
X295358271Y-144493571D01*
X295358271Y-144551628D01*
X295374962Y-144580657D01*
X295391654Y-144595171D01*
X295425037Y-144609685D01*
X295491802Y-144609685D01*
X295525185Y-144595171D01*
X295541877Y-144580657D01*
X295558568Y-144551628D01*
X295558568Y-144493571D01*
X295541877Y-144464542D01*
X295525185Y-144450028D01*
X295491802Y-144435514D01*
X295425037Y-144435514D01*
X295391654Y-144450028D01*
X295374962Y-144464542D01*
X295358271Y-144493571D01*
G04 #@! TO.C,C11*
X294600185Y-127545942D02*
X294616877Y-127560457D01*
X294633568Y-127604000D01*
X294633568Y-127633028D01*
X294616877Y-127676571D01*
X294583494Y-127705600D01*
X294550111Y-127720114D01*
X294483345Y-127734628D01*
X294433271Y-127734628D01*
X294366505Y-127720114D01*
X294333122Y-127705600D01*
X294299740Y-127676571D01*
X294283048Y-127633028D01*
X294283048Y-127604000D01*
X294299740Y-127560457D01*
X294316431Y-127545942D01*
X294633568Y-127255657D02*
X294633568Y-127429828D01*
X294633568Y-127342742D02*
X294283048Y-127342742D01*
X294333122Y-127371771D01*
X294366505Y-127400800D01*
X294383197Y-127429828D01*
X294633568Y-126965371D02*
X294633568Y-127139542D01*
X294633568Y-127052457D02*
X294283048Y-127052457D01*
X294333122Y-127081485D01*
X294366505Y-127110514D01*
X294383197Y-127139542D01*
G04 #@! TO.C,C7*
X300379200Y-130115185D02*
X300364685Y-130131877D01*
X300321142Y-130148568D01*
X300292114Y-130148568D01*
X300248571Y-130131877D01*
X300219542Y-130098494D01*
X300205028Y-130065111D01*
X300190514Y-129998345D01*
X300190514Y-129948271D01*
X300205028Y-129881505D01*
X300219542Y-129848122D01*
X300248571Y-129814740D01*
X300292114Y-129798048D01*
X300321142Y-129798048D01*
X300364685Y-129814740D01*
X300379200Y-129831431D01*
X300480800Y-129798048D02*
X300684000Y-129798048D01*
X300553371Y-130148568D01*
G04 #@! TO.C,C6*
X298449200Y-129105185D02*
X298434685Y-129121877D01*
X298391142Y-129138568D01*
X298362114Y-129138568D01*
X298318571Y-129121877D01*
X298289542Y-129088494D01*
X298275028Y-129055111D01*
X298260514Y-128988345D01*
X298260514Y-128938271D01*
X298275028Y-128871505D01*
X298289542Y-128838122D01*
X298318571Y-128804740D01*
X298362114Y-128788048D01*
X298391142Y-128788048D01*
X298434685Y-128804740D01*
X298449200Y-128821431D01*
X298710457Y-128788048D02*
X298652400Y-128788048D01*
X298623371Y-128804740D01*
X298608857Y-128821431D01*
X298579828Y-128871505D01*
X298565314Y-128938271D01*
X298565314Y-129071802D01*
X298579828Y-129105185D01*
X298594342Y-129121877D01*
X298623371Y-129138568D01*
X298681428Y-129138568D01*
X298710457Y-129121877D01*
X298724971Y-129105185D01*
X298739485Y-129071802D01*
X298739485Y-128988345D01*
X298724971Y-128954962D01*
X298710457Y-128938271D01*
X298681428Y-128921580D01*
X298623371Y-128921580D01*
X298594342Y-128938271D01*
X298579828Y-128954962D01*
X298565314Y-128988345D01*
G04 #@! TO.C,C10*
D20*
X292016085Y-126371428D02*
X291994314Y-126395619D01*
X291929000Y-126419809D01*
X291885457Y-126419809D01*
X291820142Y-126395619D01*
X291776600Y-126347238D01*
X291754828Y-126298857D01*
X291733057Y-126202095D01*
X291733057Y-126129523D01*
X291754828Y-126032761D01*
X291776600Y-125984380D01*
X291820142Y-125936000D01*
X291885457Y-125911809D01*
X291929000Y-125911809D01*
X291994314Y-125936000D01*
X292016085Y-125960190D01*
X292451514Y-126419809D02*
X292190257Y-126419809D01*
X292320885Y-126419809D02*
X292320885Y-125911809D01*
X292277342Y-125984380D01*
X292233800Y-126032761D01*
X292190257Y-126056952D01*
X292734542Y-125911809D02*
X292778085Y-125911809D01*
X292821628Y-125936000D01*
X292843400Y-125960190D01*
X292865171Y-126008571D01*
X292886942Y-126105333D01*
X292886942Y-126226285D01*
X292865171Y-126323047D01*
X292843400Y-126371428D01*
X292821628Y-126395619D01*
X292778085Y-126419809D01*
X292734542Y-126419809D01*
X292691000Y-126395619D01*
X292669228Y-126371428D01*
X292647457Y-126323047D01*
X292625685Y-126226285D01*
X292625685Y-126105333D01*
X292647457Y-126008571D01*
X292669228Y-125960190D01*
X292691000Y-125936000D01*
X292734542Y-125911809D01*
G04 #@! TO.C,L2*
X270942309Y-142763700D02*
X270942309Y-142981414D01*
X270434309Y-142981414D01*
X270482690Y-142633071D02*
X270458500Y-142611300D01*
X270434309Y-142567757D01*
X270434309Y-142458900D01*
X270458500Y-142415357D01*
X270482690Y-142393585D01*
X270531071Y-142371814D01*
X270579452Y-142371814D01*
X270652023Y-142393585D01*
X270942309Y-142654842D01*
X270942309Y-142371814D01*
G04 #@! TO.C,C13*
D16*
X272275185Y-141445942D02*
X272291877Y-141460457D01*
X272308568Y-141504000D01*
X272308568Y-141533028D01*
X272291877Y-141576571D01*
X272258494Y-141605600D01*
X272225111Y-141620114D01*
X272158345Y-141634628D01*
X272108271Y-141634628D01*
X272041505Y-141620114D01*
X272008122Y-141605600D01*
X271974740Y-141576571D01*
X271958048Y-141533028D01*
X271958048Y-141504000D01*
X271974740Y-141460457D01*
X271991431Y-141445942D01*
X272308568Y-141155657D02*
X272308568Y-141329828D01*
X272308568Y-141242742D02*
X271958048Y-141242742D01*
X272008122Y-141271771D01*
X272041505Y-141300800D01*
X272058197Y-141329828D01*
X271958048Y-141054057D02*
X271958048Y-140865371D01*
X272091580Y-140966971D01*
X272091580Y-140923428D01*
X272108271Y-140894400D01*
X272124962Y-140879885D01*
X272158345Y-140865371D01*
X272241802Y-140865371D01*
X272275185Y-140879885D01*
X272291877Y-140894400D01*
X272308568Y-140923428D01*
X272308568Y-141010514D01*
X272291877Y-141039542D01*
X272275185Y-141054057D01*
G04 #@! TO.C,C3*
X275311700Y-144212685D02*
X275297185Y-144229377D01*
X275253642Y-144246068D01*
X275224614Y-144246068D01*
X275181071Y-144229377D01*
X275152042Y-144195994D01*
X275137528Y-144162611D01*
X275123014Y-144095845D01*
X275123014Y-144045771D01*
X275137528Y-143979005D01*
X275152042Y-143945622D01*
X275181071Y-143912240D01*
X275224614Y-143895548D01*
X275253642Y-143895548D01*
X275297185Y-143912240D01*
X275311700Y-143928931D01*
X275413300Y-143895548D02*
X275601985Y-143895548D01*
X275500385Y-144029080D01*
X275543928Y-144029080D01*
X275572957Y-144045771D01*
X275587471Y-144062462D01*
X275601985Y-144095845D01*
X275601985Y-144179302D01*
X275587471Y-144212685D01*
X275572957Y-144229377D01*
X275543928Y-144246068D01*
X275456842Y-144246068D01*
X275427814Y-144229377D01*
X275413300Y-144212685D01*
G04 #@! TO.C,C2*
X280310185Y-142955800D02*
X280326877Y-142970314D01*
X280343568Y-143013857D01*
X280343568Y-143042885D01*
X280326877Y-143086428D01*
X280293494Y-143115457D01*
X280260111Y-143129971D01*
X280193345Y-143144485D01*
X280143271Y-143144485D01*
X280076505Y-143129971D01*
X280043122Y-143115457D01*
X280009740Y-143086428D01*
X279993048Y-143042885D01*
X279993048Y-143013857D01*
X280009740Y-142970314D01*
X280026431Y-142955800D01*
X280026431Y-142839685D02*
X280009740Y-142825171D01*
X279993048Y-142796142D01*
X279993048Y-142723571D01*
X280009740Y-142694542D01*
X280026431Y-142680028D01*
X280059814Y-142665514D01*
X280093197Y-142665514D01*
X280143271Y-142680028D01*
X280343568Y-142854200D01*
X280343568Y-142665514D01*
G04 #@! TO.C,C4*
X303789200Y-138384765D02*
X303774685Y-138401457D01*
X303731142Y-138418148D01*
X303702114Y-138418148D01*
X303658571Y-138401457D01*
X303629542Y-138368074D01*
X303615028Y-138334691D01*
X303600514Y-138267925D01*
X303600514Y-138217851D01*
X303615028Y-138151085D01*
X303629542Y-138117702D01*
X303658571Y-138084320D01*
X303702114Y-138067628D01*
X303731142Y-138067628D01*
X303774685Y-138084320D01*
X303789200Y-138101011D01*
X304050457Y-138184468D02*
X304050457Y-138418148D01*
X303977885Y-138050937D02*
X303905314Y-138301308D01*
X304094000Y-138301308D01*
G04 #@! TO.C,R6*
X302579200Y-138438148D02*
X302477600Y-138271234D01*
X302405028Y-138438148D02*
X302405028Y-138087628D01*
X302521142Y-138087628D01*
X302550171Y-138104320D01*
X302564685Y-138121011D01*
X302579200Y-138154394D01*
X302579200Y-138204468D01*
X302564685Y-138237851D01*
X302550171Y-138254542D01*
X302521142Y-138271234D01*
X302405028Y-138271234D01*
X302840457Y-138087628D02*
X302782400Y-138087628D01*
X302753371Y-138104320D01*
X302738857Y-138121011D01*
X302709828Y-138171085D01*
X302695314Y-138237851D01*
X302695314Y-138371382D01*
X302709828Y-138404765D01*
X302724342Y-138421457D01*
X302753371Y-138438148D01*
X302811428Y-138438148D01*
X302840457Y-138421457D01*
X302854971Y-138404765D01*
X302869485Y-138371382D01*
X302869485Y-138287925D01*
X302854971Y-138254542D01*
X302840457Y-138237851D01*
X302811428Y-138221160D01*
X302753371Y-138221160D01*
X302724342Y-138237851D01*
X302709828Y-138254542D01*
X302695314Y-138287925D01*
G04 #@! TO.C,R4*
X305248780Y-129148568D02*
X305147180Y-128981654D01*
X305074608Y-129148568D02*
X305074608Y-128798048D01*
X305190722Y-128798048D01*
X305219751Y-128814740D01*
X305234265Y-128831431D01*
X305248780Y-128864814D01*
X305248780Y-128914888D01*
X305234265Y-128948271D01*
X305219751Y-128964962D01*
X305190722Y-128981654D01*
X305074608Y-128981654D01*
X305510037Y-128914888D02*
X305510037Y-129148568D01*
X305437465Y-128781357D02*
X305364894Y-129031728D01*
X305553580Y-129031728D01*
G04 #@! TO.C,R3*
X302648148Y-128850800D02*
X302481234Y-128952400D01*
X302648148Y-129024971D02*
X302297628Y-129024971D01*
X302297628Y-128908857D01*
X302314320Y-128879828D01*
X302331011Y-128865314D01*
X302364394Y-128850800D01*
X302414468Y-128850800D01*
X302447851Y-128865314D01*
X302464542Y-128879828D01*
X302481234Y-128908857D01*
X302481234Y-129024971D01*
X302297628Y-128749200D02*
X302297628Y-128560514D01*
X302431160Y-128662114D01*
X302431160Y-128618571D01*
X302447851Y-128589542D01*
X302464542Y-128575028D01*
X302497925Y-128560514D01*
X302581382Y-128560514D01*
X302614765Y-128575028D01*
X302631457Y-128589542D01*
X302648148Y-128618571D01*
X302648148Y-128705657D01*
X302631457Y-128734685D01*
X302614765Y-128749200D01*
G04 #@! TO.C,R2*
X302728568Y-135850800D02*
X302561654Y-135952400D01*
X302728568Y-136024971D02*
X302378048Y-136024971D01*
X302378048Y-135908857D01*
X302394740Y-135879828D01*
X302411431Y-135865314D01*
X302444814Y-135850800D01*
X302494888Y-135850800D01*
X302528271Y-135865314D01*
X302544962Y-135879828D01*
X302561654Y-135908857D01*
X302561654Y-136024971D01*
X302411431Y-135734685D02*
X302394740Y-135720171D01*
X302378048Y-135691142D01*
X302378048Y-135618571D01*
X302394740Y-135589542D01*
X302411431Y-135575028D01*
X302444814Y-135560514D01*
X302478197Y-135560514D01*
X302528271Y-135575028D01*
X302728568Y-135749200D01*
X302728568Y-135560514D01*
G04 #@! TO.C,R1*
X304668568Y-137270800D02*
X304501654Y-137372400D01*
X304668568Y-137444971D02*
X304318048Y-137444971D01*
X304318048Y-137328857D01*
X304334740Y-137299828D01*
X304351431Y-137285314D01*
X304384814Y-137270800D01*
X304434888Y-137270800D01*
X304468271Y-137285314D01*
X304484962Y-137299828D01*
X304501654Y-137328857D01*
X304501654Y-137444971D01*
X304668568Y-136980514D02*
X304668568Y-137154685D01*
X304668568Y-137067600D02*
X304318048Y-137067600D01*
X304368122Y-137096628D01*
X304401505Y-137125657D01*
X304418197Y-137154685D01*
G04 #@! TO.C,D1*
D10*
X283786190Y-140994047D02*
X283286190Y-140994047D01*
X283286190Y-140875000D01*
X283310000Y-140803571D01*
X283357619Y-140755952D01*
X283405238Y-140732142D01*
X283500476Y-140708333D01*
X283571904Y-140708333D01*
X283667142Y-140732142D01*
X283714761Y-140755952D01*
X283762380Y-140803571D01*
X283786190Y-140875000D01*
X283786190Y-140994047D01*
X283786190Y-140232142D02*
X283786190Y-140517857D01*
X283786190Y-140375000D02*
X283286190Y-140375000D01*
X283357619Y-140422619D01*
X283405238Y-140470238D01*
X283429047Y-140517857D01*
G04 #@! TO.C,L4*
D20*
X270799809Y-138696200D02*
X270799809Y-138913914D01*
X270291809Y-138913914D01*
X270461142Y-138347857D02*
X270799809Y-138347857D01*
X270267619Y-138456714D02*
X270630476Y-138565571D01*
X270630476Y-138282542D01*
G04 #@! TO.C,X1*
D23*
X270445238Y-132476190D02*
X270778571Y-132976190D01*
X270778571Y-132476190D02*
X270445238Y-132976190D01*
X271230952Y-132976190D02*
X270945238Y-132976190D01*
X271088095Y-132976190D02*
X271088095Y-132476190D01*
X271040476Y-132547619D01*
X270992857Y-132595238D01*
X270945238Y-132619047D01*
G04 #@! TO.C,C28*
D16*
X274365185Y-141035942D02*
X274381877Y-141050457D01*
X274398568Y-141094000D01*
X274398568Y-141123028D01*
X274381877Y-141166571D01*
X274348494Y-141195600D01*
X274315111Y-141210114D01*
X274248345Y-141224628D01*
X274198271Y-141224628D01*
X274131505Y-141210114D01*
X274098122Y-141195600D01*
X274064740Y-141166571D01*
X274048048Y-141123028D01*
X274048048Y-141094000D01*
X274064740Y-141050457D01*
X274081431Y-141035942D01*
X274081431Y-140919828D02*
X274064740Y-140905314D01*
X274048048Y-140876285D01*
X274048048Y-140803714D01*
X274064740Y-140774685D01*
X274081431Y-140760171D01*
X274114814Y-140745657D01*
X274148197Y-140745657D01*
X274198271Y-140760171D01*
X274398568Y-140934342D01*
X274398568Y-140745657D01*
X274198271Y-140571485D02*
X274181580Y-140600514D01*
X274164888Y-140615028D01*
X274131505Y-140629542D01*
X274114814Y-140629542D01*
X274081431Y-140615028D01*
X274064740Y-140600514D01*
X274048048Y-140571485D01*
X274048048Y-140513428D01*
X274064740Y-140484400D01*
X274081431Y-140469885D01*
X274114814Y-140455371D01*
X274131505Y-140455371D01*
X274164888Y-140469885D01*
X274181580Y-140484400D01*
X274198271Y-140513428D01*
X274198271Y-140571485D01*
X274214962Y-140600514D01*
X274231654Y-140615028D01*
X274265037Y-140629542D01*
X274331802Y-140629542D01*
X274365185Y-140615028D01*
X274381877Y-140600514D01*
X274398568Y-140571485D01*
X274398568Y-140513428D01*
X274381877Y-140484400D01*
X274365185Y-140469885D01*
X274331802Y-140455371D01*
X274265037Y-140455371D01*
X274231654Y-140469885D01*
X274214962Y-140484400D01*
X274198271Y-140513428D01*
G04 #@! TO.C,C26*
X272275185Y-140345942D02*
X272291877Y-140360457D01*
X272308568Y-140404000D01*
X272308568Y-140433028D01*
X272291877Y-140476571D01*
X272258494Y-140505600D01*
X272225111Y-140520114D01*
X272158345Y-140534628D01*
X272108271Y-140534628D01*
X272041505Y-140520114D01*
X272008122Y-140505600D01*
X271974740Y-140476571D01*
X271958048Y-140433028D01*
X271958048Y-140404000D01*
X271974740Y-140360457D01*
X271991431Y-140345942D01*
X271991431Y-140229828D02*
X271974740Y-140215314D01*
X271958048Y-140186285D01*
X271958048Y-140113714D01*
X271974740Y-140084685D01*
X271991431Y-140070171D01*
X272024814Y-140055657D01*
X272058197Y-140055657D01*
X272108271Y-140070171D01*
X272308568Y-140244342D01*
X272308568Y-140055657D01*
X271958048Y-139794400D02*
X271958048Y-139852457D01*
X271974740Y-139881485D01*
X271991431Y-139896000D01*
X272041505Y-139925028D01*
X272108271Y-139939542D01*
X272241802Y-139939542D01*
X272275185Y-139925028D01*
X272291877Y-139910514D01*
X272308568Y-139881485D01*
X272308568Y-139823428D01*
X272291877Y-139794400D01*
X272275185Y-139779885D01*
X272241802Y-139765371D01*
X272158345Y-139765371D01*
X272124962Y-139779885D01*
X272108271Y-139794400D01*
X272091580Y-139823428D01*
X272091580Y-139881485D01*
X272108271Y-139910514D01*
X272124962Y-139925028D01*
X272158345Y-139939542D01*
G04 #@! TO.C,C24*
X269925185Y-133095942D02*
X269941877Y-133110457D01*
X269958568Y-133154000D01*
X269958568Y-133183028D01*
X269941877Y-133226571D01*
X269908494Y-133255600D01*
X269875111Y-133270114D01*
X269808345Y-133284628D01*
X269758271Y-133284628D01*
X269691505Y-133270114D01*
X269658122Y-133255600D01*
X269624740Y-133226571D01*
X269608048Y-133183028D01*
X269608048Y-133154000D01*
X269624740Y-133110457D01*
X269641431Y-133095942D01*
X269641431Y-132979828D02*
X269624740Y-132965314D01*
X269608048Y-132936285D01*
X269608048Y-132863714D01*
X269624740Y-132834685D01*
X269641431Y-132820171D01*
X269674814Y-132805657D01*
X269708197Y-132805657D01*
X269758271Y-132820171D01*
X269958568Y-132994342D01*
X269958568Y-132805657D01*
X269724888Y-132544400D02*
X269958568Y-132544400D01*
X269591357Y-132616971D02*
X269841728Y-132689542D01*
X269841728Y-132500857D01*
G04 #@! TO.C,C25*
X273325185Y-132995942D02*
X273341877Y-133010457D01*
X273358568Y-133054000D01*
X273358568Y-133083028D01*
X273341877Y-133126571D01*
X273308494Y-133155600D01*
X273275111Y-133170114D01*
X273208345Y-133184628D01*
X273158271Y-133184628D01*
X273091505Y-133170114D01*
X273058122Y-133155600D01*
X273024740Y-133126571D01*
X273008048Y-133083028D01*
X273008048Y-133054000D01*
X273024740Y-133010457D01*
X273041431Y-132995942D01*
X273041431Y-132879828D02*
X273024740Y-132865314D01*
X273008048Y-132836285D01*
X273008048Y-132763714D01*
X273024740Y-132734685D01*
X273041431Y-132720171D01*
X273074814Y-132705657D01*
X273108197Y-132705657D01*
X273158271Y-132720171D01*
X273358568Y-132894342D01*
X273358568Y-132705657D01*
X273008048Y-132429885D02*
X273008048Y-132575028D01*
X273174962Y-132589542D01*
X273158271Y-132575028D01*
X273141580Y-132546000D01*
X273141580Y-132473428D01*
X273158271Y-132444400D01*
X273174962Y-132429885D01*
X273208345Y-132415371D01*
X273291802Y-132415371D01*
X273325185Y-132429885D01*
X273341877Y-132444400D01*
X273358568Y-132473428D01*
X273358568Y-132546000D01*
X273341877Y-132575028D01*
X273325185Y-132589542D01*
G04 #@! TO.C,C27*
X275545185Y-129675942D02*
X275561877Y-129690457D01*
X275578568Y-129734000D01*
X275578568Y-129763028D01*
X275561877Y-129806571D01*
X275528494Y-129835600D01*
X275495111Y-129850114D01*
X275428345Y-129864628D01*
X275378271Y-129864628D01*
X275311505Y-129850114D01*
X275278122Y-129835600D01*
X275244740Y-129806571D01*
X275228048Y-129763028D01*
X275228048Y-129734000D01*
X275244740Y-129690457D01*
X275261431Y-129675942D01*
X275261431Y-129559828D02*
X275244740Y-129545314D01*
X275228048Y-129516285D01*
X275228048Y-129443714D01*
X275244740Y-129414685D01*
X275261431Y-129400171D01*
X275294814Y-129385657D01*
X275328197Y-129385657D01*
X275378271Y-129400171D01*
X275578568Y-129574342D01*
X275578568Y-129385657D01*
X275228048Y-129284057D02*
X275228048Y-129080857D01*
X275578568Y-129211485D01*
G04 #@! TO.C,C29*
X275674057Y-140965185D02*
X275659542Y-140981877D01*
X275616000Y-140998568D01*
X275586971Y-140998568D01*
X275543428Y-140981877D01*
X275514400Y-140948494D01*
X275499885Y-140915111D01*
X275485371Y-140848345D01*
X275485371Y-140798271D01*
X275499885Y-140731505D01*
X275514400Y-140698122D01*
X275543428Y-140664740D01*
X275586971Y-140648048D01*
X275616000Y-140648048D01*
X275659542Y-140664740D01*
X275674057Y-140681431D01*
X275790171Y-140681431D02*
X275804685Y-140664740D01*
X275833714Y-140648048D01*
X275906285Y-140648048D01*
X275935314Y-140664740D01*
X275949828Y-140681431D01*
X275964342Y-140714814D01*
X275964342Y-140748197D01*
X275949828Y-140798271D01*
X275775657Y-140998568D01*
X275964342Y-140998568D01*
X276109485Y-140998568D02*
X276167542Y-140998568D01*
X276196571Y-140981877D01*
X276211085Y-140965185D01*
X276240114Y-140915111D01*
X276254628Y-140848345D01*
X276254628Y-140714814D01*
X276240114Y-140681431D01*
X276225600Y-140664740D01*
X276196571Y-140648048D01*
X276138514Y-140648048D01*
X276109485Y-140664740D01*
X276094971Y-140681431D01*
X276080457Y-140714814D01*
X276080457Y-140798271D01*
X276094971Y-140831654D01*
X276109485Y-140848345D01*
X276138514Y-140865037D01*
X276196571Y-140865037D01*
X276225600Y-140848345D01*
X276240114Y-140831654D01*
X276254628Y-140798271D01*
G04 #@! TO.C,L6*
X271899200Y-128558568D02*
X271754057Y-128558568D01*
X271754057Y-128208048D01*
X272131428Y-128208048D02*
X272073371Y-128208048D01*
X272044342Y-128224740D01*
X272029828Y-128241431D01*
X272000800Y-128291505D01*
X271986285Y-128358271D01*
X271986285Y-128491802D01*
X272000800Y-128525185D01*
X272015314Y-128541877D01*
X272044342Y-128558568D01*
X272102400Y-128558568D01*
X272131428Y-128541877D01*
X272145942Y-128525185D01*
X272160457Y-128491802D01*
X272160457Y-128408345D01*
X272145942Y-128374962D01*
X272131428Y-128358271D01*
X272102400Y-128341580D01*
X272044342Y-128341580D01*
X272015314Y-128358271D01*
X272000800Y-128374962D01*
X271986285Y-128408345D01*
G04 #@! TO.C,L5*
X273969200Y-127248568D02*
X273824057Y-127248568D01*
X273824057Y-126898048D01*
X274215942Y-126898048D02*
X274070800Y-126898048D01*
X274056285Y-127064962D01*
X274070800Y-127048271D01*
X274099828Y-127031580D01*
X274172400Y-127031580D01*
X274201428Y-127048271D01*
X274215942Y-127064962D01*
X274230457Y-127098345D01*
X274230457Y-127181802D01*
X274215942Y-127215185D01*
X274201428Y-127231877D01*
X274172400Y-127248568D01*
X274099828Y-127248568D01*
X274070800Y-127231877D01*
X274056285Y-127215185D01*
G04 #@! TO.C,C30*
X275404057Y-127165185D02*
X275389542Y-127181877D01*
X275346000Y-127198568D01*
X275316971Y-127198568D01*
X275273428Y-127181877D01*
X275244400Y-127148494D01*
X275229885Y-127115111D01*
X275215371Y-127048345D01*
X275215371Y-126998271D01*
X275229885Y-126931505D01*
X275244400Y-126898122D01*
X275273428Y-126864740D01*
X275316971Y-126848048D01*
X275346000Y-126848048D01*
X275389542Y-126864740D01*
X275404057Y-126881431D01*
X275505657Y-126848048D02*
X275694342Y-126848048D01*
X275592742Y-126981580D01*
X275636285Y-126981580D01*
X275665314Y-126998271D01*
X275679828Y-127014962D01*
X275694342Y-127048345D01*
X275694342Y-127131802D01*
X275679828Y-127165185D01*
X275665314Y-127181877D01*
X275636285Y-127198568D01*
X275549200Y-127198568D01*
X275520171Y-127181877D01*
X275505657Y-127165185D01*
X275883028Y-126848048D02*
X275912057Y-126848048D01*
X275941085Y-126864740D01*
X275955600Y-126881431D01*
X275970114Y-126914814D01*
X275984628Y-126981580D01*
X275984628Y-127065037D01*
X275970114Y-127131802D01*
X275955600Y-127165185D01*
X275941085Y-127181877D01*
X275912057Y-127198568D01*
X275883028Y-127198568D01*
X275854000Y-127181877D01*
X275839485Y-127165185D01*
X275824971Y-127131802D01*
X275810457Y-127065037D01*
X275810457Y-126981580D01*
X275824971Y-126914814D01*
X275839485Y-126881431D01*
X275854000Y-126864740D01*
X275883028Y-126848048D01*
G04 #@! TO.C,L3*
X271288568Y-137270800D02*
X271288568Y-137415942D01*
X270938048Y-137415942D01*
X270938048Y-137198228D02*
X270938048Y-137009542D01*
X271071580Y-137111142D01*
X271071580Y-137067600D01*
X271088271Y-137038571D01*
X271104962Y-137024057D01*
X271138345Y-137009542D01*
X271221802Y-137009542D01*
X271255185Y-137024057D01*
X271271877Y-137038571D01*
X271288568Y-137067600D01*
X271288568Y-137154685D01*
X271271877Y-137183714D01*
X271255185Y-137198228D01*
G04 #@! TO.C,C23*
D20*
X271151428Y-136313914D02*
X271175619Y-136335685D01*
X271199809Y-136401000D01*
X271199809Y-136444542D01*
X271175619Y-136509857D01*
X271127238Y-136553400D01*
X271078857Y-136575171D01*
X270982095Y-136596942D01*
X270909523Y-136596942D01*
X270812761Y-136575171D01*
X270764380Y-136553400D01*
X270716000Y-136509857D01*
X270691809Y-136444542D01*
X270691809Y-136401000D01*
X270716000Y-136335685D01*
X270740190Y-136313914D01*
X270740190Y-136139742D02*
X270716000Y-136117971D01*
X270691809Y-136074428D01*
X270691809Y-135965571D01*
X270716000Y-135922028D01*
X270740190Y-135900257D01*
X270788571Y-135878485D01*
X270836952Y-135878485D01*
X270909523Y-135900257D01*
X271199809Y-136161514D01*
X271199809Y-135878485D01*
X270691809Y-135726085D02*
X270691809Y-135443057D01*
X270885333Y-135595457D01*
X270885333Y-135530142D01*
X270909523Y-135486600D01*
X270933714Y-135464828D01*
X270982095Y-135443057D01*
X271103047Y-135443057D01*
X271151428Y-135464828D01*
X271175619Y-135486600D01*
X271199809Y-135530142D01*
X271199809Y-135660771D01*
X271175619Y-135704314D01*
X271151428Y-135726085D01*
G04 #@! TO.C,C22*
X281981428Y-138353914D02*
X282005619Y-138375685D01*
X282029809Y-138441000D01*
X282029809Y-138484542D01*
X282005619Y-138549857D01*
X281957238Y-138593400D01*
X281908857Y-138615171D01*
X281812095Y-138636942D01*
X281739523Y-138636942D01*
X281642761Y-138615171D01*
X281594380Y-138593400D01*
X281546000Y-138549857D01*
X281521809Y-138484542D01*
X281521809Y-138441000D01*
X281546000Y-138375685D01*
X281570190Y-138353914D01*
X281570190Y-138179742D02*
X281546000Y-138157971D01*
X281521809Y-138114428D01*
X281521809Y-138005571D01*
X281546000Y-137962028D01*
X281570190Y-137940257D01*
X281618571Y-137918485D01*
X281666952Y-137918485D01*
X281739523Y-137940257D01*
X282029809Y-138201514D01*
X282029809Y-137918485D01*
X281570190Y-137744314D02*
X281546000Y-137722542D01*
X281521809Y-137679000D01*
X281521809Y-137570142D01*
X281546000Y-137526600D01*
X281570190Y-137504828D01*
X281618571Y-137483057D01*
X281666952Y-137483057D01*
X281739523Y-137504828D01*
X282029809Y-137766085D01*
X282029809Y-137483057D01*
G04 #@! TO.C,U3*
D24*
X280359047Y-130246190D02*
X280359047Y-130650952D01*
X280382857Y-130698571D01*
X280406666Y-130722380D01*
X280454285Y-130746190D01*
X280549523Y-130746190D01*
X280597142Y-130722380D01*
X280620952Y-130698571D01*
X280644761Y-130650952D01*
X280644761Y-130246190D01*
X280835238Y-130246190D02*
X281144761Y-130246190D01*
X280978095Y-130436666D01*
X281049523Y-130436666D01*
X281097142Y-130460476D01*
X281120952Y-130484285D01*
X281144761Y-130531904D01*
X281144761Y-130650952D01*
X281120952Y-130698571D01*
X281097142Y-130722380D01*
X281049523Y-130746190D01*
X280906666Y-130746190D01*
X280859047Y-130722380D01*
X280835238Y-130698571D01*
G04 #@! TO.C,U7*
D21*
X280742857Y-142561428D02*
X280742857Y-143047142D01*
X280771428Y-143104285D01*
X280800000Y-143132857D01*
X280857142Y-143161428D01*
X280971428Y-143161428D01*
X281028571Y-143132857D01*
X281057142Y-143104285D01*
X281085714Y-143047142D01*
X281085714Y-142561428D01*
X281314285Y-142561428D02*
X281714285Y-142561428D01*
X281457142Y-143161428D01*
G04 #@! TO.C,U1*
X277532857Y-140561428D02*
X277532857Y-141047142D01*
X277561428Y-141104285D01*
X277590000Y-141132857D01*
X277647142Y-141161428D01*
X277761428Y-141161428D01*
X277818571Y-141132857D01*
X277847142Y-141104285D01*
X277875714Y-141047142D01*
X277875714Y-140561428D01*
X278475714Y-141161428D02*
X278132857Y-141161428D01*
X278304285Y-141161428D02*
X278304285Y-140561428D01*
X278247142Y-140647142D01*
X278190000Y-140704285D01*
X278132857Y-140732857D01*
G04 #@! TO.C,J1*
D17*
X307446666Y-124242380D02*
X307446666Y-124956666D01*
X307399047Y-125099523D01*
X307303809Y-125194761D01*
X307160952Y-125242380D01*
X307065714Y-125242380D01*
X308446666Y-125242380D02*
X307875238Y-125242380D01*
X308160952Y-125242380D02*
X308160952Y-124242380D01*
X308065714Y-124385238D01*
X307970476Y-124480476D01*
X307875238Y-124528095D01*
G04 #@! TO.C,Q1*
D25*
X305082380Y-144683809D02*
X305034761Y-144660000D01*
X304987142Y-144612380D01*
X304915714Y-144540952D01*
X304868095Y-144517142D01*
X304820476Y-144517142D01*
X304844285Y-144636190D02*
X304796666Y-144612380D01*
X304749047Y-144564761D01*
X304725238Y-144469523D01*
X304725238Y-144302857D01*
X304749047Y-144207619D01*
X304796666Y-144160000D01*
X304844285Y-144136190D01*
X304939523Y-144136190D01*
X304987142Y-144160000D01*
X305034761Y-144207619D01*
X305058571Y-144302857D01*
X305058571Y-144469523D01*
X305034761Y-144564761D01*
X304987142Y-144612380D01*
X304939523Y-144636190D01*
X304844285Y-144636190D01*
X305534761Y-144636190D02*
X305249047Y-144636190D01*
X305391904Y-144636190D02*
X305391904Y-144136190D01*
X305344285Y-144207619D01*
X305296666Y-144255238D01*
X305249047Y-144279047D01*
G04 #@! TO.C,U5*
D21*
X303266666Y-143236666D02*
X303266666Y-143803333D01*
X303300000Y-143870000D01*
X303333333Y-143903333D01*
X303400000Y-143936666D01*
X303533333Y-143936666D01*
X303600000Y-143903333D01*
X303633333Y-143870000D01*
X303666666Y-143803333D01*
X303666666Y-143236666D01*
X304333333Y-143236666D02*
X304000000Y-143236666D01*
X303966666Y-143570000D01*
X304000000Y-143536666D01*
X304066666Y-143503333D01*
X304233333Y-143503333D01*
X304300000Y-143536666D01*
X304333333Y-143570000D01*
X304366666Y-143636666D01*
X304366666Y-143803333D01*
X304333333Y-143870000D01*
X304300000Y-143903333D01*
X304233333Y-143936666D01*
X304066666Y-143936666D01*
X304000000Y-143903333D01*
X303966666Y-143870000D01*
G04 #@! TD*
M02*
