G04 #@! TF.GenerationSoftware,KiCad,Pcbnew,(5.0.0)*
G04 #@! TF.CreationDate,2018-09-10T01:39:48-04:00*
G04 #@! TF.ProjectId,EEG_ADS1299,4545475F414453313239392E6B696361,rev?*
G04 #@! TF.SameCoordinates,Original*
G04 #@! TF.FileFunction,Copper,L2,Bot,Signal*
G04 #@! TF.FilePolarity,Positive*
%FSLAX46Y46*%
G04 Gerber Fmt 4.6, Leading zero omitted, Abs format (unit mm)*
G04 Created by KiCad (PCBNEW (5.0.0)) date 09/10/18 01:39:48*
%MOMM*%
%LPD*%
G01*
G04 APERTURE LIST*
G04 #@! TA.AperFunction,ComponentPad*
%ADD10R,1.524000X1.524000*%
G04 #@! TD*
G04 #@! TA.AperFunction,ComponentPad*
%ADD11C,1.524000*%
G04 #@! TD*
G04 #@! TA.AperFunction,ComponentPad*
%ADD12R,1.700000X1.700000*%
G04 #@! TD*
G04 #@! TA.AperFunction,ComponentPad*
%ADD13O,1.700000X1.700000*%
G04 #@! TD*
G04 #@! TA.AperFunction,ViaPad*
%ADD14C,0.508000*%
G04 #@! TD*
G04 #@! TA.AperFunction,Conductor*
%ADD15C,0.152000*%
G04 #@! TD*
G04 #@! TA.AperFunction,Conductor*
%ADD16C,0.457200*%
G04 #@! TD*
G04 #@! TA.AperFunction,Conductor*
%ADD17C,0.254000*%
G04 #@! TD*
G04 APERTURE END LIST*
D10*
G04 #@! TO.P,P1,1*
G04 #@! TO.N,/BATT_IN*
X309750000Y-144910000D03*
D11*
G04 #@! TO.P,P1,2*
G04 #@! TO.N,AVSS*
X309750000Y-142370000D03*
G04 #@! TD*
D10*
G04 #@! TO.P,P3,1*
G04 #@! TO.N,5V_in_charge*
X312550000Y-144910000D03*
D11*
G04 #@! TO.P,P3,2*
G04 #@! TO.N,AVSS*
X312550000Y-142370000D03*
G04 #@! TD*
G04 #@! TO.P,J2,2*
G04 #@! TO.N,/SRB1*
X307990000Y-138900000D03*
D10*
G04 #@! TO.P,J2,1*
G04 #@! TO.N,/BIAS_ELEC*
X310530000Y-138900000D03*
G04 #@! TD*
G04 #@! TO.P,P2,1*
G04 #@! TO.N,/SWDCLK*
X301780000Y-126930000D03*
D11*
G04 #@! TO.P,P2,2*
G04 #@! TO.N,/SWDIO*
X299240000Y-126930000D03*
G04 #@! TD*
D12*
G04 #@! TO.P,J1,1*
G04 #@! TO.N,Net-(J1-Pad1)*
X308040000Y-128540000D03*
D13*
G04 #@! TO.P,J1,2*
G04 #@! TO.N,Net-(J1-Pad2)*
X310580000Y-128540000D03*
G04 #@! TO.P,J1,3*
G04 #@! TO.N,Net-(J1-Pad3)*
X308040000Y-131080000D03*
G04 #@! TO.P,J1,4*
G04 #@! TO.N,Net-(J1-Pad4)*
X310580000Y-131080000D03*
G04 #@! TO.P,J1,5*
G04 #@! TO.N,Net-(J1-Pad5)*
X308040000Y-133620000D03*
G04 #@! TO.P,J1,6*
G04 #@! TO.N,Net-(J1-Pad6)*
X310580000Y-133620000D03*
G04 #@! TO.P,J1,7*
G04 #@! TO.N,Net-(J1-Pad7)*
X308040000Y-136160000D03*
G04 #@! TO.P,J1,8*
G04 #@! TO.N,Net-(J1-Pad8)*
X310580000Y-136160000D03*
G04 #@! TD*
D14*
G04 #@! TO.N,/SWDCLK*
X280610000Y-128600000D03*
G04 #@! TO.N,/SWDIO*
X280640000Y-127330000D03*
G04 #@! TO.N,AVSS*
X278100000Y-140950000D03*
X275700000Y-141850000D03*
X287120000Y-142570000D03*
X282120000Y-136980000D03*
X287750000Y-138800000D03*
X293100000Y-144650000D03*
X292700000Y-134100000D03*
X285950000Y-141650000D03*
X273150000Y-130150000D03*
X276820000Y-128420000D03*
X296010000Y-144370000D03*
X279030000Y-128510000D03*
G04 #@! TO.N,DVDD*
X284250000Y-143670000D03*
X280250000Y-138130000D03*
X284730000Y-127260000D03*
X283220000Y-133060000D03*
X275120000Y-130980000D03*
X274640000Y-137010000D03*
X274580000Y-129450000D03*
X299110000Y-144070000D03*
G04 #@! TO.N,AVDD*
X273412500Y-142487500D03*
X289900000Y-145050000D03*
G04 #@! TO.N,VCC*
X284200000Y-145760000D03*
X307020000Y-144510000D03*
G04 #@! TO.N,/SCL*
X280850000Y-129600000D03*
X282230000Y-131270000D03*
G04 #@! TO.N,/AIN_BAT_DIV_VOLTAGE*
X281090000Y-140600000D03*
X278050000Y-139830000D03*
G04 #@! TO.N,/BATT_IN*
X306210000Y-142861390D03*
G04 #@! TO.N,Net-(D4-Pad1)*
X302320000Y-140680000D03*
X302900000Y-144100000D03*
G04 #@! TO.N,/SRB1*
X296750000Y-130770000D03*
G04 #@! TD*
D15*
G04 #@! TO.N,/SWDCLK*
X280863999Y-128346001D02*
X282503999Y-128346001D01*
X280610000Y-128600000D02*
X280863999Y-128346001D01*
X284072401Y-126777599D02*
X296697599Y-126777599D01*
X282503999Y-128346001D02*
X284072401Y-126777599D01*
X296697599Y-126777599D02*
X298320000Y-128400000D01*
X300866000Y-126930000D02*
X301780000Y-126930000D01*
X299396000Y-128400000D02*
X300866000Y-126930000D01*
X298320000Y-128400000D02*
X299396000Y-128400000D01*
G04 #@! TO.N,/SWDIO*
X280893999Y-127076001D02*
X282703999Y-127076001D01*
X280640000Y-127330000D02*
X280893999Y-127076001D01*
X298478001Y-126168001D02*
X299240000Y-126930000D01*
X283611999Y-126168001D02*
X298478001Y-126168001D01*
X282703999Y-127076001D02*
X283611999Y-126168001D01*
G04 #@! TO.N,AVSS*
X277200000Y-141850000D02*
X275700000Y-141850000D01*
X278100000Y-140950000D02*
X277200000Y-141850000D01*
X275700000Y-141850000D02*
X278370000Y-144520000D01*
X278370000Y-144520000D02*
X285170000Y-144520000D01*
X285170000Y-144520000D02*
X287120000Y-142570000D01*
X285640000Y-136690000D02*
X287750000Y-138800000D01*
X282410000Y-136690000D02*
X285640000Y-136690000D01*
X282120000Y-136980000D02*
X282410000Y-136690000D01*
X287650000Y-141650000D02*
X288875000Y-140425000D01*
X287750000Y-138800000D02*
X287750000Y-139300000D01*
X287750000Y-139300000D02*
X288875000Y-140425000D01*
X288875000Y-140425000D02*
X293100000Y-144650000D01*
X285950000Y-141650000D02*
X287650000Y-141650000D01*
X273150000Y-130150000D02*
X273150000Y-130090000D01*
X274820000Y-128420000D02*
X276820000Y-128420000D01*
X273150000Y-130090000D02*
X274820000Y-128420000D01*
X276810000Y-128430000D02*
X276800000Y-128430000D01*
X276820000Y-128420000D02*
X276810000Y-128430000D01*
X293100000Y-144650000D02*
X295730000Y-144650000D01*
X295730000Y-144650000D02*
X296010000Y-144370000D01*
D16*
G04 #@! TO.N,DVDD*
X280250000Y-138130000D02*
X280250000Y-138150000D01*
X284250000Y-142150000D02*
X284250000Y-143670000D01*
X280250000Y-138150000D02*
X284250000Y-142150000D01*
X279270000Y-137150000D02*
X279270000Y-137010000D01*
X280250000Y-138130000D02*
X279270000Y-137150000D01*
D15*
X283220000Y-128770000D02*
X283220000Y-133060000D01*
X284730000Y-127260000D02*
X283220000Y-128770000D01*
D16*
X279270000Y-137010000D02*
X283220000Y-133060000D01*
X275120000Y-130980000D02*
X275120000Y-136450000D01*
X275120000Y-136450000D02*
X274640000Y-137010000D01*
X275120000Y-129990000D02*
X275120000Y-130980000D01*
X274580000Y-129450000D02*
X275120000Y-129990000D01*
X274640000Y-137010000D02*
X279270000Y-137010000D01*
D15*
X284730000Y-127260000D02*
X284730000Y-129690000D01*
X284730000Y-129690000D02*
X299110000Y-144070000D01*
D16*
G04 #@! TO.N,AVDD*
X275975000Y-145050000D02*
X289900000Y-145050000D01*
X275975000Y-145050000D02*
X273412500Y-142487500D01*
D15*
G04 #@! TO.N,VCC*
X305770000Y-145760000D02*
X284200000Y-145760000D01*
X307020000Y-144510000D02*
X305770000Y-145760000D01*
G04 #@! TO.N,/SCL*
X280850000Y-129690000D02*
X280850000Y-129600000D01*
X282230000Y-131270000D02*
X280850000Y-129690000D01*
G04 #@! TO.N,/AIN_BAT_DIV_VOLTAGE*
X278820000Y-140600000D02*
X281090000Y-140600000D01*
X278050000Y-139830000D02*
X278820000Y-140600000D01*
G04 #@! TO.N,/BATT_IN*
X309750000Y-143996000D02*
X309750000Y-144910000D01*
X308615390Y-142861390D02*
X309750000Y-143996000D01*
X306210000Y-142861390D02*
X308615390Y-142861390D01*
G04 #@! TO.N,Net-(D4-Pad1)*
X302320000Y-140680000D02*
X302900000Y-141260000D01*
X302900000Y-141260000D02*
X302900000Y-144100000D01*
G04 #@! TO.N,/SRB1*
X304880000Y-138900000D02*
X307990000Y-138900000D01*
X296750000Y-130770000D02*
X304880000Y-138900000D01*
G04 #@! TD*
D17*
G04 #@! TO.N,AVSS*
G36*
X282409494Y-126365001D02*
X280964020Y-126365001D01*
X280893999Y-126351073D01*
X280823978Y-126365001D01*
X280823973Y-126365001D01*
X280616581Y-126406254D01*
X280564580Y-126441000D01*
X280463167Y-126441000D01*
X280136422Y-126576342D01*
X279886342Y-126826422D01*
X279751000Y-127153167D01*
X279751000Y-127506833D01*
X279886342Y-127833578D01*
X280002764Y-127950000D01*
X279856342Y-128096422D01*
X279721000Y-128423167D01*
X279721000Y-128776833D01*
X279856342Y-129103578D01*
X280023952Y-129271188D01*
X279961000Y-129423167D01*
X279961000Y-129776833D01*
X280096342Y-130103578D01*
X280346422Y-130353658D01*
X280564554Y-130444011D01*
X281341000Y-131332986D01*
X281341000Y-131446833D01*
X281476342Y-131773578D01*
X281726422Y-132023658D01*
X282053167Y-132159000D01*
X282406833Y-132159000D01*
X282509001Y-132116681D01*
X282509001Y-132513763D01*
X282466342Y-132556422D01*
X282440942Y-132617743D01*
X278912287Y-136146400D01*
X275983600Y-136146400D01*
X275983600Y-131218154D01*
X276009000Y-131156833D01*
X276009000Y-130803167D01*
X275983600Y-130741846D01*
X275983600Y-130075047D01*
X276000517Y-129989999D01*
X275983600Y-129904951D01*
X275983600Y-129904947D01*
X275933493Y-129653040D01*
X275742620Y-129367380D01*
X275670514Y-129319200D01*
X275359059Y-129007746D01*
X275333658Y-128946422D01*
X275083578Y-128696342D01*
X274756833Y-128561000D01*
X274403167Y-128561000D01*
X274076422Y-128696342D01*
X273826342Y-128946422D01*
X273691000Y-129273167D01*
X273691000Y-129626833D01*
X273826342Y-129953578D01*
X274076422Y-130203658D01*
X274137746Y-130229059D01*
X274256400Y-130347714D01*
X274256401Y-130741844D01*
X274231000Y-130803167D01*
X274231000Y-131156833D01*
X274256400Y-131218154D01*
X274256401Y-136130534D01*
X274155250Y-136248543D01*
X274136422Y-136256342D01*
X273886342Y-136506422D01*
X273751000Y-136833167D01*
X273751000Y-137186833D01*
X273886342Y-137513578D01*
X274136422Y-137763658D01*
X274463167Y-137899000D01*
X274816833Y-137899000D01*
X274878154Y-137873600D01*
X278772287Y-137873600D01*
X279470942Y-138572256D01*
X279496342Y-138633578D01*
X279611262Y-138748498D01*
X279627380Y-138772620D01*
X279651502Y-138788738D01*
X279746422Y-138883658D01*
X279773604Y-138894917D01*
X280684432Y-139805745D01*
X280586422Y-139846342D01*
X280543764Y-139889000D01*
X279114506Y-139889000D01*
X278939000Y-139713494D01*
X278939000Y-139653167D01*
X278803658Y-139326422D01*
X278553578Y-139076342D01*
X278226833Y-138941000D01*
X277873167Y-138941000D01*
X277546422Y-139076342D01*
X277296342Y-139326422D01*
X277161000Y-139653167D01*
X277161000Y-140006833D01*
X277296342Y-140333578D01*
X277546422Y-140583658D01*
X277873167Y-140719000D01*
X277933494Y-140719000D01*
X278267732Y-141053238D01*
X278307398Y-141112602D01*
X278542582Y-141269747D01*
X278749974Y-141311000D01*
X278749978Y-141311000D01*
X278819999Y-141324928D01*
X278890020Y-141311000D01*
X280543764Y-141311000D01*
X280586422Y-141353658D01*
X280913167Y-141489000D01*
X281266833Y-141489000D01*
X281593578Y-141353658D01*
X281843658Y-141103578D01*
X281884255Y-141005569D01*
X283386400Y-142507715D01*
X283386401Y-143431844D01*
X283361000Y-143493167D01*
X283361000Y-143846833D01*
X283496342Y-144173578D01*
X283509164Y-144186400D01*
X276332715Y-144186400D01*
X274191559Y-142045246D01*
X274166158Y-141983922D01*
X273916078Y-141733842D01*
X273589333Y-141598500D01*
X273235667Y-141598500D01*
X272908922Y-141733842D01*
X272658842Y-141983922D01*
X272523500Y-142310667D01*
X272523500Y-142664333D01*
X272658842Y-142991078D01*
X272908922Y-143241158D01*
X272970246Y-143266559D01*
X275304202Y-145600517D01*
X275352380Y-145672620D01*
X275638040Y-145863493D01*
X275889947Y-145913600D01*
X275889951Y-145913600D01*
X275974999Y-145930517D01*
X276060047Y-145913600D01*
X283311000Y-145913600D01*
X283311000Y-145936833D01*
X283446342Y-146263578D01*
X283696422Y-146513658D01*
X283699662Y-146515000D01*
X266585000Y-146515000D01*
X266585000Y-132127000D01*
X272550000Y-132127000D01*
X272598601Y-132117333D01*
X272639803Y-132089803D01*
X272667333Y-132048601D01*
X272677000Y-132000000D01*
X272677000Y-126185000D01*
X282589495Y-126185000D01*
X282409494Y-126365001D01*
X282409494Y-126365001D01*
G37*
X282409494Y-126365001D02*
X280964020Y-126365001D01*
X280893999Y-126351073D01*
X280823978Y-126365001D01*
X280823973Y-126365001D01*
X280616581Y-126406254D01*
X280564580Y-126441000D01*
X280463167Y-126441000D01*
X280136422Y-126576342D01*
X279886342Y-126826422D01*
X279751000Y-127153167D01*
X279751000Y-127506833D01*
X279886342Y-127833578D01*
X280002764Y-127950000D01*
X279856342Y-128096422D01*
X279721000Y-128423167D01*
X279721000Y-128776833D01*
X279856342Y-129103578D01*
X280023952Y-129271188D01*
X279961000Y-129423167D01*
X279961000Y-129776833D01*
X280096342Y-130103578D01*
X280346422Y-130353658D01*
X280564554Y-130444011D01*
X281341000Y-131332986D01*
X281341000Y-131446833D01*
X281476342Y-131773578D01*
X281726422Y-132023658D01*
X282053167Y-132159000D01*
X282406833Y-132159000D01*
X282509001Y-132116681D01*
X282509001Y-132513763D01*
X282466342Y-132556422D01*
X282440942Y-132617743D01*
X278912287Y-136146400D01*
X275983600Y-136146400D01*
X275983600Y-131218154D01*
X276009000Y-131156833D01*
X276009000Y-130803167D01*
X275983600Y-130741846D01*
X275983600Y-130075047D01*
X276000517Y-129989999D01*
X275983600Y-129904951D01*
X275983600Y-129904947D01*
X275933493Y-129653040D01*
X275742620Y-129367380D01*
X275670514Y-129319200D01*
X275359059Y-129007746D01*
X275333658Y-128946422D01*
X275083578Y-128696342D01*
X274756833Y-128561000D01*
X274403167Y-128561000D01*
X274076422Y-128696342D01*
X273826342Y-128946422D01*
X273691000Y-129273167D01*
X273691000Y-129626833D01*
X273826342Y-129953578D01*
X274076422Y-130203658D01*
X274137746Y-130229059D01*
X274256400Y-130347714D01*
X274256401Y-130741844D01*
X274231000Y-130803167D01*
X274231000Y-131156833D01*
X274256400Y-131218154D01*
X274256401Y-136130534D01*
X274155250Y-136248543D01*
X274136422Y-136256342D01*
X273886342Y-136506422D01*
X273751000Y-136833167D01*
X273751000Y-137186833D01*
X273886342Y-137513578D01*
X274136422Y-137763658D01*
X274463167Y-137899000D01*
X274816833Y-137899000D01*
X274878154Y-137873600D01*
X278772287Y-137873600D01*
X279470942Y-138572256D01*
X279496342Y-138633578D01*
X279611262Y-138748498D01*
X279627380Y-138772620D01*
X279651502Y-138788738D01*
X279746422Y-138883658D01*
X279773604Y-138894917D01*
X280684432Y-139805745D01*
X280586422Y-139846342D01*
X280543764Y-139889000D01*
X279114506Y-139889000D01*
X278939000Y-139713494D01*
X278939000Y-139653167D01*
X278803658Y-139326422D01*
X278553578Y-139076342D01*
X278226833Y-138941000D01*
X277873167Y-138941000D01*
X277546422Y-139076342D01*
X277296342Y-139326422D01*
X277161000Y-139653167D01*
X277161000Y-140006833D01*
X277296342Y-140333578D01*
X277546422Y-140583658D01*
X277873167Y-140719000D01*
X277933494Y-140719000D01*
X278267732Y-141053238D01*
X278307398Y-141112602D01*
X278542582Y-141269747D01*
X278749974Y-141311000D01*
X278749978Y-141311000D01*
X278819999Y-141324928D01*
X278890020Y-141311000D01*
X280543764Y-141311000D01*
X280586422Y-141353658D01*
X280913167Y-141489000D01*
X281266833Y-141489000D01*
X281593578Y-141353658D01*
X281843658Y-141103578D01*
X281884255Y-141005569D01*
X283386400Y-142507715D01*
X283386401Y-143431844D01*
X283361000Y-143493167D01*
X283361000Y-143846833D01*
X283496342Y-144173578D01*
X283509164Y-144186400D01*
X276332715Y-144186400D01*
X274191559Y-142045246D01*
X274166158Y-141983922D01*
X273916078Y-141733842D01*
X273589333Y-141598500D01*
X273235667Y-141598500D01*
X272908922Y-141733842D01*
X272658842Y-141983922D01*
X272523500Y-142310667D01*
X272523500Y-142664333D01*
X272658842Y-142991078D01*
X272908922Y-143241158D01*
X272970246Y-143266559D01*
X275304202Y-145600517D01*
X275352380Y-145672620D01*
X275638040Y-145863493D01*
X275889947Y-145913600D01*
X275889951Y-145913600D01*
X275974999Y-145930517D01*
X276060047Y-145913600D01*
X283311000Y-145913600D01*
X283311000Y-145936833D01*
X283446342Y-146263578D01*
X283696422Y-146513658D01*
X283699662Y-146515000D01*
X266585000Y-146515000D01*
X266585000Y-132127000D01*
X272550000Y-132127000D01*
X272598601Y-132117333D01*
X272639803Y-132089803D01*
X272667333Y-132048601D01*
X272677000Y-132000000D01*
X272677000Y-126185000D01*
X282589495Y-126185000D01*
X282409494Y-126365001D01*
G36*
X313725001Y-141625262D02*
X313530213Y-141569392D01*
X312729605Y-142370000D01*
X313530213Y-143170608D01*
X313725001Y-143114738D01*
X313725001Y-143660251D01*
X313559765Y-143549843D01*
X313312000Y-143500560D01*
X313307484Y-143500560D01*
X313350608Y-143350213D01*
X312550000Y-142549605D01*
X311749392Y-143350213D01*
X311792516Y-143500560D01*
X311788000Y-143500560D01*
X311540235Y-143549843D01*
X311330191Y-143690191D01*
X311189843Y-143900235D01*
X311150000Y-144100541D01*
X311110157Y-143900235D01*
X310969809Y-143690191D01*
X310759765Y-143549843D01*
X310512000Y-143500560D01*
X310507484Y-143500560D01*
X310550608Y-143350213D01*
X309750000Y-142549605D01*
X309735858Y-142563748D01*
X309556253Y-142384143D01*
X309570395Y-142370000D01*
X309929605Y-142370000D01*
X310730213Y-143170608D01*
X310972397Y-143101143D01*
X311159144Y-142577698D01*
X311138353Y-142162302D01*
X311140856Y-142162302D01*
X311168638Y-142717368D01*
X311327603Y-143101143D01*
X311569787Y-143170608D01*
X312370395Y-142370000D01*
X311569787Y-141569392D01*
X311327603Y-141638857D01*
X311140856Y-142162302D01*
X311138353Y-142162302D01*
X311131362Y-142022632D01*
X310972397Y-141638857D01*
X310730213Y-141569392D01*
X309929605Y-142370000D01*
X309570395Y-142370000D01*
X308769787Y-141569392D01*
X308527603Y-141638857D01*
X308345106Y-142150390D01*
X306756236Y-142150390D01*
X306713578Y-142107732D01*
X306386833Y-141972390D01*
X306033167Y-141972390D01*
X305706422Y-142107732D01*
X305456342Y-142357812D01*
X305321000Y-142684557D01*
X305321000Y-143038223D01*
X305456342Y-143364968D01*
X305706422Y-143615048D01*
X306033167Y-143750390D01*
X306386833Y-143750390D01*
X306713578Y-143615048D01*
X306756236Y-143572390D01*
X308320885Y-143572390D01*
X308493539Y-143745044D01*
X308389843Y-143900235D01*
X308340560Y-144148000D01*
X308340560Y-145672000D01*
X308389843Y-145919765D01*
X308530191Y-146129809D01*
X308740235Y-146270157D01*
X308988000Y-146319440D01*
X310512000Y-146319440D01*
X310759765Y-146270157D01*
X310969809Y-146129809D01*
X311110157Y-145919765D01*
X311150000Y-145719459D01*
X311189843Y-145919765D01*
X311330191Y-146129809D01*
X311540235Y-146270157D01*
X311788000Y-146319440D01*
X313312000Y-146319440D01*
X313559765Y-146270157D01*
X313725001Y-146159749D01*
X313725001Y-146515000D01*
X284700338Y-146515000D01*
X284703578Y-146513658D01*
X284746236Y-146471000D01*
X305699979Y-146471000D01*
X305770000Y-146484928D01*
X305840021Y-146471000D01*
X305840026Y-146471000D01*
X306047418Y-146429747D01*
X306282602Y-146272602D01*
X306322269Y-146213236D01*
X307136506Y-145399000D01*
X307196833Y-145399000D01*
X307523578Y-145263658D01*
X307773658Y-145013578D01*
X307909000Y-144686833D01*
X307909000Y-144333167D01*
X307773658Y-144006422D01*
X307523578Y-143756342D01*
X307196833Y-143621000D01*
X306843167Y-143621000D01*
X306516422Y-143756342D01*
X306266342Y-144006422D01*
X306131000Y-144333167D01*
X306131000Y-144393494D01*
X305475495Y-145049000D01*
X290789000Y-145049000D01*
X290789000Y-144873167D01*
X290653658Y-144546422D01*
X290403578Y-144296342D01*
X290076833Y-144161000D01*
X289723167Y-144161000D01*
X289661846Y-144186400D01*
X284990836Y-144186400D01*
X285003658Y-144173578D01*
X285139000Y-143846833D01*
X285139000Y-143493167D01*
X285113600Y-143431846D01*
X285113600Y-142235047D01*
X285130517Y-142149999D01*
X285113600Y-142064951D01*
X285113600Y-142064947D01*
X285063493Y-141813040D01*
X284872620Y-141527380D01*
X284800517Y-141479203D01*
X281043201Y-137721888D01*
X281003658Y-137626422D01*
X280753578Y-137376342D01*
X280692256Y-137350942D01*
X280421314Y-137080000D01*
X283662257Y-133839058D01*
X283723578Y-133813658D01*
X283973658Y-133563578D01*
X284109000Y-133236833D01*
X284109000Y-132883167D01*
X283973658Y-132556422D01*
X283931000Y-132513764D01*
X283931000Y-129064505D01*
X284019001Y-128976505D01*
X284019001Y-129619975D01*
X284005072Y-129690000D01*
X284060254Y-129967418D01*
X284177732Y-130143237D01*
X284177734Y-130143239D01*
X284217399Y-130202602D01*
X284276762Y-130242267D01*
X298221000Y-144186506D01*
X298221000Y-144246833D01*
X298356342Y-144573578D01*
X298606422Y-144823658D01*
X298933167Y-144959000D01*
X299286833Y-144959000D01*
X299613578Y-144823658D01*
X299863658Y-144573578D01*
X299999000Y-144246833D01*
X299999000Y-143893167D01*
X299863658Y-143566422D01*
X299613578Y-143316342D01*
X299286833Y-143181000D01*
X299226506Y-143181000D01*
X296548673Y-140503167D01*
X301431000Y-140503167D01*
X301431000Y-140856833D01*
X301566342Y-141183578D01*
X301816422Y-141433658D01*
X302143167Y-141569000D01*
X302189000Y-141569000D01*
X302189001Y-143553763D01*
X302146342Y-143596422D01*
X302011000Y-143923167D01*
X302011000Y-144276833D01*
X302146342Y-144603578D01*
X302396422Y-144853658D01*
X302723167Y-144989000D01*
X303076833Y-144989000D01*
X303403578Y-144853658D01*
X303653658Y-144603578D01*
X303789000Y-144276833D01*
X303789000Y-143923167D01*
X303653658Y-143596422D01*
X303611000Y-143553764D01*
X303611000Y-141389787D01*
X308949392Y-141389787D01*
X309750000Y-142190395D01*
X310550608Y-141389787D01*
X311749392Y-141389787D01*
X312550000Y-142190395D01*
X313350608Y-141389787D01*
X313281143Y-141147603D01*
X312757698Y-140960856D01*
X312202632Y-140988638D01*
X311818857Y-141147603D01*
X311749392Y-141389787D01*
X310550608Y-141389787D01*
X310481143Y-141147603D01*
X309957698Y-140960856D01*
X309402632Y-140988638D01*
X309018857Y-141147603D01*
X308949392Y-141389787D01*
X303611000Y-141389787D01*
X303611000Y-141330021D01*
X303624928Y-141260000D01*
X303611000Y-141189979D01*
X303611000Y-141189974D01*
X303569747Y-140982582D01*
X303412601Y-140747398D01*
X303353238Y-140707733D01*
X303209000Y-140563495D01*
X303209000Y-140503167D01*
X303073658Y-140176422D01*
X302823578Y-139926342D01*
X302496833Y-139791000D01*
X302143167Y-139791000D01*
X301816422Y-139926342D01*
X301566342Y-140176422D01*
X301431000Y-140503167D01*
X296548673Y-140503167D01*
X286638673Y-130593167D01*
X295861000Y-130593167D01*
X295861000Y-130946833D01*
X295996342Y-131273578D01*
X296246422Y-131523658D01*
X296573167Y-131659000D01*
X296633495Y-131659000D01*
X304327733Y-139353239D01*
X304367398Y-139412602D01*
X304602582Y-139569747D01*
X304809974Y-139611000D01*
X304809978Y-139611000D01*
X304879999Y-139624928D01*
X304950020Y-139611000D01*
X306772403Y-139611000D01*
X306805680Y-139691337D01*
X307198663Y-140084320D01*
X307712119Y-140297000D01*
X308267881Y-140297000D01*
X308781337Y-140084320D01*
X309134347Y-139731310D01*
X309169843Y-139909765D01*
X309310191Y-140119809D01*
X309520235Y-140260157D01*
X309768000Y-140309440D01*
X311292000Y-140309440D01*
X311539765Y-140260157D01*
X311749809Y-140119809D01*
X311890157Y-139909765D01*
X311939440Y-139662000D01*
X311939440Y-138138000D01*
X311890157Y-137890235D01*
X311749809Y-137680191D01*
X311539765Y-137539843D01*
X311292000Y-137490560D01*
X311261605Y-137490560D01*
X311650625Y-137230625D01*
X311978839Y-136739418D01*
X312094092Y-136160000D01*
X311978839Y-135580582D01*
X311650625Y-135089375D01*
X311352239Y-134890000D01*
X311650625Y-134690625D01*
X311978839Y-134199418D01*
X312094092Y-133620000D01*
X311978839Y-133040582D01*
X311650625Y-132549375D01*
X311352239Y-132350000D01*
X311650625Y-132150625D01*
X311978839Y-131659418D01*
X312094092Y-131080000D01*
X311978839Y-130500582D01*
X311650625Y-130009375D01*
X311352239Y-129810000D01*
X311650625Y-129610625D01*
X311978839Y-129119418D01*
X312094092Y-128540000D01*
X311978839Y-127960582D01*
X311650625Y-127469375D01*
X311159418Y-127141161D01*
X310726256Y-127055000D01*
X310433744Y-127055000D01*
X310000582Y-127141161D01*
X309509375Y-127469375D01*
X309497184Y-127487619D01*
X309488157Y-127442235D01*
X309347809Y-127232191D01*
X309137765Y-127091843D01*
X308890000Y-127042560D01*
X307190000Y-127042560D01*
X306942235Y-127091843D01*
X306732191Y-127232191D01*
X306591843Y-127442235D01*
X306542560Y-127690000D01*
X306542560Y-129390000D01*
X306591843Y-129637765D01*
X306732191Y-129847809D01*
X306942235Y-129988157D01*
X306987619Y-129997184D01*
X306969375Y-130009375D01*
X306641161Y-130500582D01*
X306525908Y-131080000D01*
X306641161Y-131659418D01*
X306969375Y-132150625D01*
X307267761Y-132350000D01*
X306969375Y-132549375D01*
X306641161Y-133040582D01*
X306525908Y-133620000D01*
X306641161Y-134199418D01*
X306969375Y-134690625D01*
X307267761Y-134890000D01*
X306969375Y-135089375D01*
X306641161Y-135580582D01*
X306525908Y-136160000D01*
X306641161Y-136739418D01*
X306969375Y-137230625D01*
X307460582Y-137558839D01*
X307539442Y-137574525D01*
X307198663Y-137715680D01*
X306805680Y-138108663D01*
X306772403Y-138189000D01*
X305174506Y-138189000D01*
X297639000Y-130653495D01*
X297639000Y-130593167D01*
X297503658Y-130266422D01*
X297253578Y-130016342D01*
X296926833Y-129881000D01*
X296573167Y-129881000D01*
X296246422Y-130016342D01*
X295996342Y-130266422D01*
X295861000Y-130593167D01*
X286638673Y-130593167D01*
X285441000Y-129395495D01*
X285441000Y-127806236D01*
X285483658Y-127763578D01*
X285597558Y-127488599D01*
X296403094Y-127488599D01*
X297767733Y-128853239D01*
X297807398Y-128912602D01*
X298042582Y-129069747D01*
X298249974Y-129111000D01*
X298249978Y-129111000D01*
X298319999Y-129124928D01*
X298390020Y-129111000D01*
X299325979Y-129111000D01*
X299396000Y-129124928D01*
X299466021Y-129111000D01*
X299466026Y-129111000D01*
X299673418Y-129069747D01*
X299908602Y-128912602D01*
X299948269Y-128853236D01*
X300615044Y-128186461D01*
X300770235Y-128290157D01*
X301018000Y-128339440D01*
X302542000Y-128339440D01*
X302789765Y-128290157D01*
X302999809Y-128149809D01*
X303140157Y-127939765D01*
X303189440Y-127692000D01*
X303189440Y-126185000D01*
X313725000Y-126185000D01*
X313725001Y-141625262D01*
X313725001Y-141625262D01*
G37*
X313725001Y-141625262D02*
X313530213Y-141569392D01*
X312729605Y-142370000D01*
X313530213Y-143170608D01*
X313725001Y-143114738D01*
X313725001Y-143660251D01*
X313559765Y-143549843D01*
X313312000Y-143500560D01*
X313307484Y-143500560D01*
X313350608Y-143350213D01*
X312550000Y-142549605D01*
X311749392Y-143350213D01*
X311792516Y-143500560D01*
X311788000Y-143500560D01*
X311540235Y-143549843D01*
X311330191Y-143690191D01*
X311189843Y-143900235D01*
X311150000Y-144100541D01*
X311110157Y-143900235D01*
X310969809Y-143690191D01*
X310759765Y-143549843D01*
X310512000Y-143500560D01*
X310507484Y-143500560D01*
X310550608Y-143350213D01*
X309750000Y-142549605D01*
X309735858Y-142563748D01*
X309556253Y-142384143D01*
X309570395Y-142370000D01*
X309929605Y-142370000D01*
X310730213Y-143170608D01*
X310972397Y-143101143D01*
X311159144Y-142577698D01*
X311138353Y-142162302D01*
X311140856Y-142162302D01*
X311168638Y-142717368D01*
X311327603Y-143101143D01*
X311569787Y-143170608D01*
X312370395Y-142370000D01*
X311569787Y-141569392D01*
X311327603Y-141638857D01*
X311140856Y-142162302D01*
X311138353Y-142162302D01*
X311131362Y-142022632D01*
X310972397Y-141638857D01*
X310730213Y-141569392D01*
X309929605Y-142370000D01*
X309570395Y-142370000D01*
X308769787Y-141569392D01*
X308527603Y-141638857D01*
X308345106Y-142150390D01*
X306756236Y-142150390D01*
X306713578Y-142107732D01*
X306386833Y-141972390D01*
X306033167Y-141972390D01*
X305706422Y-142107732D01*
X305456342Y-142357812D01*
X305321000Y-142684557D01*
X305321000Y-143038223D01*
X305456342Y-143364968D01*
X305706422Y-143615048D01*
X306033167Y-143750390D01*
X306386833Y-143750390D01*
X306713578Y-143615048D01*
X306756236Y-143572390D01*
X308320885Y-143572390D01*
X308493539Y-143745044D01*
X308389843Y-143900235D01*
X308340560Y-144148000D01*
X308340560Y-145672000D01*
X308389843Y-145919765D01*
X308530191Y-146129809D01*
X308740235Y-146270157D01*
X308988000Y-146319440D01*
X310512000Y-146319440D01*
X310759765Y-146270157D01*
X310969809Y-146129809D01*
X311110157Y-145919765D01*
X311150000Y-145719459D01*
X311189843Y-145919765D01*
X311330191Y-146129809D01*
X311540235Y-146270157D01*
X311788000Y-146319440D01*
X313312000Y-146319440D01*
X313559765Y-146270157D01*
X313725001Y-146159749D01*
X313725001Y-146515000D01*
X284700338Y-146515000D01*
X284703578Y-146513658D01*
X284746236Y-146471000D01*
X305699979Y-146471000D01*
X305770000Y-146484928D01*
X305840021Y-146471000D01*
X305840026Y-146471000D01*
X306047418Y-146429747D01*
X306282602Y-146272602D01*
X306322269Y-146213236D01*
X307136506Y-145399000D01*
X307196833Y-145399000D01*
X307523578Y-145263658D01*
X307773658Y-145013578D01*
X307909000Y-144686833D01*
X307909000Y-144333167D01*
X307773658Y-144006422D01*
X307523578Y-143756342D01*
X307196833Y-143621000D01*
X306843167Y-143621000D01*
X306516422Y-143756342D01*
X306266342Y-144006422D01*
X306131000Y-144333167D01*
X306131000Y-144393494D01*
X305475495Y-145049000D01*
X290789000Y-145049000D01*
X290789000Y-144873167D01*
X290653658Y-144546422D01*
X290403578Y-144296342D01*
X290076833Y-144161000D01*
X289723167Y-144161000D01*
X289661846Y-144186400D01*
X284990836Y-144186400D01*
X285003658Y-144173578D01*
X285139000Y-143846833D01*
X285139000Y-143493167D01*
X285113600Y-143431846D01*
X285113600Y-142235047D01*
X285130517Y-142149999D01*
X285113600Y-142064951D01*
X285113600Y-142064947D01*
X285063493Y-141813040D01*
X284872620Y-141527380D01*
X284800517Y-141479203D01*
X281043201Y-137721888D01*
X281003658Y-137626422D01*
X280753578Y-137376342D01*
X280692256Y-137350942D01*
X280421314Y-137080000D01*
X283662257Y-133839058D01*
X283723578Y-133813658D01*
X283973658Y-133563578D01*
X284109000Y-133236833D01*
X284109000Y-132883167D01*
X283973658Y-132556422D01*
X283931000Y-132513764D01*
X283931000Y-129064505D01*
X284019001Y-128976505D01*
X284019001Y-129619975D01*
X284005072Y-129690000D01*
X284060254Y-129967418D01*
X284177732Y-130143237D01*
X284177734Y-130143239D01*
X284217399Y-130202602D01*
X284276762Y-130242267D01*
X298221000Y-144186506D01*
X298221000Y-144246833D01*
X298356342Y-144573578D01*
X298606422Y-144823658D01*
X298933167Y-144959000D01*
X299286833Y-144959000D01*
X299613578Y-144823658D01*
X299863658Y-144573578D01*
X299999000Y-144246833D01*
X299999000Y-143893167D01*
X299863658Y-143566422D01*
X299613578Y-143316342D01*
X299286833Y-143181000D01*
X299226506Y-143181000D01*
X296548673Y-140503167D01*
X301431000Y-140503167D01*
X301431000Y-140856833D01*
X301566342Y-141183578D01*
X301816422Y-141433658D01*
X302143167Y-141569000D01*
X302189000Y-141569000D01*
X302189001Y-143553763D01*
X302146342Y-143596422D01*
X302011000Y-143923167D01*
X302011000Y-144276833D01*
X302146342Y-144603578D01*
X302396422Y-144853658D01*
X302723167Y-144989000D01*
X303076833Y-144989000D01*
X303403578Y-144853658D01*
X303653658Y-144603578D01*
X303789000Y-144276833D01*
X303789000Y-143923167D01*
X303653658Y-143596422D01*
X303611000Y-143553764D01*
X303611000Y-141389787D01*
X308949392Y-141389787D01*
X309750000Y-142190395D01*
X310550608Y-141389787D01*
X311749392Y-141389787D01*
X312550000Y-142190395D01*
X313350608Y-141389787D01*
X313281143Y-141147603D01*
X312757698Y-140960856D01*
X312202632Y-140988638D01*
X311818857Y-141147603D01*
X311749392Y-141389787D01*
X310550608Y-141389787D01*
X310481143Y-141147603D01*
X309957698Y-140960856D01*
X309402632Y-140988638D01*
X309018857Y-141147603D01*
X308949392Y-141389787D01*
X303611000Y-141389787D01*
X303611000Y-141330021D01*
X303624928Y-141260000D01*
X303611000Y-141189979D01*
X303611000Y-141189974D01*
X303569747Y-140982582D01*
X303412601Y-140747398D01*
X303353238Y-140707733D01*
X303209000Y-140563495D01*
X303209000Y-140503167D01*
X303073658Y-140176422D01*
X302823578Y-139926342D01*
X302496833Y-139791000D01*
X302143167Y-139791000D01*
X301816422Y-139926342D01*
X301566342Y-140176422D01*
X301431000Y-140503167D01*
X296548673Y-140503167D01*
X286638673Y-130593167D01*
X295861000Y-130593167D01*
X295861000Y-130946833D01*
X295996342Y-131273578D01*
X296246422Y-131523658D01*
X296573167Y-131659000D01*
X296633495Y-131659000D01*
X304327733Y-139353239D01*
X304367398Y-139412602D01*
X304602582Y-139569747D01*
X304809974Y-139611000D01*
X304809978Y-139611000D01*
X304879999Y-139624928D01*
X304950020Y-139611000D01*
X306772403Y-139611000D01*
X306805680Y-139691337D01*
X307198663Y-140084320D01*
X307712119Y-140297000D01*
X308267881Y-140297000D01*
X308781337Y-140084320D01*
X309134347Y-139731310D01*
X309169843Y-139909765D01*
X309310191Y-140119809D01*
X309520235Y-140260157D01*
X309768000Y-140309440D01*
X311292000Y-140309440D01*
X311539765Y-140260157D01*
X311749809Y-140119809D01*
X311890157Y-139909765D01*
X311939440Y-139662000D01*
X311939440Y-138138000D01*
X311890157Y-137890235D01*
X311749809Y-137680191D01*
X311539765Y-137539843D01*
X311292000Y-137490560D01*
X311261605Y-137490560D01*
X311650625Y-137230625D01*
X311978839Y-136739418D01*
X312094092Y-136160000D01*
X311978839Y-135580582D01*
X311650625Y-135089375D01*
X311352239Y-134890000D01*
X311650625Y-134690625D01*
X311978839Y-134199418D01*
X312094092Y-133620000D01*
X311978839Y-133040582D01*
X311650625Y-132549375D01*
X311352239Y-132350000D01*
X311650625Y-132150625D01*
X311978839Y-131659418D01*
X312094092Y-131080000D01*
X311978839Y-130500582D01*
X311650625Y-130009375D01*
X311352239Y-129810000D01*
X311650625Y-129610625D01*
X311978839Y-129119418D01*
X312094092Y-128540000D01*
X311978839Y-127960582D01*
X311650625Y-127469375D01*
X311159418Y-127141161D01*
X310726256Y-127055000D01*
X310433744Y-127055000D01*
X310000582Y-127141161D01*
X309509375Y-127469375D01*
X309497184Y-127487619D01*
X309488157Y-127442235D01*
X309347809Y-127232191D01*
X309137765Y-127091843D01*
X308890000Y-127042560D01*
X307190000Y-127042560D01*
X306942235Y-127091843D01*
X306732191Y-127232191D01*
X306591843Y-127442235D01*
X306542560Y-127690000D01*
X306542560Y-129390000D01*
X306591843Y-129637765D01*
X306732191Y-129847809D01*
X306942235Y-129988157D01*
X306987619Y-129997184D01*
X306969375Y-130009375D01*
X306641161Y-130500582D01*
X306525908Y-131080000D01*
X306641161Y-131659418D01*
X306969375Y-132150625D01*
X307267761Y-132350000D01*
X306969375Y-132549375D01*
X306641161Y-133040582D01*
X306525908Y-133620000D01*
X306641161Y-134199418D01*
X306969375Y-134690625D01*
X307267761Y-134890000D01*
X306969375Y-135089375D01*
X306641161Y-135580582D01*
X306525908Y-136160000D01*
X306641161Y-136739418D01*
X306969375Y-137230625D01*
X307460582Y-137558839D01*
X307539442Y-137574525D01*
X307198663Y-137715680D01*
X306805680Y-138108663D01*
X306772403Y-138189000D01*
X305174506Y-138189000D01*
X297639000Y-130653495D01*
X297639000Y-130593167D01*
X297503658Y-130266422D01*
X297253578Y-130016342D01*
X296926833Y-129881000D01*
X296573167Y-129881000D01*
X296246422Y-130016342D01*
X295996342Y-130266422D01*
X295861000Y-130593167D01*
X286638673Y-130593167D01*
X285441000Y-129395495D01*
X285441000Y-127806236D01*
X285483658Y-127763578D01*
X285597558Y-127488599D01*
X296403094Y-127488599D01*
X297767733Y-128853239D01*
X297807398Y-128912602D01*
X298042582Y-129069747D01*
X298249974Y-129111000D01*
X298249978Y-129111000D01*
X298319999Y-129124928D01*
X298390020Y-129111000D01*
X299325979Y-129111000D01*
X299396000Y-129124928D01*
X299466021Y-129111000D01*
X299466026Y-129111000D01*
X299673418Y-129069747D01*
X299908602Y-128912602D01*
X299948269Y-128853236D01*
X300615044Y-128186461D01*
X300770235Y-128290157D01*
X301018000Y-128339440D01*
X302542000Y-128339440D01*
X302789765Y-128290157D01*
X302999809Y-128149809D01*
X303140157Y-127939765D01*
X303189440Y-127692000D01*
X303189440Y-126185000D01*
X313725000Y-126185000D01*
X313725001Y-141625262D01*
G04 #@! TD*
M02*
